G04 #@! TF.GenerationSoftware,KiCad,Pcbnew,(5.0.0-rc2-dev-319-g0ded476)*
G04 #@! TF.CreationDate,2018-06-21T17:56:24-07:00*
G04 #@! TF.ProjectId,paranoids-hackme-1,706172616E6F6964732D6861636B6D65,A*
G04 #@! TF.SameCoordinates,Original*
G04 #@! TF.FileFunction,Copper,L2,Bot,Signal*
G04 #@! TF.FilePolarity,Positive*
%FSLAX46Y46*%
G04 Gerber Fmt 4.6, Leading zero omitted, Abs format (unit mm)*
G04 Created by KiCad (PCBNEW (5.0.0-rc2-dev-319-g0ded476)) date Thursday, June 21, 2018 at 05:56:24 PM*
%MOMM*%
%LPD*%
G01*
G04 APERTURE LIST*
%ADD10C,0.254000*%
%ADD11C,1.524000*%
%ADD12C,2.000000*%
%ADD13C,0.685800*%
%ADD14C,0.635000*%
%ADD15C,0.609600*%
%ADD16C,0.381000*%
%ADD17C,0.152400*%
G04 APERTURE END LIST*
D10*
X113836147Y-115630476D02*
X113775671Y-115570000D01*
X113654719Y-115509523D01*
X113352338Y-115509523D01*
X113231385Y-115570000D01*
X113170909Y-115630476D01*
X113110433Y-115751428D01*
X113110433Y-115872380D01*
X113170909Y-116053809D01*
X113896623Y-116779523D01*
X113110433Y-116779523D01*
X112324242Y-115509523D02*
X112203290Y-115509523D01*
X112082338Y-115570000D01*
X112021861Y-115630476D01*
X111961385Y-115751428D01*
X111900909Y-115993333D01*
X111900909Y-116295714D01*
X111961385Y-116537619D01*
X112021861Y-116658571D01*
X112082338Y-116719047D01*
X112203290Y-116779523D01*
X112324242Y-116779523D01*
X112445195Y-116719047D01*
X112505671Y-116658571D01*
X112566147Y-116537619D01*
X112626623Y-116295714D01*
X112626623Y-115993333D01*
X112566147Y-115751428D01*
X112505671Y-115630476D01*
X112445195Y-115570000D01*
X112324242Y-115509523D01*
X110691385Y-116779523D02*
X111417100Y-116779523D01*
X111054242Y-116779523D02*
X111054242Y-115509523D01*
X111175195Y-115690952D01*
X111296147Y-115811904D01*
X111417100Y-115872380D01*
X109965671Y-116053809D02*
X110086623Y-115993333D01*
X110147100Y-115932857D01*
X110207576Y-115811904D01*
X110207576Y-115751428D01*
X110147100Y-115630476D01*
X110086623Y-115570000D01*
X109965671Y-115509523D01*
X109723766Y-115509523D01*
X109602814Y-115570000D01*
X109542338Y-115630476D01*
X109481861Y-115751428D01*
X109481861Y-115811904D01*
X109542338Y-115932857D01*
X109602814Y-115993333D01*
X109723766Y-116053809D01*
X109965671Y-116053809D01*
X110086623Y-116114285D01*
X110147100Y-116174761D01*
X110207576Y-116295714D01*
X110207576Y-116537619D01*
X110147100Y-116658571D01*
X110086623Y-116719047D01*
X109965671Y-116779523D01*
X109723766Y-116779523D01*
X109602814Y-116719047D01*
X109542338Y-116658571D01*
X109481861Y-116537619D01*
X109481861Y-116295714D01*
X109542338Y-116174761D01*
X109602814Y-116114285D01*
X109723766Y-116053809D01*
X108937576Y-116295714D02*
X107969957Y-116295714D01*
X107123290Y-115509523D02*
X107002338Y-115509523D01*
X106881385Y-115570000D01*
X106820909Y-115630476D01*
X106760433Y-115751428D01*
X106699957Y-115993333D01*
X106699957Y-116295714D01*
X106760433Y-116537619D01*
X106820909Y-116658571D01*
X106881385Y-116719047D01*
X107002338Y-116779523D01*
X107123290Y-116779523D01*
X107244242Y-116719047D01*
X107304719Y-116658571D01*
X107365195Y-116537619D01*
X107425671Y-116295714D01*
X107425671Y-115993333D01*
X107365195Y-115751428D01*
X107304719Y-115630476D01*
X107244242Y-115570000D01*
X107123290Y-115509523D01*
X105611385Y-115509523D02*
X105853290Y-115509523D01*
X105974242Y-115570000D01*
X106034719Y-115630476D01*
X106155671Y-115811904D01*
X106216147Y-116053809D01*
X106216147Y-116537619D01*
X106155671Y-116658571D01*
X106095195Y-116719047D01*
X105974242Y-116779523D01*
X105732338Y-116779523D01*
X105611385Y-116719047D01*
X105550909Y-116658571D01*
X105490433Y-116537619D01*
X105490433Y-116235238D01*
X105550909Y-116114285D01*
X105611385Y-116053809D01*
X105732338Y-115993333D01*
X105974242Y-115993333D01*
X106095195Y-116053809D01*
X106155671Y-116114285D01*
X106216147Y-116235238D01*
X104946147Y-116295714D02*
X103978528Y-116295714D01*
X103434242Y-115630476D02*
X103373766Y-115570000D01*
X103252814Y-115509523D01*
X102950433Y-115509523D01*
X102829480Y-115570000D01*
X102769004Y-115630476D01*
X102708528Y-115751428D01*
X102708528Y-115872380D01*
X102769004Y-116053809D01*
X103494719Y-116779523D01*
X102708528Y-116779523D01*
X101499004Y-116779523D02*
X102224719Y-116779523D01*
X101861861Y-116779523D02*
X101861861Y-115509523D01*
X101982814Y-115690952D01*
X102103766Y-115811904D01*
X102224719Y-115872380D01*
D11*
X166243000Y-57531000D03*
X166243000Y-54991000D03*
X133350000Y-39370000D03*
X133350000Y-41910000D03*
X133350000Y-44450000D03*
X133350000Y-46990000D03*
X133350000Y-49530000D03*
X133350000Y-52070000D03*
X133350000Y-54610000D03*
X200660000Y-60325000D03*
X200660000Y-62865000D03*
X200660000Y-65405000D03*
X200660000Y-67945000D03*
X200660000Y-70485000D03*
X200660000Y-73025000D03*
X189230000Y-107950000D03*
X191770000Y-107950000D03*
X195580000Y-57785000D03*
X195580000Y-60325000D03*
X195580000Y-62865000D03*
X195580000Y-65405000D03*
X195580000Y-67945000D03*
X195580000Y-70485000D03*
X195580000Y-73025000D03*
X177800000Y-83185000D03*
X175260000Y-83185000D03*
X172720000Y-83185000D03*
X187960000Y-83185000D03*
X185420000Y-83185000D03*
X182880000Y-83185000D03*
X188595000Y-76835000D03*
X186055000Y-76835000D03*
X183515000Y-76835000D03*
X180975000Y-76835000D03*
X133350000Y-86360000D03*
X133350000Y-83820000D03*
X133350000Y-81280000D03*
X133350000Y-78740000D03*
X157480000Y-86360000D03*
X157480000Y-83820000D03*
X157480000Y-81280000D03*
X157480000Y-78740000D03*
X200660000Y-42545000D03*
X200660000Y-45085000D03*
X200660000Y-47625000D03*
X200660000Y-50165000D03*
X200660000Y-52705000D03*
X200660000Y-55245000D03*
X104140000Y-65405000D03*
X104140000Y-67945000D03*
X104140000Y-70485000D03*
X104140000Y-73025000D03*
X104140000Y-75565000D03*
X104140000Y-78105000D03*
X175895000Y-102235000D03*
X175895000Y-99695000D03*
X175895000Y-97155000D03*
X175895000Y-94615000D03*
X175895000Y-92075000D03*
X175895000Y-89535000D03*
X157480000Y-41910000D03*
X157480000Y-44450000D03*
X157480000Y-46990000D03*
X157480000Y-49530000D03*
X157480000Y-52070000D03*
X157480000Y-54610000D03*
X214630000Y-102235000D03*
X214630000Y-99695000D03*
X214630000Y-97155000D03*
X214630000Y-94615000D03*
X214630000Y-92075000D03*
X214630000Y-89535000D03*
D12*
X217245000Y-57785000D03*
X210745000Y-57785000D03*
X114990000Y-81150000D03*
X114990000Y-76650000D03*
X121490000Y-81150000D03*
X121490000Y-76650000D03*
D11*
X172720000Y-105410000D03*
X175260000Y-105410000D03*
X175260000Y-107950000D03*
X172720000Y-107950000D03*
X180340000Y-107950000D03*
X182880000Y-107950000D03*
X185420000Y-107950000D03*
X185420000Y-105410000D03*
X182880000Y-105410000D03*
X180340000Y-105410000D03*
X177800000Y-107950000D03*
X177800000Y-105410000D03*
X195580000Y-105410000D03*
X198120000Y-105410000D03*
X198120000Y-107950000D03*
X195580000Y-107950000D03*
X203200000Y-107950000D03*
X205740000Y-107950000D03*
X208280000Y-107950000D03*
X208280000Y-105410000D03*
X205740000Y-105410000D03*
X203200000Y-105410000D03*
X200660000Y-107950000D03*
X200660000Y-105410000D03*
D13*
X222885000Y-46990000D03*
X208280000Y-31750000D03*
X188595000Y-31750000D03*
X173355000Y-31750000D03*
X219202000Y-41148000D03*
D14*
X183642010Y-39624000D03*
D13*
X188976000Y-58420000D03*
X190119000Y-41529000D03*
X186182000Y-36830000D03*
X164465000Y-55371994D03*
X144526000Y-63373000D03*
X156083000Y-67437000D03*
X146939000Y-59055000D03*
X155574982Y-59690000D03*
X169037000Y-56134000D03*
X191897000Y-49784000D03*
X192024000Y-52692501D03*
X164084000Y-43688000D03*
X123063004Y-40005000D03*
X106299000Y-59436024D03*
X106299000Y-57658008D03*
X106299000Y-53213000D03*
X106553000Y-49530000D03*
X109728000Y-49530000D03*
X126365000Y-51434989D03*
X146685000Y-73025000D03*
X114935000Y-61595000D03*
X139065000Y-66040000D03*
X128905000Y-66040000D03*
X128905000Y-74295000D03*
X139065000Y-74295000D03*
X139065000Y-57785000D03*
X179070000Y-73660000D03*
X187325000Y-73660000D03*
X170815000Y-73660000D03*
X187325000Y-69215000D03*
X170815000Y-69215000D03*
X170815000Y-65405000D03*
X177165000Y-65405000D03*
X180340000Y-65405000D03*
X187325000Y-65405000D03*
X180974984Y-63500000D03*
D15*
X179070000Y-36830000D03*
D13*
X177800000Y-42545000D03*
X186690000Y-34290000D03*
X177165000Y-36830000D03*
X212725000Y-72390000D03*
X200025000Y-86360000D03*
X202565000Y-88265000D03*
X201295000Y-82550000D03*
X185420000Y-92710000D03*
X194945000Y-102235000D03*
X203200000Y-96520000D03*
X197485000Y-79375000D03*
X123825000Y-68580000D03*
X122555000Y-67945000D03*
X132080000Y-58420000D03*
D14*
X120650000Y-50800000D03*
D13*
X114300000Y-51435000D03*
X209042000Y-32766000D03*
X192913000Y-58039000D03*
D15*
X180316930Y-55369832D03*
X179832000Y-56896000D03*
X176530000Y-56642000D03*
X183134000Y-44704000D03*
X181102000Y-56896000D03*
X180974990Y-62180840D03*
X185674000Y-62738000D03*
X183642000Y-55625996D03*
X191516214Y-56946811D03*
X192213252Y-56499832D03*
X191770000Y-55626000D03*
X191015959Y-55516073D03*
X177291976Y-50038000D03*
X178053987Y-50037994D03*
X178816002Y-50038000D03*
X179578000Y-49784000D03*
X168910000Y-59182000D03*
X181356000Y-53593996D03*
X192532000Y-63246000D03*
X182626000Y-46253410D03*
X158242000Y-60960000D03*
X151130000Y-61722000D03*
X207518000Y-42418000D03*
X197358000Y-38608000D03*
X207518000Y-43688000D03*
X196342000Y-38608000D03*
X179692290Y-43303187D03*
X178815992Y-41656000D03*
X197866000Y-36067998D03*
X176453809Y-49911000D03*
X198374012Y-38608000D03*
X199390000Y-38607966D03*
X201675938Y-38597399D03*
X200660000Y-39116000D03*
X173228000Y-46482000D03*
X191516000Y-61214000D03*
X120142000Y-57912000D03*
X120026689Y-57116703D03*
X137414000Y-56159410D03*
X139954000Y-55854590D03*
X120904000Y-55880000D03*
X185420000Y-43180000D03*
X190499990Y-90932000D03*
X191262000Y-91948000D03*
X184683410Y-98044000D03*
X184658000Y-100330000D03*
X185674000Y-99821996D03*
X187325000Y-97790000D03*
X120396000Y-59690000D03*
X120650000Y-58674000D03*
X130556000Y-53594000D03*
X129540000Y-53594000D03*
D13*
X191262000Y-48006000D03*
X154305000Y-45720000D03*
X189865000Y-72390000D03*
X219075000Y-38735000D03*
X221615000Y-46990000D03*
X188595000Y-33020000D03*
X173355000Y-33020000D03*
X104140000Y-39370000D03*
X104140000Y-41910000D03*
D15*
X181610000Y-61595000D03*
X183378959Y-58331473D03*
X184643907Y-63469643D03*
X186055000Y-63500000D03*
X164846000Y-64135000D03*
X164084000Y-63500000D03*
X203454000Y-67818000D03*
X203454000Y-62992000D03*
X166370000Y-59055000D03*
X167132000Y-59055016D03*
X167894004Y-59055000D03*
X189865000Y-59309000D03*
X181610000Y-49530000D03*
X161798000Y-56134000D03*
X163957000Y-54356000D03*
X164465000Y-45085000D03*
X174625000Y-47371000D03*
X173863000Y-47117000D03*
X207518000Y-34290000D03*
X207517992Y-35560000D03*
X207518000Y-38100000D03*
X207518000Y-36830010D03*
X190243434Y-60096407D03*
X171704000Y-54864000D03*
D13*
X207264000Y-97028000D03*
X208280000Y-88265000D03*
D15*
X143002000Y-56134000D03*
X168656000Y-62103000D03*
X151765000Y-65405000D03*
X190500000Y-85090000D03*
X191746250Y-85748750D03*
X126365000Y-55245000D03*
X138453757Y-55903757D03*
X193675000Y-96520000D03*
X197612000Y-102108000D03*
X198627988Y-102108000D03*
X201168000Y-102108000D03*
X202692000Y-102108000D03*
X196215000Y-84582000D03*
X196723000Y-89408000D03*
X190246000Y-62738000D03*
X190246000Y-93725992D03*
X186690000Y-95250000D03*
X186182000Y-96520000D03*
X186690000Y-97155000D03*
X202692000Y-98044000D03*
X196596000Y-92202000D03*
X114935000Y-59054992D03*
X116205000Y-57785000D03*
X118364000Y-55118000D03*
X115570000Y-66040000D03*
X123190007Y-60960007D03*
X136398000Y-41910000D03*
X129413000Y-46736000D03*
X136398000Y-44450004D03*
X129540000Y-48895000D03*
X136398000Y-46990000D03*
X136398000Y-49530000D03*
X136398000Y-52070000D03*
X113665000Y-66040000D03*
D16*
X220345000Y-31750000D02*
X222885000Y-34290000D01*
X222885000Y-34290000D02*
X222885000Y-46990000D01*
X208280000Y-31750000D02*
X220345000Y-31750000D01*
X173355000Y-31750000D02*
X188595000Y-31750000D01*
D10*
X128905000Y-74295000D02*
X128905000Y-66040000D01*
X139065000Y-57785000D02*
X139065000Y-74295000D01*
X187325000Y-73660000D02*
X187325000Y-69215000D01*
X172085000Y-72390000D02*
X170815000Y-73660000D01*
X179070000Y-72390000D02*
X172085000Y-72390000D01*
X187325000Y-69215000D02*
X187325000Y-65405000D01*
X170815000Y-69215000D02*
X187325000Y-69215000D01*
X180340000Y-65405000D02*
X177165000Y-65405000D01*
D16*
X209042000Y-32766000D02*
X219456000Y-32766000D01*
X219456000Y-32766000D02*
X221615000Y-34925000D01*
X221615000Y-34925000D02*
X221615000Y-38735000D01*
D10*
X191262000Y-48006000D02*
X189992000Y-49276000D01*
X191447988Y-58039000D02*
X192428067Y-58039000D01*
X189992000Y-49276000D02*
X189992000Y-56583012D01*
X189992000Y-56583012D02*
X191447988Y-58039000D01*
X192428067Y-58039000D02*
X192913000Y-58039000D01*
D17*
X180316930Y-56411070D02*
X180316930Y-55800884D01*
X180316930Y-55800884D02*
X180316930Y-55369832D01*
X179832000Y-56896000D02*
X180316930Y-56411070D01*
X175920399Y-56032399D02*
X176225201Y-56337201D01*
X158838899Y-45808899D02*
X176110899Y-45808899D01*
X176110899Y-45808899D02*
X176784000Y-46482000D01*
X175920399Y-48615601D02*
X175920399Y-56032399D01*
X157480000Y-44450000D02*
X158838899Y-45808899D01*
X176225201Y-56337201D02*
X176530000Y-56642000D01*
X176784000Y-47752000D02*
X175920399Y-48615601D01*
X176784000Y-46482000D02*
X176784000Y-47752000D01*
X182372000Y-54102000D02*
X181610000Y-54864000D01*
X183134000Y-44704000D02*
X183692799Y-45262799D01*
X183692799Y-45262799D02*
X183692799Y-47498000D01*
X181610000Y-54864000D02*
X181610000Y-56388000D01*
X183692799Y-47498000D02*
X183642000Y-47498000D01*
X183642000Y-47498000D02*
X182372000Y-48768000D01*
X181610000Y-56388000D02*
X181102000Y-56896000D01*
X182372000Y-48768000D02*
X182372000Y-54102000D01*
X181406042Y-62180840D02*
X180974990Y-62180840D01*
X195580000Y-70485000D02*
X194818001Y-69723001D01*
X194818001Y-69723001D02*
X193775135Y-69723001D01*
X193775135Y-69723001D02*
X186232974Y-62180840D01*
X186232974Y-62180840D02*
X181406042Y-62180840D01*
X185242948Y-62738000D02*
X185674000Y-62738000D01*
X178231066Y-62738000D02*
X185242948Y-62738000D01*
X176834066Y-64135000D02*
X178231066Y-62738000D01*
X164846000Y-64135000D02*
X176834066Y-64135000D01*
X183337201Y-55930795D02*
X183642000Y-55625996D01*
X164084000Y-63500000D02*
X177038000Y-63500000D01*
X177038000Y-63500000D02*
X183337201Y-57200799D01*
X183337201Y-57200799D02*
X183337201Y-55930795D01*
X200660000Y-52705000D02*
X199771000Y-52705000D01*
X199771000Y-52705000D02*
X195834000Y-56642000D01*
X192684390Y-57251610D02*
X191821013Y-57251610D01*
X195834000Y-56642000D02*
X193294000Y-56642000D01*
X193294000Y-56642000D02*
X192684390Y-57251610D01*
X191821013Y-57251610D02*
X191516214Y-56946811D01*
X200660000Y-50165000D02*
X199136000Y-51689000D01*
X199136000Y-51689000D02*
X199136000Y-52766630D01*
X199136000Y-52766630D02*
X195768630Y-56134000D01*
X192518051Y-56195033D02*
X192213252Y-56499832D01*
X195768630Y-56134000D02*
X192579084Y-56134000D01*
X192579084Y-56134000D02*
X192518051Y-56195033D01*
X200660000Y-47625000D02*
X198374000Y-49911000D01*
X198374000Y-49911000D02*
X198374000Y-52985869D01*
X198374000Y-52985869D02*
X195733869Y-55626000D01*
X195733869Y-55626000D02*
X192201052Y-55626000D01*
X192201052Y-55626000D02*
X191770000Y-55626000D01*
X200660000Y-45085000D02*
X197840599Y-47904401D01*
X191439434Y-55092598D02*
X191320758Y-55211274D01*
X197840599Y-47904401D02*
X197840599Y-52857401D01*
X191320758Y-55211274D02*
X191015959Y-55516073D01*
X197840599Y-52857401D02*
X195605402Y-55092598D01*
X195605402Y-55092598D02*
X191439434Y-55092598D01*
X176647338Y-57746912D02*
X177291976Y-57102274D01*
X177291976Y-57102274D02*
X177291976Y-50469052D01*
X166370000Y-59055000D02*
X167678088Y-57746912D01*
X167678088Y-57746912D02*
X176647338Y-57746912D01*
X177291976Y-50469052D02*
X177291976Y-50038000D01*
X178053987Y-56896013D02*
X178053987Y-50469046D01*
X178053987Y-50469046D02*
X178053987Y-50037994D01*
X168021016Y-58166000D02*
X176784000Y-58166000D01*
X176784000Y-58166000D02*
X178053987Y-56896013D01*
X167132000Y-59055016D02*
X168021016Y-58166000D01*
X178816002Y-50469052D02*
X178816002Y-50038000D01*
X168402004Y-58547000D02*
X176834067Y-58547000D01*
X178816002Y-56565065D02*
X178816002Y-50469052D01*
X176834067Y-58547000D02*
X178816002Y-56565065D01*
X167894004Y-59055000D02*
X168402004Y-58547000D01*
X168910000Y-59182000D02*
X176657000Y-59182000D01*
X179578000Y-56261000D02*
X179578000Y-50215052D01*
X176657000Y-59182000D02*
X179578000Y-56261000D01*
X179578000Y-50215052D02*
X179578000Y-49784000D01*
X189865000Y-59309000D02*
X190627000Y-59309000D01*
X192532000Y-61214000D02*
X192532000Y-63246000D01*
X190627000Y-59309000D02*
X192532000Y-61214000D01*
X181610000Y-49530000D02*
X181610000Y-53339996D01*
X181610000Y-53339996D02*
X181356000Y-53593996D01*
X181457590Y-45085000D02*
X182321201Y-45948611D01*
X182321201Y-45948611D02*
X182626000Y-46253410D01*
X164465000Y-45085000D02*
X181457590Y-45085000D01*
X151130000Y-61722000D02*
X157480000Y-61722000D01*
X157937201Y-61264799D02*
X158242000Y-60960000D01*
X157480000Y-61722000D02*
X157937201Y-61264799D01*
X197358000Y-38608000D02*
X198727688Y-39977688D01*
X198727688Y-39977688D02*
X205077688Y-39977688D01*
X205077688Y-39977688D02*
X207213201Y-42113201D01*
X207213201Y-42113201D02*
X207518000Y-42418000D01*
X196342000Y-38608000D02*
X198374000Y-40640000D01*
X198374000Y-40640000D02*
X204470000Y-40640000D01*
X204470000Y-40640000D02*
X207213201Y-43383201D01*
X207213201Y-43383201D02*
X207518000Y-43688000D01*
X179692290Y-42872135D02*
X179692290Y-43303187D01*
X178815992Y-41656000D02*
X179692290Y-42532298D01*
X179692290Y-42532298D02*
X179692290Y-42872135D01*
X188722002Y-36067998D02*
X197434948Y-36067998D01*
X182371986Y-42418014D02*
X188722002Y-36067998D01*
X183159401Y-46738033D02*
X183159401Y-45971967D01*
X183159401Y-45971967D02*
X182371986Y-45184552D01*
X182371986Y-45184552D02*
X182371986Y-42418014D01*
X182699499Y-47197935D02*
X183159401Y-46738033D01*
X197434948Y-36067998D02*
X197866000Y-36067998D01*
X176453809Y-49911000D02*
X179166874Y-47197935D01*
X179166874Y-47197935D02*
X182699499Y-47197935D01*
X202692012Y-34290000D02*
X198678811Y-38303201D01*
X207518000Y-34290000D02*
X202692012Y-34290000D01*
X198678811Y-38303201D02*
X198374012Y-38608000D01*
X202437966Y-35560000D02*
X199694799Y-38303167D01*
X207517992Y-35560000D02*
X202437966Y-35560000D01*
X199694799Y-38303167D02*
X199390000Y-38607966D01*
X201980737Y-38292600D02*
X201675938Y-38597399D01*
X207518000Y-38100000D02*
X202173337Y-38100000D01*
X202173337Y-38100000D02*
X201980737Y-38292600D01*
X200660000Y-38684948D02*
X200660000Y-39116000D01*
X202514938Y-36830010D02*
X200660000Y-38684948D01*
X207518000Y-36830010D02*
X202514938Y-36830010D01*
X157480000Y-46990000D02*
X172720000Y-46990000D01*
X172720000Y-46990000D02*
X173228000Y-46482000D01*
X190243434Y-60096407D02*
X191361027Y-61214000D01*
X191361027Y-61214000D02*
X191516000Y-61214000D01*
X121692693Y-56819810D02*
X120600503Y-57912000D01*
X143002000Y-56134000D02*
X142316190Y-56819810D01*
X142316190Y-56819810D02*
X121692693Y-56819810D01*
X120573052Y-57912000D02*
X120142000Y-57912000D01*
X120600503Y-57912000D02*
X120573052Y-57912000D01*
X137058410Y-56515000D02*
X121566436Y-56515000D01*
X120457741Y-57116703D02*
X120026689Y-57116703D01*
X137414000Y-56159410D02*
X137058410Y-56515000D01*
X121566436Y-56515000D02*
X120964733Y-57116703D01*
X120964733Y-57116703D02*
X120457741Y-57116703D01*
X139649201Y-55549791D02*
X139954000Y-55854590D01*
X136144000Y-55880000D02*
X136906000Y-55118000D01*
X127000000Y-55880000D02*
X136144000Y-55880000D01*
X136906000Y-55118000D02*
X139217410Y-55118000D01*
X126365000Y-55245000D02*
X127000000Y-55880000D01*
X139217410Y-55118000D02*
X139649201Y-55549791D01*
X137187042Y-55598958D02*
X136601189Y-56184811D01*
X121208799Y-56184799D02*
X120904000Y-55880000D01*
X136601189Y-56184811D02*
X121208811Y-56184811D01*
X138453757Y-55903757D02*
X138148958Y-55598958D01*
X138148958Y-55598958D02*
X137187042Y-55598958D01*
X121208811Y-56184811D02*
X121208799Y-56184799D01*
X190246000Y-62738000D02*
X185420000Y-57912000D01*
X185420000Y-57912000D02*
X185420000Y-43611052D01*
X185420000Y-43611052D02*
X185420000Y-43180000D01*
X190982607Y-92986357D02*
X190245991Y-92249741D01*
X190245991Y-91185999D02*
X190499990Y-90932000D01*
X185420000Y-105410000D02*
X185420000Y-101092000D01*
X190245991Y-92249741D02*
X190245991Y-91185999D01*
X185420000Y-101092000D02*
X190982607Y-95529393D01*
X190982607Y-95529393D02*
X190982607Y-92986357D01*
X191566799Y-92252799D02*
X191262000Y-91948000D01*
X187198000Y-106172000D02*
X187198000Y-100584000D01*
X187198000Y-100584000D02*
X191566799Y-96215201D01*
X185420000Y-107950000D02*
X187198000Y-106172000D01*
X191566799Y-96215201D02*
X191566799Y-92252799D01*
X182880000Y-105410000D02*
X182880000Y-98044000D01*
X189886790Y-93725992D02*
X190246000Y-93725992D01*
X182880000Y-98044000D02*
X187198008Y-93725992D01*
X187198008Y-93725992D02*
X189886790Y-93725992D01*
X186690000Y-95250000D02*
X186436000Y-95250000D01*
X186436000Y-95250000D02*
X183870598Y-97815402D01*
X184150000Y-101346000D02*
X184150000Y-106680000D01*
X183870598Y-97815402D02*
X183870598Y-101066598D01*
X183870598Y-101066598D02*
X184150000Y-101346000D01*
X184150000Y-106680000D02*
X183641999Y-107188001D01*
X183641999Y-107188001D02*
X182880000Y-107950000D01*
X186182000Y-96520000D02*
X184683410Y-98018590D01*
X184683410Y-98018590D02*
X184683410Y-98044000D01*
X186690000Y-97155000D02*
X184658000Y-99187000D01*
X184658000Y-99187000D02*
X184658000Y-99898948D01*
X184658000Y-99898948D02*
X184658000Y-100330000D01*
X185674000Y-99821996D02*
X187325000Y-98170996D01*
X187325000Y-98170996D02*
X187325000Y-97790000D01*
X124539250Y-59690000D02*
X120827052Y-59690000D01*
X127025378Y-62176128D02*
X124539250Y-59690000D01*
X120827052Y-59690000D02*
X120396000Y-59690000D01*
X127025378Y-77495378D02*
X127025378Y-62176128D01*
X133350000Y-83820000D02*
X127025378Y-77495378D01*
X124079000Y-58674000D02*
X121081052Y-58674000D01*
X133350000Y-81280000D02*
X127330189Y-75260189D01*
X127330189Y-75260189D02*
X127330189Y-61925189D01*
X127330189Y-61925189D02*
X124079000Y-58674000D01*
X121081052Y-58674000D02*
X120650000Y-58674000D01*
X129413000Y-46736000D02*
X130556000Y-47879000D01*
X130556000Y-47879000D02*
X130556000Y-53162948D01*
X130556000Y-53162948D02*
X130556000Y-53594000D01*
X129540000Y-48895000D02*
X129540000Y-53594000D01*
D10*
X154305000Y-45720000D02*
X154305000Y-52832000D01*
X154305000Y-52832000D02*
X156083000Y-54610000D01*
X156083000Y-54610000D02*
X157480000Y-54610000D01*
X189865000Y-72390000D02*
X190500000Y-73025000D01*
X190500000Y-73025000D02*
X195580000Y-73025000D01*
D16*
X221615000Y-46990000D02*
X221615000Y-38735000D01*
D10*
X219075000Y-38735000D02*
X221615000Y-38735000D01*
D16*
X175260000Y-107950000D02*
X180975000Y-113665000D01*
X180975000Y-113665000D02*
X192405000Y-113665000D01*
X192405000Y-113665000D02*
X197358001Y-108711999D01*
X197358001Y-108711999D02*
X198120000Y-107950000D01*
X173355000Y-33020000D02*
X188595000Y-33020000D01*
X104140000Y-41910000D02*
X104140000Y-39370000D01*
D17*
X181969210Y-61595000D02*
X181610000Y-61595000D01*
X192428201Y-67945000D02*
X186078201Y-61595000D01*
X186078201Y-61595000D02*
X181969210Y-61595000D01*
X195580000Y-67945000D02*
X192428201Y-67945000D01*
X183632958Y-58585472D02*
X183378959Y-58331473D01*
X190452486Y-65405000D02*
X183632958Y-58585472D01*
X195580000Y-65405000D02*
X190452486Y-65405000D01*
X183515000Y-76835000D02*
X185166000Y-75184000D01*
X185166000Y-75184000D02*
X187071000Y-75184000D01*
X188595000Y-73660000D02*
X188595000Y-65405000D01*
X187325000Y-64135000D02*
X184950054Y-64135000D01*
X184950054Y-64135000D02*
X184643907Y-63828853D01*
X184643907Y-63828853D02*
X184643907Y-63469643D01*
X188595000Y-65405000D02*
X187325000Y-64135000D01*
X187071000Y-75184000D02*
X188595000Y-73660000D01*
X186414210Y-63500000D02*
X186055000Y-63500000D01*
X188899811Y-65278744D02*
X187121067Y-63500000D01*
X187121067Y-63500000D02*
X186414210Y-63500000D01*
X186055000Y-76835000D02*
X188899811Y-73990189D01*
X188899811Y-73990189D02*
X188899811Y-65278744D01*
X203454000Y-67818000D02*
X200787000Y-67818000D01*
X200787000Y-67818000D02*
X200660000Y-67945000D01*
X203454000Y-62992000D02*
X200787000Y-62992000D01*
X200787000Y-62992000D02*
X200660000Y-62865000D01*
X163957000Y-54356000D02*
X162179000Y-56134000D01*
X162157210Y-56134000D02*
X161798000Y-56134000D01*
X162179000Y-56134000D02*
X162157210Y-56134000D01*
X169926000Y-52070000D02*
X174371001Y-47624999D01*
X157480000Y-52070000D02*
X169926000Y-52070000D01*
X174371001Y-47624999D02*
X174625000Y-47371000D01*
X173609001Y-47370999D02*
X173863000Y-47117000D01*
X171450000Y-49530000D02*
X173609001Y-47370999D01*
X157480000Y-49530000D02*
X171450000Y-49530000D01*
X151765000Y-65405000D02*
X151765000Y-63627000D01*
X153289000Y-62103000D02*
X168296790Y-62103000D01*
X151765000Y-63627000D02*
X153289000Y-62103000D01*
X168296790Y-62103000D02*
X168656000Y-62103000D01*
X171577000Y-54991000D02*
X171704000Y-54864000D01*
X166243000Y-54991000D02*
X171577000Y-54991000D01*
D10*
X208280000Y-88265000D02*
X208280000Y-96266000D01*
X208280000Y-96266000D02*
X207518000Y-97028000D01*
X207518000Y-97028000D02*
X207264000Y-97028000D01*
D17*
X191746250Y-85748750D02*
X191158750Y-85748750D01*
X191158750Y-85748750D02*
X190500000Y-85090000D01*
X177800000Y-107950000D02*
X179070000Y-109220000D01*
X186055000Y-109220000D02*
X187960000Y-107315000D01*
X179070000Y-109220000D02*
X186055000Y-109220000D01*
X187960000Y-107315000D02*
X187960000Y-100584000D01*
X187960000Y-100584000D02*
X192024000Y-96520000D01*
X192024000Y-96520000D02*
X193675000Y-96520000D01*
X200660000Y-105410000D02*
X197612000Y-102362000D01*
X197612000Y-102362000D02*
X197612000Y-102108000D01*
X201930000Y-106680000D02*
X201930000Y-104140000D01*
X198987198Y-102108000D02*
X198627988Y-102108000D01*
X199898000Y-102108000D02*
X198987198Y-102108000D01*
X200660000Y-107950000D02*
X201930000Y-106680000D01*
X201930000Y-104140000D02*
X199898000Y-102108000D01*
X203200000Y-105410000D02*
X203200000Y-104140000D01*
X203200000Y-104140000D02*
X201421999Y-102361999D01*
X201421999Y-102361999D02*
X201168000Y-102108000D01*
X203200000Y-107950000D02*
X204470000Y-106680000D01*
X204470000Y-106680000D02*
X204470000Y-103886000D01*
X204470000Y-103886000D02*
X202945999Y-102361999D01*
X202945999Y-102361999D02*
X202692000Y-102108000D01*
X196468999Y-84835999D02*
X196215000Y-84582000D01*
X196723000Y-89408000D02*
X196723000Y-85090000D01*
X196723000Y-85090000D02*
X196468999Y-84835999D01*
X205740000Y-105410000D02*
X205740000Y-101092000D01*
X205740000Y-101092000D02*
X202945999Y-98297999D01*
X202945999Y-98297999D02*
X202692000Y-98044000D01*
X175895000Y-94615000D02*
X181483000Y-89027000D01*
X181483000Y-89027000D02*
X193421000Y-89027000D01*
X193421000Y-89027000D02*
X196342001Y-91948001D01*
X196342001Y-91948001D02*
X196596000Y-92202000D01*
X114935008Y-59054992D02*
X114935000Y-59054992D01*
X116205000Y-57785000D02*
X114935008Y-59054992D01*
X118371658Y-62484000D02*
X116205000Y-64650658D01*
X118364000Y-55118000D02*
X118364000Y-62476342D01*
X118364000Y-62476342D02*
X118371658Y-62484000D01*
X115570000Y-66040000D02*
X115570000Y-65285658D01*
X115570000Y-65285658D02*
X116205000Y-64650658D01*
X112395000Y-67945000D02*
X116205014Y-67945000D01*
X116205014Y-67945000D02*
X122936008Y-61214006D01*
X122936008Y-61214006D02*
X123190007Y-60960007D01*
X104140000Y-67945000D02*
X112395000Y-67945000D01*
X133350000Y-41910000D02*
X136398000Y-41910000D01*
X136397996Y-44450000D02*
X136398000Y-44450004D01*
X133350000Y-44450000D02*
X136397996Y-44450000D01*
X133350000Y-46990000D02*
X136398000Y-46990000D01*
X133350000Y-49530000D02*
X136398000Y-49530000D01*
X133350000Y-52070000D02*
X136398000Y-52070000D01*
X104140000Y-65405000D02*
X113030000Y-65405000D01*
X113030000Y-65405000D02*
X113411001Y-65786001D01*
X113411001Y-65786001D02*
X113665000Y-66040000D01*
D10*
G36*
X172525977Y-31196064D02*
X172377100Y-31555484D01*
X172377100Y-31944516D01*
X172525977Y-32303936D01*
X172607041Y-32385000D01*
X172525977Y-32466064D01*
X172377100Y-32825484D01*
X172377100Y-33214516D01*
X172525977Y-33573936D01*
X172801064Y-33849023D01*
X173160484Y-33997900D01*
X173549516Y-33997900D01*
X173908936Y-33849023D01*
X173912459Y-33845500D01*
X188037541Y-33845500D01*
X188041064Y-33849023D01*
X188400484Y-33997900D01*
X188789516Y-33997900D01*
X189148936Y-33849023D01*
X189424023Y-33573936D01*
X189572900Y-33214516D01*
X189572900Y-32825484D01*
X189424023Y-32466064D01*
X189342959Y-32385000D01*
X189424023Y-32303936D01*
X189572900Y-31944516D01*
X189572900Y-31555484D01*
X189424023Y-31196064D01*
X189354959Y-31127000D01*
X207520041Y-31127000D01*
X207450977Y-31196064D01*
X207302100Y-31555484D01*
X207302100Y-31944516D01*
X207450977Y-32303936D01*
X207726064Y-32579023D01*
X208064100Y-32719042D01*
X208064100Y-32960516D01*
X208212977Y-33319936D01*
X208488064Y-33595023D01*
X208847484Y-33743900D01*
X209236516Y-33743900D01*
X209595936Y-33595023D01*
X209599459Y-33591500D01*
X219114068Y-33591500D01*
X220789500Y-35266933D01*
X220789501Y-37973000D01*
X219695959Y-37973000D01*
X219628936Y-37905977D01*
X219269516Y-37757100D01*
X218880484Y-37757100D01*
X218521064Y-37905977D01*
X218245977Y-38181064D01*
X218097100Y-38540484D01*
X218097100Y-38929516D01*
X218245977Y-39288936D01*
X218521064Y-39564023D01*
X218880484Y-39712900D01*
X219269516Y-39712900D01*
X219628936Y-39564023D01*
X219695959Y-39497000D01*
X220789501Y-39497000D01*
X220789500Y-46432541D01*
X220785977Y-46436064D01*
X220637100Y-46795484D01*
X220637100Y-47184516D01*
X220785977Y-47543936D01*
X221061064Y-47819023D01*
X221420484Y-47967900D01*
X221809516Y-47967900D01*
X222168936Y-47819023D01*
X222250000Y-47737959D01*
X222331064Y-47819023D01*
X222690484Y-47967900D01*
X223079516Y-47967900D01*
X223438936Y-47819023D01*
X223714023Y-47543936D01*
X223862900Y-47184516D01*
X223862900Y-46795484D01*
X223714023Y-46436064D01*
X223710500Y-46432541D01*
X223710500Y-34371297D01*
X223726671Y-34289999D01*
X223710500Y-34208701D01*
X223710500Y-34208697D01*
X223662604Y-33967906D01*
X223480152Y-33694848D01*
X223411229Y-33648795D01*
X220986209Y-31223777D01*
X220940152Y-31154848D01*
X220898475Y-31127000D01*
X223873000Y-31127000D01*
X223873000Y-116873000D01*
X114801952Y-116873000D01*
X114801952Y-114592100D01*
X101127000Y-114592100D01*
X101127000Y-108930213D01*
X171919392Y-108930213D01*
X171988857Y-109172397D01*
X172512302Y-109359144D01*
X173067368Y-109331362D01*
X173451143Y-109172397D01*
X173520608Y-108930213D01*
X172720000Y-108129605D01*
X171919392Y-108930213D01*
X101127000Y-108930213D01*
X101127000Y-107742302D01*
X171310856Y-107742302D01*
X171338638Y-108297368D01*
X171497603Y-108681143D01*
X171739787Y-108750608D01*
X172540395Y-107950000D01*
X171739787Y-107149392D01*
X171497603Y-107218857D01*
X171310856Y-107742302D01*
X101127000Y-107742302D01*
X101127000Y-106390213D01*
X171919392Y-106390213D01*
X171988857Y-106632397D01*
X172112344Y-106676453D01*
X171988857Y-106727603D01*
X171919392Y-106969787D01*
X172720000Y-107770395D01*
X173520608Y-106969787D01*
X173451143Y-106727603D01*
X173327656Y-106683547D01*
X173451143Y-106632397D01*
X173520608Y-106390213D01*
X172720000Y-105589605D01*
X171919392Y-106390213D01*
X101127000Y-106390213D01*
X101127000Y-105202302D01*
X171310856Y-105202302D01*
X171338638Y-105757368D01*
X171497603Y-106141143D01*
X171739787Y-106210608D01*
X172540395Y-105410000D01*
X172899605Y-105410000D01*
X173700213Y-106210608D01*
X173942397Y-106141143D01*
X173992535Y-106000607D01*
X174075680Y-106201337D01*
X174468663Y-106594320D01*
X174675513Y-106680000D01*
X174468663Y-106765680D01*
X174075680Y-107158663D01*
X173996572Y-107349647D01*
X173942397Y-107218857D01*
X173700213Y-107149392D01*
X172899605Y-107950000D01*
X173700213Y-108750608D01*
X173942397Y-108681143D01*
X173992535Y-108540607D01*
X174075680Y-108741337D01*
X174468663Y-109134320D01*
X174982119Y-109347000D01*
X175489568Y-109347000D01*
X180333793Y-114191226D01*
X180379848Y-114260152D01*
X180448773Y-114306206D01*
X180652906Y-114442604D01*
X180975000Y-114506672D01*
X181056303Y-114490500D01*
X192323699Y-114490500D01*
X192405000Y-114506672D01*
X192486301Y-114490500D01*
X192486303Y-114490500D01*
X192727094Y-114442604D01*
X193000152Y-114260152D01*
X193046209Y-114191223D01*
X197890433Y-109347000D01*
X198397881Y-109347000D01*
X198911337Y-109134320D01*
X199304320Y-108741337D01*
X199390000Y-108534487D01*
X199475680Y-108741337D01*
X199868663Y-109134320D01*
X200382119Y-109347000D01*
X200937881Y-109347000D01*
X201451337Y-109134320D01*
X201844320Y-108741337D01*
X201930000Y-108534487D01*
X202015680Y-108741337D01*
X202408663Y-109134320D01*
X202922119Y-109347000D01*
X203477881Y-109347000D01*
X203991337Y-109134320D01*
X204384320Y-108741337D01*
X204470000Y-108534487D01*
X204555680Y-108741337D01*
X204948663Y-109134320D01*
X205462119Y-109347000D01*
X206017881Y-109347000D01*
X206531337Y-109134320D01*
X206924320Y-108741337D01*
X207010000Y-108534487D01*
X207095680Y-108741337D01*
X207488663Y-109134320D01*
X208002119Y-109347000D01*
X208557881Y-109347000D01*
X209071337Y-109134320D01*
X209464320Y-108741337D01*
X209677000Y-108227881D01*
X209677000Y-107672119D01*
X209464320Y-107158663D01*
X209071337Y-106765680D01*
X208864487Y-106680000D01*
X209071337Y-106594320D01*
X209464320Y-106201337D01*
X209677000Y-105687881D01*
X209677000Y-105132119D01*
X209464320Y-104618663D01*
X209071337Y-104225680D01*
X208557881Y-104013000D01*
X208002119Y-104013000D01*
X207488663Y-104225680D01*
X207095680Y-104618663D01*
X207010000Y-104825513D01*
X206924320Y-104618663D01*
X206531337Y-104225680D01*
X206451200Y-104192486D01*
X206451200Y-103215213D01*
X213829392Y-103215213D01*
X213898857Y-103457397D01*
X214422302Y-103644144D01*
X214977368Y-103616362D01*
X215361143Y-103457397D01*
X215430608Y-103215213D01*
X214630000Y-102414605D01*
X213829392Y-103215213D01*
X206451200Y-103215213D01*
X206451200Y-102027302D01*
X213220856Y-102027302D01*
X213248638Y-102582368D01*
X213407603Y-102966143D01*
X213649787Y-103035608D01*
X214450395Y-102235000D01*
X214809605Y-102235000D01*
X215610213Y-103035608D01*
X215852397Y-102966143D01*
X216039144Y-102442698D01*
X216011362Y-101887632D01*
X215852397Y-101503857D01*
X215610213Y-101434392D01*
X214809605Y-102235000D01*
X214450395Y-102235000D01*
X213649787Y-101434392D01*
X213407603Y-101503857D01*
X213220856Y-102027302D01*
X206451200Y-102027302D01*
X206451200Y-101162041D01*
X206465132Y-101091999D01*
X206451200Y-101021957D01*
X206451200Y-101021954D01*
X206409936Y-100814504D01*
X206392963Y-100789102D01*
X206292424Y-100638635D01*
X206292422Y-100638633D01*
X206252746Y-100579254D01*
X206193367Y-100539578D01*
X203631800Y-97978012D01*
X203631800Y-97857062D01*
X203488724Y-97511646D01*
X203224354Y-97247276D01*
X202878938Y-97104200D01*
X202505062Y-97104200D01*
X202159646Y-97247276D01*
X201895276Y-97511646D01*
X201752200Y-97857062D01*
X201752200Y-98230938D01*
X201895276Y-98576354D01*
X202159646Y-98840724D01*
X202505062Y-98983800D01*
X202626012Y-98983800D01*
X205028801Y-101386590D01*
X205028800Y-103442178D01*
X205022424Y-103432635D01*
X205022422Y-103432633D01*
X204982746Y-103373254D01*
X204923367Y-103333578D01*
X203631800Y-102042012D01*
X203631800Y-101921062D01*
X203488724Y-101575646D01*
X203224354Y-101311276D01*
X202878938Y-101168200D01*
X202505062Y-101168200D01*
X202159646Y-101311276D01*
X201930000Y-101540922D01*
X201700354Y-101311276D01*
X201354938Y-101168200D01*
X200981062Y-101168200D01*
X200635646Y-101311276D01*
X200375331Y-101571591D01*
X200175496Y-101438064D01*
X199968046Y-101396800D01*
X199968041Y-101396800D01*
X199898000Y-101382868D01*
X199827959Y-101396800D01*
X199245866Y-101396800D01*
X199160342Y-101311276D01*
X198814926Y-101168200D01*
X198441050Y-101168200D01*
X198119994Y-101301186D01*
X197798938Y-101168200D01*
X197425062Y-101168200D01*
X197079646Y-101311276D01*
X196815276Y-101575646D01*
X196672200Y-101921062D01*
X196672200Y-102294938D01*
X196815276Y-102640354D01*
X197079646Y-102904724D01*
X197197931Y-102953719D01*
X198257212Y-104013000D01*
X197842119Y-104013000D01*
X197328663Y-104225680D01*
X196935680Y-104618663D01*
X196856572Y-104809647D01*
X196802397Y-104678857D01*
X196560213Y-104609392D01*
X195759605Y-105410000D01*
X196560213Y-106210608D01*
X196802397Y-106141143D01*
X196852535Y-106000607D01*
X196935680Y-106201337D01*
X197328663Y-106594320D01*
X197535513Y-106680000D01*
X197328663Y-106765680D01*
X196935680Y-107158663D01*
X196856572Y-107349647D01*
X196802397Y-107218857D01*
X196560213Y-107149392D01*
X195759605Y-107950000D01*
X195773748Y-107964143D01*
X195594143Y-108143748D01*
X195580000Y-108129605D01*
X194779392Y-108930213D01*
X194848857Y-109172397D01*
X195372302Y-109359144D01*
X195552439Y-109350128D01*
X192063068Y-112839500D01*
X181316933Y-112839500D01*
X177824432Y-109347000D01*
X178077881Y-109347000D01*
X178158018Y-109313806D01*
X178517578Y-109673367D01*
X178557254Y-109732746D01*
X178616633Y-109772422D01*
X178616635Y-109772424D01*
X178792502Y-109889935D01*
X178792503Y-109889935D01*
X178792504Y-109889936D01*
X178999954Y-109931200D01*
X178999957Y-109931200D01*
X179069999Y-109945132D01*
X179140041Y-109931200D01*
X185984959Y-109931200D01*
X186055000Y-109945132D01*
X186125041Y-109931200D01*
X186125046Y-109931200D01*
X186332496Y-109889936D01*
X186567746Y-109732746D01*
X186607424Y-109673364D01*
X187350575Y-108930213D01*
X188429392Y-108930213D01*
X188498857Y-109172397D01*
X189022302Y-109359144D01*
X189577368Y-109331362D01*
X189961143Y-109172397D01*
X190030608Y-108930213D01*
X189230000Y-108129605D01*
X188429392Y-108930213D01*
X187350575Y-108930213D01*
X187888115Y-108392674D01*
X188007603Y-108681143D01*
X188249787Y-108750608D01*
X189050395Y-107950000D01*
X189409605Y-107950000D01*
X190210213Y-108750608D01*
X190452397Y-108681143D01*
X190502535Y-108540607D01*
X190585680Y-108741337D01*
X190978663Y-109134320D01*
X191492119Y-109347000D01*
X192047881Y-109347000D01*
X192561337Y-109134320D01*
X192954320Y-108741337D01*
X193167000Y-108227881D01*
X193167000Y-107742302D01*
X194170856Y-107742302D01*
X194198638Y-108297368D01*
X194357603Y-108681143D01*
X194599787Y-108750608D01*
X195400395Y-107950000D01*
X194599787Y-107149392D01*
X194357603Y-107218857D01*
X194170856Y-107742302D01*
X193167000Y-107742302D01*
X193167000Y-107672119D01*
X192954320Y-107158663D01*
X192561337Y-106765680D01*
X192047881Y-106553000D01*
X191492119Y-106553000D01*
X190978663Y-106765680D01*
X190585680Y-107158663D01*
X190506572Y-107349647D01*
X190452397Y-107218857D01*
X190210213Y-107149392D01*
X189409605Y-107950000D01*
X189050395Y-107950000D01*
X189036253Y-107935858D01*
X189215858Y-107756253D01*
X189230000Y-107770395D01*
X190030608Y-106969787D01*
X189961143Y-106727603D01*
X189437698Y-106540856D01*
X188882632Y-106568638D01*
X188671200Y-106656216D01*
X188671200Y-106390213D01*
X194779392Y-106390213D01*
X194848857Y-106632397D01*
X194972344Y-106676453D01*
X194848857Y-106727603D01*
X194779392Y-106969787D01*
X195580000Y-107770395D01*
X196380608Y-106969787D01*
X196311143Y-106727603D01*
X196187656Y-106683547D01*
X196311143Y-106632397D01*
X196380608Y-106390213D01*
X195580000Y-105589605D01*
X194779392Y-106390213D01*
X188671200Y-106390213D01*
X188671200Y-105202302D01*
X194170856Y-105202302D01*
X194198638Y-105757368D01*
X194357603Y-106141143D01*
X194599787Y-106210608D01*
X195400395Y-105410000D01*
X194599787Y-104609392D01*
X194357603Y-104678857D01*
X194170856Y-105202302D01*
X188671200Y-105202302D01*
X188671200Y-104429787D01*
X194779392Y-104429787D01*
X195580000Y-105230395D01*
X196380608Y-104429787D01*
X196311143Y-104187603D01*
X195787698Y-104000856D01*
X195232632Y-104028638D01*
X194848857Y-104187603D01*
X194779392Y-104429787D01*
X188671200Y-104429787D01*
X188671200Y-100878588D01*
X192318589Y-97231200D01*
X193057122Y-97231200D01*
X193142646Y-97316724D01*
X193488062Y-97459800D01*
X193861938Y-97459800D01*
X194207354Y-97316724D01*
X194471724Y-97052354D01*
X194562382Y-96833484D01*
X206286100Y-96833484D01*
X206286100Y-97222516D01*
X206434977Y-97581936D01*
X206710064Y-97857023D01*
X207069484Y-98005900D01*
X207458516Y-98005900D01*
X207817936Y-97857023D01*
X208093023Y-97581936D01*
X208129318Y-97494312D01*
X208765749Y-96857882D01*
X208829371Y-96815371D01*
X208887787Y-96727946D01*
X208945044Y-96642254D01*
X208997788Y-96563317D01*
X209042000Y-96341048D01*
X209042000Y-96341047D01*
X209056928Y-96266000D01*
X209042000Y-96190953D01*
X209042000Y-89257119D01*
X213233000Y-89257119D01*
X213233000Y-89812881D01*
X213445680Y-90326337D01*
X213838663Y-90719320D01*
X214045513Y-90805000D01*
X213838663Y-90890680D01*
X213445680Y-91283663D01*
X213233000Y-91797119D01*
X213233000Y-92352881D01*
X213445680Y-92866337D01*
X213838663Y-93259320D01*
X214045513Y-93345000D01*
X213838663Y-93430680D01*
X213445680Y-93823663D01*
X213233000Y-94337119D01*
X213233000Y-94892881D01*
X213445680Y-95406337D01*
X213838663Y-95799320D01*
X214045513Y-95885000D01*
X213838663Y-95970680D01*
X213445680Y-96363663D01*
X213233000Y-96877119D01*
X213233000Y-97432881D01*
X213445680Y-97946337D01*
X213838663Y-98339320D01*
X214045513Y-98425000D01*
X213838663Y-98510680D01*
X213445680Y-98903663D01*
X213233000Y-99417119D01*
X213233000Y-99972881D01*
X213445680Y-100486337D01*
X213838663Y-100879320D01*
X214029647Y-100958428D01*
X213898857Y-101012603D01*
X213829392Y-101254787D01*
X214630000Y-102055395D01*
X215430608Y-101254787D01*
X215361143Y-101012603D01*
X215220607Y-100962465D01*
X215421337Y-100879320D01*
X215814320Y-100486337D01*
X216027000Y-99972881D01*
X216027000Y-99417119D01*
X215814320Y-98903663D01*
X215421337Y-98510680D01*
X215214487Y-98425000D01*
X215421337Y-98339320D01*
X215814320Y-97946337D01*
X216027000Y-97432881D01*
X216027000Y-96877119D01*
X215814320Y-96363663D01*
X215421337Y-95970680D01*
X215214487Y-95885000D01*
X215421337Y-95799320D01*
X215814320Y-95406337D01*
X216027000Y-94892881D01*
X216027000Y-94337119D01*
X215814320Y-93823663D01*
X215421337Y-93430680D01*
X215214487Y-93345000D01*
X215421337Y-93259320D01*
X215814320Y-92866337D01*
X216027000Y-92352881D01*
X216027000Y-91797119D01*
X215814320Y-91283663D01*
X215421337Y-90890680D01*
X215214487Y-90805000D01*
X215421337Y-90719320D01*
X215814320Y-90326337D01*
X216027000Y-89812881D01*
X216027000Y-89257119D01*
X215814320Y-88743663D01*
X215421337Y-88350680D01*
X214907881Y-88138000D01*
X214352119Y-88138000D01*
X213838663Y-88350680D01*
X213445680Y-88743663D01*
X213233000Y-89257119D01*
X209042000Y-89257119D01*
X209042000Y-88885959D01*
X209109023Y-88818936D01*
X209257900Y-88459516D01*
X209257900Y-88070484D01*
X209109023Y-87711064D01*
X208833936Y-87435977D01*
X208474516Y-87287100D01*
X208085484Y-87287100D01*
X207726064Y-87435977D01*
X207450977Y-87711064D01*
X207302100Y-88070484D01*
X207302100Y-88459516D01*
X207450977Y-88818936D01*
X207518000Y-88885959D01*
X207518001Y-95950368D01*
X207418269Y-96050100D01*
X207069484Y-96050100D01*
X206710064Y-96198977D01*
X206434977Y-96474064D01*
X206286100Y-96833484D01*
X194562382Y-96833484D01*
X194614800Y-96706938D01*
X194614800Y-96333062D01*
X194471724Y-95987646D01*
X194207354Y-95723276D01*
X193861938Y-95580200D01*
X193488062Y-95580200D01*
X193142646Y-95723276D01*
X193057122Y-95808800D01*
X192277999Y-95808800D01*
X192277999Y-92322841D01*
X192291931Y-92252799D01*
X192277999Y-92182757D01*
X192277999Y-92182753D01*
X192236735Y-91975303D01*
X192201800Y-91923019D01*
X192201800Y-91761062D01*
X192058724Y-91415646D01*
X191794354Y-91151276D01*
X191448938Y-91008200D01*
X191439790Y-91008200D01*
X191439790Y-90745062D01*
X191296714Y-90399646D01*
X191032344Y-90135276D01*
X190686928Y-89992200D01*
X190313052Y-89992200D01*
X189967636Y-90135276D01*
X189703266Y-90399646D01*
X189560190Y-90745062D01*
X189560190Y-90988267D01*
X189520859Y-91185999D01*
X189534792Y-91256045D01*
X189534791Y-92179699D01*
X189520859Y-92249741D01*
X189534791Y-92319782D01*
X189534791Y-92319786D01*
X189576055Y-92527236D01*
X189576056Y-92527237D01*
X189693567Y-92703105D01*
X189693569Y-92703107D01*
X189733245Y-92762486D01*
X189792624Y-92802163D01*
X189859369Y-92868907D01*
X189713646Y-92929268D01*
X189628122Y-93014792D01*
X187268049Y-93014792D01*
X187198007Y-93000860D01*
X187127965Y-93014792D01*
X187127962Y-93014792D01*
X186920512Y-93056056D01*
X186920511Y-93056057D01*
X186920510Y-93056057D01*
X186744643Y-93173568D01*
X186744641Y-93173570D01*
X186685262Y-93213246D01*
X186645586Y-93272625D01*
X182426634Y-97491578D01*
X182367255Y-97531254D01*
X182327579Y-97590633D01*
X182327576Y-97590636D01*
X182210065Y-97766504D01*
X182154868Y-98044000D01*
X182168801Y-98114045D01*
X182168800Y-104192486D01*
X182088663Y-104225680D01*
X181695680Y-104618663D01*
X181610000Y-104825513D01*
X181524320Y-104618663D01*
X181131337Y-104225680D01*
X180617881Y-104013000D01*
X180062119Y-104013000D01*
X179548663Y-104225680D01*
X179155680Y-104618663D01*
X179070000Y-104825513D01*
X178984320Y-104618663D01*
X178591337Y-104225680D01*
X178077881Y-104013000D01*
X177522119Y-104013000D01*
X177008663Y-104225680D01*
X176615680Y-104618663D01*
X176530000Y-104825513D01*
X176444320Y-104618663D01*
X176051337Y-104225680D01*
X175537881Y-104013000D01*
X174982119Y-104013000D01*
X174468663Y-104225680D01*
X174075680Y-104618663D01*
X173996572Y-104809647D01*
X173942397Y-104678857D01*
X173700213Y-104609392D01*
X172899605Y-105410000D01*
X172540395Y-105410000D01*
X171739787Y-104609392D01*
X171497603Y-104678857D01*
X171310856Y-105202302D01*
X101127000Y-105202302D01*
X101127000Y-104429787D01*
X171919392Y-104429787D01*
X172720000Y-105230395D01*
X173520608Y-104429787D01*
X173451143Y-104187603D01*
X172927698Y-104000856D01*
X172372632Y-104028638D01*
X171988857Y-104187603D01*
X171919392Y-104429787D01*
X101127000Y-104429787D01*
X101127000Y-103215213D01*
X175094392Y-103215213D01*
X175163857Y-103457397D01*
X175687302Y-103644144D01*
X176242368Y-103616362D01*
X176626143Y-103457397D01*
X176695608Y-103215213D01*
X175895000Y-102414605D01*
X175094392Y-103215213D01*
X101127000Y-103215213D01*
X101127000Y-102027302D01*
X174485856Y-102027302D01*
X174513638Y-102582368D01*
X174672603Y-102966143D01*
X174914787Y-103035608D01*
X175715395Y-102235000D01*
X176074605Y-102235000D01*
X176875213Y-103035608D01*
X177117397Y-102966143D01*
X177304144Y-102442698D01*
X177276362Y-101887632D01*
X177117397Y-101503857D01*
X176875213Y-101434392D01*
X176074605Y-102235000D01*
X175715395Y-102235000D01*
X174914787Y-101434392D01*
X174672603Y-101503857D01*
X174485856Y-102027302D01*
X101127000Y-102027302D01*
X101127000Y-89257119D01*
X174498000Y-89257119D01*
X174498000Y-89812881D01*
X174710680Y-90326337D01*
X175103663Y-90719320D01*
X175310513Y-90805000D01*
X175103663Y-90890680D01*
X174710680Y-91283663D01*
X174498000Y-91797119D01*
X174498000Y-92352881D01*
X174710680Y-92866337D01*
X175103663Y-93259320D01*
X175310513Y-93345000D01*
X175103663Y-93430680D01*
X174710680Y-93823663D01*
X174498000Y-94337119D01*
X174498000Y-94892881D01*
X174710680Y-95406337D01*
X175103663Y-95799320D01*
X175310513Y-95885000D01*
X175103663Y-95970680D01*
X174710680Y-96363663D01*
X174498000Y-96877119D01*
X174498000Y-97432881D01*
X174710680Y-97946337D01*
X175103663Y-98339320D01*
X175310513Y-98425000D01*
X175103663Y-98510680D01*
X174710680Y-98903663D01*
X174498000Y-99417119D01*
X174498000Y-99972881D01*
X174710680Y-100486337D01*
X175103663Y-100879320D01*
X175294647Y-100958428D01*
X175163857Y-101012603D01*
X175094392Y-101254787D01*
X175895000Y-102055395D01*
X176695608Y-101254787D01*
X176626143Y-101012603D01*
X176485607Y-100962465D01*
X176686337Y-100879320D01*
X177079320Y-100486337D01*
X177292000Y-99972881D01*
X177292000Y-99417119D01*
X177079320Y-98903663D01*
X176686337Y-98510680D01*
X176479487Y-98425000D01*
X176686337Y-98339320D01*
X177079320Y-97946337D01*
X177292000Y-97432881D01*
X177292000Y-96877119D01*
X177079320Y-96363663D01*
X176686337Y-95970680D01*
X176479487Y-95885000D01*
X176686337Y-95799320D01*
X177079320Y-95406337D01*
X177292000Y-94892881D01*
X177292000Y-94337119D01*
X177258806Y-94256982D01*
X181777589Y-89738200D01*
X193126412Y-89738200D01*
X195656200Y-92267989D01*
X195656200Y-92388938D01*
X195799276Y-92734354D01*
X196063646Y-92998724D01*
X196409062Y-93141800D01*
X196782938Y-93141800D01*
X197128354Y-92998724D01*
X197392724Y-92734354D01*
X197535800Y-92388938D01*
X197535800Y-92015062D01*
X197392724Y-91669646D01*
X197128354Y-91405276D01*
X196782938Y-91262200D01*
X196661989Y-91262200D01*
X193973424Y-88573636D01*
X193933746Y-88514254D01*
X193698496Y-88357064D01*
X193491046Y-88315800D01*
X193491041Y-88315800D01*
X193421000Y-88301868D01*
X193350959Y-88315800D01*
X181553041Y-88315800D01*
X181482999Y-88301868D01*
X181412957Y-88315800D01*
X181412954Y-88315800D01*
X181205504Y-88357064D01*
X181205503Y-88357065D01*
X181205502Y-88357065D01*
X181029635Y-88474576D01*
X181029633Y-88474578D01*
X180970254Y-88514254D01*
X180930578Y-88573633D01*
X177292000Y-92212212D01*
X177292000Y-91797119D01*
X177079320Y-91283663D01*
X176686337Y-90890680D01*
X176479487Y-90805000D01*
X176686337Y-90719320D01*
X177079320Y-90326337D01*
X177292000Y-89812881D01*
X177292000Y-89257119D01*
X177079320Y-88743663D01*
X176686337Y-88350680D01*
X176172881Y-88138000D01*
X175617119Y-88138000D01*
X175103663Y-88350680D01*
X174710680Y-88743663D01*
X174498000Y-89257119D01*
X101127000Y-89257119D01*
X101127000Y-87340213D01*
X132549392Y-87340213D01*
X132618857Y-87582397D01*
X133142302Y-87769144D01*
X133697368Y-87741362D01*
X134081143Y-87582397D01*
X134150608Y-87340213D01*
X156679392Y-87340213D01*
X156748857Y-87582397D01*
X157272302Y-87769144D01*
X157827368Y-87741362D01*
X158211143Y-87582397D01*
X158280608Y-87340213D01*
X157480000Y-86539605D01*
X156679392Y-87340213D01*
X134150608Y-87340213D01*
X133350000Y-86539605D01*
X132549392Y-87340213D01*
X101127000Y-87340213D01*
X101127000Y-86152302D01*
X131940856Y-86152302D01*
X131968638Y-86707368D01*
X132127603Y-87091143D01*
X132369787Y-87160608D01*
X133170395Y-86360000D01*
X133529605Y-86360000D01*
X134330213Y-87160608D01*
X134572397Y-87091143D01*
X134759144Y-86567698D01*
X134738353Y-86152302D01*
X156070856Y-86152302D01*
X156098638Y-86707368D01*
X156257603Y-87091143D01*
X156499787Y-87160608D01*
X157300395Y-86360000D01*
X157659605Y-86360000D01*
X158460213Y-87160608D01*
X158702397Y-87091143D01*
X158889144Y-86567698D01*
X158861362Y-86012632D01*
X158702397Y-85628857D01*
X158460213Y-85559392D01*
X157659605Y-86360000D01*
X157300395Y-86360000D01*
X156499787Y-85559392D01*
X156257603Y-85628857D01*
X156070856Y-86152302D01*
X134738353Y-86152302D01*
X134731362Y-86012632D01*
X134572397Y-85628857D01*
X134330213Y-85559392D01*
X133529605Y-86360000D01*
X133170395Y-86360000D01*
X132369787Y-85559392D01*
X132127603Y-85628857D01*
X131940856Y-86152302D01*
X101127000Y-86152302D01*
X101127000Y-82302532D01*
X114017073Y-82302532D01*
X114115736Y-82569387D01*
X114725461Y-82795908D01*
X115375460Y-82771856D01*
X115864264Y-82569387D01*
X115962927Y-82302532D01*
X120517073Y-82302532D01*
X120615736Y-82569387D01*
X121225461Y-82795908D01*
X121875460Y-82771856D01*
X122364264Y-82569387D01*
X122462927Y-82302532D01*
X121490000Y-81329605D01*
X120517073Y-82302532D01*
X115962927Y-82302532D01*
X114990000Y-81329605D01*
X114017073Y-82302532D01*
X101127000Y-82302532D01*
X101127000Y-80885461D01*
X113344092Y-80885461D01*
X113368144Y-81535460D01*
X113570613Y-82024264D01*
X113837468Y-82122927D01*
X114810395Y-81150000D01*
X115169605Y-81150000D01*
X116142532Y-82122927D01*
X116409387Y-82024264D01*
X116635908Y-81414539D01*
X116616331Y-80885461D01*
X119844092Y-80885461D01*
X119868144Y-81535460D01*
X120070613Y-82024264D01*
X120337468Y-82122927D01*
X121310395Y-81150000D01*
X121669605Y-81150000D01*
X122642532Y-82122927D01*
X122909387Y-82024264D01*
X123135908Y-81414539D01*
X123111856Y-80764540D01*
X122909387Y-80275736D01*
X122642532Y-80177073D01*
X121669605Y-81150000D01*
X121310395Y-81150000D01*
X120337468Y-80177073D01*
X120070613Y-80275736D01*
X119844092Y-80885461D01*
X116616331Y-80885461D01*
X116611856Y-80764540D01*
X116409387Y-80275736D01*
X116142532Y-80177073D01*
X115169605Y-81150000D01*
X114810395Y-81150000D01*
X113837468Y-80177073D01*
X113570613Y-80275736D01*
X113344092Y-80885461D01*
X101127000Y-80885461D01*
X101127000Y-79997468D01*
X114017073Y-79997468D01*
X114990000Y-80970395D01*
X115962927Y-79997468D01*
X120517073Y-79997468D01*
X121490000Y-80970395D01*
X122462927Y-79997468D01*
X122364264Y-79730613D01*
X121754539Y-79504092D01*
X121104540Y-79528144D01*
X120615736Y-79730613D01*
X120517073Y-79997468D01*
X115962927Y-79997468D01*
X115864264Y-79730613D01*
X115254539Y-79504092D01*
X114604540Y-79528144D01*
X114115736Y-79730613D01*
X114017073Y-79997468D01*
X101127000Y-79997468D01*
X101127000Y-75287119D01*
X102743000Y-75287119D01*
X102743000Y-75842881D01*
X102955680Y-76356337D01*
X103348663Y-76749320D01*
X103555513Y-76835000D01*
X103348663Y-76920680D01*
X102955680Y-77313663D01*
X102743000Y-77827119D01*
X102743000Y-78382881D01*
X102955680Y-78896337D01*
X103348663Y-79289320D01*
X103862119Y-79502000D01*
X104417881Y-79502000D01*
X104931337Y-79289320D01*
X105324320Y-78896337D01*
X105537000Y-78382881D01*
X105537000Y-77827119D01*
X105324320Y-77313663D01*
X104931337Y-76920680D01*
X104724487Y-76835000D01*
X104931337Y-76749320D01*
X105324320Y-76356337D01*
X105337392Y-76324778D01*
X113355000Y-76324778D01*
X113355000Y-76975222D01*
X113603914Y-77576153D01*
X114063847Y-78036086D01*
X114664778Y-78285000D01*
X115315222Y-78285000D01*
X115916153Y-78036086D01*
X116376086Y-77576153D01*
X116625000Y-76975222D01*
X116625000Y-76324778D01*
X119855000Y-76324778D01*
X119855000Y-76975222D01*
X120103914Y-77576153D01*
X120563847Y-78036086D01*
X121164778Y-78285000D01*
X121815222Y-78285000D01*
X122416153Y-78036086D01*
X122876086Y-77576153D01*
X123125000Y-76975222D01*
X123125000Y-76324778D01*
X122876086Y-75723847D01*
X122416153Y-75263914D01*
X121815222Y-75015000D01*
X121164778Y-75015000D01*
X120563847Y-75263914D01*
X120103914Y-75723847D01*
X119855000Y-76324778D01*
X116625000Y-76324778D01*
X116376086Y-75723847D01*
X115916153Y-75263914D01*
X115315222Y-75015000D01*
X114664778Y-75015000D01*
X114063847Y-75263914D01*
X113603914Y-75723847D01*
X113355000Y-76324778D01*
X105337392Y-76324778D01*
X105537000Y-75842881D01*
X105537000Y-75287119D01*
X105324320Y-74773663D01*
X104931337Y-74380680D01*
X104740353Y-74301572D01*
X104871143Y-74247397D01*
X104940608Y-74005213D01*
X104140000Y-73204605D01*
X103339392Y-74005213D01*
X103408857Y-74247397D01*
X103549393Y-74297535D01*
X103348663Y-74380680D01*
X102955680Y-74773663D01*
X102743000Y-75287119D01*
X101127000Y-75287119D01*
X101127000Y-72817302D01*
X102730856Y-72817302D01*
X102758638Y-73372368D01*
X102917603Y-73756143D01*
X103159787Y-73825608D01*
X103960395Y-73025000D01*
X104319605Y-73025000D01*
X105120213Y-73825608D01*
X105362397Y-73756143D01*
X105549144Y-73232698D01*
X105521362Y-72677632D01*
X105362397Y-72293857D01*
X105120213Y-72224392D01*
X104319605Y-73025000D01*
X103960395Y-73025000D01*
X103159787Y-72224392D01*
X102917603Y-72293857D01*
X102730856Y-72817302D01*
X101127000Y-72817302D01*
X101127000Y-65127119D01*
X102743000Y-65127119D01*
X102743000Y-65682881D01*
X102955680Y-66196337D01*
X103348663Y-66589320D01*
X103555513Y-66675000D01*
X103348663Y-66760680D01*
X102955680Y-67153663D01*
X102743000Y-67667119D01*
X102743000Y-68222881D01*
X102955680Y-68736337D01*
X103348663Y-69129320D01*
X103555513Y-69215000D01*
X103348663Y-69300680D01*
X102955680Y-69693663D01*
X102743000Y-70207119D01*
X102743000Y-70762881D01*
X102955680Y-71276337D01*
X103348663Y-71669320D01*
X103539647Y-71748428D01*
X103408857Y-71802603D01*
X103339392Y-72044787D01*
X104140000Y-72845395D01*
X104940608Y-72044787D01*
X104871143Y-71802603D01*
X104730607Y-71752465D01*
X104931337Y-71669320D01*
X105324320Y-71276337D01*
X105537000Y-70762881D01*
X105537000Y-70207119D01*
X105324320Y-69693663D01*
X104931337Y-69300680D01*
X104724487Y-69215000D01*
X104931337Y-69129320D01*
X105324320Y-68736337D01*
X105357514Y-68656200D01*
X116134973Y-68656200D01*
X116205014Y-68670132D01*
X116275055Y-68656200D01*
X116275060Y-68656200D01*
X116482510Y-68614936D01*
X116717760Y-68457746D01*
X116757438Y-68398364D01*
X123255996Y-61899807D01*
X123376945Y-61899807D01*
X123722361Y-61756731D01*
X123986731Y-61492361D01*
X124129807Y-61146945D01*
X124129807Y-60773069D01*
X123986731Y-60427653D01*
X123960278Y-60401200D01*
X124244662Y-60401200D01*
X126314179Y-62470718D01*
X126314178Y-77425337D01*
X126300246Y-77495378D01*
X126314178Y-77565419D01*
X126314178Y-77565423D01*
X126355442Y-77772873D01*
X126355443Y-77772874D01*
X126472954Y-77948742D01*
X126472956Y-77948744D01*
X126512632Y-78008123D01*
X126572012Y-78047800D01*
X131986194Y-83461982D01*
X131953000Y-83542119D01*
X131953000Y-84097881D01*
X132165680Y-84611337D01*
X132558663Y-85004320D01*
X132749647Y-85083428D01*
X132618857Y-85137603D01*
X132549392Y-85379787D01*
X133350000Y-86180395D01*
X134150608Y-85379787D01*
X134081143Y-85137603D01*
X133940607Y-85087465D01*
X134141337Y-85004320D01*
X134534320Y-84611337D01*
X134747000Y-84097881D01*
X134747000Y-83542119D01*
X134534320Y-83028663D01*
X134141337Y-82635680D01*
X133934487Y-82550000D01*
X134141337Y-82464320D01*
X134534320Y-82071337D01*
X134747000Y-81557881D01*
X134747000Y-81002119D01*
X134534320Y-80488663D01*
X134141337Y-80095680D01*
X133934487Y-80010000D01*
X134141337Y-79924320D01*
X134534320Y-79531337D01*
X134747000Y-79017881D01*
X134747000Y-78462119D01*
X156083000Y-78462119D01*
X156083000Y-79017881D01*
X156295680Y-79531337D01*
X156688663Y-79924320D01*
X156895513Y-80010000D01*
X156688663Y-80095680D01*
X156295680Y-80488663D01*
X156083000Y-81002119D01*
X156083000Y-81557881D01*
X156295680Y-82071337D01*
X156688663Y-82464320D01*
X156895513Y-82550000D01*
X156688663Y-82635680D01*
X156295680Y-83028663D01*
X156083000Y-83542119D01*
X156083000Y-84097881D01*
X156295680Y-84611337D01*
X156688663Y-85004320D01*
X156879647Y-85083428D01*
X156748857Y-85137603D01*
X156679392Y-85379787D01*
X157480000Y-86180395D01*
X158280608Y-85379787D01*
X158211143Y-85137603D01*
X158070607Y-85087465D01*
X158271337Y-85004320D01*
X158372595Y-84903062D01*
X189560200Y-84903062D01*
X189560200Y-85276938D01*
X189703276Y-85622354D01*
X189967646Y-85886724D01*
X190313062Y-86029800D01*
X190434011Y-86029800D01*
X190606328Y-86202117D01*
X190646004Y-86261496D01*
X190705383Y-86301172D01*
X190705385Y-86301174D01*
X190881252Y-86418685D01*
X190881253Y-86418685D01*
X190881254Y-86418686D01*
X191088704Y-86459950D01*
X191088707Y-86459950D01*
X191138221Y-86469799D01*
X191213896Y-86545474D01*
X191559312Y-86688550D01*
X191933188Y-86688550D01*
X192278604Y-86545474D01*
X192542974Y-86281104D01*
X192686050Y-85935688D01*
X192686050Y-85561812D01*
X192542974Y-85216396D01*
X192278604Y-84952026D01*
X191933188Y-84808950D01*
X191559312Y-84808950D01*
X191424029Y-84864986D01*
X191296724Y-84557646D01*
X191134140Y-84395062D01*
X195275200Y-84395062D01*
X195275200Y-84768938D01*
X195418276Y-85114354D01*
X195682646Y-85378724D01*
X196011801Y-85515064D01*
X196011800Y-88790122D01*
X195926276Y-88875646D01*
X195783200Y-89221062D01*
X195783200Y-89594938D01*
X195926276Y-89940354D01*
X196190646Y-90204724D01*
X196536062Y-90347800D01*
X196909938Y-90347800D01*
X197255354Y-90204724D01*
X197519724Y-89940354D01*
X197662800Y-89594938D01*
X197662800Y-89221062D01*
X197519724Y-88875646D01*
X197434200Y-88790122D01*
X197434200Y-85160042D01*
X197448132Y-85090000D01*
X197434200Y-85019959D01*
X197434200Y-85019954D01*
X197392936Y-84812504D01*
X197235746Y-84577254D01*
X197176364Y-84537576D01*
X197154800Y-84516012D01*
X197154800Y-84395062D01*
X197011724Y-84049646D01*
X196747354Y-83785276D01*
X196401938Y-83642200D01*
X196028062Y-83642200D01*
X195682646Y-83785276D01*
X195418276Y-84049646D01*
X195275200Y-84395062D01*
X191134140Y-84395062D01*
X191032354Y-84293276D01*
X190686938Y-84150200D01*
X190313062Y-84150200D01*
X189967646Y-84293276D01*
X189703276Y-84557646D01*
X189560200Y-84903062D01*
X158372595Y-84903062D01*
X158664320Y-84611337D01*
X158849110Y-84165213D01*
X171919392Y-84165213D01*
X171988857Y-84407397D01*
X172512302Y-84594144D01*
X173067368Y-84566362D01*
X173451143Y-84407397D01*
X173520608Y-84165213D01*
X172720000Y-83364605D01*
X171919392Y-84165213D01*
X158849110Y-84165213D01*
X158877000Y-84097881D01*
X158877000Y-83542119D01*
X158664320Y-83028663D01*
X158612959Y-82977302D01*
X171310856Y-82977302D01*
X171338638Y-83532368D01*
X171497603Y-83916143D01*
X171739787Y-83985608D01*
X172540395Y-83185000D01*
X172899605Y-83185000D01*
X173700213Y-83985608D01*
X173942397Y-83916143D01*
X173992535Y-83775607D01*
X174075680Y-83976337D01*
X174468663Y-84369320D01*
X174982119Y-84582000D01*
X175537881Y-84582000D01*
X176051337Y-84369320D01*
X176255444Y-84165213D01*
X176999392Y-84165213D01*
X177068857Y-84407397D01*
X177592302Y-84594144D01*
X178147368Y-84566362D01*
X178531143Y-84407397D01*
X178600608Y-84165213D01*
X182079392Y-84165213D01*
X182148857Y-84407397D01*
X182672302Y-84594144D01*
X183227368Y-84566362D01*
X183611143Y-84407397D01*
X183680608Y-84165213D01*
X182880000Y-83364605D01*
X182079392Y-84165213D01*
X178600608Y-84165213D01*
X177800000Y-83364605D01*
X176999392Y-84165213D01*
X176255444Y-84165213D01*
X176444320Y-83976337D01*
X176523428Y-83785353D01*
X176577603Y-83916143D01*
X176819787Y-83985608D01*
X177620395Y-83185000D01*
X177979605Y-83185000D01*
X178780213Y-83985608D01*
X179022397Y-83916143D01*
X179209144Y-83392698D01*
X179188353Y-82977302D01*
X181470856Y-82977302D01*
X181498638Y-83532368D01*
X181657603Y-83916143D01*
X181899787Y-83985608D01*
X182700395Y-83185000D01*
X183059605Y-83185000D01*
X183860213Y-83985608D01*
X184102397Y-83916143D01*
X184152535Y-83775607D01*
X184235680Y-83976337D01*
X184628663Y-84369320D01*
X185142119Y-84582000D01*
X185697881Y-84582000D01*
X186211337Y-84369320D01*
X186415444Y-84165213D01*
X187159392Y-84165213D01*
X187228857Y-84407397D01*
X187752302Y-84594144D01*
X188307368Y-84566362D01*
X188691143Y-84407397D01*
X188760608Y-84165213D01*
X187960000Y-83364605D01*
X187159392Y-84165213D01*
X186415444Y-84165213D01*
X186604320Y-83976337D01*
X186683428Y-83785353D01*
X186737603Y-83916143D01*
X186979787Y-83985608D01*
X187780395Y-83185000D01*
X188139605Y-83185000D01*
X188940213Y-83985608D01*
X189182397Y-83916143D01*
X189369144Y-83392698D01*
X189341362Y-82837632D01*
X189182397Y-82453857D01*
X188940213Y-82384392D01*
X188139605Y-83185000D01*
X187780395Y-83185000D01*
X186979787Y-82384392D01*
X186737603Y-82453857D01*
X186687465Y-82594393D01*
X186604320Y-82393663D01*
X186415444Y-82204787D01*
X187159392Y-82204787D01*
X187960000Y-83005395D01*
X188760608Y-82204787D01*
X188691143Y-81962603D01*
X188167698Y-81775856D01*
X187612632Y-81803638D01*
X187228857Y-81962603D01*
X187159392Y-82204787D01*
X186415444Y-82204787D01*
X186211337Y-82000680D01*
X185697881Y-81788000D01*
X185142119Y-81788000D01*
X184628663Y-82000680D01*
X184235680Y-82393663D01*
X184156572Y-82584647D01*
X184102397Y-82453857D01*
X183860213Y-82384392D01*
X183059605Y-83185000D01*
X182700395Y-83185000D01*
X181899787Y-82384392D01*
X181657603Y-82453857D01*
X181470856Y-82977302D01*
X179188353Y-82977302D01*
X179181362Y-82837632D01*
X179022397Y-82453857D01*
X178780213Y-82384392D01*
X177979605Y-83185000D01*
X177620395Y-83185000D01*
X176819787Y-82384392D01*
X176577603Y-82453857D01*
X176527465Y-82594393D01*
X176444320Y-82393663D01*
X176255444Y-82204787D01*
X176999392Y-82204787D01*
X177800000Y-83005395D01*
X178600608Y-82204787D01*
X182079392Y-82204787D01*
X182880000Y-83005395D01*
X183680608Y-82204787D01*
X183611143Y-81962603D01*
X183087698Y-81775856D01*
X182532632Y-81803638D01*
X182148857Y-81962603D01*
X182079392Y-82204787D01*
X178600608Y-82204787D01*
X178531143Y-81962603D01*
X178007698Y-81775856D01*
X177452632Y-81803638D01*
X177068857Y-81962603D01*
X176999392Y-82204787D01*
X176255444Y-82204787D01*
X176051337Y-82000680D01*
X175537881Y-81788000D01*
X174982119Y-81788000D01*
X174468663Y-82000680D01*
X174075680Y-82393663D01*
X173996572Y-82584647D01*
X173942397Y-82453857D01*
X173700213Y-82384392D01*
X172899605Y-83185000D01*
X172540395Y-83185000D01*
X171739787Y-82384392D01*
X171497603Y-82453857D01*
X171310856Y-82977302D01*
X158612959Y-82977302D01*
X158271337Y-82635680D01*
X158064487Y-82550000D01*
X158271337Y-82464320D01*
X158530870Y-82204787D01*
X171919392Y-82204787D01*
X172720000Y-83005395D01*
X173520608Y-82204787D01*
X173451143Y-81962603D01*
X172927698Y-81775856D01*
X172372632Y-81803638D01*
X171988857Y-81962603D01*
X171919392Y-82204787D01*
X158530870Y-82204787D01*
X158664320Y-82071337D01*
X158877000Y-81557881D01*
X158877000Y-81002119D01*
X158664320Y-80488663D01*
X158271337Y-80095680D01*
X158064487Y-80010000D01*
X158271337Y-79924320D01*
X158664320Y-79531337D01*
X158877000Y-79017881D01*
X158877000Y-78462119D01*
X158664320Y-77948663D01*
X158271337Y-77555680D01*
X157757881Y-77343000D01*
X157202119Y-77343000D01*
X156688663Y-77555680D01*
X156295680Y-77948663D01*
X156083000Y-78462119D01*
X134747000Y-78462119D01*
X134534320Y-77948663D01*
X134141337Y-77555680D01*
X133627881Y-77343000D01*
X133072119Y-77343000D01*
X132558663Y-77555680D01*
X132165680Y-77948663D01*
X131953000Y-78462119D01*
X131953000Y-78877211D01*
X128041389Y-74965601D01*
X128041389Y-61995231D01*
X128055321Y-61925189D01*
X128041389Y-61855147D01*
X128041389Y-61855143D01*
X128000125Y-61647693D01*
X127924868Y-61535062D01*
X150190200Y-61535062D01*
X150190200Y-61908938D01*
X150333276Y-62254354D01*
X150597646Y-62518724D01*
X150943062Y-62661800D01*
X151316938Y-62661800D01*
X151662354Y-62518724D01*
X151747878Y-62433200D01*
X151953012Y-62433200D01*
X151311634Y-63074578D01*
X151252255Y-63114254D01*
X151212579Y-63173633D01*
X151212576Y-63173636D01*
X151095065Y-63349504D01*
X151039868Y-63627000D01*
X151053801Y-63697046D01*
X151053800Y-64787122D01*
X150968276Y-64872646D01*
X150825200Y-65218062D01*
X150825200Y-65591938D01*
X150968276Y-65937354D01*
X151232646Y-66201724D01*
X151578062Y-66344800D01*
X151951938Y-66344800D01*
X152297354Y-66201724D01*
X152561724Y-65937354D01*
X152704800Y-65591938D01*
X152704800Y-65218062D01*
X152561724Y-64872646D01*
X152476200Y-64787122D01*
X152476200Y-63921588D01*
X153583589Y-62814200D01*
X163440722Y-62814200D01*
X163287276Y-62967646D01*
X163144200Y-63313062D01*
X163144200Y-63686938D01*
X163287276Y-64032354D01*
X163551646Y-64296724D01*
X163897062Y-64439800D01*
X163955020Y-64439800D01*
X164049276Y-64667354D01*
X164313646Y-64931724D01*
X164659062Y-65074800D01*
X165032938Y-65074800D01*
X165378354Y-64931724D01*
X165463878Y-64846200D01*
X176764025Y-64846200D01*
X176834066Y-64860132D01*
X176904107Y-64846200D01*
X176904112Y-64846200D01*
X177111562Y-64804936D01*
X177346812Y-64647746D01*
X177386490Y-64588364D01*
X178525655Y-63449200D01*
X183704107Y-63449200D01*
X183704107Y-63656581D01*
X183847183Y-64001997D01*
X184019152Y-64173966D01*
X184091483Y-64282217D01*
X184091485Y-64282219D01*
X184131161Y-64341598D01*
X184190541Y-64381275D01*
X184397630Y-64588364D01*
X184437308Y-64647746D01*
X184496690Y-64687424D01*
X184672556Y-64804935D01*
X184672557Y-64804935D01*
X184672558Y-64804936D01*
X184880008Y-64846200D01*
X184880011Y-64846200D01*
X184950053Y-64860132D01*
X185020095Y-64846200D01*
X187030412Y-64846200D01*
X187883801Y-65699590D01*
X187883800Y-73365411D01*
X186776412Y-74472800D01*
X185236042Y-74472800D01*
X185166000Y-74458868D01*
X185095958Y-74472800D01*
X185095954Y-74472800D01*
X184888504Y-74514064D01*
X184888502Y-74514065D01*
X184888503Y-74514065D01*
X184712635Y-74631576D01*
X184712633Y-74631578D01*
X184653254Y-74671254D01*
X184613578Y-74730633D01*
X183873018Y-75471194D01*
X183792881Y-75438000D01*
X183237119Y-75438000D01*
X182723663Y-75650680D01*
X182330680Y-76043663D01*
X182245000Y-76250513D01*
X182159320Y-76043663D01*
X181766337Y-75650680D01*
X181252881Y-75438000D01*
X180697119Y-75438000D01*
X180183663Y-75650680D01*
X179790680Y-76043663D01*
X179578000Y-76557119D01*
X179578000Y-77112881D01*
X179790680Y-77626337D01*
X180183663Y-78019320D01*
X180697119Y-78232000D01*
X181252881Y-78232000D01*
X181766337Y-78019320D01*
X182159320Y-77626337D01*
X182245000Y-77419487D01*
X182330680Y-77626337D01*
X182723663Y-78019320D01*
X183237119Y-78232000D01*
X183792881Y-78232000D01*
X184306337Y-78019320D01*
X184699320Y-77626337D01*
X184785000Y-77419487D01*
X184870680Y-77626337D01*
X185263663Y-78019320D01*
X185777119Y-78232000D01*
X186332881Y-78232000D01*
X186846337Y-78019320D01*
X187050444Y-77815213D01*
X187794392Y-77815213D01*
X187863857Y-78057397D01*
X188387302Y-78244144D01*
X188942368Y-78216362D01*
X189326143Y-78057397D01*
X189395608Y-77815213D01*
X188595000Y-77014605D01*
X187794392Y-77815213D01*
X187050444Y-77815213D01*
X187239320Y-77626337D01*
X187318428Y-77435353D01*
X187372603Y-77566143D01*
X187614787Y-77635608D01*
X188415395Y-76835000D01*
X188774605Y-76835000D01*
X189575213Y-77635608D01*
X189817397Y-77566143D01*
X190004144Y-77042698D01*
X189976362Y-76487632D01*
X189817397Y-76103857D01*
X189575213Y-76034392D01*
X188774605Y-76835000D01*
X188415395Y-76835000D01*
X188401253Y-76820858D01*
X188580858Y-76641253D01*
X188595000Y-76655395D01*
X189395608Y-75854787D01*
X189326143Y-75612603D01*
X188802698Y-75425856D01*
X188452400Y-75443389D01*
X189353180Y-74542609D01*
X189412556Y-74502935D01*
X189452231Y-74443558D01*
X189452235Y-74443554D01*
X189569746Y-74267687D01*
X189569746Y-74267686D01*
X189569747Y-74267685D01*
X189611011Y-74060235D01*
X189611011Y-74060232D01*
X189624943Y-73990190D01*
X189611011Y-73920148D01*
X189611011Y-73343265D01*
X189670484Y-73367900D01*
X189765269Y-73367900D01*
X189908118Y-73510749D01*
X189950629Y-73574371D01*
X190202683Y-73742788D01*
X190424952Y-73787000D01*
X190424953Y-73787000D01*
X190500000Y-73801928D01*
X190575047Y-73787000D01*
X194383528Y-73787000D01*
X194395680Y-73816337D01*
X194788663Y-74209320D01*
X195302119Y-74422000D01*
X195857881Y-74422000D01*
X196371337Y-74209320D01*
X196764320Y-73816337D01*
X196977000Y-73302881D01*
X196977000Y-72747119D01*
X196764320Y-72233663D01*
X196371337Y-71840680D01*
X196164487Y-71755000D01*
X196371337Y-71669320D01*
X196764320Y-71276337D01*
X196977000Y-70762881D01*
X196977000Y-70207119D01*
X196764320Y-69693663D01*
X196371337Y-69300680D01*
X196164487Y-69215000D01*
X196371337Y-69129320D01*
X196764320Y-68736337D01*
X196977000Y-68222881D01*
X196977000Y-67667119D01*
X196764320Y-67153663D01*
X196371337Y-66760680D01*
X196164487Y-66675000D01*
X196371337Y-66589320D01*
X196764320Y-66196337D01*
X196977000Y-65682881D01*
X196977000Y-65127119D01*
X196764320Y-64613663D01*
X196371337Y-64220680D01*
X196164487Y-64135000D01*
X196371337Y-64049320D01*
X196764320Y-63656337D01*
X196977000Y-63142881D01*
X196977000Y-62587119D01*
X199263000Y-62587119D01*
X199263000Y-63142881D01*
X199475680Y-63656337D01*
X199868663Y-64049320D01*
X200075513Y-64135000D01*
X199868663Y-64220680D01*
X199475680Y-64613663D01*
X199263000Y-65127119D01*
X199263000Y-65682881D01*
X199475680Y-66196337D01*
X199868663Y-66589320D01*
X200075513Y-66675000D01*
X199868663Y-66760680D01*
X199475680Y-67153663D01*
X199263000Y-67667119D01*
X199263000Y-68222881D01*
X199475680Y-68736337D01*
X199868663Y-69129320D01*
X200075513Y-69215000D01*
X199868663Y-69300680D01*
X199475680Y-69693663D01*
X199263000Y-70207119D01*
X199263000Y-70762881D01*
X199475680Y-71276337D01*
X199868663Y-71669320D01*
X200075513Y-71755000D01*
X199868663Y-71840680D01*
X199475680Y-72233663D01*
X199263000Y-72747119D01*
X199263000Y-73302881D01*
X199475680Y-73816337D01*
X199868663Y-74209320D01*
X200382119Y-74422000D01*
X200937881Y-74422000D01*
X201451337Y-74209320D01*
X201844320Y-73816337D01*
X202057000Y-73302881D01*
X202057000Y-72747119D01*
X201844320Y-72233663D01*
X201451337Y-71840680D01*
X201244487Y-71755000D01*
X201451337Y-71669320D01*
X201844320Y-71276337D01*
X202057000Y-70762881D01*
X202057000Y-70207119D01*
X201844320Y-69693663D01*
X201451337Y-69300680D01*
X201244487Y-69215000D01*
X201451337Y-69129320D01*
X201844320Y-68736337D01*
X201930119Y-68529200D01*
X202836122Y-68529200D01*
X202921646Y-68614724D01*
X203267062Y-68757800D01*
X203640938Y-68757800D01*
X203986354Y-68614724D01*
X204250724Y-68350354D01*
X204393800Y-68004938D01*
X204393800Y-67631062D01*
X204250724Y-67285646D01*
X203986354Y-67021276D01*
X203640938Y-66878200D01*
X203267062Y-66878200D01*
X202921646Y-67021276D01*
X202836122Y-67106800D01*
X201797457Y-67106800D01*
X201451337Y-66760680D01*
X201244487Y-66675000D01*
X201451337Y-66589320D01*
X201844320Y-66196337D01*
X202057000Y-65682881D01*
X202057000Y-65127119D01*
X201844320Y-64613663D01*
X201451337Y-64220680D01*
X201244487Y-64135000D01*
X201451337Y-64049320D01*
X201797457Y-63703200D01*
X202836122Y-63703200D01*
X202921646Y-63788724D01*
X203267062Y-63931800D01*
X203640938Y-63931800D01*
X203986354Y-63788724D01*
X204250724Y-63524354D01*
X204393800Y-63178938D01*
X204393800Y-62805062D01*
X204250724Y-62459646D01*
X203986354Y-62195276D01*
X203640938Y-62052200D01*
X203267062Y-62052200D01*
X202921646Y-62195276D01*
X202836122Y-62280800D01*
X201930119Y-62280800D01*
X201844320Y-62073663D01*
X201451337Y-61680680D01*
X201260353Y-61601572D01*
X201391143Y-61547397D01*
X201460608Y-61305213D01*
X200660000Y-60504605D01*
X199859392Y-61305213D01*
X199928857Y-61547397D01*
X200069393Y-61597535D01*
X199868663Y-61680680D01*
X199475680Y-62073663D01*
X199263000Y-62587119D01*
X196977000Y-62587119D01*
X196764320Y-62073663D01*
X196371337Y-61680680D01*
X196164487Y-61595000D01*
X196371337Y-61509320D01*
X196764320Y-61116337D01*
X196977000Y-60602881D01*
X196977000Y-60117302D01*
X199250856Y-60117302D01*
X199278638Y-60672368D01*
X199437603Y-61056143D01*
X199679787Y-61125608D01*
X200480395Y-60325000D01*
X200839605Y-60325000D01*
X201640213Y-61125608D01*
X201882397Y-61056143D01*
X202069144Y-60532698D01*
X202041362Y-59977632D01*
X201882397Y-59593857D01*
X201640213Y-59524392D01*
X200839605Y-60325000D01*
X200480395Y-60325000D01*
X199679787Y-59524392D01*
X199437603Y-59593857D01*
X199250856Y-60117302D01*
X196977000Y-60117302D01*
X196977000Y-60047119D01*
X196764320Y-59533663D01*
X196575444Y-59344787D01*
X199859392Y-59344787D01*
X200660000Y-60145395D01*
X201460608Y-59344787D01*
X201391143Y-59102603D01*
X200867698Y-58915856D01*
X200312632Y-58943638D01*
X199928857Y-59102603D01*
X199859392Y-59344787D01*
X196575444Y-59344787D01*
X196371337Y-59140680D01*
X196180353Y-59061572D01*
X196311143Y-59007397D01*
X196380608Y-58765213D01*
X195580000Y-57964605D01*
X194779392Y-58765213D01*
X194848857Y-59007397D01*
X194989393Y-59057535D01*
X194788663Y-59140680D01*
X194395680Y-59533663D01*
X194183000Y-60047119D01*
X194183000Y-60602881D01*
X194395680Y-61116337D01*
X194788663Y-61509320D01*
X194995513Y-61595000D01*
X194788663Y-61680680D01*
X194395680Y-62073663D01*
X194183000Y-62587119D01*
X194183000Y-63142881D01*
X194395680Y-63656337D01*
X194788663Y-64049320D01*
X194995513Y-64135000D01*
X194788663Y-64220680D01*
X194395680Y-64613663D01*
X194362486Y-64693800D01*
X190747075Y-64693800D01*
X184318759Y-58265485D01*
X184318759Y-58144535D01*
X184175683Y-57799119D01*
X183946143Y-57569579D01*
X184007136Y-57478297D01*
X184007136Y-57478296D01*
X184007137Y-57478295D01*
X184048401Y-57270845D01*
X184048401Y-57270842D01*
X184062333Y-57200800D01*
X184048401Y-57130758D01*
X184048401Y-56474891D01*
X184174354Y-56422720D01*
X184438724Y-56158350D01*
X184581800Y-55812934D01*
X184581800Y-55439058D01*
X184438724Y-55093642D01*
X184174354Y-54829272D01*
X183828938Y-54686196D01*
X183455062Y-54686196D01*
X183109646Y-54829272D01*
X182845276Y-55093642D01*
X182702200Y-55439058D01*
X182702200Y-55601016D01*
X182667266Y-55653299D01*
X182612069Y-55930795D01*
X182626002Y-56000841D01*
X182626001Y-56906210D01*
X176743412Y-62788800D01*
X169299278Y-62788800D01*
X169452724Y-62635354D01*
X169595800Y-62289938D01*
X169595800Y-61916062D01*
X169452724Y-61570646D01*
X169188354Y-61306276D01*
X168842938Y-61163200D01*
X168469062Y-61163200D01*
X168123646Y-61306276D01*
X168038122Y-61391800D01*
X159080375Y-61391800D01*
X159181800Y-61146938D01*
X159181800Y-60773062D01*
X159038724Y-60427646D01*
X158774354Y-60163276D01*
X158428938Y-60020200D01*
X158055062Y-60020200D01*
X157709646Y-60163276D01*
X157445276Y-60427646D01*
X157302200Y-60773062D01*
X157302200Y-60894011D01*
X157185412Y-61010800D01*
X151747878Y-61010800D01*
X151662354Y-60925276D01*
X151316938Y-60782200D01*
X150943062Y-60782200D01*
X150597646Y-60925276D01*
X150333276Y-61189646D01*
X150190200Y-61535062D01*
X127924868Y-61535062D01*
X127907667Y-61509320D01*
X127882613Y-61471824D01*
X127882611Y-61471822D01*
X127842935Y-61412443D01*
X127783556Y-61372767D01*
X124631424Y-58220636D01*
X124591746Y-58161254D01*
X124356496Y-58004064D01*
X124149046Y-57962800D01*
X124149041Y-57962800D01*
X124079000Y-57948868D01*
X124008959Y-57962800D01*
X121555491Y-57962800D01*
X121987282Y-57531010D01*
X142246149Y-57531010D01*
X142316190Y-57544942D01*
X142386231Y-57531010D01*
X142386236Y-57531010D01*
X142593686Y-57489746D01*
X142828936Y-57332556D01*
X142868614Y-57273174D01*
X143067988Y-57073800D01*
X143188938Y-57073800D01*
X143534354Y-56930724D01*
X143798724Y-56666354D01*
X143941800Y-56320938D01*
X143941800Y-55947062D01*
X143798724Y-55601646D01*
X143534354Y-55337276D01*
X143188938Y-55194200D01*
X142815062Y-55194200D01*
X142469646Y-55337276D01*
X142205276Y-55601646D01*
X142062200Y-55947062D01*
X142062200Y-56068012D01*
X142021602Y-56108610D01*
X140866014Y-56108610D01*
X140893800Y-56041528D01*
X140893800Y-55667652D01*
X140750724Y-55322236D01*
X140486354Y-55057866D01*
X140140938Y-54914790D01*
X140019988Y-54914790D01*
X139769834Y-54664636D01*
X139730156Y-54605254D01*
X139494906Y-54448064D01*
X139287456Y-54406800D01*
X139287451Y-54406800D01*
X139217410Y-54392868D01*
X139147369Y-54406800D01*
X136976042Y-54406800D01*
X136906000Y-54392868D01*
X136835958Y-54406800D01*
X136835954Y-54406800D01*
X136628504Y-54448064D01*
X136628502Y-54448065D01*
X136628503Y-54448065D01*
X136452635Y-54565576D01*
X136452633Y-54565578D01*
X136393254Y-54605254D01*
X136353578Y-54664633D01*
X135849412Y-55168800D01*
X134630640Y-55168800D01*
X134747000Y-54887881D01*
X134747000Y-54332119D01*
X134534320Y-53818663D01*
X134141337Y-53425680D01*
X133934487Y-53340000D01*
X134141337Y-53254320D01*
X134534320Y-52861337D01*
X134567514Y-52781200D01*
X135780122Y-52781200D01*
X135865646Y-52866724D01*
X136211062Y-53009800D01*
X136584938Y-53009800D01*
X136930354Y-52866724D01*
X137194724Y-52602354D01*
X137337800Y-52256938D01*
X137337800Y-51883062D01*
X137194724Y-51537646D01*
X136930354Y-51273276D01*
X136584938Y-51130200D01*
X136211062Y-51130200D01*
X135865646Y-51273276D01*
X135780122Y-51358800D01*
X134567514Y-51358800D01*
X134534320Y-51278663D01*
X134141337Y-50885680D01*
X133934487Y-50800000D01*
X134141337Y-50714320D01*
X134534320Y-50321337D01*
X134567514Y-50241200D01*
X135780122Y-50241200D01*
X135865646Y-50326724D01*
X136211062Y-50469800D01*
X136584938Y-50469800D01*
X136930354Y-50326724D01*
X137194724Y-50062354D01*
X137337800Y-49716938D01*
X137337800Y-49343062D01*
X137194724Y-48997646D01*
X136930354Y-48733276D01*
X136584938Y-48590200D01*
X136211062Y-48590200D01*
X135865646Y-48733276D01*
X135780122Y-48818800D01*
X134567514Y-48818800D01*
X134534320Y-48738663D01*
X134141337Y-48345680D01*
X133934487Y-48260000D01*
X134141337Y-48174320D01*
X134534320Y-47781337D01*
X134567514Y-47701200D01*
X135780122Y-47701200D01*
X135865646Y-47786724D01*
X136211062Y-47929800D01*
X136584938Y-47929800D01*
X136930354Y-47786724D01*
X137194724Y-47522354D01*
X137337800Y-47176938D01*
X137337800Y-46803062D01*
X137194724Y-46457646D01*
X136930354Y-46193276D01*
X136584938Y-46050200D01*
X136211062Y-46050200D01*
X135865646Y-46193276D01*
X135780122Y-46278800D01*
X134567514Y-46278800D01*
X134534320Y-46198663D01*
X134141337Y-45805680D01*
X133934487Y-45720000D01*
X134141337Y-45634320D01*
X134250173Y-45525484D01*
X153327100Y-45525484D01*
X153327100Y-45914516D01*
X153475977Y-46273936D01*
X153543000Y-46340959D01*
X153543001Y-52756952D01*
X153528073Y-52832000D01*
X153587213Y-53129317D01*
X153712285Y-53316500D01*
X153755630Y-53381371D01*
X153819251Y-53423881D01*
X155491118Y-55095749D01*
X155533629Y-55159371D01*
X155785683Y-55327788D01*
X156007952Y-55372000D01*
X156007953Y-55372000D01*
X156083000Y-55386928D01*
X156158047Y-55372000D01*
X156283528Y-55372000D01*
X156295680Y-55401337D01*
X156688663Y-55794320D01*
X157202119Y-56007000D01*
X157757881Y-56007000D01*
X157902584Y-55947062D01*
X160858200Y-55947062D01*
X160858200Y-56320938D01*
X161001276Y-56666354D01*
X161265646Y-56930724D01*
X161611062Y-57073800D01*
X161984938Y-57073800D01*
X162330354Y-56930724D01*
X162458443Y-56802635D01*
X162691746Y-56646746D01*
X162731424Y-56587364D01*
X164022989Y-55295800D01*
X164143938Y-55295800D01*
X164489354Y-55152724D01*
X164753724Y-54888354D01*
X164896800Y-54542938D01*
X164896800Y-54169062D01*
X164753724Y-53823646D01*
X164489354Y-53559276D01*
X164143938Y-53416200D01*
X163770062Y-53416200D01*
X163424646Y-53559276D01*
X163160276Y-53823646D01*
X163017200Y-54169062D01*
X163017200Y-54290011D01*
X162075500Y-55231712D01*
X161984938Y-55194200D01*
X161611062Y-55194200D01*
X161265646Y-55337276D01*
X161001276Y-55601646D01*
X160858200Y-55947062D01*
X157902584Y-55947062D01*
X158271337Y-55794320D01*
X158664320Y-55401337D01*
X158877000Y-54887881D01*
X158877000Y-54332119D01*
X158664320Y-53818663D01*
X158271337Y-53425680D01*
X158064487Y-53340000D01*
X158271337Y-53254320D01*
X158664320Y-52861337D01*
X158697514Y-52781200D01*
X169855959Y-52781200D01*
X169926000Y-52795132D01*
X169996041Y-52781200D01*
X169996046Y-52781200D01*
X170203496Y-52739936D01*
X170438746Y-52582746D01*
X170478424Y-52523364D01*
X174690989Y-48310800D01*
X174811938Y-48310800D01*
X175157354Y-48167724D01*
X175421724Y-47903354D01*
X175564800Y-47557938D01*
X175564800Y-47184062D01*
X175421724Y-46838646D01*
X175157354Y-46574276D01*
X175026559Y-46520099D01*
X175816311Y-46520099D01*
X176072800Y-46776589D01*
X176072801Y-47457411D01*
X175467033Y-48063179D01*
X175407653Y-48102856D01*
X175367977Y-48162235D01*
X175367975Y-48162237D01*
X175299481Y-48264746D01*
X175250463Y-48338106D01*
X175209199Y-48545556D01*
X175209199Y-48545560D01*
X175195267Y-48615601D01*
X175209199Y-48685642D01*
X175209200Y-55962353D01*
X175195267Y-56032399D01*
X175250464Y-56309895D01*
X175367975Y-56485763D01*
X175367978Y-56485766D01*
X175407654Y-56545145D01*
X175467033Y-56584821D01*
X175590200Y-56707988D01*
X175590200Y-56828938D01*
X175675849Y-57035712D01*
X167748130Y-57035712D01*
X167678088Y-57021780D01*
X167608046Y-57035712D01*
X167608042Y-57035712D01*
X167554369Y-57046388D01*
X167427320Y-56739663D01*
X167034337Y-56346680D01*
X166827487Y-56261000D01*
X167034337Y-56175320D01*
X167427320Y-55782337D01*
X167460514Y-55702200D01*
X171271778Y-55702200D01*
X171517062Y-55803800D01*
X171890938Y-55803800D01*
X172236354Y-55660724D01*
X172500724Y-55396354D01*
X172643800Y-55050938D01*
X172643800Y-54677062D01*
X172500724Y-54331646D01*
X172236354Y-54067276D01*
X171890938Y-53924200D01*
X171517062Y-53924200D01*
X171171646Y-54067276D01*
X170959122Y-54279800D01*
X167460514Y-54279800D01*
X167427320Y-54199663D01*
X167034337Y-53806680D01*
X166520881Y-53594000D01*
X165965119Y-53594000D01*
X165451663Y-53806680D01*
X165058680Y-54199663D01*
X164846000Y-54713119D01*
X164846000Y-55268881D01*
X165058680Y-55782337D01*
X165451663Y-56175320D01*
X165658513Y-56261000D01*
X165451663Y-56346680D01*
X165058680Y-56739663D01*
X164846000Y-57253119D01*
X164846000Y-57808881D01*
X165058680Y-58322337D01*
X165451663Y-58715320D01*
X165487346Y-58730100D01*
X165430200Y-58868062D01*
X165430200Y-59241938D01*
X165573276Y-59587354D01*
X165837646Y-59851724D01*
X166183062Y-59994800D01*
X166556938Y-59994800D01*
X166750981Y-59914425D01*
X166945062Y-59994816D01*
X167318938Y-59994816D01*
X167513021Y-59914424D01*
X167707066Y-59994800D01*
X168080942Y-59994800D01*
X168302111Y-59903189D01*
X168377646Y-59978724D01*
X168723062Y-60121800D01*
X169096938Y-60121800D01*
X169442354Y-59978724D01*
X169527878Y-59893200D01*
X176586959Y-59893200D01*
X176657000Y-59907132D01*
X176727041Y-59893200D01*
X176727046Y-59893200D01*
X176934496Y-59851936D01*
X177169746Y-59694746D01*
X177209424Y-59635364D01*
X179225855Y-57618933D01*
X179299646Y-57692724D01*
X179645062Y-57835800D01*
X180018938Y-57835800D01*
X180364354Y-57692724D01*
X180467000Y-57590078D01*
X180569646Y-57692724D01*
X180915062Y-57835800D01*
X181288938Y-57835800D01*
X181634354Y-57692724D01*
X181898724Y-57428354D01*
X182041800Y-57082938D01*
X182041800Y-56961988D01*
X182063364Y-56940424D01*
X182122746Y-56900746D01*
X182256560Y-56700481D01*
X182279935Y-56665498D01*
X182279935Y-56665497D01*
X182279936Y-56665496D01*
X182321200Y-56458046D01*
X182321200Y-56458043D01*
X182335132Y-56388001D01*
X182321200Y-56317959D01*
X182321200Y-55158588D01*
X182825367Y-54654422D01*
X182884746Y-54614746D01*
X182924422Y-54555367D01*
X182924424Y-54555365D01*
X183008169Y-54430032D01*
X183041936Y-54379496D01*
X183083200Y-54172046D01*
X183083200Y-54172042D01*
X183097132Y-54102000D01*
X183083200Y-54031958D01*
X183083200Y-49062588D01*
X183993072Y-48152717D01*
X184205545Y-48010746D01*
X184362735Y-47775496D01*
X184417932Y-47498000D01*
X184403999Y-47427954D01*
X184403999Y-45332840D01*
X184417931Y-45262798D01*
X184403999Y-45192754D01*
X184403999Y-45192753D01*
X184362735Y-44985303D01*
X184362734Y-44985301D01*
X184245223Y-44809434D01*
X184245219Y-44809430D01*
X184205544Y-44750053D01*
X184146167Y-44710379D01*
X184073800Y-44638011D01*
X184073800Y-44517062D01*
X183930724Y-44171646D01*
X183666354Y-43907276D01*
X183320938Y-43764200D01*
X183083186Y-43764200D01*
X183083186Y-42993062D01*
X184480200Y-42993062D01*
X184480200Y-43366938D01*
X184623276Y-43712354D01*
X184708801Y-43797879D01*
X184708800Y-57841959D01*
X184694868Y-57912000D01*
X184708800Y-57982041D01*
X184708800Y-57982045D01*
X184750064Y-58189495D01*
X184779478Y-58233516D01*
X184867576Y-58365364D01*
X184867578Y-58365366D01*
X184907254Y-58424745D01*
X184966634Y-58464422D01*
X189306200Y-62803989D01*
X189306200Y-62924938D01*
X189449276Y-63270354D01*
X189713646Y-63534724D01*
X190059062Y-63677800D01*
X190432938Y-63677800D01*
X190778354Y-63534724D01*
X191042724Y-63270354D01*
X191185800Y-62924938D01*
X191185800Y-62551062D01*
X191042724Y-62205646D01*
X190778354Y-61941276D01*
X190432938Y-61798200D01*
X190311989Y-61798200D01*
X187635851Y-59122062D01*
X188925200Y-59122062D01*
X188925200Y-59495938D01*
X189068276Y-59841354D01*
X189303634Y-60076712D01*
X189303634Y-60283345D01*
X189446710Y-60628761D01*
X189711080Y-60893131D01*
X190056496Y-61036207D01*
X190177446Y-61036207D01*
X190600258Y-61459020D01*
X190719276Y-61746354D01*
X190983646Y-62010724D01*
X191329062Y-62153800D01*
X191702938Y-62153800D01*
X191820800Y-62104980D01*
X191820801Y-62628121D01*
X191735276Y-62713646D01*
X191592200Y-63059062D01*
X191592200Y-63432938D01*
X191735276Y-63778354D01*
X191999646Y-64042724D01*
X192345062Y-64185800D01*
X192718938Y-64185800D01*
X193064354Y-64042724D01*
X193328724Y-63778354D01*
X193471800Y-63432938D01*
X193471800Y-63059062D01*
X193328724Y-62713646D01*
X193243200Y-62628122D01*
X193243200Y-61284042D01*
X193257132Y-61214000D01*
X193243200Y-61143958D01*
X193243200Y-61143954D01*
X193201936Y-60936504D01*
X193118367Y-60811435D01*
X193084424Y-60760635D01*
X193084420Y-60760631D01*
X193044745Y-60701254D01*
X192985369Y-60661580D01*
X191179424Y-58855636D01*
X191139746Y-58796254D01*
X190904496Y-58639064D01*
X190697046Y-58597800D01*
X190697041Y-58597800D01*
X190627000Y-58583868D01*
X190556959Y-58597800D01*
X190482878Y-58597800D01*
X190397354Y-58512276D01*
X190051938Y-58369200D01*
X189678062Y-58369200D01*
X189332646Y-58512276D01*
X189068276Y-58776646D01*
X188925200Y-59122062D01*
X187635851Y-59122062D01*
X186131200Y-57617412D01*
X186131200Y-49276000D01*
X189215073Y-49276000D01*
X189230000Y-49351043D01*
X189230001Y-56507964D01*
X189215073Y-56583012D01*
X189274213Y-56880329D01*
X189399226Y-57067424D01*
X189442630Y-57132383D01*
X189506251Y-57174893D01*
X190856106Y-58524749D01*
X190898617Y-58588371D01*
X190962239Y-58630882D01*
X191019667Y-58669254D01*
X191150671Y-58756788D01*
X191372940Y-58801000D01*
X191372945Y-58801000D01*
X191447988Y-58815927D01*
X191523031Y-58801000D01*
X192292041Y-58801000D01*
X192359064Y-58868023D01*
X192718484Y-59016900D01*
X193107516Y-59016900D01*
X193466936Y-58868023D01*
X193742023Y-58592936D01*
X193890900Y-58233516D01*
X193890900Y-57844484D01*
X193742023Y-57485064D01*
X193610159Y-57353200D01*
X194250808Y-57353200D01*
X194170856Y-57577302D01*
X194198638Y-58132368D01*
X194357603Y-58516143D01*
X194599787Y-58585608D01*
X195400395Y-57785000D01*
X195386253Y-57770858D01*
X195565858Y-57591253D01*
X195580000Y-57605395D01*
X195594143Y-57591253D01*
X195773748Y-57770858D01*
X195759605Y-57785000D01*
X196560213Y-58585608D01*
X196802397Y-58516143D01*
X196989144Y-57992698D01*
X196962471Y-57459778D01*
X209110000Y-57459778D01*
X209110000Y-58110222D01*
X209358914Y-58711153D01*
X209818847Y-59171086D01*
X210419778Y-59420000D01*
X211070222Y-59420000D01*
X211671153Y-59171086D01*
X212131086Y-58711153D01*
X212380000Y-58110222D01*
X212380000Y-57459778D01*
X215610000Y-57459778D01*
X215610000Y-58110222D01*
X215858914Y-58711153D01*
X216318847Y-59171086D01*
X216919778Y-59420000D01*
X217570222Y-59420000D01*
X218171153Y-59171086D01*
X218631086Y-58711153D01*
X218880000Y-58110222D01*
X218880000Y-57459778D01*
X218631086Y-56858847D01*
X218171153Y-56398914D01*
X217570222Y-56150000D01*
X216919778Y-56150000D01*
X216318847Y-56398914D01*
X215858914Y-56858847D01*
X215610000Y-57459778D01*
X212380000Y-57459778D01*
X212131086Y-56858847D01*
X211671153Y-56398914D01*
X211070222Y-56150000D01*
X210419778Y-56150000D01*
X209818847Y-56398914D01*
X209358914Y-56858847D01*
X209110000Y-57459778D01*
X196962471Y-57459778D01*
X196961362Y-57437632D01*
X196802397Y-57053857D01*
X196560215Y-56984393D01*
X196675226Y-56869382D01*
X196643816Y-56837972D01*
X199730566Y-53751223D01*
X199868663Y-53889320D01*
X200075513Y-53975000D01*
X199868663Y-54060680D01*
X199475680Y-54453663D01*
X199263000Y-54967119D01*
X199263000Y-55522881D01*
X199475680Y-56036337D01*
X199868663Y-56429320D01*
X200382119Y-56642000D01*
X200937881Y-56642000D01*
X201451337Y-56429320D01*
X201844320Y-56036337D01*
X202057000Y-55522881D01*
X202057000Y-54967119D01*
X201844320Y-54453663D01*
X201451337Y-54060680D01*
X201244487Y-53975000D01*
X201451337Y-53889320D01*
X201844320Y-53496337D01*
X202057000Y-52982881D01*
X202057000Y-52427119D01*
X201844320Y-51913663D01*
X201451337Y-51520680D01*
X201244487Y-51435000D01*
X201451337Y-51349320D01*
X201844320Y-50956337D01*
X202057000Y-50442881D01*
X202057000Y-49887119D01*
X201844320Y-49373663D01*
X201451337Y-48980680D01*
X201244487Y-48895000D01*
X201451337Y-48809320D01*
X201844320Y-48416337D01*
X202057000Y-47902881D01*
X202057000Y-47347119D01*
X201844320Y-46833663D01*
X201451337Y-46440680D01*
X201244487Y-46355000D01*
X201451337Y-46269320D01*
X201844320Y-45876337D01*
X202057000Y-45362881D01*
X202057000Y-44807119D01*
X201844320Y-44293663D01*
X201451337Y-43900680D01*
X201260353Y-43821572D01*
X201391143Y-43767397D01*
X201460608Y-43525213D01*
X200660000Y-42724605D01*
X199859392Y-43525213D01*
X199928857Y-43767397D01*
X200069393Y-43817535D01*
X199868663Y-43900680D01*
X199475680Y-44293663D01*
X199263000Y-44807119D01*
X199263000Y-45362881D01*
X199296194Y-45443018D01*
X197387233Y-47351979D01*
X197327853Y-47391656D01*
X197288177Y-47451035D01*
X197288175Y-47451037D01*
X197240523Y-47522354D01*
X197170663Y-47626906D01*
X197129399Y-47834356D01*
X197129399Y-47834360D01*
X197115467Y-47904401D01*
X197129399Y-47974443D01*
X197129400Y-52562811D01*
X195310814Y-54381398D01*
X191509475Y-54381398D01*
X191439433Y-54367466D01*
X191369392Y-54381398D01*
X191369388Y-54381398D01*
X191161938Y-54422662D01*
X190932044Y-54576273D01*
X190829021Y-54576273D01*
X190754000Y-54607348D01*
X190754000Y-49591630D01*
X191361731Y-48983900D01*
X191456516Y-48983900D01*
X191815936Y-48835023D01*
X192091023Y-48559936D01*
X192239900Y-48200516D01*
X192239900Y-47811484D01*
X192091023Y-47452064D01*
X191815936Y-47176977D01*
X191456516Y-47028100D01*
X191067484Y-47028100D01*
X190708064Y-47176977D01*
X190432977Y-47452064D01*
X190284100Y-47811484D01*
X190284100Y-47906269D01*
X189506253Y-48684117D01*
X189442629Y-48726629D01*
X189274212Y-48978684D01*
X189230000Y-49200953D01*
X189230000Y-49200957D01*
X189215073Y-49276000D01*
X186131200Y-49276000D01*
X186131200Y-43797878D01*
X186216724Y-43712354D01*
X186359800Y-43366938D01*
X186359800Y-42993062D01*
X186216724Y-42647646D01*
X185952354Y-42383276D01*
X185841363Y-42337302D01*
X199250856Y-42337302D01*
X199278638Y-42892368D01*
X199437603Y-43276143D01*
X199679787Y-43345608D01*
X200480395Y-42545000D01*
X200839605Y-42545000D01*
X201640213Y-43345608D01*
X201882397Y-43276143D01*
X202069144Y-42752698D01*
X202041362Y-42197632D01*
X201882397Y-41813857D01*
X201640213Y-41744392D01*
X200839605Y-42545000D01*
X200480395Y-42545000D01*
X199679787Y-41744392D01*
X199437603Y-41813857D01*
X199250856Y-42337302D01*
X185841363Y-42337302D01*
X185606938Y-42240200D01*
X185233062Y-42240200D01*
X184887646Y-42383276D01*
X184623276Y-42647646D01*
X184480200Y-42993062D01*
X183083186Y-42993062D01*
X183083186Y-42712602D01*
X187374726Y-38421062D01*
X195402200Y-38421062D01*
X195402200Y-38794938D01*
X195545276Y-39140354D01*
X195809646Y-39404724D01*
X196155062Y-39547800D01*
X196276012Y-39547800D01*
X197821578Y-41093367D01*
X197861254Y-41152746D01*
X197920633Y-41192422D01*
X197920635Y-41192424D01*
X198036336Y-41269733D01*
X198096504Y-41309936D01*
X198303954Y-41351200D01*
X198303958Y-41351200D01*
X198374000Y-41365132D01*
X198444042Y-41351200D01*
X199920655Y-41351200D01*
X199859392Y-41564787D01*
X200660000Y-42365395D01*
X201460608Y-41564787D01*
X201399345Y-41351200D01*
X204175412Y-41351200D01*
X206578200Y-43753989D01*
X206578200Y-43874938D01*
X206721276Y-44220354D01*
X206985646Y-44484724D01*
X207331062Y-44627800D01*
X207704938Y-44627800D01*
X208050354Y-44484724D01*
X208314724Y-44220354D01*
X208457800Y-43874938D01*
X208457800Y-43501062D01*
X208314724Y-43155646D01*
X208212078Y-43053000D01*
X208314724Y-42950354D01*
X208457800Y-42604938D01*
X208457800Y-42231062D01*
X208314724Y-41885646D01*
X208050354Y-41621276D01*
X207704938Y-41478200D01*
X207583989Y-41478200D01*
X205630111Y-39524323D01*
X205590434Y-39464942D01*
X205355184Y-39307752D01*
X205147734Y-39266488D01*
X205147729Y-39266488D01*
X205077688Y-39252556D01*
X205007647Y-39266488D01*
X202335927Y-39266488D01*
X202472662Y-39129753D01*
X202604611Y-38811200D01*
X206900122Y-38811200D01*
X206985646Y-38896724D01*
X207331062Y-39039800D01*
X207704938Y-39039800D01*
X208050354Y-38896724D01*
X208314724Y-38632354D01*
X208457800Y-38286938D01*
X208457800Y-37913062D01*
X208314724Y-37567646D01*
X208212083Y-37465005D01*
X208314724Y-37362364D01*
X208457800Y-37016948D01*
X208457800Y-36643072D01*
X208314724Y-36297656D01*
X208212069Y-36195001D01*
X208314716Y-36092354D01*
X208457792Y-35746938D01*
X208457792Y-35373062D01*
X208314716Y-35027646D01*
X208212074Y-34925004D01*
X208314724Y-34822354D01*
X208457800Y-34476938D01*
X208457800Y-34103062D01*
X208314724Y-33757646D01*
X208050354Y-33493276D01*
X207704938Y-33350200D01*
X207331062Y-33350200D01*
X206985646Y-33493276D01*
X206900122Y-33578800D01*
X202762053Y-33578800D01*
X202692011Y-33564868D01*
X202621969Y-33578800D01*
X202621966Y-33578800D01*
X202414516Y-33620064D01*
X202414515Y-33620065D01*
X202414514Y-33620065D01*
X202238647Y-33737576D01*
X202238645Y-33737578D01*
X202179266Y-33777254D01*
X202139590Y-33836633D01*
X198308024Y-37668200D01*
X198187074Y-37668200D01*
X197866006Y-37801191D01*
X197544938Y-37668200D01*
X197171062Y-37668200D01*
X196850000Y-37801188D01*
X196528938Y-37668200D01*
X196155062Y-37668200D01*
X195809646Y-37811276D01*
X195545276Y-38075646D01*
X195402200Y-38421062D01*
X187374726Y-38421062D01*
X189016591Y-36779198D01*
X197248122Y-36779198D01*
X197333646Y-36864722D01*
X197679062Y-37007798D01*
X198052938Y-37007798D01*
X198398354Y-36864722D01*
X198662724Y-36600352D01*
X198805800Y-36254936D01*
X198805800Y-35881060D01*
X198662724Y-35535644D01*
X198398354Y-35271274D01*
X198052938Y-35128198D01*
X197679062Y-35128198D01*
X197333646Y-35271274D01*
X197248122Y-35356798D01*
X188792044Y-35356798D01*
X188722002Y-35342866D01*
X188651960Y-35356798D01*
X188651956Y-35356798D01*
X188444506Y-35398062D01*
X188444504Y-35398063D01*
X188444505Y-35398063D01*
X188268637Y-35515574D01*
X188268635Y-35515576D01*
X188209256Y-35555252D01*
X188169580Y-35614631D01*
X181918620Y-41865592D01*
X181859241Y-41905268D01*
X181819565Y-41964647D01*
X181819562Y-41964650D01*
X181702051Y-42140518D01*
X181646854Y-42418014D01*
X181660787Y-42488060D01*
X181660786Y-44400285D01*
X181527636Y-44373800D01*
X181527631Y-44373800D01*
X181457590Y-44359868D01*
X181387549Y-44373800D01*
X165082878Y-44373800D01*
X164997354Y-44288276D01*
X164651938Y-44145200D01*
X164278062Y-44145200D01*
X163932646Y-44288276D01*
X163668276Y-44552646D01*
X163525200Y-44898062D01*
X163525200Y-45097699D01*
X159133488Y-45097699D01*
X158843806Y-44808018D01*
X158877000Y-44727881D01*
X158877000Y-44172119D01*
X158664320Y-43658663D01*
X158271337Y-43265680D01*
X158080353Y-43186572D01*
X158211143Y-43132397D01*
X158280608Y-42890213D01*
X157480000Y-42089605D01*
X156679392Y-42890213D01*
X156748857Y-43132397D01*
X156889393Y-43182535D01*
X156688663Y-43265680D01*
X156295680Y-43658663D01*
X156083000Y-44172119D01*
X156083000Y-44727881D01*
X156295680Y-45241337D01*
X156688663Y-45634320D01*
X156895513Y-45720000D01*
X156688663Y-45805680D01*
X156295680Y-46198663D01*
X156083000Y-46712119D01*
X156083000Y-47267881D01*
X156295680Y-47781337D01*
X156688663Y-48174320D01*
X156895513Y-48260000D01*
X156688663Y-48345680D01*
X156295680Y-48738663D01*
X156083000Y-49252119D01*
X156083000Y-49807881D01*
X156295680Y-50321337D01*
X156688663Y-50714320D01*
X156895513Y-50800000D01*
X156688663Y-50885680D01*
X156295680Y-51278663D01*
X156083000Y-51792119D01*
X156083000Y-52347881D01*
X156295680Y-52861337D01*
X156688663Y-53254320D01*
X156895513Y-53340000D01*
X156688663Y-53425680D01*
X156332487Y-53781856D01*
X155067000Y-52516370D01*
X155067000Y-46340959D01*
X155134023Y-46273936D01*
X155282900Y-45914516D01*
X155282900Y-45525484D01*
X155134023Y-45166064D01*
X154858936Y-44890977D01*
X154499516Y-44742100D01*
X154110484Y-44742100D01*
X153751064Y-44890977D01*
X153475977Y-45166064D01*
X153327100Y-45525484D01*
X134250173Y-45525484D01*
X134534320Y-45241337D01*
X134567514Y-45161200D01*
X135780118Y-45161200D01*
X135865646Y-45246728D01*
X136211062Y-45389804D01*
X136584938Y-45389804D01*
X136930354Y-45246728D01*
X137194724Y-44982358D01*
X137337800Y-44636942D01*
X137337800Y-44263066D01*
X137194724Y-43917650D01*
X136930354Y-43653280D01*
X136584938Y-43510204D01*
X136211062Y-43510204D01*
X135865646Y-43653280D01*
X135780126Y-43738800D01*
X134567514Y-43738800D01*
X134534320Y-43658663D01*
X134141337Y-43265680D01*
X133934487Y-43180000D01*
X134141337Y-43094320D01*
X134534320Y-42701337D01*
X134567514Y-42621200D01*
X135780122Y-42621200D01*
X135865646Y-42706724D01*
X136211062Y-42849800D01*
X136584938Y-42849800D01*
X136930354Y-42706724D01*
X137194724Y-42442354D01*
X137337800Y-42096938D01*
X137337800Y-41723062D01*
X137329201Y-41702302D01*
X156070856Y-41702302D01*
X156098638Y-42257368D01*
X156257603Y-42641143D01*
X156499787Y-42710608D01*
X157300395Y-41910000D01*
X157659605Y-41910000D01*
X158460213Y-42710608D01*
X158702397Y-42641143D01*
X158889144Y-42117698D01*
X158861362Y-41562632D01*
X158822604Y-41469062D01*
X177876192Y-41469062D01*
X177876192Y-41842938D01*
X178019268Y-42188354D01*
X178283638Y-42452724D01*
X178629054Y-42595800D01*
X178750004Y-42595800D01*
X178910302Y-42756098D01*
X178895566Y-42770833D01*
X178752490Y-43116249D01*
X178752490Y-43490125D01*
X178895566Y-43835541D01*
X179159936Y-44099911D01*
X179505352Y-44242987D01*
X179879228Y-44242987D01*
X180224644Y-44099911D01*
X180489014Y-43835541D01*
X180632090Y-43490125D01*
X180632090Y-43116249D01*
X180489014Y-42770833D01*
X180403490Y-42685309D01*
X180403490Y-42602340D01*
X180417422Y-42532298D01*
X180403490Y-42462256D01*
X180403490Y-42462252D01*
X180362226Y-42254802D01*
X180317253Y-42187496D01*
X180244714Y-42078934D01*
X180244712Y-42078932D01*
X180205035Y-42019552D01*
X180145656Y-41979876D01*
X179755792Y-41590012D01*
X179755792Y-41469062D01*
X179612716Y-41123646D01*
X179348346Y-40859276D01*
X179002930Y-40716200D01*
X178629054Y-40716200D01*
X178283638Y-40859276D01*
X178019268Y-41123646D01*
X177876192Y-41469062D01*
X158822604Y-41469062D01*
X158702397Y-41178857D01*
X158460213Y-41109392D01*
X157659605Y-41910000D01*
X157300395Y-41910000D01*
X156499787Y-41109392D01*
X156257603Y-41178857D01*
X156070856Y-41702302D01*
X137329201Y-41702302D01*
X137194724Y-41377646D01*
X136930354Y-41113276D01*
X136584938Y-40970200D01*
X136211062Y-40970200D01*
X135865646Y-41113276D01*
X135780122Y-41198800D01*
X134567514Y-41198800D01*
X134534320Y-41118663D01*
X134345444Y-40929787D01*
X156679392Y-40929787D01*
X157480000Y-41730395D01*
X158280608Y-40929787D01*
X158211143Y-40687603D01*
X157687698Y-40500856D01*
X157132632Y-40528638D01*
X156748857Y-40687603D01*
X156679392Y-40929787D01*
X134345444Y-40929787D01*
X134141337Y-40725680D01*
X133950353Y-40646572D01*
X134081143Y-40592397D01*
X134150608Y-40350213D01*
X133350000Y-39549605D01*
X132549392Y-40350213D01*
X132618857Y-40592397D01*
X132759393Y-40642535D01*
X132558663Y-40725680D01*
X132165680Y-41118663D01*
X131953000Y-41632119D01*
X131953000Y-42187881D01*
X132165680Y-42701337D01*
X132558663Y-43094320D01*
X132765513Y-43180000D01*
X132558663Y-43265680D01*
X132165680Y-43658663D01*
X131953000Y-44172119D01*
X131953000Y-44727881D01*
X132165680Y-45241337D01*
X132558663Y-45634320D01*
X132765513Y-45720000D01*
X132558663Y-45805680D01*
X132165680Y-46198663D01*
X131953000Y-46712119D01*
X131953000Y-47267881D01*
X132165680Y-47781337D01*
X132558663Y-48174320D01*
X132765513Y-48260000D01*
X132558663Y-48345680D01*
X132165680Y-48738663D01*
X131953000Y-49252119D01*
X131953000Y-49807881D01*
X132165680Y-50321337D01*
X132558663Y-50714320D01*
X132765513Y-50800000D01*
X132558663Y-50885680D01*
X132165680Y-51278663D01*
X131953000Y-51792119D01*
X131953000Y-52347881D01*
X132165680Y-52861337D01*
X132558663Y-53254320D01*
X132765513Y-53340000D01*
X132558663Y-53425680D01*
X132165680Y-53818663D01*
X131953000Y-54332119D01*
X131953000Y-54887881D01*
X132069360Y-55168800D01*
X127304800Y-55168800D01*
X127304800Y-55058062D01*
X127161724Y-54712646D01*
X126897354Y-54448276D01*
X126551938Y-54305200D01*
X126178062Y-54305200D01*
X125832646Y-54448276D01*
X125568276Y-54712646D01*
X125425200Y-55058062D01*
X125425200Y-55431938D01*
X125442462Y-55473611D01*
X121752900Y-55473611D01*
X121700724Y-55347646D01*
X121436354Y-55083276D01*
X121090938Y-54940200D01*
X120717062Y-54940200D01*
X120371646Y-55083276D01*
X120107276Y-55347646D01*
X119964200Y-55693062D01*
X119964200Y-56066938D01*
X120009749Y-56176903D01*
X119839751Y-56176903D01*
X119494335Y-56319979D01*
X119229965Y-56584349D01*
X119086889Y-56929765D01*
X119086889Y-57303641D01*
X119229965Y-57649057D01*
X119232594Y-57651686D01*
X119202200Y-57725062D01*
X119202200Y-58098938D01*
X119345276Y-58444354D01*
X119609646Y-58708724D01*
X119710200Y-58750375D01*
X119710200Y-58860938D01*
X119764615Y-58992307D01*
X119599276Y-59157646D01*
X119456200Y-59503062D01*
X119456200Y-59876938D01*
X119599276Y-60222354D01*
X119863646Y-60486724D01*
X120209062Y-60629800D01*
X120582938Y-60629800D01*
X120928354Y-60486724D01*
X121013878Y-60401200D01*
X122419736Y-60401200D01*
X122393283Y-60427653D01*
X122250207Y-60773069D01*
X122250207Y-60894018D01*
X115910426Y-67233800D01*
X105357514Y-67233800D01*
X105324320Y-67153663D01*
X104931337Y-66760680D01*
X104724487Y-66675000D01*
X104931337Y-66589320D01*
X105324320Y-66196337D01*
X105357514Y-66116200D01*
X112725200Y-66116200D01*
X112725200Y-66226938D01*
X112868276Y-66572354D01*
X113132646Y-66836724D01*
X113478062Y-66979800D01*
X113851938Y-66979800D01*
X114197354Y-66836724D01*
X114461724Y-66572354D01*
X114604800Y-66226938D01*
X114604800Y-65853062D01*
X114630200Y-65853062D01*
X114630200Y-66226938D01*
X114773276Y-66572354D01*
X115037646Y-66836724D01*
X115383062Y-66979800D01*
X115756938Y-66979800D01*
X116102354Y-66836724D01*
X116366724Y-66572354D01*
X116509800Y-66226938D01*
X116509800Y-65853062D01*
X116366724Y-65507646D01*
X116360262Y-65501184D01*
X116757424Y-65104023D01*
X116757426Y-65104020D01*
X118825026Y-63036421D01*
X118884404Y-62996746D01*
X118924079Y-62937368D01*
X118924082Y-62937365D01*
X119041593Y-62761498D01*
X119096790Y-62484001D01*
X119095520Y-62477613D01*
X119075200Y-62375458D01*
X119075200Y-55735878D01*
X119160724Y-55650354D01*
X119303800Y-55304938D01*
X119303800Y-54931062D01*
X119160724Y-54585646D01*
X118896354Y-54321276D01*
X118550938Y-54178200D01*
X118177062Y-54178200D01*
X117831646Y-54321276D01*
X117567276Y-54585646D01*
X117424200Y-54931062D01*
X117424200Y-55304938D01*
X117567276Y-55650354D01*
X117652800Y-55735878D01*
X117652801Y-62197068D01*
X115751638Y-64098232D01*
X115751635Y-64098234D01*
X115116634Y-64733236D01*
X115057255Y-64772912D01*
X115017579Y-64832291D01*
X115017576Y-64832294D01*
X114937835Y-64951635D01*
X114900065Y-65008162D01*
X114858800Y-65215612D01*
X114858800Y-65215617D01*
X114844868Y-65285658D01*
X114858800Y-65355699D01*
X114858800Y-65422122D01*
X114773276Y-65507646D01*
X114630200Y-65853062D01*
X114604800Y-65853062D01*
X114461724Y-65507646D01*
X114197354Y-65243276D01*
X113851938Y-65100200D01*
X113730988Y-65100200D01*
X113582423Y-64951635D01*
X113542746Y-64892254D01*
X113307496Y-64735064D01*
X113100046Y-64693800D01*
X113100041Y-64693800D01*
X113030000Y-64679868D01*
X112959959Y-64693800D01*
X105357514Y-64693800D01*
X105324320Y-64613663D01*
X104931337Y-64220680D01*
X104417881Y-64008000D01*
X103862119Y-64008000D01*
X103348663Y-64220680D01*
X102955680Y-64613663D01*
X102743000Y-65127119D01*
X101127000Y-65127119D01*
X101127000Y-58868054D01*
X113995200Y-58868054D01*
X113995200Y-59241930D01*
X114138276Y-59587346D01*
X114402646Y-59851716D01*
X114748062Y-59994792D01*
X115121938Y-59994792D01*
X115467354Y-59851716D01*
X115731724Y-59587346D01*
X115874800Y-59241930D01*
X115874800Y-59120988D01*
X116270989Y-58724800D01*
X116391938Y-58724800D01*
X116737354Y-58581724D01*
X117001724Y-58317354D01*
X117144800Y-57971938D01*
X117144800Y-57598062D01*
X117001724Y-57252646D01*
X116737354Y-56988276D01*
X116391938Y-56845200D01*
X116018062Y-56845200D01*
X115672646Y-56988276D01*
X115408276Y-57252646D01*
X115265200Y-57598062D01*
X115265200Y-57719011D01*
X114869020Y-58115192D01*
X114748062Y-58115192D01*
X114402646Y-58258268D01*
X114138276Y-58522638D01*
X113995200Y-58868054D01*
X101127000Y-58868054D01*
X101127000Y-46549062D01*
X128473200Y-46549062D01*
X128473200Y-46922938D01*
X128616276Y-47268354D01*
X128880646Y-47532724D01*
X129226062Y-47675800D01*
X129347012Y-47675800D01*
X129626411Y-47955200D01*
X129353062Y-47955200D01*
X129007646Y-48098276D01*
X128743276Y-48362646D01*
X128600200Y-48708062D01*
X128600200Y-49081938D01*
X128743276Y-49427354D01*
X128828800Y-49512878D01*
X128828801Y-52976121D01*
X128743276Y-53061646D01*
X128600200Y-53407062D01*
X128600200Y-53780938D01*
X128743276Y-54126354D01*
X129007646Y-54390724D01*
X129353062Y-54533800D01*
X129726938Y-54533800D01*
X130048000Y-54400812D01*
X130369062Y-54533800D01*
X130742938Y-54533800D01*
X131088354Y-54390724D01*
X131352724Y-54126354D01*
X131495800Y-53780938D01*
X131495800Y-53407062D01*
X131352724Y-53061646D01*
X131267200Y-52976122D01*
X131267200Y-47949041D01*
X131281132Y-47878999D01*
X131267200Y-47808955D01*
X131267200Y-47808954D01*
X131225936Y-47601504D01*
X131186460Y-47542424D01*
X131108424Y-47425635D01*
X131108420Y-47425631D01*
X131068745Y-47366254D01*
X131009369Y-47326580D01*
X130352800Y-46670012D01*
X130352800Y-46549062D01*
X130209724Y-46203646D01*
X129945354Y-45939276D01*
X129599938Y-45796200D01*
X129226062Y-45796200D01*
X128880646Y-45939276D01*
X128616276Y-46203646D01*
X128473200Y-46549062D01*
X101127000Y-46549062D01*
X101127000Y-39175484D01*
X103162100Y-39175484D01*
X103162100Y-39564516D01*
X103310977Y-39923936D01*
X103314501Y-39927460D01*
X103314500Y-41352541D01*
X103310977Y-41356064D01*
X103162100Y-41715484D01*
X103162100Y-42104516D01*
X103310977Y-42463936D01*
X103586064Y-42739023D01*
X103945484Y-42887900D01*
X104334516Y-42887900D01*
X104693936Y-42739023D01*
X104969023Y-42463936D01*
X105117900Y-42104516D01*
X105117900Y-41715484D01*
X104969023Y-41356064D01*
X104965500Y-41352541D01*
X104965500Y-39927459D01*
X104969023Y-39923936D01*
X105117900Y-39564516D01*
X105117900Y-39175484D01*
X105112440Y-39162302D01*
X131940856Y-39162302D01*
X131968638Y-39717368D01*
X132127603Y-40101143D01*
X132369787Y-40170608D01*
X133170395Y-39370000D01*
X133529605Y-39370000D01*
X134330213Y-40170608D01*
X134572397Y-40101143D01*
X134759144Y-39577698D01*
X134731362Y-39022632D01*
X134572397Y-38638857D01*
X134330213Y-38569392D01*
X133529605Y-39370000D01*
X133170395Y-39370000D01*
X132369787Y-38569392D01*
X132127603Y-38638857D01*
X131940856Y-39162302D01*
X105112440Y-39162302D01*
X104969023Y-38816064D01*
X104693936Y-38540977D01*
X104334516Y-38392100D01*
X103945484Y-38392100D01*
X103586064Y-38540977D01*
X103310977Y-38816064D01*
X103162100Y-39175484D01*
X101127000Y-39175484D01*
X101127000Y-38389787D01*
X132549392Y-38389787D01*
X133350000Y-39190395D01*
X134150608Y-38389787D01*
X134081143Y-38147603D01*
X133557698Y-37960856D01*
X133002632Y-37988638D01*
X132618857Y-38147603D01*
X132549392Y-38389787D01*
X101127000Y-38389787D01*
X101127000Y-31127000D01*
X172595041Y-31127000D01*
X172525977Y-31196064D01*
X172525977Y-31196064D01*
G37*
X172525977Y-31196064D02*
X172377100Y-31555484D01*
X172377100Y-31944516D01*
X172525977Y-32303936D01*
X172607041Y-32385000D01*
X172525977Y-32466064D01*
X172377100Y-32825484D01*
X172377100Y-33214516D01*
X172525977Y-33573936D01*
X172801064Y-33849023D01*
X173160484Y-33997900D01*
X173549516Y-33997900D01*
X173908936Y-33849023D01*
X173912459Y-33845500D01*
X188037541Y-33845500D01*
X188041064Y-33849023D01*
X188400484Y-33997900D01*
X188789516Y-33997900D01*
X189148936Y-33849023D01*
X189424023Y-33573936D01*
X189572900Y-33214516D01*
X189572900Y-32825484D01*
X189424023Y-32466064D01*
X189342959Y-32385000D01*
X189424023Y-32303936D01*
X189572900Y-31944516D01*
X189572900Y-31555484D01*
X189424023Y-31196064D01*
X189354959Y-31127000D01*
X207520041Y-31127000D01*
X207450977Y-31196064D01*
X207302100Y-31555484D01*
X207302100Y-31944516D01*
X207450977Y-32303936D01*
X207726064Y-32579023D01*
X208064100Y-32719042D01*
X208064100Y-32960516D01*
X208212977Y-33319936D01*
X208488064Y-33595023D01*
X208847484Y-33743900D01*
X209236516Y-33743900D01*
X209595936Y-33595023D01*
X209599459Y-33591500D01*
X219114068Y-33591500D01*
X220789500Y-35266933D01*
X220789501Y-37973000D01*
X219695959Y-37973000D01*
X219628936Y-37905977D01*
X219269516Y-37757100D01*
X218880484Y-37757100D01*
X218521064Y-37905977D01*
X218245977Y-38181064D01*
X218097100Y-38540484D01*
X218097100Y-38929516D01*
X218245977Y-39288936D01*
X218521064Y-39564023D01*
X218880484Y-39712900D01*
X219269516Y-39712900D01*
X219628936Y-39564023D01*
X219695959Y-39497000D01*
X220789501Y-39497000D01*
X220789500Y-46432541D01*
X220785977Y-46436064D01*
X220637100Y-46795484D01*
X220637100Y-47184516D01*
X220785977Y-47543936D01*
X221061064Y-47819023D01*
X221420484Y-47967900D01*
X221809516Y-47967900D01*
X222168936Y-47819023D01*
X222250000Y-47737959D01*
X222331064Y-47819023D01*
X222690484Y-47967900D01*
X223079516Y-47967900D01*
X223438936Y-47819023D01*
X223714023Y-47543936D01*
X223862900Y-47184516D01*
X223862900Y-46795484D01*
X223714023Y-46436064D01*
X223710500Y-46432541D01*
X223710500Y-34371297D01*
X223726671Y-34289999D01*
X223710500Y-34208701D01*
X223710500Y-34208697D01*
X223662604Y-33967906D01*
X223480152Y-33694848D01*
X223411229Y-33648795D01*
X220986209Y-31223777D01*
X220940152Y-31154848D01*
X220898475Y-31127000D01*
X223873000Y-31127000D01*
X223873000Y-116873000D01*
X114801952Y-116873000D01*
X114801952Y-114592100D01*
X101127000Y-114592100D01*
X101127000Y-108930213D01*
X171919392Y-108930213D01*
X171988857Y-109172397D01*
X172512302Y-109359144D01*
X173067368Y-109331362D01*
X173451143Y-109172397D01*
X173520608Y-108930213D01*
X172720000Y-108129605D01*
X171919392Y-108930213D01*
X101127000Y-108930213D01*
X101127000Y-107742302D01*
X171310856Y-107742302D01*
X171338638Y-108297368D01*
X171497603Y-108681143D01*
X171739787Y-108750608D01*
X172540395Y-107950000D01*
X171739787Y-107149392D01*
X171497603Y-107218857D01*
X171310856Y-107742302D01*
X101127000Y-107742302D01*
X101127000Y-106390213D01*
X171919392Y-106390213D01*
X171988857Y-106632397D01*
X172112344Y-106676453D01*
X171988857Y-106727603D01*
X171919392Y-106969787D01*
X172720000Y-107770395D01*
X173520608Y-106969787D01*
X173451143Y-106727603D01*
X173327656Y-106683547D01*
X173451143Y-106632397D01*
X173520608Y-106390213D01*
X172720000Y-105589605D01*
X171919392Y-106390213D01*
X101127000Y-106390213D01*
X101127000Y-105202302D01*
X171310856Y-105202302D01*
X171338638Y-105757368D01*
X171497603Y-106141143D01*
X171739787Y-106210608D01*
X172540395Y-105410000D01*
X172899605Y-105410000D01*
X173700213Y-106210608D01*
X173942397Y-106141143D01*
X173992535Y-106000607D01*
X174075680Y-106201337D01*
X174468663Y-106594320D01*
X174675513Y-106680000D01*
X174468663Y-106765680D01*
X174075680Y-107158663D01*
X173996572Y-107349647D01*
X173942397Y-107218857D01*
X173700213Y-107149392D01*
X172899605Y-107950000D01*
X173700213Y-108750608D01*
X173942397Y-108681143D01*
X173992535Y-108540607D01*
X174075680Y-108741337D01*
X174468663Y-109134320D01*
X174982119Y-109347000D01*
X175489568Y-109347000D01*
X180333793Y-114191226D01*
X180379848Y-114260152D01*
X180448773Y-114306206D01*
X180652906Y-114442604D01*
X180975000Y-114506672D01*
X181056303Y-114490500D01*
X192323699Y-114490500D01*
X192405000Y-114506672D01*
X192486301Y-114490500D01*
X192486303Y-114490500D01*
X192727094Y-114442604D01*
X193000152Y-114260152D01*
X193046209Y-114191223D01*
X197890433Y-109347000D01*
X198397881Y-109347000D01*
X198911337Y-109134320D01*
X199304320Y-108741337D01*
X199390000Y-108534487D01*
X199475680Y-108741337D01*
X199868663Y-109134320D01*
X200382119Y-109347000D01*
X200937881Y-109347000D01*
X201451337Y-109134320D01*
X201844320Y-108741337D01*
X201930000Y-108534487D01*
X202015680Y-108741337D01*
X202408663Y-109134320D01*
X202922119Y-109347000D01*
X203477881Y-109347000D01*
X203991337Y-109134320D01*
X204384320Y-108741337D01*
X204470000Y-108534487D01*
X204555680Y-108741337D01*
X204948663Y-109134320D01*
X205462119Y-109347000D01*
X206017881Y-109347000D01*
X206531337Y-109134320D01*
X206924320Y-108741337D01*
X207010000Y-108534487D01*
X207095680Y-108741337D01*
X207488663Y-109134320D01*
X208002119Y-109347000D01*
X208557881Y-109347000D01*
X209071337Y-109134320D01*
X209464320Y-108741337D01*
X209677000Y-108227881D01*
X209677000Y-107672119D01*
X209464320Y-107158663D01*
X209071337Y-106765680D01*
X208864487Y-106680000D01*
X209071337Y-106594320D01*
X209464320Y-106201337D01*
X209677000Y-105687881D01*
X209677000Y-105132119D01*
X209464320Y-104618663D01*
X209071337Y-104225680D01*
X208557881Y-104013000D01*
X208002119Y-104013000D01*
X207488663Y-104225680D01*
X207095680Y-104618663D01*
X207010000Y-104825513D01*
X206924320Y-104618663D01*
X206531337Y-104225680D01*
X206451200Y-104192486D01*
X206451200Y-103215213D01*
X213829392Y-103215213D01*
X213898857Y-103457397D01*
X214422302Y-103644144D01*
X214977368Y-103616362D01*
X215361143Y-103457397D01*
X215430608Y-103215213D01*
X214630000Y-102414605D01*
X213829392Y-103215213D01*
X206451200Y-103215213D01*
X206451200Y-102027302D01*
X213220856Y-102027302D01*
X213248638Y-102582368D01*
X213407603Y-102966143D01*
X213649787Y-103035608D01*
X214450395Y-102235000D01*
X214809605Y-102235000D01*
X215610213Y-103035608D01*
X215852397Y-102966143D01*
X216039144Y-102442698D01*
X216011362Y-101887632D01*
X215852397Y-101503857D01*
X215610213Y-101434392D01*
X214809605Y-102235000D01*
X214450395Y-102235000D01*
X213649787Y-101434392D01*
X213407603Y-101503857D01*
X213220856Y-102027302D01*
X206451200Y-102027302D01*
X206451200Y-101162041D01*
X206465132Y-101091999D01*
X206451200Y-101021957D01*
X206451200Y-101021954D01*
X206409936Y-100814504D01*
X206392963Y-100789102D01*
X206292424Y-100638635D01*
X206292422Y-100638633D01*
X206252746Y-100579254D01*
X206193367Y-100539578D01*
X203631800Y-97978012D01*
X203631800Y-97857062D01*
X203488724Y-97511646D01*
X203224354Y-97247276D01*
X202878938Y-97104200D01*
X202505062Y-97104200D01*
X202159646Y-97247276D01*
X201895276Y-97511646D01*
X201752200Y-97857062D01*
X201752200Y-98230938D01*
X201895276Y-98576354D01*
X202159646Y-98840724D01*
X202505062Y-98983800D01*
X202626012Y-98983800D01*
X205028801Y-101386590D01*
X205028800Y-103442178D01*
X205022424Y-103432635D01*
X205022422Y-103432633D01*
X204982746Y-103373254D01*
X204923367Y-103333578D01*
X203631800Y-102042012D01*
X203631800Y-101921062D01*
X203488724Y-101575646D01*
X203224354Y-101311276D01*
X202878938Y-101168200D01*
X202505062Y-101168200D01*
X202159646Y-101311276D01*
X201930000Y-101540922D01*
X201700354Y-101311276D01*
X201354938Y-101168200D01*
X200981062Y-101168200D01*
X200635646Y-101311276D01*
X200375331Y-101571591D01*
X200175496Y-101438064D01*
X199968046Y-101396800D01*
X199968041Y-101396800D01*
X199898000Y-101382868D01*
X199827959Y-101396800D01*
X199245866Y-101396800D01*
X199160342Y-101311276D01*
X198814926Y-101168200D01*
X198441050Y-101168200D01*
X198119994Y-101301186D01*
X197798938Y-101168200D01*
X197425062Y-101168200D01*
X197079646Y-101311276D01*
X196815276Y-101575646D01*
X196672200Y-101921062D01*
X196672200Y-102294938D01*
X196815276Y-102640354D01*
X197079646Y-102904724D01*
X197197931Y-102953719D01*
X198257212Y-104013000D01*
X197842119Y-104013000D01*
X197328663Y-104225680D01*
X196935680Y-104618663D01*
X196856572Y-104809647D01*
X196802397Y-104678857D01*
X196560213Y-104609392D01*
X195759605Y-105410000D01*
X196560213Y-106210608D01*
X196802397Y-106141143D01*
X196852535Y-106000607D01*
X196935680Y-106201337D01*
X197328663Y-106594320D01*
X197535513Y-106680000D01*
X197328663Y-106765680D01*
X196935680Y-107158663D01*
X196856572Y-107349647D01*
X196802397Y-107218857D01*
X196560213Y-107149392D01*
X195759605Y-107950000D01*
X195773748Y-107964143D01*
X195594143Y-108143748D01*
X195580000Y-108129605D01*
X194779392Y-108930213D01*
X194848857Y-109172397D01*
X195372302Y-109359144D01*
X195552439Y-109350128D01*
X192063068Y-112839500D01*
X181316933Y-112839500D01*
X177824432Y-109347000D01*
X178077881Y-109347000D01*
X178158018Y-109313806D01*
X178517578Y-109673367D01*
X178557254Y-109732746D01*
X178616633Y-109772422D01*
X178616635Y-109772424D01*
X178792502Y-109889935D01*
X178792503Y-109889935D01*
X178792504Y-109889936D01*
X178999954Y-109931200D01*
X178999957Y-109931200D01*
X179069999Y-109945132D01*
X179140041Y-109931200D01*
X185984959Y-109931200D01*
X186055000Y-109945132D01*
X186125041Y-109931200D01*
X186125046Y-109931200D01*
X186332496Y-109889936D01*
X186567746Y-109732746D01*
X186607424Y-109673364D01*
X187350575Y-108930213D01*
X188429392Y-108930213D01*
X188498857Y-109172397D01*
X189022302Y-109359144D01*
X189577368Y-109331362D01*
X189961143Y-109172397D01*
X190030608Y-108930213D01*
X189230000Y-108129605D01*
X188429392Y-108930213D01*
X187350575Y-108930213D01*
X187888115Y-108392674D01*
X188007603Y-108681143D01*
X188249787Y-108750608D01*
X189050395Y-107950000D01*
X189409605Y-107950000D01*
X190210213Y-108750608D01*
X190452397Y-108681143D01*
X190502535Y-108540607D01*
X190585680Y-108741337D01*
X190978663Y-109134320D01*
X191492119Y-109347000D01*
X192047881Y-109347000D01*
X192561337Y-109134320D01*
X192954320Y-108741337D01*
X193167000Y-108227881D01*
X193167000Y-107742302D01*
X194170856Y-107742302D01*
X194198638Y-108297368D01*
X194357603Y-108681143D01*
X194599787Y-108750608D01*
X195400395Y-107950000D01*
X194599787Y-107149392D01*
X194357603Y-107218857D01*
X194170856Y-107742302D01*
X193167000Y-107742302D01*
X193167000Y-107672119D01*
X192954320Y-107158663D01*
X192561337Y-106765680D01*
X192047881Y-106553000D01*
X191492119Y-106553000D01*
X190978663Y-106765680D01*
X190585680Y-107158663D01*
X190506572Y-107349647D01*
X190452397Y-107218857D01*
X190210213Y-107149392D01*
X189409605Y-107950000D01*
X189050395Y-107950000D01*
X189036253Y-107935858D01*
X189215858Y-107756253D01*
X189230000Y-107770395D01*
X190030608Y-106969787D01*
X189961143Y-106727603D01*
X189437698Y-106540856D01*
X188882632Y-106568638D01*
X188671200Y-106656216D01*
X188671200Y-106390213D01*
X194779392Y-106390213D01*
X194848857Y-106632397D01*
X194972344Y-106676453D01*
X194848857Y-106727603D01*
X194779392Y-106969787D01*
X195580000Y-107770395D01*
X196380608Y-106969787D01*
X196311143Y-106727603D01*
X196187656Y-106683547D01*
X196311143Y-106632397D01*
X196380608Y-106390213D01*
X195580000Y-105589605D01*
X194779392Y-106390213D01*
X188671200Y-106390213D01*
X188671200Y-105202302D01*
X194170856Y-105202302D01*
X194198638Y-105757368D01*
X194357603Y-106141143D01*
X194599787Y-106210608D01*
X195400395Y-105410000D01*
X194599787Y-104609392D01*
X194357603Y-104678857D01*
X194170856Y-105202302D01*
X188671200Y-105202302D01*
X188671200Y-104429787D01*
X194779392Y-104429787D01*
X195580000Y-105230395D01*
X196380608Y-104429787D01*
X196311143Y-104187603D01*
X195787698Y-104000856D01*
X195232632Y-104028638D01*
X194848857Y-104187603D01*
X194779392Y-104429787D01*
X188671200Y-104429787D01*
X188671200Y-100878588D01*
X192318589Y-97231200D01*
X193057122Y-97231200D01*
X193142646Y-97316724D01*
X193488062Y-97459800D01*
X193861938Y-97459800D01*
X194207354Y-97316724D01*
X194471724Y-97052354D01*
X194562382Y-96833484D01*
X206286100Y-96833484D01*
X206286100Y-97222516D01*
X206434977Y-97581936D01*
X206710064Y-97857023D01*
X207069484Y-98005900D01*
X207458516Y-98005900D01*
X207817936Y-97857023D01*
X208093023Y-97581936D01*
X208129318Y-97494312D01*
X208765749Y-96857882D01*
X208829371Y-96815371D01*
X208887787Y-96727946D01*
X208945044Y-96642254D01*
X208997788Y-96563317D01*
X209042000Y-96341048D01*
X209042000Y-96341047D01*
X209056928Y-96266000D01*
X209042000Y-96190953D01*
X209042000Y-89257119D01*
X213233000Y-89257119D01*
X213233000Y-89812881D01*
X213445680Y-90326337D01*
X213838663Y-90719320D01*
X214045513Y-90805000D01*
X213838663Y-90890680D01*
X213445680Y-91283663D01*
X213233000Y-91797119D01*
X213233000Y-92352881D01*
X213445680Y-92866337D01*
X213838663Y-93259320D01*
X214045513Y-93345000D01*
X213838663Y-93430680D01*
X213445680Y-93823663D01*
X213233000Y-94337119D01*
X213233000Y-94892881D01*
X213445680Y-95406337D01*
X213838663Y-95799320D01*
X214045513Y-95885000D01*
X213838663Y-95970680D01*
X213445680Y-96363663D01*
X213233000Y-96877119D01*
X213233000Y-97432881D01*
X213445680Y-97946337D01*
X213838663Y-98339320D01*
X214045513Y-98425000D01*
X213838663Y-98510680D01*
X213445680Y-98903663D01*
X213233000Y-99417119D01*
X213233000Y-99972881D01*
X213445680Y-100486337D01*
X213838663Y-100879320D01*
X214029647Y-100958428D01*
X213898857Y-101012603D01*
X213829392Y-101254787D01*
X214630000Y-102055395D01*
X215430608Y-101254787D01*
X215361143Y-101012603D01*
X215220607Y-100962465D01*
X215421337Y-100879320D01*
X215814320Y-100486337D01*
X216027000Y-99972881D01*
X216027000Y-99417119D01*
X215814320Y-98903663D01*
X215421337Y-98510680D01*
X215214487Y-98425000D01*
X215421337Y-98339320D01*
X215814320Y-97946337D01*
X216027000Y-97432881D01*
X216027000Y-96877119D01*
X215814320Y-96363663D01*
X215421337Y-95970680D01*
X215214487Y-95885000D01*
X215421337Y-95799320D01*
X215814320Y-95406337D01*
X216027000Y-94892881D01*
X216027000Y-94337119D01*
X215814320Y-93823663D01*
X215421337Y-93430680D01*
X215214487Y-93345000D01*
X215421337Y-93259320D01*
X215814320Y-92866337D01*
X216027000Y-92352881D01*
X216027000Y-91797119D01*
X215814320Y-91283663D01*
X215421337Y-90890680D01*
X215214487Y-90805000D01*
X215421337Y-90719320D01*
X215814320Y-90326337D01*
X216027000Y-89812881D01*
X216027000Y-89257119D01*
X215814320Y-88743663D01*
X215421337Y-88350680D01*
X214907881Y-88138000D01*
X214352119Y-88138000D01*
X213838663Y-88350680D01*
X213445680Y-88743663D01*
X213233000Y-89257119D01*
X209042000Y-89257119D01*
X209042000Y-88885959D01*
X209109023Y-88818936D01*
X209257900Y-88459516D01*
X209257900Y-88070484D01*
X209109023Y-87711064D01*
X208833936Y-87435977D01*
X208474516Y-87287100D01*
X208085484Y-87287100D01*
X207726064Y-87435977D01*
X207450977Y-87711064D01*
X207302100Y-88070484D01*
X207302100Y-88459516D01*
X207450977Y-88818936D01*
X207518000Y-88885959D01*
X207518001Y-95950368D01*
X207418269Y-96050100D01*
X207069484Y-96050100D01*
X206710064Y-96198977D01*
X206434977Y-96474064D01*
X206286100Y-96833484D01*
X194562382Y-96833484D01*
X194614800Y-96706938D01*
X194614800Y-96333062D01*
X194471724Y-95987646D01*
X194207354Y-95723276D01*
X193861938Y-95580200D01*
X193488062Y-95580200D01*
X193142646Y-95723276D01*
X193057122Y-95808800D01*
X192277999Y-95808800D01*
X192277999Y-92322841D01*
X192291931Y-92252799D01*
X192277999Y-92182757D01*
X192277999Y-92182753D01*
X192236735Y-91975303D01*
X192201800Y-91923019D01*
X192201800Y-91761062D01*
X192058724Y-91415646D01*
X191794354Y-91151276D01*
X191448938Y-91008200D01*
X191439790Y-91008200D01*
X191439790Y-90745062D01*
X191296714Y-90399646D01*
X191032344Y-90135276D01*
X190686928Y-89992200D01*
X190313052Y-89992200D01*
X189967636Y-90135276D01*
X189703266Y-90399646D01*
X189560190Y-90745062D01*
X189560190Y-90988267D01*
X189520859Y-91185999D01*
X189534792Y-91256045D01*
X189534791Y-92179699D01*
X189520859Y-92249741D01*
X189534791Y-92319782D01*
X189534791Y-92319786D01*
X189576055Y-92527236D01*
X189576056Y-92527237D01*
X189693567Y-92703105D01*
X189693569Y-92703107D01*
X189733245Y-92762486D01*
X189792624Y-92802163D01*
X189859369Y-92868907D01*
X189713646Y-92929268D01*
X189628122Y-93014792D01*
X187268049Y-93014792D01*
X187198007Y-93000860D01*
X187127965Y-93014792D01*
X187127962Y-93014792D01*
X186920512Y-93056056D01*
X186920511Y-93056057D01*
X186920510Y-93056057D01*
X186744643Y-93173568D01*
X186744641Y-93173570D01*
X186685262Y-93213246D01*
X186645586Y-93272625D01*
X182426634Y-97491578D01*
X182367255Y-97531254D01*
X182327579Y-97590633D01*
X182327576Y-97590636D01*
X182210065Y-97766504D01*
X182154868Y-98044000D01*
X182168801Y-98114045D01*
X182168800Y-104192486D01*
X182088663Y-104225680D01*
X181695680Y-104618663D01*
X181610000Y-104825513D01*
X181524320Y-104618663D01*
X181131337Y-104225680D01*
X180617881Y-104013000D01*
X180062119Y-104013000D01*
X179548663Y-104225680D01*
X179155680Y-104618663D01*
X179070000Y-104825513D01*
X178984320Y-104618663D01*
X178591337Y-104225680D01*
X178077881Y-104013000D01*
X177522119Y-104013000D01*
X177008663Y-104225680D01*
X176615680Y-104618663D01*
X176530000Y-104825513D01*
X176444320Y-104618663D01*
X176051337Y-104225680D01*
X175537881Y-104013000D01*
X174982119Y-104013000D01*
X174468663Y-104225680D01*
X174075680Y-104618663D01*
X173996572Y-104809647D01*
X173942397Y-104678857D01*
X173700213Y-104609392D01*
X172899605Y-105410000D01*
X172540395Y-105410000D01*
X171739787Y-104609392D01*
X171497603Y-104678857D01*
X171310856Y-105202302D01*
X101127000Y-105202302D01*
X101127000Y-104429787D01*
X171919392Y-104429787D01*
X172720000Y-105230395D01*
X173520608Y-104429787D01*
X173451143Y-104187603D01*
X172927698Y-104000856D01*
X172372632Y-104028638D01*
X171988857Y-104187603D01*
X171919392Y-104429787D01*
X101127000Y-104429787D01*
X101127000Y-103215213D01*
X175094392Y-103215213D01*
X175163857Y-103457397D01*
X175687302Y-103644144D01*
X176242368Y-103616362D01*
X176626143Y-103457397D01*
X176695608Y-103215213D01*
X175895000Y-102414605D01*
X175094392Y-103215213D01*
X101127000Y-103215213D01*
X101127000Y-102027302D01*
X174485856Y-102027302D01*
X174513638Y-102582368D01*
X174672603Y-102966143D01*
X174914787Y-103035608D01*
X175715395Y-102235000D01*
X176074605Y-102235000D01*
X176875213Y-103035608D01*
X177117397Y-102966143D01*
X177304144Y-102442698D01*
X177276362Y-101887632D01*
X177117397Y-101503857D01*
X176875213Y-101434392D01*
X176074605Y-102235000D01*
X175715395Y-102235000D01*
X174914787Y-101434392D01*
X174672603Y-101503857D01*
X174485856Y-102027302D01*
X101127000Y-102027302D01*
X101127000Y-89257119D01*
X174498000Y-89257119D01*
X174498000Y-89812881D01*
X174710680Y-90326337D01*
X175103663Y-90719320D01*
X175310513Y-90805000D01*
X175103663Y-90890680D01*
X174710680Y-91283663D01*
X174498000Y-91797119D01*
X174498000Y-92352881D01*
X174710680Y-92866337D01*
X175103663Y-93259320D01*
X175310513Y-93345000D01*
X175103663Y-93430680D01*
X174710680Y-93823663D01*
X174498000Y-94337119D01*
X174498000Y-94892881D01*
X174710680Y-95406337D01*
X175103663Y-95799320D01*
X175310513Y-95885000D01*
X175103663Y-95970680D01*
X174710680Y-96363663D01*
X174498000Y-96877119D01*
X174498000Y-97432881D01*
X174710680Y-97946337D01*
X175103663Y-98339320D01*
X175310513Y-98425000D01*
X175103663Y-98510680D01*
X174710680Y-98903663D01*
X174498000Y-99417119D01*
X174498000Y-99972881D01*
X174710680Y-100486337D01*
X175103663Y-100879320D01*
X175294647Y-100958428D01*
X175163857Y-101012603D01*
X175094392Y-101254787D01*
X175895000Y-102055395D01*
X176695608Y-101254787D01*
X176626143Y-101012603D01*
X176485607Y-100962465D01*
X176686337Y-100879320D01*
X177079320Y-100486337D01*
X177292000Y-99972881D01*
X177292000Y-99417119D01*
X177079320Y-98903663D01*
X176686337Y-98510680D01*
X176479487Y-98425000D01*
X176686337Y-98339320D01*
X177079320Y-97946337D01*
X177292000Y-97432881D01*
X177292000Y-96877119D01*
X177079320Y-96363663D01*
X176686337Y-95970680D01*
X176479487Y-95885000D01*
X176686337Y-95799320D01*
X177079320Y-95406337D01*
X177292000Y-94892881D01*
X177292000Y-94337119D01*
X177258806Y-94256982D01*
X181777589Y-89738200D01*
X193126412Y-89738200D01*
X195656200Y-92267989D01*
X195656200Y-92388938D01*
X195799276Y-92734354D01*
X196063646Y-92998724D01*
X196409062Y-93141800D01*
X196782938Y-93141800D01*
X197128354Y-92998724D01*
X197392724Y-92734354D01*
X197535800Y-92388938D01*
X197535800Y-92015062D01*
X197392724Y-91669646D01*
X197128354Y-91405276D01*
X196782938Y-91262200D01*
X196661989Y-91262200D01*
X193973424Y-88573636D01*
X193933746Y-88514254D01*
X193698496Y-88357064D01*
X193491046Y-88315800D01*
X193491041Y-88315800D01*
X193421000Y-88301868D01*
X193350959Y-88315800D01*
X181553041Y-88315800D01*
X181482999Y-88301868D01*
X181412957Y-88315800D01*
X181412954Y-88315800D01*
X181205504Y-88357064D01*
X181205503Y-88357065D01*
X181205502Y-88357065D01*
X181029635Y-88474576D01*
X181029633Y-88474578D01*
X180970254Y-88514254D01*
X180930578Y-88573633D01*
X177292000Y-92212212D01*
X177292000Y-91797119D01*
X177079320Y-91283663D01*
X176686337Y-90890680D01*
X176479487Y-90805000D01*
X176686337Y-90719320D01*
X177079320Y-90326337D01*
X177292000Y-89812881D01*
X177292000Y-89257119D01*
X177079320Y-88743663D01*
X176686337Y-88350680D01*
X176172881Y-88138000D01*
X175617119Y-88138000D01*
X175103663Y-88350680D01*
X174710680Y-88743663D01*
X174498000Y-89257119D01*
X101127000Y-89257119D01*
X101127000Y-87340213D01*
X132549392Y-87340213D01*
X132618857Y-87582397D01*
X133142302Y-87769144D01*
X133697368Y-87741362D01*
X134081143Y-87582397D01*
X134150608Y-87340213D01*
X156679392Y-87340213D01*
X156748857Y-87582397D01*
X157272302Y-87769144D01*
X157827368Y-87741362D01*
X158211143Y-87582397D01*
X158280608Y-87340213D01*
X157480000Y-86539605D01*
X156679392Y-87340213D01*
X134150608Y-87340213D01*
X133350000Y-86539605D01*
X132549392Y-87340213D01*
X101127000Y-87340213D01*
X101127000Y-86152302D01*
X131940856Y-86152302D01*
X131968638Y-86707368D01*
X132127603Y-87091143D01*
X132369787Y-87160608D01*
X133170395Y-86360000D01*
X133529605Y-86360000D01*
X134330213Y-87160608D01*
X134572397Y-87091143D01*
X134759144Y-86567698D01*
X134738353Y-86152302D01*
X156070856Y-86152302D01*
X156098638Y-86707368D01*
X156257603Y-87091143D01*
X156499787Y-87160608D01*
X157300395Y-86360000D01*
X157659605Y-86360000D01*
X158460213Y-87160608D01*
X158702397Y-87091143D01*
X158889144Y-86567698D01*
X158861362Y-86012632D01*
X158702397Y-85628857D01*
X158460213Y-85559392D01*
X157659605Y-86360000D01*
X157300395Y-86360000D01*
X156499787Y-85559392D01*
X156257603Y-85628857D01*
X156070856Y-86152302D01*
X134738353Y-86152302D01*
X134731362Y-86012632D01*
X134572397Y-85628857D01*
X134330213Y-85559392D01*
X133529605Y-86360000D01*
X133170395Y-86360000D01*
X132369787Y-85559392D01*
X132127603Y-85628857D01*
X131940856Y-86152302D01*
X101127000Y-86152302D01*
X101127000Y-82302532D01*
X114017073Y-82302532D01*
X114115736Y-82569387D01*
X114725461Y-82795908D01*
X115375460Y-82771856D01*
X115864264Y-82569387D01*
X115962927Y-82302532D01*
X120517073Y-82302532D01*
X120615736Y-82569387D01*
X121225461Y-82795908D01*
X121875460Y-82771856D01*
X122364264Y-82569387D01*
X122462927Y-82302532D01*
X121490000Y-81329605D01*
X120517073Y-82302532D01*
X115962927Y-82302532D01*
X114990000Y-81329605D01*
X114017073Y-82302532D01*
X101127000Y-82302532D01*
X101127000Y-80885461D01*
X113344092Y-80885461D01*
X113368144Y-81535460D01*
X113570613Y-82024264D01*
X113837468Y-82122927D01*
X114810395Y-81150000D01*
X115169605Y-81150000D01*
X116142532Y-82122927D01*
X116409387Y-82024264D01*
X116635908Y-81414539D01*
X116616331Y-80885461D01*
X119844092Y-80885461D01*
X119868144Y-81535460D01*
X120070613Y-82024264D01*
X120337468Y-82122927D01*
X121310395Y-81150000D01*
X121669605Y-81150000D01*
X122642532Y-82122927D01*
X122909387Y-82024264D01*
X123135908Y-81414539D01*
X123111856Y-80764540D01*
X122909387Y-80275736D01*
X122642532Y-80177073D01*
X121669605Y-81150000D01*
X121310395Y-81150000D01*
X120337468Y-80177073D01*
X120070613Y-80275736D01*
X119844092Y-80885461D01*
X116616331Y-80885461D01*
X116611856Y-80764540D01*
X116409387Y-80275736D01*
X116142532Y-80177073D01*
X115169605Y-81150000D01*
X114810395Y-81150000D01*
X113837468Y-80177073D01*
X113570613Y-80275736D01*
X113344092Y-80885461D01*
X101127000Y-80885461D01*
X101127000Y-79997468D01*
X114017073Y-79997468D01*
X114990000Y-80970395D01*
X115962927Y-79997468D01*
X120517073Y-79997468D01*
X121490000Y-80970395D01*
X122462927Y-79997468D01*
X122364264Y-79730613D01*
X121754539Y-79504092D01*
X121104540Y-79528144D01*
X120615736Y-79730613D01*
X120517073Y-79997468D01*
X115962927Y-79997468D01*
X115864264Y-79730613D01*
X115254539Y-79504092D01*
X114604540Y-79528144D01*
X114115736Y-79730613D01*
X114017073Y-79997468D01*
X101127000Y-79997468D01*
X101127000Y-75287119D01*
X102743000Y-75287119D01*
X102743000Y-75842881D01*
X102955680Y-76356337D01*
X103348663Y-76749320D01*
X103555513Y-76835000D01*
X103348663Y-76920680D01*
X102955680Y-77313663D01*
X102743000Y-77827119D01*
X102743000Y-78382881D01*
X102955680Y-78896337D01*
X103348663Y-79289320D01*
X103862119Y-79502000D01*
X104417881Y-79502000D01*
X104931337Y-79289320D01*
X105324320Y-78896337D01*
X105537000Y-78382881D01*
X105537000Y-77827119D01*
X105324320Y-77313663D01*
X104931337Y-76920680D01*
X104724487Y-76835000D01*
X104931337Y-76749320D01*
X105324320Y-76356337D01*
X105337392Y-76324778D01*
X113355000Y-76324778D01*
X113355000Y-76975222D01*
X113603914Y-77576153D01*
X114063847Y-78036086D01*
X114664778Y-78285000D01*
X115315222Y-78285000D01*
X115916153Y-78036086D01*
X116376086Y-77576153D01*
X116625000Y-76975222D01*
X116625000Y-76324778D01*
X119855000Y-76324778D01*
X119855000Y-76975222D01*
X120103914Y-77576153D01*
X120563847Y-78036086D01*
X121164778Y-78285000D01*
X121815222Y-78285000D01*
X122416153Y-78036086D01*
X122876086Y-77576153D01*
X123125000Y-76975222D01*
X123125000Y-76324778D01*
X122876086Y-75723847D01*
X122416153Y-75263914D01*
X121815222Y-75015000D01*
X121164778Y-75015000D01*
X120563847Y-75263914D01*
X120103914Y-75723847D01*
X119855000Y-76324778D01*
X116625000Y-76324778D01*
X116376086Y-75723847D01*
X115916153Y-75263914D01*
X115315222Y-75015000D01*
X114664778Y-75015000D01*
X114063847Y-75263914D01*
X113603914Y-75723847D01*
X113355000Y-76324778D01*
X105337392Y-76324778D01*
X105537000Y-75842881D01*
X105537000Y-75287119D01*
X105324320Y-74773663D01*
X104931337Y-74380680D01*
X104740353Y-74301572D01*
X104871143Y-74247397D01*
X104940608Y-74005213D01*
X104140000Y-73204605D01*
X103339392Y-74005213D01*
X103408857Y-74247397D01*
X103549393Y-74297535D01*
X103348663Y-74380680D01*
X102955680Y-74773663D01*
X102743000Y-75287119D01*
X101127000Y-75287119D01*
X101127000Y-72817302D01*
X102730856Y-72817302D01*
X102758638Y-73372368D01*
X102917603Y-73756143D01*
X103159787Y-73825608D01*
X103960395Y-73025000D01*
X104319605Y-73025000D01*
X105120213Y-73825608D01*
X105362397Y-73756143D01*
X105549144Y-73232698D01*
X105521362Y-72677632D01*
X105362397Y-72293857D01*
X105120213Y-72224392D01*
X104319605Y-73025000D01*
X103960395Y-73025000D01*
X103159787Y-72224392D01*
X102917603Y-72293857D01*
X102730856Y-72817302D01*
X101127000Y-72817302D01*
X101127000Y-65127119D01*
X102743000Y-65127119D01*
X102743000Y-65682881D01*
X102955680Y-66196337D01*
X103348663Y-66589320D01*
X103555513Y-66675000D01*
X103348663Y-66760680D01*
X102955680Y-67153663D01*
X102743000Y-67667119D01*
X102743000Y-68222881D01*
X102955680Y-68736337D01*
X103348663Y-69129320D01*
X103555513Y-69215000D01*
X103348663Y-69300680D01*
X102955680Y-69693663D01*
X102743000Y-70207119D01*
X102743000Y-70762881D01*
X102955680Y-71276337D01*
X103348663Y-71669320D01*
X103539647Y-71748428D01*
X103408857Y-71802603D01*
X103339392Y-72044787D01*
X104140000Y-72845395D01*
X104940608Y-72044787D01*
X104871143Y-71802603D01*
X104730607Y-71752465D01*
X104931337Y-71669320D01*
X105324320Y-71276337D01*
X105537000Y-70762881D01*
X105537000Y-70207119D01*
X105324320Y-69693663D01*
X104931337Y-69300680D01*
X104724487Y-69215000D01*
X104931337Y-69129320D01*
X105324320Y-68736337D01*
X105357514Y-68656200D01*
X116134973Y-68656200D01*
X116205014Y-68670132D01*
X116275055Y-68656200D01*
X116275060Y-68656200D01*
X116482510Y-68614936D01*
X116717760Y-68457746D01*
X116757438Y-68398364D01*
X123255996Y-61899807D01*
X123376945Y-61899807D01*
X123722361Y-61756731D01*
X123986731Y-61492361D01*
X124129807Y-61146945D01*
X124129807Y-60773069D01*
X123986731Y-60427653D01*
X123960278Y-60401200D01*
X124244662Y-60401200D01*
X126314179Y-62470718D01*
X126314178Y-77425337D01*
X126300246Y-77495378D01*
X126314178Y-77565419D01*
X126314178Y-77565423D01*
X126355442Y-77772873D01*
X126355443Y-77772874D01*
X126472954Y-77948742D01*
X126472956Y-77948744D01*
X126512632Y-78008123D01*
X126572012Y-78047800D01*
X131986194Y-83461982D01*
X131953000Y-83542119D01*
X131953000Y-84097881D01*
X132165680Y-84611337D01*
X132558663Y-85004320D01*
X132749647Y-85083428D01*
X132618857Y-85137603D01*
X132549392Y-85379787D01*
X133350000Y-86180395D01*
X134150608Y-85379787D01*
X134081143Y-85137603D01*
X133940607Y-85087465D01*
X134141337Y-85004320D01*
X134534320Y-84611337D01*
X134747000Y-84097881D01*
X134747000Y-83542119D01*
X134534320Y-83028663D01*
X134141337Y-82635680D01*
X133934487Y-82550000D01*
X134141337Y-82464320D01*
X134534320Y-82071337D01*
X134747000Y-81557881D01*
X134747000Y-81002119D01*
X134534320Y-80488663D01*
X134141337Y-80095680D01*
X133934487Y-80010000D01*
X134141337Y-79924320D01*
X134534320Y-79531337D01*
X134747000Y-79017881D01*
X134747000Y-78462119D01*
X156083000Y-78462119D01*
X156083000Y-79017881D01*
X156295680Y-79531337D01*
X156688663Y-79924320D01*
X156895513Y-80010000D01*
X156688663Y-80095680D01*
X156295680Y-80488663D01*
X156083000Y-81002119D01*
X156083000Y-81557881D01*
X156295680Y-82071337D01*
X156688663Y-82464320D01*
X156895513Y-82550000D01*
X156688663Y-82635680D01*
X156295680Y-83028663D01*
X156083000Y-83542119D01*
X156083000Y-84097881D01*
X156295680Y-84611337D01*
X156688663Y-85004320D01*
X156879647Y-85083428D01*
X156748857Y-85137603D01*
X156679392Y-85379787D01*
X157480000Y-86180395D01*
X158280608Y-85379787D01*
X158211143Y-85137603D01*
X158070607Y-85087465D01*
X158271337Y-85004320D01*
X158372595Y-84903062D01*
X189560200Y-84903062D01*
X189560200Y-85276938D01*
X189703276Y-85622354D01*
X189967646Y-85886724D01*
X190313062Y-86029800D01*
X190434011Y-86029800D01*
X190606328Y-86202117D01*
X190646004Y-86261496D01*
X190705383Y-86301172D01*
X190705385Y-86301174D01*
X190881252Y-86418685D01*
X190881253Y-86418685D01*
X190881254Y-86418686D01*
X191088704Y-86459950D01*
X191088707Y-86459950D01*
X191138221Y-86469799D01*
X191213896Y-86545474D01*
X191559312Y-86688550D01*
X191933188Y-86688550D01*
X192278604Y-86545474D01*
X192542974Y-86281104D01*
X192686050Y-85935688D01*
X192686050Y-85561812D01*
X192542974Y-85216396D01*
X192278604Y-84952026D01*
X191933188Y-84808950D01*
X191559312Y-84808950D01*
X191424029Y-84864986D01*
X191296724Y-84557646D01*
X191134140Y-84395062D01*
X195275200Y-84395062D01*
X195275200Y-84768938D01*
X195418276Y-85114354D01*
X195682646Y-85378724D01*
X196011801Y-85515064D01*
X196011800Y-88790122D01*
X195926276Y-88875646D01*
X195783200Y-89221062D01*
X195783200Y-89594938D01*
X195926276Y-89940354D01*
X196190646Y-90204724D01*
X196536062Y-90347800D01*
X196909938Y-90347800D01*
X197255354Y-90204724D01*
X197519724Y-89940354D01*
X197662800Y-89594938D01*
X197662800Y-89221062D01*
X197519724Y-88875646D01*
X197434200Y-88790122D01*
X197434200Y-85160042D01*
X197448132Y-85090000D01*
X197434200Y-85019959D01*
X197434200Y-85019954D01*
X197392936Y-84812504D01*
X197235746Y-84577254D01*
X197176364Y-84537576D01*
X197154800Y-84516012D01*
X197154800Y-84395062D01*
X197011724Y-84049646D01*
X196747354Y-83785276D01*
X196401938Y-83642200D01*
X196028062Y-83642200D01*
X195682646Y-83785276D01*
X195418276Y-84049646D01*
X195275200Y-84395062D01*
X191134140Y-84395062D01*
X191032354Y-84293276D01*
X190686938Y-84150200D01*
X190313062Y-84150200D01*
X189967646Y-84293276D01*
X189703276Y-84557646D01*
X189560200Y-84903062D01*
X158372595Y-84903062D01*
X158664320Y-84611337D01*
X158849110Y-84165213D01*
X171919392Y-84165213D01*
X171988857Y-84407397D01*
X172512302Y-84594144D01*
X173067368Y-84566362D01*
X173451143Y-84407397D01*
X173520608Y-84165213D01*
X172720000Y-83364605D01*
X171919392Y-84165213D01*
X158849110Y-84165213D01*
X158877000Y-84097881D01*
X158877000Y-83542119D01*
X158664320Y-83028663D01*
X158612959Y-82977302D01*
X171310856Y-82977302D01*
X171338638Y-83532368D01*
X171497603Y-83916143D01*
X171739787Y-83985608D01*
X172540395Y-83185000D01*
X172899605Y-83185000D01*
X173700213Y-83985608D01*
X173942397Y-83916143D01*
X173992535Y-83775607D01*
X174075680Y-83976337D01*
X174468663Y-84369320D01*
X174982119Y-84582000D01*
X175537881Y-84582000D01*
X176051337Y-84369320D01*
X176255444Y-84165213D01*
X176999392Y-84165213D01*
X177068857Y-84407397D01*
X177592302Y-84594144D01*
X178147368Y-84566362D01*
X178531143Y-84407397D01*
X178600608Y-84165213D01*
X182079392Y-84165213D01*
X182148857Y-84407397D01*
X182672302Y-84594144D01*
X183227368Y-84566362D01*
X183611143Y-84407397D01*
X183680608Y-84165213D01*
X182880000Y-83364605D01*
X182079392Y-84165213D01*
X178600608Y-84165213D01*
X177800000Y-83364605D01*
X176999392Y-84165213D01*
X176255444Y-84165213D01*
X176444320Y-83976337D01*
X176523428Y-83785353D01*
X176577603Y-83916143D01*
X176819787Y-83985608D01*
X177620395Y-83185000D01*
X177979605Y-83185000D01*
X178780213Y-83985608D01*
X179022397Y-83916143D01*
X179209144Y-83392698D01*
X179188353Y-82977302D01*
X181470856Y-82977302D01*
X181498638Y-83532368D01*
X181657603Y-83916143D01*
X181899787Y-83985608D01*
X182700395Y-83185000D01*
X183059605Y-83185000D01*
X183860213Y-83985608D01*
X184102397Y-83916143D01*
X184152535Y-83775607D01*
X184235680Y-83976337D01*
X184628663Y-84369320D01*
X185142119Y-84582000D01*
X185697881Y-84582000D01*
X186211337Y-84369320D01*
X186415444Y-84165213D01*
X187159392Y-84165213D01*
X187228857Y-84407397D01*
X187752302Y-84594144D01*
X188307368Y-84566362D01*
X188691143Y-84407397D01*
X188760608Y-84165213D01*
X187960000Y-83364605D01*
X187159392Y-84165213D01*
X186415444Y-84165213D01*
X186604320Y-83976337D01*
X186683428Y-83785353D01*
X186737603Y-83916143D01*
X186979787Y-83985608D01*
X187780395Y-83185000D01*
X188139605Y-83185000D01*
X188940213Y-83985608D01*
X189182397Y-83916143D01*
X189369144Y-83392698D01*
X189341362Y-82837632D01*
X189182397Y-82453857D01*
X188940213Y-82384392D01*
X188139605Y-83185000D01*
X187780395Y-83185000D01*
X186979787Y-82384392D01*
X186737603Y-82453857D01*
X186687465Y-82594393D01*
X186604320Y-82393663D01*
X186415444Y-82204787D01*
X187159392Y-82204787D01*
X187960000Y-83005395D01*
X188760608Y-82204787D01*
X188691143Y-81962603D01*
X188167698Y-81775856D01*
X187612632Y-81803638D01*
X187228857Y-81962603D01*
X187159392Y-82204787D01*
X186415444Y-82204787D01*
X186211337Y-82000680D01*
X185697881Y-81788000D01*
X185142119Y-81788000D01*
X184628663Y-82000680D01*
X184235680Y-82393663D01*
X184156572Y-82584647D01*
X184102397Y-82453857D01*
X183860213Y-82384392D01*
X183059605Y-83185000D01*
X182700395Y-83185000D01*
X181899787Y-82384392D01*
X181657603Y-82453857D01*
X181470856Y-82977302D01*
X179188353Y-82977302D01*
X179181362Y-82837632D01*
X179022397Y-82453857D01*
X178780213Y-82384392D01*
X177979605Y-83185000D01*
X177620395Y-83185000D01*
X176819787Y-82384392D01*
X176577603Y-82453857D01*
X176527465Y-82594393D01*
X176444320Y-82393663D01*
X176255444Y-82204787D01*
X176999392Y-82204787D01*
X177800000Y-83005395D01*
X178600608Y-82204787D01*
X182079392Y-82204787D01*
X182880000Y-83005395D01*
X183680608Y-82204787D01*
X183611143Y-81962603D01*
X183087698Y-81775856D01*
X182532632Y-81803638D01*
X182148857Y-81962603D01*
X182079392Y-82204787D01*
X178600608Y-82204787D01*
X178531143Y-81962603D01*
X178007698Y-81775856D01*
X177452632Y-81803638D01*
X177068857Y-81962603D01*
X176999392Y-82204787D01*
X176255444Y-82204787D01*
X176051337Y-82000680D01*
X175537881Y-81788000D01*
X174982119Y-81788000D01*
X174468663Y-82000680D01*
X174075680Y-82393663D01*
X173996572Y-82584647D01*
X173942397Y-82453857D01*
X173700213Y-82384392D01*
X172899605Y-83185000D01*
X172540395Y-83185000D01*
X171739787Y-82384392D01*
X171497603Y-82453857D01*
X171310856Y-82977302D01*
X158612959Y-82977302D01*
X158271337Y-82635680D01*
X158064487Y-82550000D01*
X158271337Y-82464320D01*
X158530870Y-82204787D01*
X171919392Y-82204787D01*
X172720000Y-83005395D01*
X173520608Y-82204787D01*
X173451143Y-81962603D01*
X172927698Y-81775856D01*
X172372632Y-81803638D01*
X171988857Y-81962603D01*
X171919392Y-82204787D01*
X158530870Y-82204787D01*
X158664320Y-82071337D01*
X158877000Y-81557881D01*
X158877000Y-81002119D01*
X158664320Y-80488663D01*
X158271337Y-80095680D01*
X158064487Y-80010000D01*
X158271337Y-79924320D01*
X158664320Y-79531337D01*
X158877000Y-79017881D01*
X158877000Y-78462119D01*
X158664320Y-77948663D01*
X158271337Y-77555680D01*
X157757881Y-77343000D01*
X157202119Y-77343000D01*
X156688663Y-77555680D01*
X156295680Y-77948663D01*
X156083000Y-78462119D01*
X134747000Y-78462119D01*
X134534320Y-77948663D01*
X134141337Y-77555680D01*
X133627881Y-77343000D01*
X133072119Y-77343000D01*
X132558663Y-77555680D01*
X132165680Y-77948663D01*
X131953000Y-78462119D01*
X131953000Y-78877211D01*
X128041389Y-74965601D01*
X128041389Y-61995231D01*
X128055321Y-61925189D01*
X128041389Y-61855147D01*
X128041389Y-61855143D01*
X128000125Y-61647693D01*
X127924868Y-61535062D01*
X150190200Y-61535062D01*
X150190200Y-61908938D01*
X150333276Y-62254354D01*
X150597646Y-62518724D01*
X150943062Y-62661800D01*
X151316938Y-62661800D01*
X151662354Y-62518724D01*
X151747878Y-62433200D01*
X151953012Y-62433200D01*
X151311634Y-63074578D01*
X151252255Y-63114254D01*
X151212579Y-63173633D01*
X151212576Y-63173636D01*
X151095065Y-63349504D01*
X151039868Y-63627000D01*
X151053801Y-63697046D01*
X151053800Y-64787122D01*
X150968276Y-64872646D01*
X150825200Y-65218062D01*
X150825200Y-65591938D01*
X150968276Y-65937354D01*
X151232646Y-66201724D01*
X151578062Y-66344800D01*
X151951938Y-66344800D01*
X152297354Y-66201724D01*
X152561724Y-65937354D01*
X152704800Y-65591938D01*
X152704800Y-65218062D01*
X152561724Y-64872646D01*
X152476200Y-64787122D01*
X152476200Y-63921588D01*
X153583589Y-62814200D01*
X163440722Y-62814200D01*
X163287276Y-62967646D01*
X163144200Y-63313062D01*
X163144200Y-63686938D01*
X163287276Y-64032354D01*
X163551646Y-64296724D01*
X163897062Y-64439800D01*
X163955020Y-64439800D01*
X164049276Y-64667354D01*
X164313646Y-64931724D01*
X164659062Y-65074800D01*
X165032938Y-65074800D01*
X165378354Y-64931724D01*
X165463878Y-64846200D01*
X176764025Y-64846200D01*
X176834066Y-64860132D01*
X176904107Y-64846200D01*
X176904112Y-64846200D01*
X177111562Y-64804936D01*
X177346812Y-64647746D01*
X177386490Y-64588364D01*
X178525655Y-63449200D01*
X183704107Y-63449200D01*
X183704107Y-63656581D01*
X183847183Y-64001997D01*
X184019152Y-64173966D01*
X184091483Y-64282217D01*
X184091485Y-64282219D01*
X184131161Y-64341598D01*
X184190541Y-64381275D01*
X184397630Y-64588364D01*
X184437308Y-64647746D01*
X184496690Y-64687424D01*
X184672556Y-64804935D01*
X184672557Y-64804935D01*
X184672558Y-64804936D01*
X184880008Y-64846200D01*
X184880011Y-64846200D01*
X184950053Y-64860132D01*
X185020095Y-64846200D01*
X187030412Y-64846200D01*
X187883801Y-65699590D01*
X187883800Y-73365411D01*
X186776412Y-74472800D01*
X185236042Y-74472800D01*
X185166000Y-74458868D01*
X185095958Y-74472800D01*
X185095954Y-74472800D01*
X184888504Y-74514064D01*
X184888502Y-74514065D01*
X184888503Y-74514065D01*
X184712635Y-74631576D01*
X184712633Y-74631578D01*
X184653254Y-74671254D01*
X184613578Y-74730633D01*
X183873018Y-75471194D01*
X183792881Y-75438000D01*
X183237119Y-75438000D01*
X182723663Y-75650680D01*
X182330680Y-76043663D01*
X182245000Y-76250513D01*
X182159320Y-76043663D01*
X181766337Y-75650680D01*
X181252881Y-75438000D01*
X180697119Y-75438000D01*
X180183663Y-75650680D01*
X179790680Y-76043663D01*
X179578000Y-76557119D01*
X179578000Y-77112881D01*
X179790680Y-77626337D01*
X180183663Y-78019320D01*
X180697119Y-78232000D01*
X181252881Y-78232000D01*
X181766337Y-78019320D01*
X182159320Y-77626337D01*
X182245000Y-77419487D01*
X182330680Y-77626337D01*
X182723663Y-78019320D01*
X183237119Y-78232000D01*
X183792881Y-78232000D01*
X184306337Y-78019320D01*
X184699320Y-77626337D01*
X184785000Y-77419487D01*
X184870680Y-77626337D01*
X185263663Y-78019320D01*
X185777119Y-78232000D01*
X186332881Y-78232000D01*
X186846337Y-78019320D01*
X187050444Y-77815213D01*
X187794392Y-77815213D01*
X187863857Y-78057397D01*
X188387302Y-78244144D01*
X188942368Y-78216362D01*
X189326143Y-78057397D01*
X189395608Y-77815213D01*
X188595000Y-77014605D01*
X187794392Y-77815213D01*
X187050444Y-77815213D01*
X187239320Y-77626337D01*
X187318428Y-77435353D01*
X187372603Y-77566143D01*
X187614787Y-77635608D01*
X188415395Y-76835000D01*
X188774605Y-76835000D01*
X189575213Y-77635608D01*
X189817397Y-77566143D01*
X190004144Y-77042698D01*
X189976362Y-76487632D01*
X189817397Y-76103857D01*
X189575213Y-76034392D01*
X188774605Y-76835000D01*
X188415395Y-76835000D01*
X188401253Y-76820858D01*
X188580858Y-76641253D01*
X188595000Y-76655395D01*
X189395608Y-75854787D01*
X189326143Y-75612603D01*
X188802698Y-75425856D01*
X188452400Y-75443389D01*
X189353180Y-74542609D01*
X189412556Y-74502935D01*
X189452231Y-74443558D01*
X189452235Y-74443554D01*
X189569746Y-74267687D01*
X189569746Y-74267686D01*
X189569747Y-74267685D01*
X189611011Y-74060235D01*
X189611011Y-74060232D01*
X189624943Y-73990190D01*
X189611011Y-73920148D01*
X189611011Y-73343265D01*
X189670484Y-73367900D01*
X189765269Y-73367900D01*
X189908118Y-73510749D01*
X189950629Y-73574371D01*
X190202683Y-73742788D01*
X190424952Y-73787000D01*
X190424953Y-73787000D01*
X190500000Y-73801928D01*
X190575047Y-73787000D01*
X194383528Y-73787000D01*
X194395680Y-73816337D01*
X194788663Y-74209320D01*
X195302119Y-74422000D01*
X195857881Y-74422000D01*
X196371337Y-74209320D01*
X196764320Y-73816337D01*
X196977000Y-73302881D01*
X196977000Y-72747119D01*
X196764320Y-72233663D01*
X196371337Y-71840680D01*
X196164487Y-71755000D01*
X196371337Y-71669320D01*
X196764320Y-71276337D01*
X196977000Y-70762881D01*
X196977000Y-70207119D01*
X196764320Y-69693663D01*
X196371337Y-69300680D01*
X196164487Y-69215000D01*
X196371337Y-69129320D01*
X196764320Y-68736337D01*
X196977000Y-68222881D01*
X196977000Y-67667119D01*
X196764320Y-67153663D01*
X196371337Y-66760680D01*
X196164487Y-66675000D01*
X196371337Y-66589320D01*
X196764320Y-66196337D01*
X196977000Y-65682881D01*
X196977000Y-65127119D01*
X196764320Y-64613663D01*
X196371337Y-64220680D01*
X196164487Y-64135000D01*
X196371337Y-64049320D01*
X196764320Y-63656337D01*
X196977000Y-63142881D01*
X196977000Y-62587119D01*
X199263000Y-62587119D01*
X199263000Y-63142881D01*
X199475680Y-63656337D01*
X199868663Y-64049320D01*
X200075513Y-64135000D01*
X199868663Y-64220680D01*
X199475680Y-64613663D01*
X199263000Y-65127119D01*
X199263000Y-65682881D01*
X199475680Y-66196337D01*
X199868663Y-66589320D01*
X200075513Y-66675000D01*
X199868663Y-66760680D01*
X199475680Y-67153663D01*
X199263000Y-67667119D01*
X199263000Y-68222881D01*
X199475680Y-68736337D01*
X199868663Y-69129320D01*
X200075513Y-69215000D01*
X199868663Y-69300680D01*
X199475680Y-69693663D01*
X199263000Y-70207119D01*
X199263000Y-70762881D01*
X199475680Y-71276337D01*
X199868663Y-71669320D01*
X200075513Y-71755000D01*
X199868663Y-71840680D01*
X199475680Y-72233663D01*
X199263000Y-72747119D01*
X199263000Y-73302881D01*
X199475680Y-73816337D01*
X199868663Y-74209320D01*
X200382119Y-74422000D01*
X200937881Y-74422000D01*
X201451337Y-74209320D01*
X201844320Y-73816337D01*
X202057000Y-73302881D01*
X202057000Y-72747119D01*
X201844320Y-72233663D01*
X201451337Y-71840680D01*
X201244487Y-71755000D01*
X201451337Y-71669320D01*
X201844320Y-71276337D01*
X202057000Y-70762881D01*
X202057000Y-70207119D01*
X201844320Y-69693663D01*
X201451337Y-69300680D01*
X201244487Y-69215000D01*
X201451337Y-69129320D01*
X201844320Y-68736337D01*
X201930119Y-68529200D01*
X202836122Y-68529200D01*
X202921646Y-68614724D01*
X203267062Y-68757800D01*
X203640938Y-68757800D01*
X203986354Y-68614724D01*
X204250724Y-68350354D01*
X204393800Y-68004938D01*
X204393800Y-67631062D01*
X204250724Y-67285646D01*
X203986354Y-67021276D01*
X203640938Y-66878200D01*
X203267062Y-66878200D01*
X202921646Y-67021276D01*
X202836122Y-67106800D01*
X201797457Y-67106800D01*
X201451337Y-66760680D01*
X201244487Y-66675000D01*
X201451337Y-66589320D01*
X201844320Y-66196337D01*
X202057000Y-65682881D01*
X202057000Y-65127119D01*
X201844320Y-64613663D01*
X201451337Y-64220680D01*
X201244487Y-64135000D01*
X201451337Y-64049320D01*
X201797457Y-63703200D01*
X202836122Y-63703200D01*
X202921646Y-63788724D01*
X203267062Y-63931800D01*
X203640938Y-63931800D01*
X203986354Y-63788724D01*
X204250724Y-63524354D01*
X204393800Y-63178938D01*
X204393800Y-62805062D01*
X204250724Y-62459646D01*
X203986354Y-62195276D01*
X203640938Y-62052200D01*
X203267062Y-62052200D01*
X202921646Y-62195276D01*
X202836122Y-62280800D01*
X201930119Y-62280800D01*
X201844320Y-62073663D01*
X201451337Y-61680680D01*
X201260353Y-61601572D01*
X201391143Y-61547397D01*
X201460608Y-61305213D01*
X200660000Y-60504605D01*
X199859392Y-61305213D01*
X199928857Y-61547397D01*
X200069393Y-61597535D01*
X199868663Y-61680680D01*
X199475680Y-62073663D01*
X199263000Y-62587119D01*
X196977000Y-62587119D01*
X196764320Y-62073663D01*
X196371337Y-61680680D01*
X196164487Y-61595000D01*
X196371337Y-61509320D01*
X196764320Y-61116337D01*
X196977000Y-60602881D01*
X196977000Y-60117302D01*
X199250856Y-60117302D01*
X199278638Y-60672368D01*
X199437603Y-61056143D01*
X199679787Y-61125608D01*
X200480395Y-60325000D01*
X200839605Y-60325000D01*
X201640213Y-61125608D01*
X201882397Y-61056143D01*
X202069144Y-60532698D01*
X202041362Y-59977632D01*
X201882397Y-59593857D01*
X201640213Y-59524392D01*
X200839605Y-60325000D01*
X200480395Y-60325000D01*
X199679787Y-59524392D01*
X199437603Y-59593857D01*
X199250856Y-60117302D01*
X196977000Y-60117302D01*
X196977000Y-60047119D01*
X196764320Y-59533663D01*
X196575444Y-59344787D01*
X199859392Y-59344787D01*
X200660000Y-60145395D01*
X201460608Y-59344787D01*
X201391143Y-59102603D01*
X200867698Y-58915856D01*
X200312632Y-58943638D01*
X199928857Y-59102603D01*
X199859392Y-59344787D01*
X196575444Y-59344787D01*
X196371337Y-59140680D01*
X196180353Y-59061572D01*
X196311143Y-59007397D01*
X196380608Y-58765213D01*
X195580000Y-57964605D01*
X194779392Y-58765213D01*
X194848857Y-59007397D01*
X194989393Y-59057535D01*
X194788663Y-59140680D01*
X194395680Y-59533663D01*
X194183000Y-60047119D01*
X194183000Y-60602881D01*
X194395680Y-61116337D01*
X194788663Y-61509320D01*
X194995513Y-61595000D01*
X194788663Y-61680680D01*
X194395680Y-62073663D01*
X194183000Y-62587119D01*
X194183000Y-63142881D01*
X194395680Y-63656337D01*
X194788663Y-64049320D01*
X194995513Y-64135000D01*
X194788663Y-64220680D01*
X194395680Y-64613663D01*
X194362486Y-64693800D01*
X190747075Y-64693800D01*
X184318759Y-58265485D01*
X184318759Y-58144535D01*
X184175683Y-57799119D01*
X183946143Y-57569579D01*
X184007136Y-57478297D01*
X184007136Y-57478296D01*
X184007137Y-57478295D01*
X184048401Y-57270845D01*
X184048401Y-57270842D01*
X184062333Y-57200800D01*
X184048401Y-57130758D01*
X184048401Y-56474891D01*
X184174354Y-56422720D01*
X184438724Y-56158350D01*
X184581800Y-55812934D01*
X184581800Y-55439058D01*
X184438724Y-55093642D01*
X184174354Y-54829272D01*
X183828938Y-54686196D01*
X183455062Y-54686196D01*
X183109646Y-54829272D01*
X182845276Y-55093642D01*
X182702200Y-55439058D01*
X182702200Y-55601016D01*
X182667266Y-55653299D01*
X182612069Y-55930795D01*
X182626002Y-56000841D01*
X182626001Y-56906210D01*
X176743412Y-62788800D01*
X169299278Y-62788800D01*
X169452724Y-62635354D01*
X169595800Y-62289938D01*
X169595800Y-61916062D01*
X169452724Y-61570646D01*
X169188354Y-61306276D01*
X168842938Y-61163200D01*
X168469062Y-61163200D01*
X168123646Y-61306276D01*
X168038122Y-61391800D01*
X159080375Y-61391800D01*
X159181800Y-61146938D01*
X159181800Y-60773062D01*
X159038724Y-60427646D01*
X158774354Y-60163276D01*
X158428938Y-60020200D01*
X158055062Y-60020200D01*
X157709646Y-60163276D01*
X157445276Y-60427646D01*
X157302200Y-60773062D01*
X157302200Y-60894011D01*
X157185412Y-61010800D01*
X151747878Y-61010800D01*
X151662354Y-60925276D01*
X151316938Y-60782200D01*
X150943062Y-60782200D01*
X150597646Y-60925276D01*
X150333276Y-61189646D01*
X150190200Y-61535062D01*
X127924868Y-61535062D01*
X127907667Y-61509320D01*
X127882613Y-61471824D01*
X127882611Y-61471822D01*
X127842935Y-61412443D01*
X127783556Y-61372767D01*
X124631424Y-58220636D01*
X124591746Y-58161254D01*
X124356496Y-58004064D01*
X124149046Y-57962800D01*
X124149041Y-57962800D01*
X124079000Y-57948868D01*
X124008959Y-57962800D01*
X121555491Y-57962800D01*
X121987282Y-57531010D01*
X142246149Y-57531010D01*
X142316190Y-57544942D01*
X142386231Y-57531010D01*
X142386236Y-57531010D01*
X142593686Y-57489746D01*
X142828936Y-57332556D01*
X142868614Y-57273174D01*
X143067988Y-57073800D01*
X143188938Y-57073800D01*
X143534354Y-56930724D01*
X143798724Y-56666354D01*
X143941800Y-56320938D01*
X143941800Y-55947062D01*
X143798724Y-55601646D01*
X143534354Y-55337276D01*
X143188938Y-55194200D01*
X142815062Y-55194200D01*
X142469646Y-55337276D01*
X142205276Y-55601646D01*
X142062200Y-55947062D01*
X142062200Y-56068012D01*
X142021602Y-56108610D01*
X140866014Y-56108610D01*
X140893800Y-56041528D01*
X140893800Y-55667652D01*
X140750724Y-55322236D01*
X140486354Y-55057866D01*
X140140938Y-54914790D01*
X140019988Y-54914790D01*
X139769834Y-54664636D01*
X139730156Y-54605254D01*
X139494906Y-54448064D01*
X139287456Y-54406800D01*
X139287451Y-54406800D01*
X139217410Y-54392868D01*
X139147369Y-54406800D01*
X136976042Y-54406800D01*
X136906000Y-54392868D01*
X136835958Y-54406800D01*
X136835954Y-54406800D01*
X136628504Y-54448064D01*
X136628502Y-54448065D01*
X136628503Y-54448065D01*
X136452635Y-54565576D01*
X136452633Y-54565578D01*
X136393254Y-54605254D01*
X136353578Y-54664633D01*
X135849412Y-55168800D01*
X134630640Y-55168800D01*
X134747000Y-54887881D01*
X134747000Y-54332119D01*
X134534320Y-53818663D01*
X134141337Y-53425680D01*
X133934487Y-53340000D01*
X134141337Y-53254320D01*
X134534320Y-52861337D01*
X134567514Y-52781200D01*
X135780122Y-52781200D01*
X135865646Y-52866724D01*
X136211062Y-53009800D01*
X136584938Y-53009800D01*
X136930354Y-52866724D01*
X137194724Y-52602354D01*
X137337800Y-52256938D01*
X137337800Y-51883062D01*
X137194724Y-51537646D01*
X136930354Y-51273276D01*
X136584938Y-51130200D01*
X136211062Y-51130200D01*
X135865646Y-51273276D01*
X135780122Y-51358800D01*
X134567514Y-51358800D01*
X134534320Y-51278663D01*
X134141337Y-50885680D01*
X133934487Y-50800000D01*
X134141337Y-50714320D01*
X134534320Y-50321337D01*
X134567514Y-50241200D01*
X135780122Y-50241200D01*
X135865646Y-50326724D01*
X136211062Y-50469800D01*
X136584938Y-50469800D01*
X136930354Y-50326724D01*
X137194724Y-50062354D01*
X137337800Y-49716938D01*
X137337800Y-49343062D01*
X137194724Y-48997646D01*
X136930354Y-48733276D01*
X136584938Y-48590200D01*
X136211062Y-48590200D01*
X135865646Y-48733276D01*
X135780122Y-48818800D01*
X134567514Y-48818800D01*
X134534320Y-48738663D01*
X134141337Y-48345680D01*
X133934487Y-48260000D01*
X134141337Y-48174320D01*
X134534320Y-47781337D01*
X134567514Y-47701200D01*
X135780122Y-47701200D01*
X135865646Y-47786724D01*
X136211062Y-47929800D01*
X136584938Y-47929800D01*
X136930354Y-47786724D01*
X137194724Y-47522354D01*
X137337800Y-47176938D01*
X137337800Y-46803062D01*
X137194724Y-46457646D01*
X136930354Y-46193276D01*
X136584938Y-46050200D01*
X136211062Y-46050200D01*
X135865646Y-46193276D01*
X135780122Y-46278800D01*
X134567514Y-46278800D01*
X134534320Y-46198663D01*
X134141337Y-45805680D01*
X133934487Y-45720000D01*
X134141337Y-45634320D01*
X134250173Y-45525484D01*
X153327100Y-45525484D01*
X153327100Y-45914516D01*
X153475977Y-46273936D01*
X153543000Y-46340959D01*
X153543001Y-52756952D01*
X153528073Y-52832000D01*
X153587213Y-53129317D01*
X153712285Y-53316500D01*
X153755630Y-53381371D01*
X153819251Y-53423881D01*
X155491118Y-55095749D01*
X155533629Y-55159371D01*
X155785683Y-55327788D01*
X156007952Y-55372000D01*
X156007953Y-55372000D01*
X156083000Y-55386928D01*
X156158047Y-55372000D01*
X156283528Y-55372000D01*
X156295680Y-55401337D01*
X156688663Y-55794320D01*
X157202119Y-56007000D01*
X157757881Y-56007000D01*
X157902584Y-55947062D01*
X160858200Y-55947062D01*
X160858200Y-56320938D01*
X161001276Y-56666354D01*
X161265646Y-56930724D01*
X161611062Y-57073800D01*
X161984938Y-57073800D01*
X162330354Y-56930724D01*
X162458443Y-56802635D01*
X162691746Y-56646746D01*
X162731424Y-56587364D01*
X164022989Y-55295800D01*
X164143938Y-55295800D01*
X164489354Y-55152724D01*
X164753724Y-54888354D01*
X164896800Y-54542938D01*
X164896800Y-54169062D01*
X164753724Y-53823646D01*
X164489354Y-53559276D01*
X164143938Y-53416200D01*
X163770062Y-53416200D01*
X163424646Y-53559276D01*
X163160276Y-53823646D01*
X163017200Y-54169062D01*
X163017200Y-54290011D01*
X162075500Y-55231712D01*
X161984938Y-55194200D01*
X161611062Y-55194200D01*
X161265646Y-55337276D01*
X161001276Y-55601646D01*
X160858200Y-55947062D01*
X157902584Y-55947062D01*
X158271337Y-55794320D01*
X158664320Y-55401337D01*
X158877000Y-54887881D01*
X158877000Y-54332119D01*
X158664320Y-53818663D01*
X158271337Y-53425680D01*
X158064487Y-53340000D01*
X158271337Y-53254320D01*
X158664320Y-52861337D01*
X158697514Y-52781200D01*
X169855959Y-52781200D01*
X169926000Y-52795132D01*
X169996041Y-52781200D01*
X169996046Y-52781200D01*
X170203496Y-52739936D01*
X170438746Y-52582746D01*
X170478424Y-52523364D01*
X174690989Y-48310800D01*
X174811938Y-48310800D01*
X175157354Y-48167724D01*
X175421724Y-47903354D01*
X175564800Y-47557938D01*
X175564800Y-47184062D01*
X175421724Y-46838646D01*
X175157354Y-46574276D01*
X175026559Y-46520099D01*
X175816311Y-46520099D01*
X176072800Y-46776589D01*
X176072801Y-47457411D01*
X175467033Y-48063179D01*
X175407653Y-48102856D01*
X175367977Y-48162235D01*
X175367975Y-48162237D01*
X175299481Y-48264746D01*
X175250463Y-48338106D01*
X175209199Y-48545556D01*
X175209199Y-48545560D01*
X175195267Y-48615601D01*
X175209199Y-48685642D01*
X175209200Y-55962353D01*
X175195267Y-56032399D01*
X175250464Y-56309895D01*
X175367975Y-56485763D01*
X175367978Y-56485766D01*
X175407654Y-56545145D01*
X175467033Y-56584821D01*
X175590200Y-56707988D01*
X175590200Y-56828938D01*
X175675849Y-57035712D01*
X167748130Y-57035712D01*
X167678088Y-57021780D01*
X167608046Y-57035712D01*
X167608042Y-57035712D01*
X167554369Y-57046388D01*
X167427320Y-56739663D01*
X167034337Y-56346680D01*
X166827487Y-56261000D01*
X167034337Y-56175320D01*
X167427320Y-55782337D01*
X167460514Y-55702200D01*
X171271778Y-55702200D01*
X171517062Y-55803800D01*
X171890938Y-55803800D01*
X172236354Y-55660724D01*
X172500724Y-55396354D01*
X172643800Y-55050938D01*
X172643800Y-54677062D01*
X172500724Y-54331646D01*
X172236354Y-54067276D01*
X171890938Y-53924200D01*
X171517062Y-53924200D01*
X171171646Y-54067276D01*
X170959122Y-54279800D01*
X167460514Y-54279800D01*
X167427320Y-54199663D01*
X167034337Y-53806680D01*
X166520881Y-53594000D01*
X165965119Y-53594000D01*
X165451663Y-53806680D01*
X165058680Y-54199663D01*
X164846000Y-54713119D01*
X164846000Y-55268881D01*
X165058680Y-55782337D01*
X165451663Y-56175320D01*
X165658513Y-56261000D01*
X165451663Y-56346680D01*
X165058680Y-56739663D01*
X164846000Y-57253119D01*
X164846000Y-57808881D01*
X165058680Y-58322337D01*
X165451663Y-58715320D01*
X165487346Y-58730100D01*
X165430200Y-58868062D01*
X165430200Y-59241938D01*
X165573276Y-59587354D01*
X165837646Y-59851724D01*
X166183062Y-59994800D01*
X166556938Y-59994800D01*
X166750981Y-59914425D01*
X166945062Y-59994816D01*
X167318938Y-59994816D01*
X167513021Y-59914424D01*
X167707066Y-59994800D01*
X168080942Y-59994800D01*
X168302111Y-59903189D01*
X168377646Y-59978724D01*
X168723062Y-60121800D01*
X169096938Y-60121800D01*
X169442354Y-59978724D01*
X169527878Y-59893200D01*
X176586959Y-59893200D01*
X176657000Y-59907132D01*
X176727041Y-59893200D01*
X176727046Y-59893200D01*
X176934496Y-59851936D01*
X177169746Y-59694746D01*
X177209424Y-59635364D01*
X179225855Y-57618933D01*
X179299646Y-57692724D01*
X179645062Y-57835800D01*
X180018938Y-57835800D01*
X180364354Y-57692724D01*
X180467000Y-57590078D01*
X180569646Y-57692724D01*
X180915062Y-57835800D01*
X181288938Y-57835800D01*
X181634354Y-57692724D01*
X181898724Y-57428354D01*
X182041800Y-57082938D01*
X182041800Y-56961988D01*
X182063364Y-56940424D01*
X182122746Y-56900746D01*
X182256560Y-56700481D01*
X182279935Y-56665498D01*
X182279935Y-56665497D01*
X182279936Y-56665496D01*
X182321200Y-56458046D01*
X182321200Y-56458043D01*
X182335132Y-56388001D01*
X182321200Y-56317959D01*
X182321200Y-55158588D01*
X182825367Y-54654422D01*
X182884746Y-54614746D01*
X182924422Y-54555367D01*
X182924424Y-54555365D01*
X183008169Y-54430032D01*
X183041936Y-54379496D01*
X183083200Y-54172046D01*
X183083200Y-54172042D01*
X183097132Y-54102000D01*
X183083200Y-54031958D01*
X183083200Y-49062588D01*
X183993072Y-48152717D01*
X184205545Y-48010746D01*
X184362735Y-47775496D01*
X184417932Y-47498000D01*
X184403999Y-47427954D01*
X184403999Y-45332840D01*
X184417931Y-45262798D01*
X184403999Y-45192754D01*
X184403999Y-45192753D01*
X184362735Y-44985303D01*
X184362734Y-44985301D01*
X184245223Y-44809434D01*
X184245219Y-44809430D01*
X184205544Y-44750053D01*
X184146167Y-44710379D01*
X184073800Y-44638011D01*
X184073800Y-44517062D01*
X183930724Y-44171646D01*
X183666354Y-43907276D01*
X183320938Y-43764200D01*
X183083186Y-43764200D01*
X183083186Y-42993062D01*
X184480200Y-42993062D01*
X184480200Y-43366938D01*
X184623276Y-43712354D01*
X184708801Y-43797879D01*
X184708800Y-57841959D01*
X184694868Y-57912000D01*
X184708800Y-57982041D01*
X184708800Y-57982045D01*
X184750064Y-58189495D01*
X184779478Y-58233516D01*
X184867576Y-58365364D01*
X184867578Y-58365366D01*
X184907254Y-58424745D01*
X184966634Y-58464422D01*
X189306200Y-62803989D01*
X189306200Y-62924938D01*
X189449276Y-63270354D01*
X189713646Y-63534724D01*
X190059062Y-63677800D01*
X190432938Y-63677800D01*
X190778354Y-63534724D01*
X191042724Y-63270354D01*
X191185800Y-62924938D01*
X191185800Y-62551062D01*
X191042724Y-62205646D01*
X190778354Y-61941276D01*
X190432938Y-61798200D01*
X190311989Y-61798200D01*
X187635851Y-59122062D01*
X188925200Y-59122062D01*
X188925200Y-59495938D01*
X189068276Y-59841354D01*
X189303634Y-60076712D01*
X189303634Y-60283345D01*
X189446710Y-60628761D01*
X189711080Y-60893131D01*
X190056496Y-61036207D01*
X190177446Y-61036207D01*
X190600258Y-61459020D01*
X190719276Y-61746354D01*
X190983646Y-62010724D01*
X191329062Y-62153800D01*
X191702938Y-62153800D01*
X191820800Y-62104980D01*
X191820801Y-62628121D01*
X191735276Y-62713646D01*
X191592200Y-63059062D01*
X191592200Y-63432938D01*
X191735276Y-63778354D01*
X191999646Y-64042724D01*
X192345062Y-64185800D01*
X192718938Y-64185800D01*
X193064354Y-64042724D01*
X193328724Y-63778354D01*
X193471800Y-63432938D01*
X193471800Y-63059062D01*
X193328724Y-62713646D01*
X193243200Y-62628122D01*
X193243200Y-61284042D01*
X193257132Y-61214000D01*
X193243200Y-61143958D01*
X193243200Y-61143954D01*
X193201936Y-60936504D01*
X193118367Y-60811435D01*
X193084424Y-60760635D01*
X193084420Y-60760631D01*
X193044745Y-60701254D01*
X192985369Y-60661580D01*
X191179424Y-58855636D01*
X191139746Y-58796254D01*
X190904496Y-58639064D01*
X190697046Y-58597800D01*
X190697041Y-58597800D01*
X190627000Y-58583868D01*
X190556959Y-58597800D01*
X190482878Y-58597800D01*
X190397354Y-58512276D01*
X190051938Y-58369200D01*
X189678062Y-58369200D01*
X189332646Y-58512276D01*
X189068276Y-58776646D01*
X188925200Y-59122062D01*
X187635851Y-59122062D01*
X186131200Y-57617412D01*
X186131200Y-49276000D01*
X189215073Y-49276000D01*
X189230000Y-49351043D01*
X189230001Y-56507964D01*
X189215073Y-56583012D01*
X189274213Y-56880329D01*
X189399226Y-57067424D01*
X189442630Y-57132383D01*
X189506251Y-57174893D01*
X190856106Y-58524749D01*
X190898617Y-58588371D01*
X190962239Y-58630882D01*
X191019667Y-58669254D01*
X191150671Y-58756788D01*
X191372940Y-58801000D01*
X191372945Y-58801000D01*
X191447988Y-58815927D01*
X191523031Y-58801000D01*
X192292041Y-58801000D01*
X192359064Y-58868023D01*
X192718484Y-59016900D01*
X193107516Y-59016900D01*
X193466936Y-58868023D01*
X193742023Y-58592936D01*
X193890900Y-58233516D01*
X193890900Y-57844484D01*
X193742023Y-57485064D01*
X193610159Y-57353200D01*
X194250808Y-57353200D01*
X194170856Y-57577302D01*
X194198638Y-58132368D01*
X194357603Y-58516143D01*
X194599787Y-58585608D01*
X195400395Y-57785000D01*
X195386253Y-57770858D01*
X195565858Y-57591253D01*
X195580000Y-57605395D01*
X195594143Y-57591253D01*
X195773748Y-57770858D01*
X195759605Y-57785000D01*
X196560213Y-58585608D01*
X196802397Y-58516143D01*
X196989144Y-57992698D01*
X196962471Y-57459778D01*
X209110000Y-57459778D01*
X209110000Y-58110222D01*
X209358914Y-58711153D01*
X209818847Y-59171086D01*
X210419778Y-59420000D01*
X211070222Y-59420000D01*
X211671153Y-59171086D01*
X212131086Y-58711153D01*
X212380000Y-58110222D01*
X212380000Y-57459778D01*
X215610000Y-57459778D01*
X215610000Y-58110222D01*
X215858914Y-58711153D01*
X216318847Y-59171086D01*
X216919778Y-59420000D01*
X217570222Y-59420000D01*
X218171153Y-59171086D01*
X218631086Y-58711153D01*
X218880000Y-58110222D01*
X218880000Y-57459778D01*
X218631086Y-56858847D01*
X218171153Y-56398914D01*
X217570222Y-56150000D01*
X216919778Y-56150000D01*
X216318847Y-56398914D01*
X215858914Y-56858847D01*
X215610000Y-57459778D01*
X212380000Y-57459778D01*
X212131086Y-56858847D01*
X211671153Y-56398914D01*
X211070222Y-56150000D01*
X210419778Y-56150000D01*
X209818847Y-56398914D01*
X209358914Y-56858847D01*
X209110000Y-57459778D01*
X196962471Y-57459778D01*
X196961362Y-57437632D01*
X196802397Y-57053857D01*
X196560215Y-56984393D01*
X196675226Y-56869382D01*
X196643816Y-56837972D01*
X199730566Y-53751223D01*
X199868663Y-53889320D01*
X200075513Y-53975000D01*
X199868663Y-54060680D01*
X199475680Y-54453663D01*
X199263000Y-54967119D01*
X199263000Y-55522881D01*
X199475680Y-56036337D01*
X199868663Y-56429320D01*
X200382119Y-56642000D01*
X200937881Y-56642000D01*
X201451337Y-56429320D01*
X201844320Y-56036337D01*
X202057000Y-55522881D01*
X202057000Y-54967119D01*
X201844320Y-54453663D01*
X201451337Y-54060680D01*
X201244487Y-53975000D01*
X201451337Y-53889320D01*
X201844320Y-53496337D01*
X202057000Y-52982881D01*
X202057000Y-52427119D01*
X201844320Y-51913663D01*
X201451337Y-51520680D01*
X201244487Y-51435000D01*
X201451337Y-51349320D01*
X201844320Y-50956337D01*
X202057000Y-50442881D01*
X202057000Y-49887119D01*
X201844320Y-49373663D01*
X201451337Y-48980680D01*
X201244487Y-48895000D01*
X201451337Y-48809320D01*
X201844320Y-48416337D01*
X202057000Y-47902881D01*
X202057000Y-47347119D01*
X201844320Y-46833663D01*
X201451337Y-46440680D01*
X201244487Y-46355000D01*
X201451337Y-46269320D01*
X201844320Y-45876337D01*
X202057000Y-45362881D01*
X202057000Y-44807119D01*
X201844320Y-44293663D01*
X201451337Y-43900680D01*
X201260353Y-43821572D01*
X201391143Y-43767397D01*
X201460608Y-43525213D01*
X200660000Y-42724605D01*
X199859392Y-43525213D01*
X199928857Y-43767397D01*
X200069393Y-43817535D01*
X199868663Y-43900680D01*
X199475680Y-44293663D01*
X199263000Y-44807119D01*
X199263000Y-45362881D01*
X199296194Y-45443018D01*
X197387233Y-47351979D01*
X197327853Y-47391656D01*
X197288177Y-47451035D01*
X197288175Y-47451037D01*
X197240523Y-47522354D01*
X197170663Y-47626906D01*
X197129399Y-47834356D01*
X197129399Y-47834360D01*
X197115467Y-47904401D01*
X197129399Y-47974443D01*
X197129400Y-52562811D01*
X195310814Y-54381398D01*
X191509475Y-54381398D01*
X191439433Y-54367466D01*
X191369392Y-54381398D01*
X191369388Y-54381398D01*
X191161938Y-54422662D01*
X190932044Y-54576273D01*
X190829021Y-54576273D01*
X190754000Y-54607348D01*
X190754000Y-49591630D01*
X191361731Y-48983900D01*
X191456516Y-48983900D01*
X191815936Y-48835023D01*
X192091023Y-48559936D01*
X192239900Y-48200516D01*
X192239900Y-47811484D01*
X192091023Y-47452064D01*
X191815936Y-47176977D01*
X191456516Y-47028100D01*
X191067484Y-47028100D01*
X190708064Y-47176977D01*
X190432977Y-47452064D01*
X190284100Y-47811484D01*
X190284100Y-47906269D01*
X189506253Y-48684117D01*
X189442629Y-48726629D01*
X189274212Y-48978684D01*
X189230000Y-49200953D01*
X189230000Y-49200957D01*
X189215073Y-49276000D01*
X186131200Y-49276000D01*
X186131200Y-43797878D01*
X186216724Y-43712354D01*
X186359800Y-43366938D01*
X186359800Y-42993062D01*
X186216724Y-42647646D01*
X185952354Y-42383276D01*
X185841363Y-42337302D01*
X199250856Y-42337302D01*
X199278638Y-42892368D01*
X199437603Y-43276143D01*
X199679787Y-43345608D01*
X200480395Y-42545000D01*
X200839605Y-42545000D01*
X201640213Y-43345608D01*
X201882397Y-43276143D01*
X202069144Y-42752698D01*
X202041362Y-42197632D01*
X201882397Y-41813857D01*
X201640213Y-41744392D01*
X200839605Y-42545000D01*
X200480395Y-42545000D01*
X199679787Y-41744392D01*
X199437603Y-41813857D01*
X199250856Y-42337302D01*
X185841363Y-42337302D01*
X185606938Y-42240200D01*
X185233062Y-42240200D01*
X184887646Y-42383276D01*
X184623276Y-42647646D01*
X184480200Y-42993062D01*
X183083186Y-42993062D01*
X183083186Y-42712602D01*
X187374726Y-38421062D01*
X195402200Y-38421062D01*
X195402200Y-38794938D01*
X195545276Y-39140354D01*
X195809646Y-39404724D01*
X196155062Y-39547800D01*
X196276012Y-39547800D01*
X197821578Y-41093367D01*
X197861254Y-41152746D01*
X197920633Y-41192422D01*
X197920635Y-41192424D01*
X198036336Y-41269733D01*
X198096504Y-41309936D01*
X198303954Y-41351200D01*
X198303958Y-41351200D01*
X198374000Y-41365132D01*
X198444042Y-41351200D01*
X199920655Y-41351200D01*
X199859392Y-41564787D01*
X200660000Y-42365395D01*
X201460608Y-41564787D01*
X201399345Y-41351200D01*
X204175412Y-41351200D01*
X206578200Y-43753989D01*
X206578200Y-43874938D01*
X206721276Y-44220354D01*
X206985646Y-44484724D01*
X207331062Y-44627800D01*
X207704938Y-44627800D01*
X208050354Y-44484724D01*
X208314724Y-44220354D01*
X208457800Y-43874938D01*
X208457800Y-43501062D01*
X208314724Y-43155646D01*
X208212078Y-43053000D01*
X208314724Y-42950354D01*
X208457800Y-42604938D01*
X208457800Y-42231062D01*
X208314724Y-41885646D01*
X208050354Y-41621276D01*
X207704938Y-41478200D01*
X207583989Y-41478200D01*
X205630111Y-39524323D01*
X205590434Y-39464942D01*
X205355184Y-39307752D01*
X205147734Y-39266488D01*
X205147729Y-39266488D01*
X205077688Y-39252556D01*
X205007647Y-39266488D01*
X202335927Y-39266488D01*
X202472662Y-39129753D01*
X202604611Y-38811200D01*
X206900122Y-38811200D01*
X206985646Y-38896724D01*
X207331062Y-39039800D01*
X207704938Y-39039800D01*
X208050354Y-38896724D01*
X208314724Y-38632354D01*
X208457800Y-38286938D01*
X208457800Y-37913062D01*
X208314724Y-37567646D01*
X208212083Y-37465005D01*
X208314724Y-37362364D01*
X208457800Y-37016948D01*
X208457800Y-36643072D01*
X208314724Y-36297656D01*
X208212069Y-36195001D01*
X208314716Y-36092354D01*
X208457792Y-35746938D01*
X208457792Y-35373062D01*
X208314716Y-35027646D01*
X208212074Y-34925004D01*
X208314724Y-34822354D01*
X208457800Y-34476938D01*
X208457800Y-34103062D01*
X208314724Y-33757646D01*
X208050354Y-33493276D01*
X207704938Y-33350200D01*
X207331062Y-33350200D01*
X206985646Y-33493276D01*
X206900122Y-33578800D01*
X202762053Y-33578800D01*
X202692011Y-33564868D01*
X202621969Y-33578800D01*
X202621966Y-33578800D01*
X202414516Y-33620064D01*
X202414515Y-33620065D01*
X202414514Y-33620065D01*
X202238647Y-33737576D01*
X202238645Y-33737578D01*
X202179266Y-33777254D01*
X202139590Y-33836633D01*
X198308024Y-37668200D01*
X198187074Y-37668200D01*
X197866006Y-37801191D01*
X197544938Y-37668200D01*
X197171062Y-37668200D01*
X196850000Y-37801188D01*
X196528938Y-37668200D01*
X196155062Y-37668200D01*
X195809646Y-37811276D01*
X195545276Y-38075646D01*
X195402200Y-38421062D01*
X187374726Y-38421062D01*
X189016591Y-36779198D01*
X197248122Y-36779198D01*
X197333646Y-36864722D01*
X197679062Y-37007798D01*
X198052938Y-37007798D01*
X198398354Y-36864722D01*
X198662724Y-36600352D01*
X198805800Y-36254936D01*
X198805800Y-35881060D01*
X198662724Y-35535644D01*
X198398354Y-35271274D01*
X198052938Y-35128198D01*
X197679062Y-35128198D01*
X197333646Y-35271274D01*
X197248122Y-35356798D01*
X188792044Y-35356798D01*
X188722002Y-35342866D01*
X188651960Y-35356798D01*
X188651956Y-35356798D01*
X188444506Y-35398062D01*
X188444504Y-35398063D01*
X188444505Y-35398063D01*
X188268637Y-35515574D01*
X188268635Y-35515576D01*
X188209256Y-35555252D01*
X188169580Y-35614631D01*
X181918620Y-41865592D01*
X181859241Y-41905268D01*
X181819565Y-41964647D01*
X181819562Y-41964650D01*
X181702051Y-42140518D01*
X181646854Y-42418014D01*
X181660787Y-42488060D01*
X181660786Y-44400285D01*
X181527636Y-44373800D01*
X181527631Y-44373800D01*
X181457590Y-44359868D01*
X181387549Y-44373800D01*
X165082878Y-44373800D01*
X164997354Y-44288276D01*
X164651938Y-44145200D01*
X164278062Y-44145200D01*
X163932646Y-44288276D01*
X163668276Y-44552646D01*
X163525200Y-44898062D01*
X163525200Y-45097699D01*
X159133488Y-45097699D01*
X158843806Y-44808018D01*
X158877000Y-44727881D01*
X158877000Y-44172119D01*
X158664320Y-43658663D01*
X158271337Y-43265680D01*
X158080353Y-43186572D01*
X158211143Y-43132397D01*
X158280608Y-42890213D01*
X157480000Y-42089605D01*
X156679392Y-42890213D01*
X156748857Y-43132397D01*
X156889393Y-43182535D01*
X156688663Y-43265680D01*
X156295680Y-43658663D01*
X156083000Y-44172119D01*
X156083000Y-44727881D01*
X156295680Y-45241337D01*
X156688663Y-45634320D01*
X156895513Y-45720000D01*
X156688663Y-45805680D01*
X156295680Y-46198663D01*
X156083000Y-46712119D01*
X156083000Y-47267881D01*
X156295680Y-47781337D01*
X156688663Y-48174320D01*
X156895513Y-48260000D01*
X156688663Y-48345680D01*
X156295680Y-48738663D01*
X156083000Y-49252119D01*
X156083000Y-49807881D01*
X156295680Y-50321337D01*
X156688663Y-50714320D01*
X156895513Y-50800000D01*
X156688663Y-50885680D01*
X156295680Y-51278663D01*
X156083000Y-51792119D01*
X156083000Y-52347881D01*
X156295680Y-52861337D01*
X156688663Y-53254320D01*
X156895513Y-53340000D01*
X156688663Y-53425680D01*
X156332487Y-53781856D01*
X155067000Y-52516370D01*
X155067000Y-46340959D01*
X155134023Y-46273936D01*
X155282900Y-45914516D01*
X155282900Y-45525484D01*
X155134023Y-45166064D01*
X154858936Y-44890977D01*
X154499516Y-44742100D01*
X154110484Y-44742100D01*
X153751064Y-44890977D01*
X153475977Y-45166064D01*
X153327100Y-45525484D01*
X134250173Y-45525484D01*
X134534320Y-45241337D01*
X134567514Y-45161200D01*
X135780118Y-45161200D01*
X135865646Y-45246728D01*
X136211062Y-45389804D01*
X136584938Y-45389804D01*
X136930354Y-45246728D01*
X137194724Y-44982358D01*
X137337800Y-44636942D01*
X137337800Y-44263066D01*
X137194724Y-43917650D01*
X136930354Y-43653280D01*
X136584938Y-43510204D01*
X136211062Y-43510204D01*
X135865646Y-43653280D01*
X135780126Y-43738800D01*
X134567514Y-43738800D01*
X134534320Y-43658663D01*
X134141337Y-43265680D01*
X133934487Y-43180000D01*
X134141337Y-43094320D01*
X134534320Y-42701337D01*
X134567514Y-42621200D01*
X135780122Y-42621200D01*
X135865646Y-42706724D01*
X136211062Y-42849800D01*
X136584938Y-42849800D01*
X136930354Y-42706724D01*
X137194724Y-42442354D01*
X137337800Y-42096938D01*
X137337800Y-41723062D01*
X137329201Y-41702302D01*
X156070856Y-41702302D01*
X156098638Y-42257368D01*
X156257603Y-42641143D01*
X156499787Y-42710608D01*
X157300395Y-41910000D01*
X157659605Y-41910000D01*
X158460213Y-42710608D01*
X158702397Y-42641143D01*
X158889144Y-42117698D01*
X158861362Y-41562632D01*
X158822604Y-41469062D01*
X177876192Y-41469062D01*
X177876192Y-41842938D01*
X178019268Y-42188354D01*
X178283638Y-42452724D01*
X178629054Y-42595800D01*
X178750004Y-42595800D01*
X178910302Y-42756098D01*
X178895566Y-42770833D01*
X178752490Y-43116249D01*
X178752490Y-43490125D01*
X178895566Y-43835541D01*
X179159936Y-44099911D01*
X179505352Y-44242987D01*
X179879228Y-44242987D01*
X180224644Y-44099911D01*
X180489014Y-43835541D01*
X180632090Y-43490125D01*
X180632090Y-43116249D01*
X180489014Y-42770833D01*
X180403490Y-42685309D01*
X180403490Y-42602340D01*
X180417422Y-42532298D01*
X180403490Y-42462256D01*
X180403490Y-42462252D01*
X180362226Y-42254802D01*
X180317253Y-42187496D01*
X180244714Y-42078934D01*
X180244712Y-42078932D01*
X180205035Y-42019552D01*
X180145656Y-41979876D01*
X179755792Y-41590012D01*
X179755792Y-41469062D01*
X179612716Y-41123646D01*
X179348346Y-40859276D01*
X179002930Y-40716200D01*
X178629054Y-40716200D01*
X178283638Y-40859276D01*
X178019268Y-41123646D01*
X177876192Y-41469062D01*
X158822604Y-41469062D01*
X158702397Y-41178857D01*
X158460213Y-41109392D01*
X157659605Y-41910000D01*
X157300395Y-41910000D01*
X156499787Y-41109392D01*
X156257603Y-41178857D01*
X156070856Y-41702302D01*
X137329201Y-41702302D01*
X137194724Y-41377646D01*
X136930354Y-41113276D01*
X136584938Y-40970200D01*
X136211062Y-40970200D01*
X135865646Y-41113276D01*
X135780122Y-41198800D01*
X134567514Y-41198800D01*
X134534320Y-41118663D01*
X134345444Y-40929787D01*
X156679392Y-40929787D01*
X157480000Y-41730395D01*
X158280608Y-40929787D01*
X158211143Y-40687603D01*
X157687698Y-40500856D01*
X157132632Y-40528638D01*
X156748857Y-40687603D01*
X156679392Y-40929787D01*
X134345444Y-40929787D01*
X134141337Y-40725680D01*
X133950353Y-40646572D01*
X134081143Y-40592397D01*
X134150608Y-40350213D01*
X133350000Y-39549605D01*
X132549392Y-40350213D01*
X132618857Y-40592397D01*
X132759393Y-40642535D01*
X132558663Y-40725680D01*
X132165680Y-41118663D01*
X131953000Y-41632119D01*
X131953000Y-42187881D01*
X132165680Y-42701337D01*
X132558663Y-43094320D01*
X132765513Y-43180000D01*
X132558663Y-43265680D01*
X132165680Y-43658663D01*
X131953000Y-44172119D01*
X131953000Y-44727881D01*
X132165680Y-45241337D01*
X132558663Y-45634320D01*
X132765513Y-45720000D01*
X132558663Y-45805680D01*
X132165680Y-46198663D01*
X131953000Y-46712119D01*
X131953000Y-47267881D01*
X132165680Y-47781337D01*
X132558663Y-48174320D01*
X132765513Y-48260000D01*
X132558663Y-48345680D01*
X132165680Y-48738663D01*
X131953000Y-49252119D01*
X131953000Y-49807881D01*
X132165680Y-50321337D01*
X132558663Y-50714320D01*
X132765513Y-50800000D01*
X132558663Y-50885680D01*
X132165680Y-51278663D01*
X131953000Y-51792119D01*
X131953000Y-52347881D01*
X132165680Y-52861337D01*
X132558663Y-53254320D01*
X132765513Y-53340000D01*
X132558663Y-53425680D01*
X132165680Y-53818663D01*
X131953000Y-54332119D01*
X131953000Y-54887881D01*
X132069360Y-55168800D01*
X127304800Y-55168800D01*
X127304800Y-55058062D01*
X127161724Y-54712646D01*
X126897354Y-54448276D01*
X126551938Y-54305200D01*
X126178062Y-54305200D01*
X125832646Y-54448276D01*
X125568276Y-54712646D01*
X125425200Y-55058062D01*
X125425200Y-55431938D01*
X125442462Y-55473611D01*
X121752900Y-55473611D01*
X121700724Y-55347646D01*
X121436354Y-55083276D01*
X121090938Y-54940200D01*
X120717062Y-54940200D01*
X120371646Y-55083276D01*
X120107276Y-55347646D01*
X119964200Y-55693062D01*
X119964200Y-56066938D01*
X120009749Y-56176903D01*
X119839751Y-56176903D01*
X119494335Y-56319979D01*
X119229965Y-56584349D01*
X119086889Y-56929765D01*
X119086889Y-57303641D01*
X119229965Y-57649057D01*
X119232594Y-57651686D01*
X119202200Y-57725062D01*
X119202200Y-58098938D01*
X119345276Y-58444354D01*
X119609646Y-58708724D01*
X119710200Y-58750375D01*
X119710200Y-58860938D01*
X119764615Y-58992307D01*
X119599276Y-59157646D01*
X119456200Y-59503062D01*
X119456200Y-59876938D01*
X119599276Y-60222354D01*
X119863646Y-60486724D01*
X120209062Y-60629800D01*
X120582938Y-60629800D01*
X120928354Y-60486724D01*
X121013878Y-60401200D01*
X122419736Y-60401200D01*
X122393283Y-60427653D01*
X122250207Y-60773069D01*
X122250207Y-60894018D01*
X115910426Y-67233800D01*
X105357514Y-67233800D01*
X105324320Y-67153663D01*
X104931337Y-66760680D01*
X104724487Y-66675000D01*
X104931337Y-66589320D01*
X105324320Y-66196337D01*
X105357514Y-66116200D01*
X112725200Y-66116200D01*
X112725200Y-66226938D01*
X112868276Y-66572354D01*
X113132646Y-66836724D01*
X113478062Y-66979800D01*
X113851938Y-66979800D01*
X114197354Y-66836724D01*
X114461724Y-66572354D01*
X114604800Y-66226938D01*
X114604800Y-65853062D01*
X114630200Y-65853062D01*
X114630200Y-66226938D01*
X114773276Y-66572354D01*
X115037646Y-66836724D01*
X115383062Y-66979800D01*
X115756938Y-66979800D01*
X116102354Y-66836724D01*
X116366724Y-66572354D01*
X116509800Y-66226938D01*
X116509800Y-65853062D01*
X116366724Y-65507646D01*
X116360262Y-65501184D01*
X116757424Y-65104023D01*
X116757426Y-65104020D01*
X118825026Y-63036421D01*
X118884404Y-62996746D01*
X118924079Y-62937368D01*
X118924082Y-62937365D01*
X119041593Y-62761498D01*
X119096790Y-62484001D01*
X119095520Y-62477613D01*
X119075200Y-62375458D01*
X119075200Y-55735878D01*
X119160724Y-55650354D01*
X119303800Y-55304938D01*
X119303800Y-54931062D01*
X119160724Y-54585646D01*
X118896354Y-54321276D01*
X118550938Y-54178200D01*
X118177062Y-54178200D01*
X117831646Y-54321276D01*
X117567276Y-54585646D01*
X117424200Y-54931062D01*
X117424200Y-55304938D01*
X117567276Y-55650354D01*
X117652800Y-55735878D01*
X117652801Y-62197068D01*
X115751638Y-64098232D01*
X115751635Y-64098234D01*
X115116634Y-64733236D01*
X115057255Y-64772912D01*
X115017579Y-64832291D01*
X115017576Y-64832294D01*
X114937835Y-64951635D01*
X114900065Y-65008162D01*
X114858800Y-65215612D01*
X114858800Y-65215617D01*
X114844868Y-65285658D01*
X114858800Y-65355699D01*
X114858800Y-65422122D01*
X114773276Y-65507646D01*
X114630200Y-65853062D01*
X114604800Y-65853062D01*
X114461724Y-65507646D01*
X114197354Y-65243276D01*
X113851938Y-65100200D01*
X113730988Y-65100200D01*
X113582423Y-64951635D01*
X113542746Y-64892254D01*
X113307496Y-64735064D01*
X113100046Y-64693800D01*
X113100041Y-64693800D01*
X113030000Y-64679868D01*
X112959959Y-64693800D01*
X105357514Y-64693800D01*
X105324320Y-64613663D01*
X104931337Y-64220680D01*
X104417881Y-64008000D01*
X103862119Y-64008000D01*
X103348663Y-64220680D01*
X102955680Y-64613663D01*
X102743000Y-65127119D01*
X101127000Y-65127119D01*
X101127000Y-58868054D01*
X113995200Y-58868054D01*
X113995200Y-59241930D01*
X114138276Y-59587346D01*
X114402646Y-59851716D01*
X114748062Y-59994792D01*
X115121938Y-59994792D01*
X115467354Y-59851716D01*
X115731724Y-59587346D01*
X115874800Y-59241930D01*
X115874800Y-59120988D01*
X116270989Y-58724800D01*
X116391938Y-58724800D01*
X116737354Y-58581724D01*
X117001724Y-58317354D01*
X117144800Y-57971938D01*
X117144800Y-57598062D01*
X117001724Y-57252646D01*
X116737354Y-56988276D01*
X116391938Y-56845200D01*
X116018062Y-56845200D01*
X115672646Y-56988276D01*
X115408276Y-57252646D01*
X115265200Y-57598062D01*
X115265200Y-57719011D01*
X114869020Y-58115192D01*
X114748062Y-58115192D01*
X114402646Y-58258268D01*
X114138276Y-58522638D01*
X113995200Y-58868054D01*
X101127000Y-58868054D01*
X101127000Y-46549062D01*
X128473200Y-46549062D01*
X128473200Y-46922938D01*
X128616276Y-47268354D01*
X128880646Y-47532724D01*
X129226062Y-47675800D01*
X129347012Y-47675800D01*
X129626411Y-47955200D01*
X129353062Y-47955200D01*
X129007646Y-48098276D01*
X128743276Y-48362646D01*
X128600200Y-48708062D01*
X128600200Y-49081938D01*
X128743276Y-49427354D01*
X128828800Y-49512878D01*
X128828801Y-52976121D01*
X128743276Y-53061646D01*
X128600200Y-53407062D01*
X128600200Y-53780938D01*
X128743276Y-54126354D01*
X129007646Y-54390724D01*
X129353062Y-54533800D01*
X129726938Y-54533800D01*
X130048000Y-54400812D01*
X130369062Y-54533800D01*
X130742938Y-54533800D01*
X131088354Y-54390724D01*
X131352724Y-54126354D01*
X131495800Y-53780938D01*
X131495800Y-53407062D01*
X131352724Y-53061646D01*
X131267200Y-52976122D01*
X131267200Y-47949041D01*
X131281132Y-47878999D01*
X131267200Y-47808955D01*
X131267200Y-47808954D01*
X131225936Y-47601504D01*
X131186460Y-47542424D01*
X131108424Y-47425635D01*
X131108420Y-47425631D01*
X131068745Y-47366254D01*
X131009369Y-47326580D01*
X130352800Y-46670012D01*
X130352800Y-46549062D01*
X130209724Y-46203646D01*
X129945354Y-45939276D01*
X129599938Y-45796200D01*
X129226062Y-45796200D01*
X128880646Y-45939276D01*
X128616276Y-46203646D01*
X128473200Y-46549062D01*
X101127000Y-46549062D01*
X101127000Y-39175484D01*
X103162100Y-39175484D01*
X103162100Y-39564516D01*
X103310977Y-39923936D01*
X103314501Y-39927460D01*
X103314500Y-41352541D01*
X103310977Y-41356064D01*
X103162100Y-41715484D01*
X103162100Y-42104516D01*
X103310977Y-42463936D01*
X103586064Y-42739023D01*
X103945484Y-42887900D01*
X104334516Y-42887900D01*
X104693936Y-42739023D01*
X104969023Y-42463936D01*
X105117900Y-42104516D01*
X105117900Y-41715484D01*
X104969023Y-41356064D01*
X104965500Y-41352541D01*
X104965500Y-39927459D01*
X104969023Y-39923936D01*
X105117900Y-39564516D01*
X105117900Y-39175484D01*
X105112440Y-39162302D01*
X131940856Y-39162302D01*
X131968638Y-39717368D01*
X132127603Y-40101143D01*
X132369787Y-40170608D01*
X133170395Y-39370000D01*
X133529605Y-39370000D01*
X134330213Y-40170608D01*
X134572397Y-40101143D01*
X134759144Y-39577698D01*
X134731362Y-39022632D01*
X134572397Y-38638857D01*
X134330213Y-38569392D01*
X133529605Y-39370000D01*
X133170395Y-39370000D01*
X132369787Y-38569392D01*
X132127603Y-38638857D01*
X131940856Y-39162302D01*
X105112440Y-39162302D01*
X104969023Y-38816064D01*
X104693936Y-38540977D01*
X104334516Y-38392100D01*
X103945484Y-38392100D01*
X103586064Y-38540977D01*
X103310977Y-38816064D01*
X103162100Y-39175484D01*
X101127000Y-39175484D01*
X101127000Y-38389787D01*
X132549392Y-38389787D01*
X133350000Y-39190395D01*
X134150608Y-38389787D01*
X134081143Y-38147603D01*
X133557698Y-37960856D01*
X133002632Y-37988638D01*
X132618857Y-38147603D01*
X132549392Y-38389787D01*
X101127000Y-38389787D01*
X101127000Y-31127000D01*
X172595041Y-31127000D01*
X172525977Y-31196064D01*
M02*
