G04 #@! TF.GenerationSoftware,KiCad,Pcbnew,(5.0.0-rc2-dev-319-g0ded476)*
G04 #@! TF.CreationDate,2018-06-21T17:56:24-07:00*
G04 #@! TF.ProjectId,paranoids-hackme-1,706172616E6F6964732D6861636B6D65,A*
G04 #@! TF.SameCoordinates,Original*
G04 #@! TF.FileFunction,Copper,L1,Top,Signal*
G04 #@! TF.FilePolarity,Positive*
%FSLAX46Y46*%
G04 Gerber Fmt 4.6, Leading zero omitted, Abs format (unit mm)*
G04 Created by KiCad (PCBNEW (5.0.0-rc2-dev-319-g0ded476)) date Thursday, June 21, 2018 at 05:56:24 PM*
%MOMM*%
%LPD*%
G01*
G04 APERTURE LIST*
%ADD10C,0.500000*%
%ADD11R,1.200000X0.600000*%
%ADD12R,0.610000X0.635000*%
%ADD13C,1.524000*%
%ADD14R,1.500000X0.500000*%
%ADD15R,0.500000X1.500000*%
%ADD16R,0.500000X0.500000*%
%ADD17R,0.800000X0.800000*%
%ADD18R,0.900000X0.800000*%
%ADD19R,0.920000X1.220000*%
%ADD20C,2.000000*%
%ADD21R,1.300000X0.250000*%
%ADD22R,0.250000X1.300000*%
%ADD23R,0.635000X0.610000*%
%ADD24R,0.600000X1.550000*%
%ADD25R,2.000000X3.650000*%
%ADD26R,2.000000X1.000000*%
%ADD27R,3.650000X2.000000*%
%ADD28R,1.000000X2.000000*%
%ADD29R,1.400000X0.800000*%
%ADD30R,1.550000X1.000000*%
%ADD31R,1.000000X1.450000*%
%ADD32R,1.500000X0.800000*%
%ADD33R,1.750000X0.700000*%
%ADD34R,1.500000X1.300000*%
%ADD35R,1.500000X1.500000*%
%ADD36R,5.334000X1.930400*%
%ADD37R,1.930400X5.334000*%
%ADD38R,1.899920X0.299720*%
%ADD39R,0.299720X1.899920*%
%ADD40R,1.800000X1.900000*%
%ADD41R,1.900000X1.900000*%
%ADD42R,2.100000X1.600000*%
%ADD43R,0.400000X1.350000*%
%ADD44R,1.900000X1.800000*%
%ADD45R,1.600000X2.100000*%
%ADD46R,1.350000X0.400000*%
%ADD47C,0.685800*%
%ADD48C,0.635000*%
%ADD49C,0.609600*%
%ADD50C,0.381000*%
%ADD51C,0.254000*%
%ADD52C,0.152400*%
G04 APERTURE END LIST*
D10*
X184912000Y-41910000D03*
D11*
X184905000Y-38674000D03*
X184905000Y-39624000D03*
X184905000Y-40574000D03*
X187205000Y-40574000D03*
X187205000Y-38674000D03*
D12*
X154305000Y-59728000D03*
X154305000Y-60922000D03*
X147955000Y-60922000D03*
X147955000Y-59728000D03*
D13*
X166243000Y-57531000D03*
X166243000Y-54991000D03*
X133350000Y-39370000D03*
X133350000Y-41910000D03*
X133350000Y-44450000D03*
X133350000Y-46990000D03*
X133350000Y-49530000D03*
X133350000Y-52070000D03*
X133350000Y-54610000D03*
X200660000Y-60325000D03*
X200660000Y-62865000D03*
X200660000Y-65405000D03*
X200660000Y-67945000D03*
X200660000Y-70485000D03*
X200660000Y-73025000D03*
D14*
X199910000Y-89345000D03*
X199910000Y-90145000D03*
X199910000Y-90945000D03*
X199910000Y-91745000D03*
X199910000Y-92545000D03*
X199910000Y-94145000D03*
X199910000Y-93345000D03*
X199910000Y-94945000D03*
X199910000Y-95745000D03*
X199910000Y-96545000D03*
X199910000Y-97345000D03*
X188710000Y-97345000D03*
X188710000Y-96545000D03*
X188710000Y-95745000D03*
X188710000Y-94945000D03*
X188710000Y-94145000D03*
X188710000Y-93345000D03*
X188710000Y-92545000D03*
X188710000Y-91745000D03*
X188710000Y-90945000D03*
X188710000Y-90145000D03*
D15*
X190310000Y-87745000D03*
X192710000Y-87745000D03*
X191910000Y-87745000D03*
X191110000Y-87745000D03*
X194310000Y-87745000D03*
X195110000Y-87745000D03*
X197510000Y-87745000D03*
X198310000Y-87745000D03*
X195910000Y-87745000D03*
X196710000Y-87745000D03*
X193510000Y-87745000D03*
D14*
X188710000Y-89345000D03*
D15*
X198310000Y-99045000D03*
X197510000Y-99045000D03*
X196710000Y-99045000D03*
X195910000Y-99045000D03*
X195110000Y-99045000D03*
X194310000Y-99045000D03*
X193510000Y-99045000D03*
X192710000Y-99045000D03*
X191910000Y-99045000D03*
X191110000Y-99045000D03*
X190310000Y-99045000D03*
D13*
X189230000Y-107950000D03*
X191770000Y-107950000D03*
X195580000Y-57785000D03*
X195580000Y-60325000D03*
X195580000Y-62865000D03*
X195580000Y-65405000D03*
X195580000Y-67945000D03*
X195580000Y-70485000D03*
X195580000Y-73025000D03*
X177800000Y-83185000D03*
X175260000Y-83185000D03*
X172720000Y-83185000D03*
X187960000Y-83185000D03*
X185420000Y-83185000D03*
X182880000Y-83185000D03*
X188595000Y-76835000D03*
X186055000Y-76835000D03*
X183515000Y-76835000D03*
X180975000Y-76835000D03*
X133350000Y-86360000D03*
X133350000Y-83820000D03*
X133350000Y-81280000D03*
X133350000Y-78740000D03*
X157480000Y-86360000D03*
X157480000Y-83820000D03*
X157480000Y-81280000D03*
X157480000Y-78740000D03*
X200660000Y-42545000D03*
X200660000Y-45085000D03*
X200660000Y-47625000D03*
X200660000Y-50165000D03*
X200660000Y-52705000D03*
X200660000Y-55245000D03*
X104140000Y-65405000D03*
X104140000Y-67945000D03*
X104140000Y-70485000D03*
X104140000Y-73025000D03*
X104140000Y-75565000D03*
X104140000Y-78105000D03*
X175895000Y-102235000D03*
X175895000Y-99695000D03*
X175895000Y-97155000D03*
X175895000Y-94615000D03*
X175895000Y-92075000D03*
X175895000Y-89535000D03*
X157480000Y-41910000D03*
X157480000Y-44450000D03*
X157480000Y-46990000D03*
X157480000Y-49530000D03*
X157480000Y-52070000D03*
X157480000Y-54610000D03*
X214630000Y-102235000D03*
X214630000Y-99695000D03*
X214630000Y-97155000D03*
X214630000Y-94615000D03*
X214630000Y-92075000D03*
X214630000Y-89535000D03*
D16*
X154940000Y-67445000D03*
X154940000Y-68445000D03*
D17*
X184900000Y-36830000D03*
X183400000Y-36830000D03*
X203720000Y-89535000D03*
X205220000Y-89535000D03*
D18*
X212995000Y-67630000D03*
X212995000Y-69530000D03*
X214995000Y-68580000D03*
D19*
X215635000Y-49530000D03*
X212355000Y-49530000D03*
D20*
X217245000Y-57785000D03*
X210745000Y-57785000D03*
X114990000Y-81150000D03*
X114990000Y-76650000D03*
X121490000Y-81150000D03*
X121490000Y-76650000D03*
D21*
X126960000Y-61620000D03*
X126960000Y-61120000D03*
X126960000Y-60620000D03*
X126960000Y-60120000D03*
X126960000Y-59620000D03*
X126960000Y-59120000D03*
X126960000Y-58620000D03*
X126960000Y-58120000D03*
X126960000Y-57620000D03*
X126960000Y-57120000D03*
X126960000Y-56620000D03*
X126960000Y-56120000D03*
D22*
X125360000Y-54520000D03*
X124860000Y-54520000D03*
X124360000Y-54520000D03*
X123860000Y-54520000D03*
X123360000Y-54520000D03*
X122860000Y-54520000D03*
X122360000Y-54520000D03*
X121860000Y-54520000D03*
X121360000Y-54520000D03*
X120860000Y-54520000D03*
X120360000Y-54520000D03*
X119860000Y-54520000D03*
D21*
X118260000Y-56120000D03*
X118260000Y-56620000D03*
X118260000Y-57120000D03*
X118260000Y-57620000D03*
X118260000Y-58120000D03*
X118260000Y-58620000D03*
X118260000Y-59120000D03*
X118260000Y-59620000D03*
X118260000Y-60120000D03*
X118260000Y-60620000D03*
X118260000Y-61120000D03*
X118260000Y-61620000D03*
D22*
X119860000Y-63220000D03*
X120360000Y-63220000D03*
X120860000Y-63220000D03*
X121360000Y-63220000D03*
X121860000Y-63220000D03*
X122360000Y-63220000D03*
X122860000Y-63220000D03*
X123360000Y-63220000D03*
X123860000Y-63220000D03*
X124360000Y-63220000D03*
X124860000Y-63220000D03*
X125360000Y-63220000D03*
D13*
X172720000Y-105410000D03*
X175260000Y-105410000D03*
X175260000Y-107950000D03*
X172720000Y-107950000D03*
X180340000Y-107950000D03*
X182880000Y-107950000D03*
X185420000Y-107950000D03*
X185420000Y-105410000D03*
X182880000Y-105410000D03*
X180340000Y-105410000D03*
X177800000Y-107950000D03*
X177800000Y-105410000D03*
X195580000Y-105410000D03*
X198120000Y-105410000D03*
X198120000Y-107950000D03*
X195580000Y-107950000D03*
X203200000Y-107950000D03*
X205740000Y-107950000D03*
X208280000Y-107950000D03*
X208280000Y-105410000D03*
X205740000Y-105410000D03*
X203200000Y-105410000D03*
X200660000Y-107950000D03*
X200660000Y-105410000D03*
D16*
X138430000Y-62595000D03*
X138430000Y-61595000D03*
X138430000Y-70485000D03*
X138430000Y-69485000D03*
X124595000Y-65405000D03*
X125595000Y-65405000D03*
X120515000Y-52070000D03*
X119515000Y-52070000D03*
X128905000Y-58285000D03*
X128905000Y-57285000D03*
X198620000Y-85725000D03*
X197620000Y-85725000D03*
X201930000Y-95750000D03*
X201930000Y-94750000D03*
X194175000Y-100965000D03*
X193175000Y-100965000D03*
X183515000Y-72390000D03*
X182515000Y-72390000D03*
X174625000Y-72390000D03*
X175625000Y-72390000D03*
X182380000Y-62230000D03*
X183380000Y-62230000D03*
X175895000Y-43950000D03*
X175895000Y-44950000D03*
X189230000Y-57515000D03*
X189230000Y-56515000D03*
X190365000Y-48895000D03*
X189365000Y-48895000D03*
X172720000Y-56904000D03*
X172720000Y-57904000D03*
X186690000Y-92845000D03*
X186690000Y-93845000D03*
X116205000Y-61095000D03*
X116205000Y-62095000D03*
D12*
X192405000Y-80607000D03*
X192405000Y-79413000D03*
X193675000Y-80607000D03*
X193675000Y-79413000D03*
X194945000Y-80607000D03*
X194945000Y-79413000D03*
X196215000Y-80607000D03*
X196215000Y-79413000D03*
X118110000Y-41237000D03*
X118110000Y-40043000D03*
X121920000Y-41237000D03*
X121920000Y-40043000D03*
X120650000Y-41237000D03*
X120650000Y-40043000D03*
X119380000Y-41237000D03*
X119380000Y-40043000D03*
D23*
X166332000Y-47440000D03*
X165138000Y-47440000D03*
X166332000Y-48710000D03*
X165138000Y-48710000D03*
X166332000Y-50165000D03*
X165138000Y-50165000D03*
X166332000Y-51435000D03*
X165138000Y-51435000D03*
D12*
X194945000Y-83147000D03*
X194945000Y-81953000D03*
X193675000Y-83147000D03*
X193675000Y-81953000D03*
X192405000Y-83147000D03*
X192405000Y-81953000D03*
X163703000Y-56172000D03*
X163703000Y-57366000D03*
X152400000Y-44488000D03*
X152400000Y-45682000D03*
D23*
X143548000Y-52070000D03*
X144742000Y-52070000D03*
X188887000Y-44069000D03*
X190081000Y-44069000D03*
X206337000Y-44450000D03*
X205143000Y-44450000D03*
X206337000Y-34925000D03*
X205143000Y-34925000D03*
X206337000Y-33655000D03*
X205143000Y-33655000D03*
X206337000Y-43180000D03*
X205143000Y-43180000D03*
X206299000Y-41910000D03*
X205105000Y-41910000D03*
X206337000Y-37465000D03*
X205143000Y-37465000D03*
X206337000Y-36195000D03*
X205143000Y-36195000D03*
X143548000Y-49530000D03*
X144742000Y-49530000D03*
D12*
X179760000Y-39223000D03*
X179760000Y-40417000D03*
X180975000Y-39223000D03*
X180975000Y-40417000D03*
D23*
X170777000Y-92075000D03*
X169583000Y-92075000D03*
X170777000Y-94615000D03*
X169583000Y-94615000D03*
X170777000Y-97210000D03*
X169583000Y-97210000D03*
X170777000Y-99695000D03*
X169583000Y-99695000D03*
D12*
X180975000Y-43218000D03*
X180975000Y-44412000D03*
D23*
X190462000Y-52705000D03*
X189268000Y-52705000D03*
X171412000Y-45720000D03*
X170218000Y-45720000D03*
X143548000Y-46990000D03*
X144742000Y-46990000D03*
X143548000Y-44450000D03*
X144742000Y-44450000D03*
X143548000Y-41910000D03*
X144742000Y-41910000D03*
X169524000Y-47440000D03*
X168330000Y-47440000D03*
D12*
X119380000Y-65443000D03*
X119380000Y-66637000D03*
X107950000Y-67983000D03*
X107950000Y-69177000D03*
X116840000Y-68618000D03*
X116840000Y-69812000D03*
X123190000Y-66637000D03*
X123190000Y-65443000D03*
X118110000Y-68618000D03*
X118110000Y-69812000D03*
X119380000Y-68618000D03*
X119380000Y-69812000D03*
D23*
X116802000Y-50165000D03*
X115608000Y-50165000D03*
X115608000Y-51435000D03*
X116802000Y-51435000D03*
X123863000Y-50165000D03*
X125057000Y-50165000D03*
X125057000Y-51435000D03*
X123863000Y-51435000D03*
D12*
X112268000Y-74765000D03*
X112268000Y-73571000D03*
X196215000Y-83147000D03*
X196215000Y-81953000D03*
X118110000Y-43777000D03*
X118110000Y-42583000D03*
X121920000Y-43777000D03*
X121920000Y-42583000D03*
X120650000Y-43777000D03*
X120650000Y-42583000D03*
X119380000Y-43777000D03*
X119380000Y-42583000D03*
D23*
X112433000Y-55245000D03*
X113627000Y-55245000D03*
X112433000Y-56515000D03*
X113627000Y-56515000D03*
X113627000Y-57785000D03*
X112433000Y-57785000D03*
X144742000Y-81280000D03*
X143548000Y-81280000D03*
X144742000Y-83820000D03*
X143548000Y-83820000D03*
D12*
X153035000Y-60922000D03*
X153035000Y-59728000D03*
X149225000Y-60922000D03*
X149225000Y-59728000D03*
X147955000Y-70396000D03*
X147955000Y-71590000D03*
X146685000Y-71590000D03*
X146685000Y-70396000D03*
D23*
X169524000Y-48710000D03*
X168330000Y-48710000D03*
X169507000Y-50165000D03*
X168313000Y-50165000D03*
X169507000Y-51435000D03*
X168313000Y-51435000D03*
X190081000Y-42799000D03*
X188887000Y-42799000D03*
D12*
X178490000Y-39223000D03*
X178490000Y-40417000D03*
D17*
X124345000Y-67310000D03*
X125845000Y-67310000D03*
X106565000Y-48260000D03*
X108065000Y-48260000D03*
X109740000Y-48260000D03*
X111240000Y-48260000D03*
X130810000Y-58535000D03*
X130810000Y-57035000D03*
X202565000Y-83070000D03*
X202565000Y-84570000D03*
X190730000Y-50800000D03*
X189230000Y-50800000D03*
X177800000Y-43700000D03*
X177800000Y-45200000D03*
X182130000Y-64135000D03*
X183630000Y-64135000D03*
X173355000Y-43700000D03*
X173355000Y-45200000D03*
D24*
X153035000Y-68740000D03*
X151765000Y-68740000D03*
X150495000Y-68740000D03*
X149225000Y-68740000D03*
X147955000Y-68740000D03*
X146685000Y-68740000D03*
X145415000Y-68740000D03*
X145415000Y-63340000D03*
X146685000Y-63340000D03*
X147955000Y-63340000D03*
X149225000Y-63340000D03*
X150495000Y-63340000D03*
X151765000Y-63340000D03*
X153035000Y-63340000D03*
D25*
X212215000Y-85090000D03*
D26*
X205615000Y-85090000D03*
X205615000Y-82810000D03*
X205615000Y-87370000D03*
D27*
X109220000Y-37340000D03*
D28*
X109220000Y-43940000D03*
X106940000Y-43940000D03*
X111500000Y-43940000D03*
D29*
X213240000Y-32680000D03*
D30*
X210815000Y-33080000D03*
D31*
X212390000Y-44305000D03*
D32*
X213890000Y-44630000D03*
D33*
X221615000Y-43180000D03*
X221615000Y-42080000D03*
X221615000Y-40980000D03*
X221615000Y-39880000D03*
X221615000Y-38780000D03*
X221615000Y-37680000D03*
X221615000Y-36580000D03*
X221615000Y-35480000D03*
D34*
X221490000Y-44380000D03*
D35*
X221490000Y-33030000D03*
D36*
X183896000Y-68580000D03*
X174244000Y-68580000D03*
D37*
X134620000Y-61214000D03*
X134620000Y-70866000D03*
D38*
X175077120Y-57724040D03*
X175077120Y-57223660D03*
X175077120Y-56723280D03*
X175077120Y-56222900D03*
X175077120Y-55722520D03*
X175077120Y-55224680D03*
X175077120Y-54724300D03*
X175077120Y-54223920D03*
X175077120Y-53726080D03*
X175077120Y-53225700D03*
X175077120Y-52725320D03*
X175077120Y-52227480D03*
X175077120Y-51727100D03*
X175077120Y-51226720D03*
X175077120Y-50726340D03*
X175077120Y-50225960D03*
D39*
X177225960Y-48077120D03*
X177726340Y-48077120D03*
X178226720Y-48077120D03*
X178727100Y-48077120D03*
X179227480Y-48077120D03*
X179725320Y-48077120D03*
X180225700Y-48077120D03*
X180726080Y-48077120D03*
X181223920Y-48077120D03*
X181724300Y-48077120D03*
X182224680Y-48077120D03*
X182722520Y-48077120D03*
X183222900Y-48077120D03*
X183723280Y-48077120D03*
X184223660Y-48077120D03*
X184724040Y-48077120D03*
D38*
X186872880Y-50225960D03*
X186872880Y-50726340D03*
X186872880Y-51226720D03*
X186872880Y-51727100D03*
X186872880Y-52227480D03*
X186872880Y-52725320D03*
X186872880Y-53225700D03*
X186872880Y-53726080D03*
X186872880Y-54223920D03*
X186872880Y-54724300D03*
X186872880Y-55224680D03*
X186872880Y-55722520D03*
X186872880Y-56222900D03*
X186872880Y-56723280D03*
X186872880Y-57223660D03*
X186872880Y-57724040D03*
D39*
X184724040Y-59872880D03*
X184223660Y-59872880D03*
X183723280Y-59872880D03*
X183222900Y-59872880D03*
X182722520Y-59872880D03*
X182224680Y-59872880D03*
X181724300Y-59872880D03*
X181223920Y-59872880D03*
X180726080Y-59872880D03*
X180225700Y-59872880D03*
X179725320Y-59872880D03*
X179227480Y-59872880D03*
X178727100Y-59872880D03*
X178226720Y-59872880D03*
X177726340Y-59872880D03*
X177225960Y-59872880D03*
D40*
X177030000Y-31795000D03*
D41*
X179830000Y-31795000D03*
X182230000Y-31795000D03*
D40*
X185030000Y-31795000D03*
D42*
X177930000Y-34345000D03*
X184130000Y-34345000D03*
D43*
X179730000Y-34470000D03*
X180380000Y-34470000D03*
X181030000Y-34470000D03*
X181680000Y-34470000D03*
X182330000Y-34470000D03*
D44*
X101830000Y-60330000D03*
D41*
X101830000Y-57530000D03*
X101830000Y-55130000D03*
D44*
X101830000Y-52330000D03*
D45*
X104380000Y-59430000D03*
X104380000Y-53230000D03*
D46*
X104505000Y-57630000D03*
X104505000Y-56980000D03*
X104505000Y-56330000D03*
X104505000Y-55680000D03*
X104505000Y-55030000D03*
D47*
X222885000Y-46990000D03*
X208280000Y-31750000D03*
X188595000Y-31750000D03*
X173355000Y-31750000D03*
X219202000Y-41148000D03*
D48*
X183642010Y-39624000D03*
D47*
X188976000Y-58420000D03*
X190119000Y-41529000D03*
X186182000Y-36830000D03*
X164465000Y-55371994D03*
X144526000Y-63373000D03*
X156083000Y-67437000D03*
X146939000Y-59055000D03*
X155574982Y-59690000D03*
X169037000Y-56134000D03*
X191897000Y-49784000D03*
X192024000Y-52692501D03*
X164084000Y-43688000D03*
X123063004Y-40005000D03*
X106299000Y-59436024D03*
X106299000Y-57658008D03*
X106299000Y-53213000D03*
X106553000Y-49530000D03*
X109728000Y-49530000D03*
X126365000Y-51434989D03*
X146685000Y-73025000D03*
X114935000Y-61595000D03*
X139065000Y-66040000D03*
X128905000Y-66040000D03*
X128905000Y-74295000D03*
X139065000Y-74295000D03*
X139065000Y-57785000D03*
X179070000Y-73660000D03*
X187325000Y-73660000D03*
X170815000Y-73660000D03*
X187325000Y-69215000D03*
X170815000Y-69215000D03*
X170815000Y-65405000D03*
X177165000Y-65405000D03*
X180340000Y-65405000D03*
X187325000Y-65405000D03*
X180974984Y-63500000D03*
D49*
X179070000Y-36830000D03*
D47*
X177800000Y-42545000D03*
X186690000Y-34290000D03*
X177165000Y-36830000D03*
X212725000Y-72390000D03*
X200025000Y-86360000D03*
X202565000Y-88265000D03*
X201295000Y-82550000D03*
X185420000Y-92710000D03*
X194945000Y-102235000D03*
X203200000Y-96520000D03*
X197485000Y-79375000D03*
X123825000Y-68580000D03*
X122555000Y-67945000D03*
X132080000Y-58420000D03*
D48*
X120650000Y-50800000D03*
D47*
X114300000Y-51435000D03*
X209042000Y-32766000D03*
X192913000Y-58039000D03*
D49*
X180316930Y-55369832D03*
X179832000Y-56896000D03*
X176530000Y-56642000D03*
X183134000Y-44704000D03*
X181102000Y-56896000D03*
X180974990Y-62180840D03*
X185674000Y-62738000D03*
X183642000Y-55625996D03*
X191516214Y-56946811D03*
X192213252Y-56499832D03*
X191770000Y-55626000D03*
X191015959Y-55516073D03*
X177291976Y-50038000D03*
X178053987Y-50037994D03*
X178816002Y-50038000D03*
X179578000Y-49784000D03*
X168910000Y-59182000D03*
X181356000Y-53593996D03*
X192532000Y-63246000D03*
X182626000Y-46253410D03*
X158242000Y-60960000D03*
X151130000Y-61722000D03*
X207518000Y-42418000D03*
X197358000Y-38608000D03*
X207518000Y-43688000D03*
X196342000Y-38608000D03*
X179692290Y-43303187D03*
X178815992Y-41656000D03*
X197866000Y-36067998D03*
X176453809Y-49911000D03*
X198374012Y-38608000D03*
X199390000Y-38607966D03*
X201675938Y-38597399D03*
X200660000Y-39116000D03*
X173228000Y-46482000D03*
X191516000Y-61214000D03*
X120142000Y-57912000D03*
X120026689Y-57116703D03*
X137414000Y-56159410D03*
X139954000Y-55854590D03*
X120904000Y-55880000D03*
X185420000Y-43180000D03*
X190499990Y-90932000D03*
X191262000Y-91948000D03*
X184683410Y-98044000D03*
X184658000Y-100330000D03*
X185674000Y-99821996D03*
X187325000Y-97790000D03*
X120396000Y-59690000D03*
X120650000Y-58674000D03*
X130556000Y-53594000D03*
X129540000Y-53594000D03*
D47*
X191262000Y-48006000D03*
X154305000Y-45720000D03*
X189865000Y-72390000D03*
X219075000Y-38735000D03*
X221615000Y-46990000D03*
X188595000Y-33020000D03*
X173355000Y-33020000D03*
X104140000Y-39370000D03*
X104140000Y-41910000D03*
D49*
X181610000Y-61595000D03*
X183378959Y-58331473D03*
X184643907Y-63469643D03*
X186055000Y-63500000D03*
X164846000Y-64135000D03*
X164084000Y-63500000D03*
X203454000Y-67818000D03*
X203454000Y-62992000D03*
X166370000Y-59055000D03*
X167132000Y-59055016D03*
X167894004Y-59055000D03*
X189865000Y-59309000D03*
X181610000Y-49530000D03*
X161798000Y-56134000D03*
X163957000Y-54356000D03*
X164465000Y-45085000D03*
X174625000Y-47371000D03*
X173863000Y-47117000D03*
X207518000Y-34290000D03*
X207517992Y-35560000D03*
X207518000Y-38100000D03*
X207518000Y-36830010D03*
X190243434Y-60096407D03*
X171704000Y-54864000D03*
D47*
X207264000Y-97028000D03*
X208280000Y-88265000D03*
D49*
X143002000Y-56134000D03*
X168656000Y-62103000D03*
X151765000Y-65405000D03*
X190500000Y-85090000D03*
X191746250Y-85748750D03*
X126365000Y-55245000D03*
X138453757Y-55903757D03*
X193675000Y-96520000D03*
X197612000Y-102108000D03*
X198627988Y-102108000D03*
X201168000Y-102108000D03*
X202692000Y-102108000D03*
X196215000Y-84582000D03*
X196723000Y-89408000D03*
X190246000Y-62738000D03*
X190246000Y-93725992D03*
X186690000Y-95250000D03*
X186182000Y-96520000D03*
X186690000Y-97155000D03*
X202692000Y-98044000D03*
X196596000Y-92202000D03*
X114935000Y-59054992D03*
X116205000Y-57785000D03*
X118364000Y-55118000D03*
X115570000Y-66040000D03*
X123190007Y-60960007D03*
X136398000Y-41910000D03*
X129413000Y-46736000D03*
X136398000Y-44450004D03*
X129540000Y-48895000D03*
X136398000Y-46990000D03*
X136398000Y-49530000D03*
X136398000Y-52070000D03*
X113665000Y-66040000D03*
D50*
X187205000Y-38674000D02*
X187205000Y-37712000D01*
X187205000Y-37712000D02*
X187706000Y-37211000D01*
X187706000Y-32639000D02*
X188595000Y-31750000D01*
X187706000Y-37211000D02*
X187706000Y-32639000D01*
X111500000Y-43940000D02*
X111500000Y-42559000D01*
X101600000Y-33782000D02*
X103632000Y-31750000D01*
X109581000Y-40640000D02*
X103251000Y-40640000D01*
X103251000Y-40640000D02*
X101600000Y-38989000D01*
X111500000Y-42559000D02*
X109581000Y-40640000D01*
X101600000Y-38989000D02*
X101600000Y-33782000D01*
X103632000Y-31750000D02*
X129540000Y-31750000D01*
X129540000Y-31750000D02*
X173355000Y-31750000D01*
D51*
X111240000Y-48260000D02*
X114262000Y-48260000D01*
X114262000Y-48260000D02*
X115608000Y-49606000D01*
X115608000Y-49606000D02*
X115608000Y-50165000D01*
D50*
X222885000Y-46990000D02*
X222885000Y-114300000D01*
X222885000Y-114300000D02*
X220980000Y-116205000D01*
X220980000Y-116205000D02*
X195580000Y-116205000D01*
X191770000Y-112395000D02*
X191770000Y-107950000D01*
X195580000Y-116205000D02*
X191770000Y-112395000D01*
X188595000Y-31750000D02*
X208280000Y-31750000D01*
X111500000Y-45980000D02*
X111240000Y-46240000D01*
X111240000Y-46240000D02*
X111240000Y-48260000D01*
X111500000Y-43940000D02*
X111500000Y-45980000D01*
X106465000Y-55030000D02*
X111240000Y-50255000D01*
X111240000Y-50255000D02*
X111240000Y-48260000D01*
X104505000Y-55030000D02*
X106465000Y-55030000D01*
D52*
X104505000Y-55680000D02*
X109420000Y-55680000D01*
X109420000Y-55680000D02*
X109855000Y-55245000D01*
X109855000Y-55245000D02*
X112433000Y-55245000D01*
X104505000Y-56330000D02*
X109670000Y-56330000D01*
X109670000Y-56330000D02*
X109855000Y-56515000D01*
X109855000Y-56515000D02*
X112433000Y-56515000D01*
D51*
X219370000Y-40980000D02*
X219202000Y-41148000D01*
X221615000Y-40980000D02*
X219370000Y-40980000D01*
X184905000Y-39624000D02*
X183642010Y-39624000D01*
X189230000Y-58166000D02*
X188976000Y-58420000D01*
X189230000Y-57515000D02*
X189230000Y-58166000D01*
X190081000Y-42799000D02*
X190081000Y-41567000D01*
X190081000Y-41567000D02*
X190119000Y-41529000D01*
X184900000Y-36830000D02*
X186182000Y-36830000D01*
X164465000Y-55397500D02*
X164465000Y-55371994D01*
X163703000Y-56159500D02*
X164465000Y-55397500D01*
X163703000Y-56172000D02*
X163703000Y-56159500D01*
X144559000Y-63340000D02*
X144526000Y-63373000D01*
X145415000Y-63340000D02*
X144559000Y-63340000D01*
X154940000Y-67445000D02*
X156075000Y-67445000D01*
X156075000Y-67445000D02*
X156083000Y-67437000D01*
X147955000Y-59728000D02*
X147612000Y-59728000D01*
X147612000Y-59728000D02*
X146939000Y-59055000D01*
X155536982Y-59728000D02*
X155574982Y-59690000D01*
X154305000Y-59728000D02*
X155536982Y-59728000D01*
X169807000Y-56904000D02*
X169354499Y-56451499D01*
X169354499Y-56451499D02*
X169037000Y-56134000D01*
X172720000Y-56904000D02*
X169807000Y-56904000D01*
X190730000Y-49784000D02*
X190730000Y-49530000D01*
X190730000Y-49784000D02*
X191897000Y-49784000D01*
X190730000Y-50800000D02*
X190730000Y-49784000D01*
X191008000Y-52705000D02*
X192011501Y-52705000D01*
X192011501Y-52705000D02*
X192024000Y-52692501D01*
X190462000Y-52705000D02*
X191008000Y-52705000D01*
X165138000Y-47440000D02*
X165138000Y-44361000D01*
X165138000Y-44361000D02*
X164465000Y-43688000D01*
X164465000Y-43688000D02*
X164084000Y-43688000D01*
X221615000Y-40980000D02*
X223434000Y-40980000D01*
X223434000Y-40980000D02*
X223520000Y-40894000D01*
X223520000Y-40894000D02*
X223520000Y-40640000D01*
X123025004Y-40043000D02*
X123063004Y-40005000D01*
X121920000Y-40043000D02*
X123025004Y-40043000D01*
X173355000Y-43700000D02*
X174891000Y-43700000D01*
X174891000Y-43700000D02*
X175141000Y-43950000D01*
X175141000Y-43950000D02*
X175895000Y-43950000D01*
X106292976Y-59430000D02*
X106299000Y-59436024D01*
X104380000Y-59430000D02*
X106292976Y-59430000D01*
X106270992Y-57630000D02*
X106299000Y-57658008D01*
X104505000Y-57630000D02*
X106270992Y-57630000D01*
X104380000Y-53230000D02*
X106282000Y-53230000D01*
X106282000Y-53230000D02*
X106299000Y-53213000D01*
X106565000Y-48260000D02*
X106565000Y-49518000D01*
X106565000Y-49518000D02*
X106553000Y-49530000D01*
X109740000Y-49518000D02*
X109728000Y-49530000D01*
X109740000Y-48260000D02*
X109740000Y-49518000D01*
X126364989Y-51435000D02*
X126365000Y-51434989D01*
X125057000Y-51435000D02*
X126364989Y-51435000D01*
X175077120Y-57223660D02*
X173039660Y-57223660D01*
X173039660Y-57223660D02*
X172720000Y-56904000D01*
X146685000Y-71590000D02*
X146685000Y-73025000D01*
X189230000Y-57515000D02*
X188368180Y-57515000D01*
X188368180Y-57515000D02*
X188076840Y-57223660D01*
X188076840Y-57223660D02*
X186872880Y-57223660D01*
X115252499Y-61277501D02*
X114935000Y-61595000D01*
X115435000Y-61095000D02*
X115252499Y-61277501D01*
X116205000Y-61095000D02*
X115435000Y-61095000D01*
X138747501Y-66357499D02*
X139065000Y-66040000D01*
X138430000Y-66675000D02*
X138747501Y-66357499D01*
X138747501Y-65722501D02*
X139065000Y-66040000D01*
X139065000Y-65590988D02*
X139065000Y-66040000D01*
X139065000Y-57785000D02*
X139065000Y-65590988D01*
X138430000Y-62595000D02*
X138430000Y-65405000D01*
X138430000Y-69485000D02*
X138430000Y-66675000D01*
X138430000Y-65405000D02*
X138747501Y-65722501D01*
X139065000Y-74295000D02*
X128905000Y-74295000D01*
X170815000Y-73660000D02*
X179070000Y-73660000D01*
X179070000Y-73660000D02*
X187325000Y-73660000D01*
X170815000Y-65405000D02*
X170815000Y-69215000D01*
X177165000Y-65405000D02*
X170815000Y-65405000D01*
X187325000Y-65405000D02*
X180340000Y-65405000D01*
X181476000Y-64135000D02*
X180974984Y-63633984D01*
X180974984Y-63633984D02*
X180974984Y-63500000D01*
X182130000Y-64135000D02*
X181476000Y-64135000D01*
X182380000Y-62230000D02*
X182380000Y-63885000D01*
X182380000Y-63885000D02*
X182130000Y-64135000D01*
X182722520Y-59872880D02*
X182722520Y-61887480D01*
X182722520Y-61887480D02*
X182380000Y-62230000D01*
X190730000Y-49530000D02*
X190730000Y-49260000D01*
X190730000Y-49260000D02*
X190365000Y-48895000D01*
D50*
X179730000Y-34470000D02*
X179730000Y-36170000D01*
X179730000Y-36170000D02*
X179070000Y-36830000D01*
X184900000Y-36830000D02*
X184900000Y-35115000D01*
X184900000Y-35115000D02*
X184130000Y-34345000D01*
D51*
X179070000Y-72390000D02*
X182515000Y-72390000D01*
X175625000Y-72390000D02*
X179070000Y-72390000D01*
X165138000Y-48710000D02*
X165138000Y-47440000D01*
X165138000Y-50165000D02*
X165138000Y-48710000D01*
X165138000Y-51435000D02*
X165138000Y-50165000D01*
X177800000Y-43700000D02*
X177800000Y-42545000D01*
X175895000Y-43950000D02*
X177550000Y-43950000D01*
X177550000Y-43950000D02*
X177800000Y-43700000D01*
X184130000Y-34345000D02*
X186635000Y-34345000D01*
X186635000Y-34345000D02*
X186690000Y-34290000D01*
X177930000Y-34345000D02*
X177930000Y-36065000D01*
X177930000Y-36065000D02*
X177165000Y-36830000D01*
X177030000Y-31795000D02*
X177030000Y-33445000D01*
X177030000Y-33445000D02*
X177930000Y-34345000D01*
X185030000Y-31795000D02*
X185030000Y-33445000D01*
X185030000Y-33445000D02*
X184130000Y-34345000D01*
X182230000Y-31795000D02*
X185030000Y-31795000D01*
X179830000Y-31795000D02*
X182230000Y-31795000D01*
X179830000Y-31795000D02*
X177030000Y-31795000D01*
X212995000Y-69530000D02*
X212995000Y-72120000D01*
X212995000Y-72120000D02*
X212725000Y-72390000D01*
X223520000Y-34056000D02*
X223520000Y-40640000D01*
X223520000Y-40640000D02*
X223520000Y-43354000D01*
X223520000Y-43354000D02*
X222494000Y-44380000D01*
X222494000Y-44380000D02*
X221490000Y-44380000D01*
X221490000Y-33030000D02*
X222494000Y-33030000D01*
X222494000Y-33030000D02*
X223520000Y-34056000D01*
X213240000Y-32680000D02*
X221140000Y-32680000D01*
X221140000Y-32680000D02*
X221490000Y-33030000D01*
X213890000Y-44630000D02*
X221240000Y-44630000D01*
X221240000Y-44630000D02*
X221490000Y-44380000D01*
X210815000Y-33080000D02*
X212840000Y-33080000D01*
X212840000Y-33080000D02*
X213240000Y-32680000D01*
X198620000Y-85725000D02*
X199390000Y-85725000D01*
X199390000Y-85725000D02*
X200025000Y-86360000D01*
X203720000Y-89535000D02*
X203720000Y-89420000D01*
X203720000Y-89420000D02*
X202565000Y-88265000D01*
X202565000Y-83070000D02*
X201815000Y-83070000D01*
X201815000Y-83070000D02*
X201295000Y-82550000D01*
X205615000Y-82810000D02*
X202825000Y-82810000D01*
X202825000Y-82810000D02*
X202565000Y-83070000D01*
X186690000Y-92845000D02*
X185555000Y-92845000D01*
X185555000Y-92845000D02*
X185420000Y-92710000D01*
X188710000Y-91745000D02*
X187790000Y-91745000D01*
X187790000Y-91745000D02*
X186690000Y-92845000D01*
X194175000Y-100965000D02*
X194175000Y-101465000D01*
X194175000Y-101465000D02*
X194945000Y-102235000D01*
X194310000Y-100330000D02*
X194306000Y-100330000D01*
X194175000Y-100461000D02*
X194175000Y-100965000D01*
X194306000Y-100330000D02*
X194175000Y-100461000D01*
X194310000Y-99045000D02*
X194310000Y-100330000D01*
X201930000Y-95750000D02*
X202430000Y-95750000D01*
X202430000Y-95750000D02*
X203200000Y-96520000D01*
X199910000Y-95745000D02*
X201925000Y-95745000D01*
X201925000Y-95745000D02*
X201930000Y-95750000D01*
X196215000Y-79413000D02*
X197447000Y-79413000D01*
X197447000Y-79413000D02*
X197485000Y-79375000D01*
X194945000Y-79413000D02*
X196215000Y-79413000D01*
X193675000Y-79413000D02*
X194945000Y-79413000D01*
X192405000Y-79413000D02*
X193675000Y-79413000D01*
X124345000Y-67310000D02*
X124345000Y-68060000D01*
X124345000Y-68060000D02*
X123825000Y-68580000D01*
X124595000Y-65405000D02*
X124595000Y-65909000D01*
X124595000Y-65909000D02*
X124345000Y-66159000D01*
X124345000Y-66159000D02*
X124345000Y-67310000D01*
X124860000Y-63220000D02*
X124860000Y-65140000D01*
X124860000Y-65140000D02*
X124595000Y-65405000D01*
X123190000Y-66637000D02*
X123190000Y-67310000D01*
X123190000Y-67310000D02*
X122555000Y-67945000D01*
X130810000Y-58535000D02*
X131965000Y-58535000D01*
X131965000Y-58535000D02*
X132080000Y-58420000D01*
X128905000Y-58285000D02*
X129409000Y-58285000D01*
X129409000Y-58285000D02*
X129659000Y-58535000D01*
X129659000Y-58535000D02*
X130810000Y-58535000D01*
X126960000Y-58120000D02*
X128740000Y-58120000D01*
X128740000Y-58120000D02*
X128905000Y-58285000D01*
X119380000Y-40043000D02*
X118110000Y-40043000D01*
X120650000Y-40043000D02*
X119380000Y-40043000D01*
X121920000Y-40043000D02*
X120650000Y-40043000D01*
X120515000Y-52070000D02*
X120515000Y-50935000D01*
X120515000Y-50935000D02*
X120650000Y-50800000D01*
X120360000Y-52995000D02*
X120515000Y-52840000D01*
X120515000Y-52840000D02*
X120515000Y-52070000D01*
X120360000Y-54520000D02*
X120360000Y-52995000D01*
X115608000Y-51435000D02*
X114300000Y-51435000D01*
X118260000Y-61120000D02*
X116230000Y-61120000D01*
X116230000Y-61120000D02*
X116205000Y-61095000D01*
D50*
X106565000Y-46470000D02*
X106940000Y-46095000D01*
X106940000Y-46095000D02*
X106940000Y-43940000D01*
X106565000Y-48260000D02*
X106565000Y-46470000D01*
D51*
X101830000Y-60330000D02*
X103480000Y-60330000D01*
X103480000Y-60330000D02*
X104380000Y-59430000D01*
X101830000Y-52330000D02*
X103480000Y-52330000D01*
X103480000Y-52330000D02*
X104380000Y-53230000D01*
X101830000Y-55130000D02*
X101830000Y-52330000D01*
X101830000Y-57530000D02*
X101830000Y-55130000D01*
X101830000Y-60330000D02*
X101830000Y-59176000D01*
X101830000Y-59176000D02*
X101830000Y-57530000D01*
D52*
X180380000Y-34470000D02*
X180380000Y-36358934D01*
X178490000Y-38753100D02*
X178490000Y-39223000D01*
X180380000Y-36358934D02*
X178490000Y-38248934D01*
X178490000Y-38248934D02*
X178490000Y-38753100D01*
X181030000Y-36140000D02*
X179760000Y-37410000D01*
X181030000Y-34470000D02*
X181030000Y-36140000D01*
X179760000Y-37410000D02*
X179760000Y-39223000D01*
X180975000Y-36830000D02*
X180975000Y-39223000D01*
X181680000Y-34470000D02*
X181680000Y-36125000D01*
X181680000Y-36125000D02*
X180975000Y-36830000D01*
D50*
X205105000Y-32702501D02*
X208280000Y-32702501D01*
X208280000Y-32702501D02*
X208978501Y-32702501D01*
D51*
X208978501Y-32702501D02*
X209042000Y-32766000D01*
X192532000Y-58928000D02*
X192913000Y-58547000D01*
X191731901Y-58928000D02*
X192532000Y-58928000D01*
X192913000Y-58547000D02*
X192913000Y-58039000D01*
X188976000Y-63754000D02*
X185928000Y-60706000D01*
X185928000Y-60706000D02*
X185928000Y-59436000D01*
X185928000Y-59436000D02*
X183794399Y-57302399D01*
X183794399Y-57302399D02*
X182524399Y-57302399D01*
X179222401Y-55981599D02*
X177225960Y-57978040D01*
X182524399Y-57302399D02*
X181203599Y-55981599D01*
X181203599Y-55981599D02*
X179222401Y-55981599D01*
X177225960Y-57978040D02*
X177225960Y-59872880D01*
X189734000Y-56515000D02*
X189230000Y-56515000D01*
X191731901Y-58512901D02*
X189734000Y-56515000D01*
X191731901Y-58928000D02*
X191731901Y-58512901D01*
X119860000Y-55424000D02*
X119860000Y-54520000D01*
X121285000Y-60325000D02*
X121285000Y-57125618D01*
X119860000Y-55700618D02*
X119860000Y-55424000D01*
X121285000Y-57125618D02*
X119860000Y-55700618D01*
X180344000Y-89535000D02*
X185420000Y-94611000D01*
X192278000Y-95885000D02*
X191770000Y-95885000D01*
X191770000Y-95885000D02*
X188468000Y-99187000D01*
X185420000Y-97790000D02*
X185420000Y-94611000D01*
X188468000Y-99187000D02*
X186817000Y-99187000D01*
X186817000Y-99187000D02*
X185420000Y-97790000D01*
X194818000Y-95885000D02*
X192278000Y-95885000D01*
D50*
X188912499Y-32702501D02*
X191643000Y-32702501D01*
X191643000Y-32702501D02*
X192405000Y-32702501D01*
D51*
X190081000Y-44069000D02*
X190652500Y-44069000D01*
X190652500Y-44069000D02*
X191643000Y-43078500D01*
X191643000Y-43078500D02*
X191643000Y-32702501D01*
D52*
X177802168Y-55369832D02*
X179885878Y-55369832D01*
X179885878Y-55369832D02*
X180316930Y-55369832D01*
X176530000Y-56642000D02*
X177802168Y-55369832D01*
X180225700Y-57289700D02*
X180136799Y-57200799D01*
X180136799Y-57200799D02*
X179832000Y-56896000D01*
X180225700Y-59872880D02*
X180225700Y-57289700D01*
X183438799Y-44399201D02*
X183134000Y-44704000D01*
X183769000Y-44069000D02*
X183438799Y-44399201D01*
X188887000Y-44069000D02*
X183769000Y-44069000D01*
X180726080Y-59872880D02*
X180726080Y-57271920D01*
X180797201Y-57200799D02*
X181102000Y-56896000D01*
X180726080Y-57271920D02*
X180797201Y-57200799D01*
X187205000Y-40574000D02*
X188275000Y-40574000D01*
X188887000Y-41186000D02*
X188887000Y-41567000D01*
X188275000Y-40574000D02*
X188887000Y-41186000D01*
X188887000Y-41567000D02*
X188887000Y-42799000D01*
X188887000Y-44069000D02*
X188887000Y-42799000D01*
X181223920Y-60975240D02*
X180974990Y-61224170D01*
X180974990Y-61224170D02*
X180974990Y-61749788D01*
X180974990Y-61749788D02*
X180974990Y-62180840D01*
X181223920Y-59872880D02*
X181223920Y-60975240D01*
X185140599Y-62585599D02*
X185140599Y-63016651D01*
X184223660Y-59872880D02*
X184223660Y-61668660D01*
X185623948Y-63500000D02*
X186055000Y-63500000D01*
X185140599Y-63016651D02*
X185623948Y-63500000D01*
X184223660Y-61668660D02*
X185140599Y-62585599D01*
X185674000Y-62484000D02*
X185674000Y-62738000D01*
X184724040Y-61534040D02*
X185674000Y-62484000D01*
X184724040Y-59872880D02*
X184724040Y-61534040D01*
X185740044Y-57724040D02*
X183946799Y-55930795D01*
X186872880Y-57724040D02*
X185740044Y-57724040D01*
X183946799Y-55930795D02*
X183642000Y-55625996D01*
X190752425Y-56946811D02*
X191085162Y-56946811D01*
X191085162Y-56946811D02*
X191516214Y-56946811D01*
X188727092Y-55880000D02*
X189685614Y-55880000D01*
X188384192Y-56222900D02*
X188727092Y-55880000D01*
X189685614Y-55880000D02*
X190752425Y-56946811D01*
X186872880Y-56222900D02*
X188384192Y-56222900D01*
X188600836Y-55575189D02*
X189811870Y-55575189D01*
X188453505Y-55722520D02*
X188600836Y-55575189D01*
X189811870Y-55575189D02*
X190650084Y-56413403D01*
X192126823Y-56413403D02*
X192213252Y-56499832D01*
X190650084Y-56413403D02*
X192126823Y-56413403D01*
X186872880Y-55722520D02*
X188453505Y-55722520D01*
X189892414Y-55224680D02*
X190725521Y-56057787D01*
X186872880Y-55224680D02*
X189892414Y-55224680D01*
X190725521Y-56057787D02*
X191338213Y-56057787D01*
X191465201Y-55930799D02*
X191770000Y-55626000D01*
X191338213Y-56057787D02*
X191465201Y-55930799D01*
X190711160Y-55211274D02*
X191015959Y-55516073D01*
X190419756Y-54919870D02*
X190711160Y-55211274D01*
X188170810Y-54919870D02*
X190419756Y-54919870D01*
X187975240Y-54724300D02*
X188170810Y-54919870D01*
X186872880Y-54724300D02*
X187975240Y-54724300D01*
X178358786Y-51104810D02*
X177596775Y-50342799D01*
X177596775Y-50342799D02*
X177291976Y-50038000D01*
X184724040Y-49179480D02*
X182798710Y-51104810D01*
X184724040Y-48077120D02*
X184724040Y-49179480D01*
X182798710Y-51104810D02*
X178358786Y-51104810D01*
X184223660Y-48077120D02*
X184223660Y-49179480D01*
X182603141Y-50799999D02*
X178815992Y-50799999D01*
X184223660Y-49179480D02*
X182603141Y-50799999D01*
X178815992Y-50799999D02*
X178358786Y-50342793D01*
X178358786Y-50342793D02*
X178053987Y-50037994D01*
X182432950Y-50469810D02*
X179247812Y-50469810D01*
X183723280Y-49179480D02*
X182432950Y-50469810D01*
X179247812Y-50469810D02*
X179120801Y-50342799D01*
X179120801Y-50342799D02*
X178816002Y-50038000D01*
X183723280Y-48077120D02*
X183723280Y-49179480D01*
X182237380Y-50165000D02*
X179959000Y-50165000D01*
X179882799Y-50088799D02*
X179578000Y-49784000D01*
X179959000Y-50165000D02*
X179882799Y-50088799D01*
X183222900Y-48077120D02*
X183222900Y-49179480D01*
X183222900Y-49179480D02*
X182237380Y-50165000D01*
X168605201Y-59486799D02*
X168910000Y-59182000D01*
X169583000Y-92075000D02*
X169583000Y-91617600D01*
X169583000Y-91617600D02*
X167894000Y-89928600D01*
X167894000Y-60198000D02*
X168605201Y-59486799D01*
X167894000Y-89928600D02*
X167894000Y-60198000D01*
X181356000Y-54562252D02*
X181356000Y-54025048D01*
X183030764Y-56237016D02*
X181356000Y-54562252D01*
X183821950Y-56237016D02*
X183030764Y-56237016D01*
X186893934Y-59309000D02*
X183821950Y-56237016D01*
X181356000Y-54025048D02*
X181356000Y-53593996D01*
X189865000Y-59309000D02*
X186893934Y-59309000D01*
X191770001Y-84302601D02*
X191770001Y-64007999D01*
X191770001Y-64007999D02*
X192227201Y-63550799D01*
X194310000Y-86842600D02*
X191770001Y-84302601D01*
X194310000Y-87745000D02*
X194310000Y-86842600D01*
X192227201Y-63550799D02*
X192532000Y-63246000D01*
X182224680Y-46654730D02*
X182321201Y-46558209D01*
X182224680Y-48077120D02*
X182224680Y-46654730D01*
X182321201Y-46558209D02*
X182626000Y-46253410D01*
X161798000Y-57404000D02*
X158546799Y-60655201D01*
X161798000Y-56134000D02*
X161798000Y-57404000D01*
X158546799Y-60655201D02*
X158242000Y-60960000D01*
X150495000Y-62357000D02*
X150825201Y-62026799D01*
X150825201Y-62026799D02*
X151130000Y-61722000D01*
X150495000Y-63340000D02*
X150495000Y-62357000D01*
X181724300Y-46340264D02*
X182344564Y-45720000D01*
X182344564Y-45720000D02*
X190246000Y-45720000D01*
X181724300Y-48077120D02*
X181724300Y-46340264D01*
X190246000Y-45720000D02*
X197053201Y-38912799D01*
X197053201Y-38912799D02*
X197358000Y-38608000D01*
X207518000Y-41910000D02*
X207518000Y-42418000D01*
X181223920Y-48077120D02*
X181223920Y-46106080D01*
X181223920Y-46106080D02*
X181940213Y-45389787D01*
X190423052Y-44958000D02*
X196342000Y-39039052D01*
X196342000Y-39039052D02*
X196342000Y-38608000D01*
X181940213Y-45389787D02*
X184226213Y-45389787D01*
X184658000Y-44958000D02*
X190423052Y-44958000D01*
X184226213Y-45389787D02*
X184658000Y-44958000D01*
X207518000Y-43180000D02*
X207518000Y-43688000D01*
X179725320Y-43336217D02*
X179692290Y-43303187D01*
X179725320Y-48077120D02*
X179725320Y-43336217D01*
X178511193Y-41351201D02*
X178815992Y-41656000D01*
X178490000Y-40417000D02*
X178490000Y-41330008D01*
X178490000Y-41330008D02*
X178511193Y-41351201D01*
X180975000Y-40417000D02*
X180975000Y-41021000D01*
X180975000Y-41021000D02*
X179070000Y-42926000D01*
X179070000Y-42926000D02*
X179070000Y-46482000D01*
X179070000Y-46482000D02*
X179227480Y-46639480D01*
X179227480Y-46639480D02*
X179227480Y-48077120D01*
X178727100Y-42583834D02*
X179760000Y-41550934D01*
X179760000Y-40886900D02*
X179760000Y-40417000D01*
X179760000Y-41550934D02*
X179760000Y-40886900D01*
X178727100Y-48077120D02*
X178727100Y-42583834D01*
X178028602Y-49377598D02*
X176631598Y-49377598D01*
X178226720Y-48077120D02*
X178226720Y-49179480D01*
X178226720Y-49179480D02*
X178028602Y-49377598D01*
X174929799Y-47675799D02*
X174625000Y-47371000D01*
X176631598Y-49377598D02*
X174929799Y-47675799D01*
X206337000Y-44450000D02*
X206337000Y-45885000D01*
X206337000Y-45885000D02*
X205740000Y-46482000D01*
X204470000Y-46482000D02*
X203708000Y-45720000D01*
X203708000Y-45720000D02*
X203708000Y-38354000D01*
X205740000Y-46482000D02*
X204470000Y-46482000D01*
X203708000Y-38354000D02*
X201421998Y-36067998D01*
X201421998Y-36067998D02*
X198297052Y-36067998D01*
X198297052Y-36067998D02*
X197866000Y-36067998D01*
X176453809Y-50342052D02*
X176453809Y-49911000D01*
X176179480Y-50726340D02*
X176453809Y-50452011D01*
X175077120Y-50726340D02*
X176179480Y-50726340D01*
X176453809Y-50452011D02*
X176453809Y-50342052D01*
X206337000Y-44450000D02*
X207799434Y-44450000D01*
X207799434Y-44450000D02*
X207944434Y-44305000D01*
X207944434Y-44305000D02*
X211737600Y-44305000D01*
X211737600Y-44305000D02*
X212390000Y-44305000D01*
X198069213Y-38912799D02*
X198374012Y-38608000D01*
X190652390Y-46329622D02*
X198069213Y-38912799D01*
X182525865Y-51816000D02*
X188012243Y-46329622D01*
X175077120Y-51226720D02*
X176179480Y-51226720D01*
X176768760Y-51816000D02*
X182525865Y-51816000D01*
X188012243Y-46329622D02*
X190652390Y-46329622D01*
X176179480Y-51226720D02*
X176768760Y-51816000D01*
X191363533Y-46634433D02*
X199085201Y-38912765D01*
X176248793Y-51727100D02*
X176642504Y-52120811D01*
X182652121Y-52120811D02*
X188138499Y-46634433D01*
X176642504Y-52120811D02*
X182652121Y-52120811D01*
X199085201Y-38912765D02*
X199390000Y-38607966D01*
X188138499Y-46634433D02*
X191363533Y-46634433D01*
X175077120Y-51727100D02*
X176248793Y-51727100D01*
X175077120Y-52227480D02*
X176179480Y-52227480D01*
X176377622Y-52425622D02*
X182778377Y-52425622D01*
X176179480Y-52227480D02*
X176377622Y-52425622D01*
X182778377Y-52425622D02*
X188264755Y-46939244D01*
X188264755Y-46939244D02*
X192047322Y-46939244D01*
X192047322Y-46939244D02*
X200693966Y-38292600D01*
X201371139Y-38292600D02*
X201675938Y-38597399D01*
X200693966Y-38292600D02*
X201371139Y-38292600D01*
X200355201Y-39420799D02*
X200660000Y-39116000D01*
X188391011Y-47244055D02*
X192531945Y-47244055D01*
X192531945Y-47244055D02*
X200355201Y-39420799D01*
X176184593Y-52730433D02*
X182904633Y-52730433D01*
X176179480Y-52725320D02*
X176184593Y-52730433D01*
X175077120Y-52725320D02*
X176179480Y-52725320D01*
X182904633Y-52730433D02*
X188391011Y-47244055D01*
X173974760Y-53225700D02*
X173228000Y-52478940D01*
X175077120Y-53225700D02*
X173974760Y-53225700D01*
X173228000Y-52478940D02*
X173228000Y-46913052D01*
X173228000Y-46913052D02*
X173228000Y-46482000D01*
X199390000Y-64135000D02*
X194437000Y-64135000D01*
X191820799Y-61518799D02*
X191516000Y-61214000D01*
X194437000Y-64135000D02*
X191820799Y-61518799D01*
X200660000Y-65405000D02*
X199390000Y-64135000D01*
X119850000Y-57620000D02*
X120142000Y-57912000D01*
X118260000Y-57620000D02*
X119850000Y-57620000D01*
X151765000Y-68740000D02*
X151765000Y-67310000D01*
X151765000Y-67310000D02*
X152400000Y-66675000D01*
X152400000Y-61468000D02*
X151854000Y-60922000D01*
X151854000Y-60922000D02*
X149682400Y-60922000D01*
X152400000Y-66675000D02*
X152400000Y-61468000D01*
X149682400Y-60922000D02*
X149225000Y-60922000D01*
X118260000Y-57120000D02*
X120023392Y-57120000D01*
X120023392Y-57120000D02*
X120026689Y-57116703D01*
X146812000Y-60922000D02*
X141008000Y-55118000D01*
X141008000Y-55118000D02*
X138455410Y-55118000D01*
X138455410Y-55118000D02*
X137718799Y-55854611D01*
X137718799Y-55854611D02*
X137414000Y-56159410D01*
X140385052Y-55854590D02*
X139954000Y-55854590D01*
X147955000Y-63340000D02*
X147955000Y-62865000D01*
X140944590Y-55854590D02*
X140385052Y-55854590D01*
X147955000Y-62865000D02*
X140944590Y-55854590D01*
X147000000Y-66040000D02*
X149225000Y-68265000D01*
X143764000Y-59944000D02*
X143764000Y-64054232D01*
X138453757Y-55903757D02*
X138938000Y-56388000D01*
X138938000Y-56388000D02*
X140208000Y-56388000D01*
X140208000Y-56388000D02*
X143764000Y-59944000D01*
X143764000Y-64054232D02*
X145749768Y-66040000D01*
X145749768Y-66040000D02*
X147000000Y-66040000D01*
X149225000Y-68265000D02*
X149225000Y-68740000D01*
X120860000Y-55836000D02*
X120904000Y-55880000D01*
X120860000Y-54520000D02*
X120860000Y-55836000D01*
X180975000Y-43218000D02*
X185382000Y-43218000D01*
X185382000Y-43218000D02*
X185420000Y-43180000D01*
X190486990Y-90945000D02*
X190499990Y-90932000D01*
X188710000Y-90945000D02*
X190486990Y-90945000D01*
X190957201Y-92252799D02*
X191262000Y-91948000D01*
X190665000Y-92545000D02*
X190957201Y-92252799D01*
X188710000Y-92545000D02*
X190665000Y-92545000D01*
X175895000Y-92075000D02*
X178714410Y-92075000D01*
X184378611Y-97739201D02*
X184683410Y-98044000D01*
X178714410Y-92075000D02*
X184378611Y-97739201D01*
X184353201Y-100025201D02*
X184658000Y-100330000D01*
X175895000Y-99695000D02*
X184023000Y-99695000D01*
X184023000Y-99695000D02*
X184353201Y-100025201D01*
X175895000Y-97155000D02*
X182499000Y-97155000D01*
X182499000Y-97155000D02*
X185166000Y-99822000D01*
X185166000Y-99822000D02*
X185673996Y-99822000D01*
X185673996Y-99822000D02*
X185674000Y-99821996D01*
X187765000Y-97790000D02*
X187325000Y-97790000D01*
X119826000Y-59120000D02*
X120091201Y-59385201D01*
X118260000Y-59120000D02*
X119826000Y-59120000D01*
X120091201Y-59385201D02*
X120396000Y-59690000D01*
X120596000Y-58620000D02*
X120650000Y-58674000D01*
X118260000Y-58620000D02*
X120596000Y-58620000D01*
X126960000Y-56120000D02*
X128030000Y-56120000D01*
X128030000Y-56120000D02*
X130251201Y-53898799D01*
X130251201Y-53898799D02*
X130556000Y-53594000D01*
X129235201Y-53898799D02*
X129540000Y-53594000D01*
X125360000Y-54520000D02*
X128614000Y-54520000D01*
X128614000Y-54520000D02*
X129235201Y-53898799D01*
X124360000Y-54520000D02*
X124360000Y-53186000D01*
X124360000Y-53186000D02*
X125044189Y-52501811D01*
X125044189Y-52501811D02*
X128600189Y-52501811D01*
X131572000Y-49530000D02*
X132272370Y-49530000D01*
X128600189Y-52501811D02*
X131572000Y-49530000D01*
X132272370Y-49530000D02*
X133350000Y-49530000D01*
X200660000Y-57150000D02*
X195072000Y-51562000D01*
X212392600Y-67630000D02*
X201912600Y-57150000D01*
X188445238Y-51226720D02*
X186872880Y-51226720D01*
X201912600Y-57150000D02*
X200660000Y-57150000D01*
X212995000Y-67630000D02*
X212392600Y-67630000D01*
X195072000Y-51562000D02*
X188780518Y-51562000D01*
X188780518Y-51562000D02*
X188445238Y-51226720D01*
X180225700Y-48077120D02*
X180225700Y-42532300D01*
X180225700Y-42532300D02*
X182372000Y-40386000D01*
X182372000Y-40386000D02*
X182372000Y-39488000D01*
X182372000Y-39488000D02*
X183400000Y-38460000D01*
D50*
X183400000Y-38460000D02*
X183614000Y-38674000D01*
X183614000Y-38674000D02*
X184905000Y-38674000D01*
X183400000Y-36830000D02*
X182330000Y-35760000D01*
X182330000Y-35760000D02*
X182330000Y-34470000D01*
X183400000Y-38460000D02*
X183400000Y-36830000D01*
D51*
X166243000Y-57531000D02*
X165481001Y-58292999D01*
X165481001Y-58292999D02*
X163321999Y-58292999D01*
X163321999Y-58292999D02*
X162687000Y-57658000D01*
X162687000Y-57658000D02*
X162687000Y-54610000D01*
X162687000Y-54610000D02*
X162687000Y-53594000D01*
X161671000Y-54610000D02*
X162687000Y-54610000D01*
X157480000Y-57658000D02*
X157480000Y-67431416D01*
X157480000Y-67431416D02*
X156466416Y-68445000D01*
X156466416Y-68445000D02*
X155444000Y-68445000D01*
X155444000Y-68445000D02*
X154940000Y-68445000D01*
X157480000Y-54610000D02*
X157480000Y-57658000D01*
X153035000Y-58166000D02*
X153543000Y-57658000D01*
X153543000Y-57658000D02*
X157480000Y-57658000D01*
X153035000Y-59728000D02*
X153035000Y-58166000D01*
X172720000Y-57904000D02*
X166616000Y-57904000D01*
X166616000Y-57904000D02*
X166243000Y-57531000D01*
X189365000Y-48391000D02*
X189750000Y-48006000D01*
X190812988Y-48006000D02*
X191262000Y-48006000D01*
X189365000Y-48895000D02*
X189365000Y-48391000D01*
X189750000Y-48006000D02*
X190812988Y-48006000D01*
X191731901Y-59954665D02*
X191731901Y-58928000D01*
X162687000Y-53594000D02*
X162687000Y-33020000D01*
X160655000Y-54610000D02*
X161671000Y-54610000D01*
X157480000Y-54610000D02*
X160655000Y-54610000D01*
X135636000Y-53401630D02*
X135636000Y-33020000D01*
X133350000Y-54610000D02*
X134427630Y-54610000D01*
X135636000Y-33020000D02*
X135255000Y-33020000D01*
X134427630Y-54610000D02*
X135636000Y-53401630D01*
X170815000Y-33020000D02*
X171196000Y-33020000D01*
X171196000Y-33020000D02*
X171196000Y-44450000D01*
X171196000Y-44450000D02*
X171069000Y-44450000D01*
X170218000Y-45720000D02*
X170218000Y-44920000D01*
X170218000Y-44920000D02*
X170688000Y-44450000D01*
X170688000Y-44450000D02*
X171069000Y-44450000D01*
X171069000Y-44450000D02*
X171958000Y-44450000D01*
X171958000Y-44450000D02*
X172708000Y-45200000D01*
X201930000Y-94750000D02*
X203327000Y-94750000D01*
X203642500Y-95057500D02*
X203634500Y-95057500D01*
X203634500Y-95057500D02*
X203327000Y-94750000D01*
X203642500Y-95057500D02*
X204216000Y-95631000D01*
X204216000Y-98044000D02*
X203174599Y-99085401D01*
X195580000Y-97282000D02*
X194818000Y-96520000D01*
X204216000Y-95631000D02*
X204216000Y-98044000D01*
X203174599Y-99085401D02*
X199923401Y-99085401D01*
X194818000Y-96520000D02*
X194818000Y-95885000D01*
X199923401Y-99085401D02*
X198120000Y-97282000D01*
X198120000Y-97282000D02*
X195580000Y-97282000D01*
D50*
X214630000Y-99695000D02*
X219710000Y-99695000D01*
X219710000Y-99695000D02*
X219710000Y-97790000D01*
D51*
X175895000Y-89535000D02*
X180344000Y-89535000D01*
X201803000Y-86868000D02*
X200660000Y-88011000D01*
X194818000Y-92837000D02*
X194818000Y-95885000D01*
X200660000Y-88011000D02*
X199644000Y-88011000D01*
X199644000Y-88011000D02*
X194818000Y-92837000D01*
X189230000Y-69850000D02*
X189230000Y-65024000D01*
X189230000Y-64008000D02*
X189230000Y-65024000D01*
X188976000Y-63754000D02*
X189230000Y-64008000D01*
X189865000Y-72390000D02*
X189865000Y-70485000D01*
X189865000Y-70485000D02*
X189230000Y-69850000D01*
X188976000Y-63754000D02*
X189357000Y-63373000D01*
X189357000Y-63373000D02*
X189357000Y-62329566D01*
X189357000Y-62329566D02*
X191731901Y-59954665D01*
X172708000Y-45200000D02*
X173355000Y-45200000D01*
X162687000Y-33020000D02*
X161290000Y-33020000D01*
X147955000Y-71590000D02*
X152451000Y-71590000D01*
X152451000Y-71590000D02*
X153035000Y-71006000D01*
X157480000Y-78740000D02*
X157480000Y-75451000D01*
X157480000Y-75451000D02*
X153035000Y-71006000D01*
X125057000Y-50165000D02*
X125057000Y-33058000D01*
X125057000Y-33058000D02*
X125095000Y-33020000D01*
X125095000Y-33020000D02*
X125730000Y-33020000D01*
X125730000Y-33020000D02*
X128270000Y-33020000D01*
X119515000Y-52070000D02*
X119515000Y-47760000D01*
X119515000Y-47760000D02*
X116332000Y-44577000D01*
X118110000Y-43777000D02*
X117094000Y-43777000D01*
X117094000Y-43815000D02*
X116332000Y-44577000D01*
X116332000Y-44577000D02*
X115570000Y-43815000D01*
X117094000Y-43777000D02*
X117094000Y-43815000D01*
D50*
X108065000Y-48260000D02*
X108065000Y-50050000D01*
X108065000Y-50050000D02*
X107315000Y-50800000D01*
X104140000Y-50038000D02*
X104140000Y-41910000D01*
X107315000Y-50800000D02*
X104902000Y-50800000D01*
X104902000Y-50800000D02*
X104140000Y-50038000D01*
D51*
X130810000Y-57035000D02*
X130810000Y-55880000D01*
X132080000Y-54610000D02*
X133350000Y-54610000D01*
X130810000Y-55880000D02*
X132080000Y-54610000D01*
X126960000Y-61620000D02*
X126960000Y-62397000D01*
X126960000Y-62397000D02*
X126492000Y-62865000D01*
X125476000Y-61849000D02*
X126492000Y-62865000D01*
X126492000Y-62865000D02*
X127000000Y-63373000D01*
X125360000Y-63220000D02*
X126137000Y-63220000D01*
X126137000Y-63220000D02*
X126492000Y-62865000D01*
X121285000Y-60325000D02*
X122809000Y-61849000D01*
X122809000Y-61849000D02*
X125476000Y-61849000D01*
X127000000Y-63373000D02*
X127000000Y-69215000D01*
X127000000Y-69215000D02*
X126403000Y-69812000D01*
X126403000Y-69812000D02*
X125807000Y-69812000D01*
X116014500Y-69812000D02*
X114973000Y-69812000D01*
X102908000Y-69177000D02*
X107950000Y-69177000D01*
X104140000Y-78105000D02*
X102235000Y-76200000D01*
X102235000Y-76200000D02*
X102235000Y-69850000D01*
X102235000Y-69850000D02*
X102908000Y-69177000D01*
X123190000Y-78740000D02*
X125857000Y-78740000D01*
X125857000Y-78740000D02*
X133350000Y-78740000D01*
X125845000Y-74410000D02*
X125845000Y-78728000D01*
X125845000Y-78728000D02*
X125857000Y-78740000D01*
X113500000Y-73571000D02*
X114935000Y-72136000D01*
X114935000Y-72136000D02*
X114935000Y-70891500D01*
X112268000Y-73571000D02*
X113500000Y-73571000D01*
X114935000Y-68732500D02*
X114935000Y-69850000D01*
X114935000Y-69850000D02*
X114935000Y-70891500D01*
X114973000Y-69812000D02*
X114935000Y-69850000D01*
X189365000Y-48895000D02*
X189365000Y-49141000D01*
X189365000Y-49141000D02*
X188310521Y-50195479D01*
X188310521Y-50195479D02*
X186872880Y-50195479D01*
X188595000Y-64135000D02*
X188976000Y-63754000D01*
X205105000Y-41910000D02*
X205105000Y-37503000D01*
X205105000Y-37503000D02*
X205143000Y-37465000D01*
X175077120Y-57724040D02*
X173873160Y-57724040D01*
X173873160Y-57724040D02*
X173693200Y-57904000D01*
X173693200Y-57904000D02*
X172720000Y-57904000D01*
X201803000Y-86868000D02*
X202305000Y-87370000D01*
X199656000Y-84721000D02*
X201803000Y-86868000D01*
D50*
X115570000Y-33020000D02*
X128270000Y-33020000D01*
X128270000Y-33020000D02*
X130810000Y-33020000D01*
D51*
X120548401Y-61061599D02*
X118110000Y-63500000D01*
X118110000Y-63500000D02*
X116840000Y-63500000D01*
X116205000Y-62865000D02*
X116205000Y-62095000D01*
X116840000Y-63500000D02*
X116205000Y-62865000D01*
X114935000Y-68732500D02*
X114935000Y-67272000D01*
X114935000Y-67272000D02*
X115570000Y-66637000D01*
X115570000Y-66637000D02*
X119380000Y-66637000D01*
X119380000Y-69812000D02*
X123190000Y-69812000D01*
X123190000Y-69812000D02*
X125807000Y-69812000D01*
X104140000Y-78105000D02*
X110490000Y-78105000D01*
X110490000Y-78105000D02*
X111125000Y-78740000D01*
X111125000Y-78740000D02*
X123190000Y-78740000D01*
X120548401Y-61061599D02*
X121285000Y-60325000D01*
X125845000Y-74410000D02*
X125845000Y-69850000D01*
X125845000Y-69850000D02*
X125845000Y-69215000D01*
X125807000Y-69812000D02*
X125845000Y-69850000D01*
X125845000Y-69215000D02*
X125845000Y-67310000D01*
X189230000Y-78740000D02*
X189865000Y-78105000D01*
X189865000Y-78105000D02*
X189865000Y-72390000D01*
X181802370Y-78740000D02*
X189230000Y-78740000D01*
X180975000Y-76835000D02*
X180975000Y-77912630D01*
X180975000Y-77912630D02*
X181802370Y-78740000D01*
X152400000Y-45682000D02*
X154267000Y-45682000D01*
X154267000Y-45682000D02*
X154305000Y-45720000D01*
X188342628Y-64387372D02*
X188595000Y-64135000D01*
X184536372Y-64387372D02*
X188342628Y-64387372D01*
X183630000Y-64135000D02*
X184284000Y-64135000D01*
X184284000Y-64135000D02*
X184536372Y-64387372D01*
X195580000Y-73025000D02*
X200660000Y-73025000D01*
X200660000Y-55245000D02*
X208205000Y-55245000D01*
X208205000Y-55245000D02*
X210745000Y-57785000D01*
X183222900Y-59872880D02*
X183222900Y-62072900D01*
X183222900Y-62072900D02*
X183380000Y-62230000D01*
X183630000Y-64135000D02*
X183630000Y-62480000D01*
X183630000Y-62480000D02*
X183380000Y-62230000D01*
X188386720Y-56723280D02*
X188595000Y-56515000D01*
X188595000Y-56515000D02*
X189230000Y-56515000D01*
X186872880Y-56723280D02*
X188386720Y-56723280D01*
X176077880Y-59872880D02*
X175077120Y-58872120D01*
X175077120Y-58872120D02*
X175077120Y-57724040D01*
X177225960Y-59872880D02*
X176077880Y-59872880D01*
X210745000Y-54685000D02*
X212355000Y-53075000D01*
X212355000Y-53075000D02*
X212355000Y-49530000D01*
X210745000Y-57785000D02*
X210745000Y-54685000D01*
X212355000Y-47995000D02*
X213360000Y-46990000D01*
X213360000Y-46990000D02*
X221615000Y-46990000D01*
X212355000Y-49530000D02*
X212355000Y-47995000D01*
D50*
X192405000Y-32702501D02*
X205105000Y-32702501D01*
D51*
X205143000Y-33655000D02*
X205143000Y-32740501D01*
X205143000Y-32740501D02*
X205105000Y-32702501D01*
X205143000Y-37465000D02*
X205143000Y-36195000D01*
X205143000Y-34925000D02*
X205143000Y-36195000D01*
X205143000Y-33655000D02*
X205143000Y-34925000D01*
X205143000Y-43180000D02*
X205143000Y-41948000D01*
X205143000Y-41948000D02*
X205105000Y-41910000D01*
X205143000Y-44450000D02*
X205143000Y-43180000D01*
X221615000Y-38780000D02*
X219120000Y-38780000D01*
X219120000Y-38780000D02*
X219075000Y-38735000D01*
X186690000Y-93845000D02*
X186186000Y-93845000D01*
X186186000Y-93845000D02*
X185420000Y-94611000D01*
D50*
X175260000Y-105410000D02*
X175260000Y-107950000D01*
X218440000Y-114935000D02*
X219710000Y-113665000D01*
X219710000Y-113665000D02*
X219710000Y-97790000D01*
X200660000Y-114935000D02*
X218440000Y-114935000D01*
X198120000Y-112395000D02*
X200660000Y-114935000D01*
X198120000Y-107950000D02*
X198120000Y-112395000D01*
X198120000Y-105410000D02*
X198120000Y-107950000D01*
X212090000Y-89535000D02*
X217170000Y-84455000D01*
X219710000Y-86995000D02*
X217170000Y-84455000D01*
X217170000Y-84455000D02*
X221615000Y-80010000D01*
X219710000Y-97790000D02*
X219710000Y-86995000D01*
D51*
X149225000Y-59728000D02*
X153035000Y-59728000D01*
X153035000Y-68740000D02*
X153035000Y-71006000D01*
X154940000Y-68445000D02*
X153330000Y-68445000D01*
X153330000Y-68445000D02*
X153035000Y-68740000D01*
D50*
X130810000Y-33020000D02*
X135255000Y-33020000D01*
X135255000Y-33020000D02*
X161290000Y-33020000D01*
D51*
X128905000Y-57285000D02*
X129409000Y-57285000D01*
X129409000Y-57285000D02*
X129659000Y-57035000D01*
X129659000Y-57035000D02*
X130810000Y-57035000D01*
X126960000Y-57620000D02*
X128570000Y-57620000D01*
X128570000Y-57620000D02*
X128905000Y-57285000D01*
D50*
X161290000Y-33020000D02*
X170815000Y-33020000D01*
X170815000Y-33020000D02*
X173355000Y-33020000D01*
D51*
X174760000Y-44950000D02*
X174510000Y-45200000D01*
X174510000Y-45200000D02*
X173355000Y-45200000D01*
X175895000Y-44950000D02*
X174760000Y-44950000D01*
X175895000Y-44950000D02*
X175895000Y-45454000D01*
X175895000Y-45454000D02*
X177195479Y-46754479D01*
X177195479Y-46754479D02*
X177195479Y-46822359D01*
X177195479Y-46822359D02*
X177195479Y-48077120D01*
X187490000Y-94145000D02*
X187490000Y-94141000D01*
X187490000Y-94141000D02*
X187194000Y-93845000D01*
X187194000Y-93845000D02*
X186690000Y-93845000D01*
X188710000Y-94145000D02*
X187490000Y-94145000D01*
D50*
X188595000Y-33020000D02*
X188912499Y-32702501D01*
X221615000Y-47439012D02*
X221615000Y-46990000D01*
X221615000Y-80010000D02*
X221615000Y-47439012D01*
X205220000Y-89535000D02*
X212090000Y-89535000D01*
D51*
X201930000Y-94750000D02*
X201426000Y-94750000D01*
X201426000Y-94750000D02*
X201231000Y-94945000D01*
X201231000Y-94945000D02*
X199910000Y-94945000D01*
X202305000Y-87370000D02*
X205615000Y-87370000D01*
X198120000Y-84721000D02*
X199656000Y-84721000D01*
X197620000Y-85725000D02*
X197620000Y-85221000D01*
X197620000Y-85221000D02*
X198120000Y-84721000D01*
X197620000Y-85725000D02*
X197620000Y-86229000D01*
X197510000Y-86339000D02*
X197510000Y-86381000D01*
X197620000Y-86229000D02*
X197510000Y-86339000D01*
X197510000Y-86381000D02*
X197510000Y-87745000D01*
X116840000Y-69812000D02*
X116014500Y-69812000D01*
X118110000Y-69812000D02*
X116840000Y-69812000D01*
X119380000Y-69812000D02*
X118110000Y-69812000D01*
X125595000Y-65405000D02*
X125595000Y-65905000D01*
X125845000Y-66155000D02*
X125845000Y-67310000D01*
X125595000Y-65905000D02*
X125845000Y-66155000D01*
X125595000Y-65405000D02*
X125595000Y-64901000D01*
X125595000Y-64901000D02*
X125366001Y-64672001D01*
X125366001Y-64672001D02*
X125366001Y-64174801D01*
X125366001Y-64174801D02*
X125366001Y-63220000D01*
X119515000Y-52070000D02*
X119515000Y-52574000D01*
X116205000Y-62095000D02*
X116709000Y-62095000D01*
X117305199Y-61626001D02*
X118260000Y-61626001D01*
X116709000Y-62095000D02*
X117177999Y-61626001D01*
X117177999Y-61626001D02*
X117305199Y-61626001D01*
D50*
X105410000Y-33020000D02*
X115570000Y-33020000D01*
D51*
X115570000Y-43815000D02*
X115570000Y-33020000D01*
X119853999Y-52912999D02*
X119853999Y-53565199D01*
X119515000Y-52574000D02*
X119853999Y-52912999D01*
X119853999Y-53565199D02*
X119853999Y-54520000D01*
D50*
X104140000Y-34290000D02*
X105410000Y-33020000D01*
X104140000Y-39370000D02*
X104140000Y-34290000D01*
X205615000Y-87370000D02*
X205615000Y-88251000D01*
X205615000Y-88251000D02*
X205220000Y-88646000D01*
X205220000Y-88646000D02*
X205220000Y-89535000D01*
X109220000Y-43940000D02*
X109220000Y-45321000D01*
X108065000Y-46476000D02*
X108065000Y-48260000D01*
X109220000Y-45321000D02*
X108065000Y-46476000D01*
D52*
X174244000Y-68580000D02*
X177800000Y-68580000D01*
X179227480Y-61437520D02*
X179227480Y-59872880D01*
X177800000Y-68580000D02*
X178435000Y-67945000D01*
X178435000Y-67945000D02*
X178435000Y-62230000D01*
X178435000Y-62230000D02*
X179227480Y-61437520D01*
X174244000Y-70739000D02*
X174625000Y-71120000D01*
X174625000Y-71120000D02*
X174625000Y-72390000D01*
X174244000Y-68580000D02*
X174244000Y-70739000D01*
X183896000Y-68580000D02*
X179705000Y-68580000D01*
X179725320Y-61574680D02*
X179725320Y-59872880D01*
X179705000Y-68580000D02*
X179070000Y-67945000D01*
X179070000Y-67945000D02*
X179070000Y-62230000D01*
X179070000Y-62230000D02*
X179725320Y-61574680D01*
X183896000Y-70739000D02*
X183515000Y-71120000D01*
X183515000Y-71120000D02*
X183515000Y-72390000D01*
X183896000Y-68580000D02*
X183896000Y-70739000D01*
X151765000Y-44450000D02*
X151803000Y-44488000D01*
X151803000Y-44488000D02*
X152400000Y-44488000D01*
X149225000Y-41910000D02*
X151765000Y-44450000D01*
X151765000Y-44450000D02*
X157480000Y-44450000D01*
X144742000Y-41910000D02*
X149225000Y-41910000D01*
X181724300Y-59872880D02*
X181724300Y-61480700D01*
X181724300Y-61480700D02*
X181610000Y-61595000D01*
X182663727Y-58331473D02*
X183019749Y-58331473D01*
X183019749Y-58331473D02*
X183378959Y-58331473D01*
X182224680Y-58770520D02*
X182663727Y-58331473D01*
X182224680Y-59872880D02*
X182224680Y-58770520D01*
X183723280Y-61739770D02*
X184643907Y-62660397D01*
X184643907Y-62660397D02*
X184643907Y-63110433D01*
X183723280Y-59872880D02*
X183723280Y-61739770D01*
X184643907Y-63110433D02*
X184643907Y-63469643D01*
X164846000Y-64494210D02*
X164846000Y-64135000D01*
X157480000Y-83820000D02*
X164846000Y-76454000D01*
X164846000Y-76454000D02*
X164846000Y-64494210D01*
X157480000Y-83820000D02*
X144742000Y-83820000D01*
X164084000Y-63859210D02*
X164084000Y-63500000D01*
X164084000Y-74676000D02*
X164084000Y-63859210D01*
X157480000Y-81280000D02*
X164084000Y-74676000D01*
X144742000Y-81280000D02*
X157480000Y-81280000D01*
X186872880Y-54223920D02*
X188344047Y-54223920D01*
X188730127Y-54610000D02*
X192553833Y-54610000D01*
X188344047Y-54223920D02*
X188730127Y-54610000D01*
X193878189Y-61163189D02*
X194818001Y-62103001D01*
X194818001Y-62103001D02*
X195580000Y-62865000D01*
X192553833Y-54610000D02*
X193878189Y-55934356D01*
X193878189Y-55934356D02*
X193878189Y-61163189D01*
X192786000Y-54229000D02*
X188780193Y-54229000D01*
X188780193Y-54229000D02*
X188277273Y-53726080D01*
X195580000Y-60325000D02*
X194183000Y-58928000D01*
X194183000Y-58928000D02*
X194183000Y-55626000D01*
X194183000Y-55626000D02*
X192786000Y-54229000D01*
X188277273Y-53726080D02*
X186872880Y-53726080D01*
X201421999Y-69723001D02*
X200660000Y-70485000D01*
X202311000Y-59817000D02*
X202311000Y-68834000D01*
X188799678Y-53771811D02*
X195757811Y-53771811D01*
X195757811Y-53771811D02*
X200279000Y-58293000D01*
X200279000Y-58293000D02*
X200787000Y-58293000D01*
X188253567Y-53225700D02*
X188799678Y-53771811D01*
X186872880Y-53225700D02*
X188253567Y-53225700D01*
X200787000Y-58293000D02*
X202311000Y-59817000D01*
X202311000Y-68834000D02*
X201421999Y-69723001D01*
X195884067Y-53467000D02*
X200329067Y-57912000D01*
X186872880Y-52725320D02*
X188184254Y-52725320D01*
X188184254Y-52725320D02*
X188925934Y-53467000D01*
X200837067Y-57912000D02*
X202615811Y-59690744D01*
X188925934Y-53467000D02*
X195884067Y-53467000D01*
X200329067Y-57912000D02*
X200837067Y-57912000D01*
X202615811Y-59690744D02*
X202615811Y-66979811D01*
X202615811Y-66979811D02*
X203200001Y-67564001D01*
X203200001Y-67564001D02*
X203454000Y-67818000D01*
X188117480Y-52227480D02*
X188595000Y-52705000D01*
X188595000Y-52705000D02*
X189268000Y-52705000D01*
X186872880Y-52227480D02*
X188117480Y-52227480D01*
X188232277Y-51911211D02*
X190119000Y-51911211D01*
X194863145Y-51911211D02*
X195402934Y-52451000D01*
X195402934Y-52451000D02*
X200482934Y-57531000D01*
X190119000Y-51911211D02*
X194863145Y-51911211D01*
X200482934Y-57531000D02*
X201295000Y-57531000D01*
X201295000Y-57531000D02*
X203454000Y-59690000D01*
X203454000Y-59690000D02*
X203454000Y-62632790D01*
X203454000Y-62632790D02*
X203454000Y-62992000D01*
X186872880Y-51727100D02*
X188048166Y-51727100D01*
X188048166Y-51727100D02*
X188232277Y-51911211D01*
X186872880Y-50726340D02*
X189156340Y-50726340D01*
X189156340Y-50726340D02*
X189230000Y-50800000D01*
X169583000Y-99695000D02*
X169545000Y-99695000D01*
X169545000Y-99695000D02*
X165989001Y-96139001D01*
X165989001Y-96139001D02*
X165989001Y-59435999D01*
X165989001Y-59435999D02*
X166116001Y-59308999D01*
X166116001Y-59308999D02*
X166370000Y-59055000D01*
X169583000Y-97210000D02*
X169583000Y-97193000D01*
X169583000Y-97193000D02*
X166624000Y-94234000D01*
X166878001Y-59309015D02*
X167132000Y-59055016D01*
X166624000Y-94234000D02*
X166624000Y-59563016D01*
X166624000Y-59563016D02*
X166878001Y-59309015D01*
X169583000Y-94615000D02*
X169545000Y-94615000D01*
X167259000Y-92329000D02*
X167259000Y-59690004D01*
X169545000Y-94615000D02*
X167259000Y-92329000D01*
X167640005Y-59308999D02*
X167894004Y-59055000D01*
X167259000Y-59690004D02*
X167640005Y-59308999D01*
X181969210Y-49530000D02*
X181610000Y-49530000D01*
X182372000Y-49530000D02*
X181969210Y-49530000D01*
X182722520Y-49179480D02*
X182372000Y-49530000D01*
X182722520Y-48077120D02*
X182722520Y-49179480D01*
X146685000Y-63340000D02*
X146685000Y-64389000D01*
X146685000Y-64389000D02*
X147193000Y-64897000D01*
X147193000Y-64897000D02*
X149987000Y-64897000D01*
X149987000Y-64897000D02*
X150495000Y-64389000D01*
X150495000Y-64389000D02*
X150495000Y-63340000D01*
X164465000Y-45085000D02*
X163957000Y-45593000D01*
X163957000Y-45593000D02*
X163957000Y-54102000D01*
X163957000Y-54102000D02*
X163957000Y-54356000D01*
X207518000Y-41910000D02*
X206768900Y-41910000D01*
X210264250Y-41910000D02*
X207518000Y-41910000D01*
X206768900Y-41910000D02*
X206299000Y-41910000D01*
X210434250Y-42080000D02*
X210264250Y-41910000D01*
X221615000Y-42080000D02*
X210434250Y-42080000D01*
X207518000Y-43180000D02*
X206337000Y-43180000D01*
X207645000Y-43180000D02*
X207518000Y-43180000D01*
X221615000Y-43180000D02*
X209804000Y-43180000D01*
X209804000Y-43180000D02*
X207645000Y-43180000D01*
X180726080Y-45968920D02*
X180975000Y-45720000D01*
X180975000Y-45720000D02*
X180975000Y-44412000D01*
X180726080Y-48077120D02*
X180726080Y-45968920D01*
X144742000Y-52070000D02*
X157480000Y-52070000D01*
X177726340Y-46428660D02*
X177800000Y-46355000D01*
X177800000Y-46355000D02*
X177800000Y-45200000D01*
X177726340Y-48077120D02*
X177726340Y-46428660D01*
X175077120Y-50225960D02*
X175077120Y-49347120D01*
X175077120Y-49347120D02*
X173863000Y-48133000D01*
X173863000Y-48133000D02*
X173863000Y-47476210D01*
X173863000Y-47476210D02*
X173863000Y-47117000D01*
X144742000Y-49530000D02*
X157480000Y-49530000D01*
X207518000Y-33655000D02*
X207518000Y-34290000D01*
X207645000Y-33655000D02*
X207518000Y-33655000D01*
X207518000Y-33655000D02*
X206337000Y-33655000D01*
X208280000Y-33655000D02*
X207645000Y-33655000D01*
X210105000Y-35480000D02*
X208280000Y-33655000D01*
X221615000Y-35480000D02*
X210105000Y-35480000D01*
X207645000Y-34925000D02*
X207518000Y-34925000D01*
X207518000Y-34925000D02*
X206337000Y-34925000D01*
X207517992Y-35560000D02*
X207517992Y-34925008D01*
X207517992Y-34925008D02*
X207518000Y-34925000D01*
X208280000Y-34925000D02*
X207645000Y-34925000D01*
X209935000Y-36580000D02*
X208280000Y-34925000D01*
X221615000Y-36580000D02*
X209935000Y-36580000D01*
X207518000Y-37465000D02*
X207994138Y-37465000D01*
X207994138Y-37465000D02*
X210409138Y-39880000D01*
X210409138Y-39880000D02*
X220587600Y-39880000D01*
X220587600Y-39880000D02*
X221615000Y-39880000D01*
X207264000Y-37465000D02*
X207518000Y-37465000D01*
X207518000Y-38100000D02*
X207518000Y-37465000D01*
X206337000Y-37465000D02*
X207264000Y-37465000D01*
X207518000Y-36195000D02*
X207518000Y-36830010D01*
X207518000Y-36195000D02*
X206337000Y-36195000D01*
X207645000Y-36195000D02*
X207518000Y-36195000D01*
X209765000Y-37680000D02*
X208788000Y-36703000D01*
X208788000Y-36703000D02*
X208280000Y-36195000D01*
X207645000Y-36195000D02*
X206573018Y-36195000D01*
X208280000Y-36195000D02*
X207645000Y-36195000D01*
X221615000Y-37680000D02*
X209765000Y-37680000D01*
X144742000Y-46990000D02*
X157480000Y-46990000D01*
X171412000Y-46396252D02*
X171412000Y-46177400D01*
X173487080Y-53726080D02*
X172720000Y-52959000D01*
X172720000Y-52959000D02*
X172720000Y-47704252D01*
X172720000Y-47704252D02*
X171412000Y-46396252D01*
X175077120Y-53726080D02*
X173487080Y-53726080D01*
X171412000Y-46177400D02*
X171412000Y-45720000D01*
X183232534Y-56946788D02*
X183941697Y-56946788D01*
X183941697Y-56946788D02*
X187091316Y-60096407D01*
X175077120Y-54223920D02*
X180509666Y-54223920D01*
X187091316Y-60096407D02*
X189884224Y-60096407D01*
X180509666Y-54223920D02*
X183232534Y-56946788D01*
X189884224Y-60096407D02*
X190243434Y-60096407D01*
X175077120Y-54724300D02*
X173723300Y-54724300D01*
X173723300Y-54724300D02*
X172085000Y-53086000D01*
X172085000Y-53086000D02*
X172085000Y-49988500D01*
X172085000Y-49988500D02*
X169536500Y-47440000D01*
X169536500Y-47440000D02*
X169524000Y-47440000D01*
X175077120Y-55224680D02*
X173356466Y-55224680D01*
X173356466Y-55224680D02*
X171450000Y-53318214D01*
X171450000Y-53318214D02*
X171450000Y-50673000D01*
X171450000Y-50673000D02*
X169524000Y-48747000D01*
X169524000Y-48747000D02*
X169524000Y-48710000D01*
X169507000Y-50165000D02*
X170561000Y-51219000D01*
X170561000Y-51219000D02*
X170561000Y-55118000D01*
X171322999Y-55879999D02*
X173354999Y-55879999D01*
X170561000Y-55118000D02*
X171322999Y-55879999D01*
X173354999Y-55879999D02*
X173697900Y-56222900D01*
X173697900Y-56222900D02*
X175077120Y-56222900D01*
X175077120Y-56723280D02*
X173450762Y-56723280D01*
X169507000Y-52235000D02*
X169507000Y-51435000D01*
X173450762Y-56723280D02*
X172912292Y-56184810D01*
X172912292Y-56184810D02*
X170230810Y-56184810D01*
X170230810Y-56184810D02*
X169507000Y-55461000D01*
X169507000Y-55461000D02*
X169507000Y-52235000D01*
X143002000Y-56134000D02*
X147193000Y-60325000D01*
X147193000Y-60325000D02*
X151980600Y-60325000D01*
X152577600Y-60922000D02*
X153035000Y-60922000D01*
X151980600Y-60325000D02*
X152577600Y-60922000D01*
X153035000Y-60922000D02*
X154305000Y-60922000D01*
X149225000Y-60922000D02*
X146812000Y-60922000D01*
X147955000Y-60922000D02*
X146812000Y-60922000D01*
X173628587Y-55722520D02*
X173481256Y-55575189D01*
X175077120Y-55722520D02*
X173628587Y-55722520D01*
X172415189Y-55575189D02*
X171957999Y-55117999D01*
X173481256Y-55575189D02*
X172415189Y-55575189D01*
X171957999Y-55117999D02*
X171704000Y-54864000D01*
X164846000Y-56680400D02*
X164846000Y-56388000D01*
X164846000Y-56388000D02*
X166243000Y-54991000D01*
X163703000Y-57366000D02*
X164160400Y-57366000D01*
X164160400Y-57366000D02*
X164846000Y-56680400D01*
X134620000Y-70866000D02*
X134620000Y-66675000D01*
X134620000Y-66675000D02*
X133654810Y-65709810D01*
X133654810Y-65709810D02*
X132588743Y-65709809D01*
X132588743Y-65709809D02*
X131445000Y-64566066D01*
X128200000Y-59620000D02*
X126960000Y-59620000D01*
X131445000Y-64566066D02*
X131445000Y-62865000D01*
X131445000Y-62865000D02*
X128200000Y-59620000D01*
X136779000Y-70866000D02*
X137160000Y-70485000D01*
X137160000Y-70485000D02*
X138430000Y-70485000D01*
X134620000Y-70866000D02*
X136779000Y-70866000D01*
X134620000Y-61214000D02*
X134620000Y-64770000D01*
X132715000Y-65405000D02*
X131749810Y-64439810D01*
X134620000Y-64770000D02*
X133985000Y-65405000D01*
X133985000Y-65405000D02*
X132715000Y-65405000D01*
X131749810Y-64439810D02*
X131749810Y-62534810D01*
X131749810Y-62534810D02*
X128335000Y-59120000D01*
X128335000Y-59120000D02*
X126960000Y-59120000D01*
X136779000Y-61214000D02*
X137160000Y-61595000D01*
X137160000Y-61595000D02*
X138430000Y-61595000D01*
X134620000Y-61214000D02*
X136779000Y-61214000D01*
D51*
X198346566Y-102870000D02*
X198371967Y-102895401D01*
X193175000Y-101469000D02*
X194576000Y-102870000D01*
X194576000Y-102870000D02*
X198346566Y-102870000D01*
X204190599Y-102895401D02*
X207264000Y-99822000D01*
X198371967Y-102895401D02*
X204190599Y-102895401D01*
X193175000Y-100965000D02*
X193175000Y-101469000D01*
X207264000Y-99822000D02*
X207264000Y-97477012D01*
X207264000Y-97477012D02*
X207264000Y-97028000D01*
X203835000Y-84564000D02*
X203829000Y-84570000D01*
X203829000Y-84570000D02*
X202565000Y-84570000D01*
X205615000Y-85090000D02*
X204361000Y-85090000D01*
X204361000Y-85090000D02*
X203835000Y-84564000D01*
X202565000Y-84570000D02*
X201410000Y-84570000D01*
X201410000Y-84570000D02*
X200660000Y-83820000D01*
X200660000Y-83820000D02*
X200660000Y-81280000D01*
X201930000Y-80010000D02*
X207010000Y-80010000D01*
X200660000Y-81280000D02*
X201930000Y-80010000D01*
X207010000Y-80010000D02*
X208280000Y-81280000D01*
X208280000Y-81280000D02*
X208280000Y-86360000D01*
X208280000Y-88265000D02*
X208280000Y-86360000D01*
X192991000Y-100330000D02*
X193044000Y-100330000D01*
X193044000Y-100330000D02*
X193175000Y-100461000D01*
X193175000Y-100461000D02*
X193175000Y-100965000D01*
X192710000Y-99045000D02*
X192710000Y-100049000D01*
X192710000Y-100049000D02*
X192991000Y-100330000D01*
D52*
X153035000Y-63340000D02*
X153035000Y-60922000D01*
X193510000Y-87745000D02*
X193510000Y-86842600D01*
X191849500Y-85852000D02*
X191746250Y-85748750D01*
X193510000Y-86842600D02*
X192519400Y-85852000D01*
X192519400Y-85852000D02*
X191849500Y-85852000D01*
X190500000Y-83820000D02*
X186690000Y-80010000D01*
X168656000Y-79121000D02*
X168656000Y-62462210D01*
X168656000Y-62462210D02*
X168656000Y-62103000D01*
X186690000Y-80010000D02*
X169545000Y-80010000D01*
X190500000Y-85090000D02*
X190500000Y-83820000D01*
X169545000Y-80010000D02*
X168656000Y-79121000D01*
X150495000Y-68740000D02*
X150495000Y-66167000D01*
X151405790Y-65405000D02*
X151765000Y-65405000D01*
X150495000Y-66167000D02*
X151257000Y-65405000D01*
X151257000Y-65405000D02*
X151405790Y-65405000D01*
X151765000Y-65405000D02*
X151765000Y-63340000D01*
X149225000Y-60922000D02*
X149225000Y-63340000D01*
X121500911Y-47205911D02*
X120650000Y-46355000D01*
X121360000Y-54520000D02*
X121360000Y-53138000D01*
X120650000Y-46355000D02*
X120650000Y-43777000D01*
X121360000Y-53138000D02*
X121500911Y-52997089D01*
X121500911Y-52997089D02*
X121500911Y-47205911D01*
X121360000Y-55322400D02*
X121917600Y-55880000D01*
X121360000Y-54520000D02*
X121360000Y-55322400D01*
X121917600Y-55880000D02*
X125730000Y-55880000D01*
X125730000Y-55880000D02*
X126365000Y-55245000D01*
X119380000Y-45720000D02*
X119380000Y-44246900D01*
X120860000Y-54520000D02*
X120860000Y-53206933D01*
X121196100Y-52870833D02*
X121196100Y-47536100D01*
X119380000Y-44246900D02*
X119380000Y-43777000D01*
X121196100Y-47536100D02*
X119380000Y-45720000D01*
X120860000Y-53206933D02*
X121196100Y-52870833D01*
X146685000Y-68740000D02*
X146685000Y-70396000D01*
X147955000Y-68740000D02*
X147955000Y-70396000D01*
X190310000Y-99045000D02*
X190310000Y-101986090D01*
X190310000Y-101986090D02*
X185616090Y-106680000D01*
X181610000Y-106680000D02*
X181101999Y-106171999D01*
X181101999Y-106171999D02*
X180340000Y-105410000D01*
X185616090Y-106680000D02*
X181610000Y-106680000D01*
X191110000Y-99045000D02*
X191110000Y-104165000D01*
X191110000Y-104165000D02*
X186055000Y-109220000D01*
X186055000Y-109220000D02*
X181610000Y-109220000D01*
X181610000Y-109220000D02*
X181101999Y-108711999D01*
X181101999Y-108711999D02*
X180340000Y-107950000D01*
X191910000Y-99045000D02*
X191910000Y-103803910D01*
X185223910Y-110490000D02*
X178435000Y-110490000D01*
X178435000Y-110490000D02*
X176530000Y-108585000D01*
X176530000Y-108585000D02*
X176530000Y-106680000D01*
X191910000Y-103803910D02*
X185223910Y-110490000D01*
X176530000Y-106680000D02*
X177800000Y-105410000D01*
X193510000Y-99045000D02*
X193510000Y-96685000D01*
X193510000Y-96685000D02*
X193675000Y-96520000D01*
X195910000Y-99045000D02*
X195910000Y-100406000D01*
X197358001Y-101854001D02*
X197612000Y-102108000D01*
X195910000Y-100406000D02*
X197358001Y-101854001D01*
X196710000Y-100190012D02*
X198373989Y-101854001D01*
X196710000Y-99045000D02*
X196710000Y-100190012D01*
X198373989Y-101854001D02*
X198627988Y-102108000D01*
X199670600Y-102108000D02*
X200808790Y-102108000D01*
X197510000Y-99045000D02*
X197510000Y-99947400D01*
X197510000Y-99947400D02*
X199670600Y-102108000D01*
X200808790Y-102108000D02*
X201168000Y-102108000D01*
X198310000Y-99045000D02*
X198867000Y-99045000D01*
X198867000Y-99045000D02*
X201676001Y-101854001D01*
X201676001Y-101854001D02*
X202438001Y-101854001D01*
X202438001Y-101854001D02*
X202692000Y-102108000D01*
X188710000Y-89345000D02*
X181420000Y-89345000D01*
X181420000Y-89345000D02*
X175260000Y-83185000D01*
X196710000Y-87745000D02*
X196710000Y-86842600D01*
X196710000Y-86842600D02*
X194945000Y-85077600D01*
X194945000Y-85077600D02*
X194945000Y-83147000D01*
X195910000Y-86690000D02*
X193675000Y-84455000D01*
X193675000Y-84455000D02*
X193675000Y-83147000D01*
X195910000Y-87745000D02*
X195910000Y-86690000D01*
X196215000Y-83147000D02*
X196215000Y-84582000D01*
X198310000Y-87745000D02*
X198310000Y-88647400D01*
X197549400Y-89408000D02*
X197082210Y-89408000D01*
X198310000Y-88647400D02*
X197549400Y-89408000D01*
X197082210Y-89408000D02*
X196723000Y-89408000D01*
X192405000Y-83616900D02*
X192405000Y-83147000D01*
X195110000Y-86842600D02*
X192405000Y-84137600D01*
X192405000Y-84137600D02*
X192405000Y-83616900D01*
X195110000Y-87745000D02*
X195110000Y-86842600D01*
X190246000Y-63097210D02*
X190246000Y-62738000D01*
X190246000Y-64516000D02*
X190246000Y-63097210D01*
X191110000Y-87745000D02*
X191110000Y-65380000D01*
X191110000Y-65380000D02*
X190246000Y-64516000D01*
X190310000Y-87745000D02*
X187313000Y-87745000D01*
X187313000Y-87745000D02*
X185420000Y-85852000D01*
X185420000Y-85852000D02*
X185420000Y-83185000D01*
X188710000Y-93345000D02*
X189865008Y-93345000D01*
X189865008Y-93345000D02*
X189992001Y-93471993D01*
X189992001Y-93471993D02*
X190246000Y-93725992D01*
X188710000Y-94945000D02*
X186995000Y-94945000D01*
X186995000Y-94945000D02*
X186690000Y-95250000D01*
X186182000Y-96520000D02*
X186957000Y-95745000D01*
X186957000Y-95745000D02*
X188710000Y-95745000D01*
X170777000Y-92075000D02*
X175895000Y-92075000D01*
X188710000Y-96545000D02*
X187300000Y-96545000D01*
X187300000Y-96545000D02*
X186690000Y-97155000D01*
X170777000Y-99695000D02*
X175895000Y-99695000D01*
X188710000Y-97345000D02*
X188210000Y-97345000D01*
X188210000Y-97345000D02*
X187765000Y-97790000D01*
X170777000Y-97210000D02*
X175840000Y-97210000D01*
X175840000Y-97210000D02*
X175895000Y-97155000D01*
X201993000Y-97345000D02*
X202438001Y-97790001D01*
X202438001Y-97790001D02*
X202692000Y-98044000D01*
X199910000Y-97345000D02*
X201993000Y-97345000D01*
X196596000Y-92561210D02*
X196596000Y-92202000D01*
X199910000Y-96545000D02*
X199007600Y-96545000D01*
X196596000Y-94133400D02*
X196596000Y-92561210D01*
X199007600Y-96545000D02*
X196596000Y-94133400D01*
X170777000Y-94615000D02*
X175895000Y-94615000D01*
X200812400Y-93345000D02*
X201193400Y-93726000D01*
X201193400Y-93726000D02*
X206548230Y-93726000D01*
X208280000Y-104332370D02*
X208280000Y-105410000D01*
X206548230Y-93726000D02*
X208826101Y-96003871D01*
X199910000Y-93345000D02*
X200812400Y-93345000D01*
X208826101Y-96003871D02*
X208826101Y-103786269D01*
X208826101Y-103786269D02*
X208280000Y-104332370D01*
X199910000Y-94145000D02*
X205397000Y-94145000D01*
X205397000Y-94145000D02*
X208026000Y-96774000D01*
X208026000Y-96774000D02*
X208026000Y-100838000D01*
X206501999Y-107188001D02*
X205740000Y-107950000D01*
X208026000Y-100838000D02*
X207010000Y-101854000D01*
X207010000Y-101854000D02*
X207010000Y-106680000D01*
X207010000Y-106680000D02*
X206501999Y-107188001D01*
X199910000Y-92545000D02*
X200812400Y-92545000D01*
X200812400Y-92545000D02*
X201447293Y-93179893D01*
X201447293Y-93179893D02*
X207479893Y-93179893D01*
X209804000Y-95504000D02*
X209804000Y-106426000D01*
X207479893Y-93179893D02*
X209804000Y-95504000D01*
X209041999Y-107188001D02*
X208280000Y-107950000D01*
X209804000Y-106426000D02*
X209041999Y-107188001D01*
X200812400Y-91745000D02*
X201676000Y-92608600D01*
X201676000Y-92608600D02*
X210083600Y-92608600D01*
X210083600Y-92608600D02*
X214630000Y-97155000D01*
X199910000Y-91745000D02*
X200812400Y-91745000D01*
X201422000Y-91554600D02*
X211569600Y-91554600D01*
X200812400Y-90945000D02*
X201422000Y-91554600D01*
X211569600Y-91554600D02*
X214630000Y-94615000D01*
X199910000Y-90945000D02*
X200812400Y-90945000D01*
X200812400Y-90145000D02*
X201676000Y-91008600D01*
X201676000Y-91008600D02*
X213563600Y-91008600D01*
X213563600Y-91008600D02*
X214630000Y-92075000D01*
X199910000Y-90145000D02*
X200812400Y-90145000D01*
X201740000Y-89345000D02*
X202184000Y-89789000D01*
X202184000Y-89789000D02*
X202819000Y-90424000D01*
X202819000Y-90424000D02*
X213741000Y-90424000D01*
X213741000Y-90424000D02*
X213868001Y-90296999D01*
X213868001Y-90296999D02*
X214630000Y-89535000D01*
X199910000Y-89345000D02*
X201740000Y-89345000D01*
X168313000Y-51435000D02*
X166332000Y-51435000D01*
X168313000Y-50165000D02*
X166332000Y-50165000D01*
X166332000Y-48710000D02*
X168330000Y-48710000D01*
X143548000Y-83820000D02*
X133350000Y-83820000D01*
X133350000Y-81280000D02*
X143548000Y-81280000D01*
X113627000Y-56515000D02*
X113627000Y-57785000D01*
X115265190Y-56845190D02*
X114935000Y-56515000D01*
X114935000Y-56515000D02*
X113627000Y-56515000D01*
X115265190Y-58546256D02*
X115265190Y-56845190D01*
X118260000Y-60120000D02*
X116838934Y-60120000D01*
X116838934Y-60120000D02*
X115265190Y-58546256D01*
X114575790Y-59054992D02*
X114935000Y-59054992D01*
X113715492Y-59054992D02*
X114575790Y-59054992D01*
X112445500Y-57785000D02*
X113715492Y-59054992D01*
X112433000Y-57785000D02*
X112445500Y-57785000D01*
X116205000Y-57785000D02*
X116540000Y-58120000D01*
X116540000Y-58120000D02*
X118260000Y-58120000D01*
X115570000Y-55880000D02*
X114935000Y-55245000D01*
X114935000Y-55245000D02*
X113627000Y-55245000D01*
X115570000Y-58420000D02*
X115570000Y-55880000D01*
X116770000Y-59620000D02*
X115570000Y-58420000D01*
X118260000Y-59620000D02*
X116770000Y-59620000D01*
X119380000Y-42583000D02*
X119380000Y-41237000D01*
X120650000Y-42583000D02*
X120650000Y-41237000D01*
X121920000Y-41237000D02*
X121920000Y-42583000D01*
X121860000Y-46415000D02*
X121920000Y-46355000D01*
X121920000Y-46355000D02*
X121920000Y-43777000D01*
X121860000Y-54520000D02*
X121860000Y-46415000D01*
X118110000Y-42583000D02*
X118110000Y-41237000D01*
X196215000Y-81953000D02*
X196215000Y-80607000D01*
X118260000Y-56120000D02*
X118260000Y-55222000D01*
X118260000Y-55222000D02*
X118364000Y-55118000D01*
X115570000Y-66040000D02*
X115067092Y-66040000D01*
X115067092Y-66040000D02*
X112395000Y-68712092D01*
X111125000Y-72390000D02*
X111125000Y-73609500D01*
X112395000Y-68712092D02*
X112395000Y-71120000D01*
X112395000Y-71120000D02*
X111125000Y-72390000D01*
X111125000Y-73609500D02*
X112268000Y-74752500D01*
X112268000Y-74752500D02*
X112268000Y-74765000D01*
X114990000Y-76650000D02*
X113105000Y-74765000D01*
X113105000Y-74765000D02*
X112268000Y-74765000D01*
X121490000Y-76650000D02*
X120075787Y-76650000D01*
X120075787Y-76650000D02*
X114990000Y-76650000D01*
X123863000Y-51435000D02*
X123863000Y-50165000D01*
X122860000Y-54520000D02*
X122860000Y-53035000D01*
X122860000Y-53035000D02*
X123863000Y-52032000D01*
X123863000Y-52032000D02*
X123863000Y-51435000D01*
X116840000Y-54610000D02*
X116840000Y-51473000D01*
X116840000Y-51473000D02*
X116802000Y-51435000D01*
X116840000Y-54610000D02*
X116840000Y-56002400D01*
X116840000Y-56002400D02*
X117457600Y-56620000D01*
X117457600Y-56620000D02*
X118260000Y-56620000D01*
X116802000Y-50165000D02*
X116802000Y-51435000D01*
X119380000Y-68618000D02*
X119380000Y-68605500D01*
X119380000Y-68605500D02*
X121793000Y-66192500D01*
X121793000Y-66192500D02*
X121793000Y-65532000D01*
X121793000Y-65532000D02*
X122860000Y-64465000D01*
X122860000Y-64465000D02*
X122860000Y-63220000D01*
X122360000Y-63220000D02*
X122360000Y-64330000D01*
X122360000Y-64330000D02*
X121417210Y-65272790D01*
X121417210Y-65272790D02*
X121417209Y-66064839D01*
X119537048Y-67945000D02*
X118770500Y-67945000D01*
X118770500Y-67945000D02*
X118110000Y-68605500D01*
X121417209Y-66064839D02*
X119537048Y-67945000D01*
X118110000Y-68605500D02*
X118110000Y-68618000D01*
X123360000Y-63220000D02*
X123360000Y-64346000D01*
X123360000Y-64346000D02*
X123190000Y-64516000D01*
X123190000Y-64516000D02*
X123190000Y-65443000D01*
X121112400Y-64942600D02*
X121112400Y-65938582D01*
X121860000Y-64195000D02*
X121112400Y-64942600D01*
X121860000Y-63220000D02*
X121860000Y-64195000D01*
X121112400Y-65938582D02*
X119740982Y-67310000D01*
X119740982Y-67310000D02*
X117475000Y-67310000D01*
X117475000Y-67310000D02*
X116840000Y-67945000D01*
X116840000Y-67945000D02*
X116840000Y-68618000D01*
X123444006Y-60706008D02*
X123190007Y-60960007D01*
X126960000Y-58620000D02*
X125530014Y-58620000D01*
X125530014Y-58620000D02*
X123444006Y-60706008D01*
X104140000Y-67945000D02*
X107912000Y-67945000D01*
X107912000Y-67945000D02*
X107950000Y-67983000D01*
X121360000Y-63220000D02*
X121360000Y-64187000D01*
X121360000Y-64187000D02*
X120104000Y-65443000D01*
X120104000Y-65443000D02*
X119837400Y-65443000D01*
X119837400Y-65443000D02*
X119380000Y-65443000D01*
X168330000Y-47440000D02*
X166332000Y-47440000D01*
X143548000Y-41910000D02*
X136398000Y-41910000D01*
X129413000Y-46376790D02*
X129413000Y-46736000D01*
X129413000Y-45847000D02*
X129413000Y-46376790D01*
X133350000Y-41910000D02*
X129413000Y-45847000D01*
X136398004Y-44450000D02*
X136398000Y-44450004D01*
X137160000Y-44450000D02*
X136398004Y-44450000D01*
X143548000Y-44450000D02*
X137160000Y-44450000D01*
X133350000Y-44450000D02*
X129540000Y-48260000D01*
X129540000Y-48260000D02*
X129540000Y-48895000D01*
X143548000Y-46990000D02*
X136398000Y-46990000D01*
X123860000Y-53204866D02*
X124867866Y-52197000D01*
X123860000Y-54520000D02*
X123860000Y-53204866D01*
X132588001Y-47751999D02*
X133350000Y-46990000D01*
X124867866Y-52197000D02*
X128143000Y-52197000D01*
X128143000Y-52197000D02*
X132588001Y-47751999D01*
X143548000Y-49530000D02*
X136398000Y-49530000D01*
X137160000Y-52070000D02*
X136398000Y-52070000D01*
X143548000Y-52070000D02*
X137160000Y-52070000D01*
X124860000Y-54520000D02*
X124860000Y-53194000D01*
X129613140Y-52070000D02*
X132272370Y-52070000D01*
X124860000Y-53194000D02*
X125247378Y-52806622D01*
X125247378Y-52806622D02*
X128876518Y-52806622D01*
X128876518Y-52806622D02*
X129613140Y-52070000D01*
X132272370Y-52070000D02*
X133350000Y-52070000D01*
X192405000Y-80607000D02*
X192405000Y-81953000D01*
X193675000Y-81953000D02*
X193675000Y-80607000D01*
X194945000Y-80607000D02*
X194945000Y-81953000D01*
X104140000Y-75565000D02*
X107315000Y-75565000D01*
X107315000Y-75565000D02*
X111760000Y-71120000D01*
X111760000Y-65405000D02*
X112776000Y-64389000D01*
X112776000Y-64389000D02*
X119634000Y-64389000D01*
X111760000Y-71120000D02*
X111760000Y-65405000D01*
X119634000Y-64389000D02*
X119860000Y-64163000D01*
X119860000Y-64163000D02*
X119860000Y-63220000D01*
X111125000Y-63500000D02*
X111125000Y-69850000D01*
X111125000Y-69850000D02*
X110490000Y-70485000D01*
X110490000Y-70485000D02*
X104140000Y-70485000D01*
X114300995Y-60324005D02*
X111125000Y-63500000D01*
X118260000Y-60620000D02*
X116907868Y-60620000D01*
X116611873Y-60324005D02*
X114300995Y-60324005D01*
X116907868Y-60620000D02*
X116611873Y-60324005D01*
X120860000Y-63220000D02*
X120860000Y-64179000D01*
X114935000Y-64770000D02*
X113918999Y-65786001D01*
X120860000Y-64179000D02*
X120269000Y-64770000D01*
X113918999Y-65786001D02*
X113665000Y-66040000D01*
X120269000Y-64770000D02*
X114935000Y-64770000D01*
X217245000Y-65330000D02*
X214995000Y-67580000D01*
X214995000Y-67580000D02*
X214995000Y-68580000D01*
X217245000Y-57785000D02*
X217245000Y-65330000D01*
X217245000Y-54685000D02*
X215635000Y-53075000D01*
X215635000Y-53075000D02*
X215635000Y-49530000D01*
X217245000Y-57785000D02*
X217245000Y-54685000D01*
X184912000Y-41910000D02*
X184912000Y-40581000D01*
X184912000Y-40581000D02*
X184905000Y-40574000D01*
D51*
G36*
X178076860Y-61470280D02*
X178188932Y-61470280D01*
X177981634Y-61677578D01*
X177922255Y-61717254D01*
X177882579Y-61776633D01*
X177882576Y-61776636D01*
X177765065Y-61952504D01*
X177709868Y-62230000D01*
X177723801Y-62300046D01*
X177723800Y-67650411D01*
X177558440Y-67815772D01*
X177558440Y-67614800D01*
X177509157Y-67367035D01*
X177368809Y-67156991D01*
X177158765Y-67016643D01*
X176911000Y-66967360D01*
X171577000Y-66967360D01*
X171329235Y-67016643D01*
X171119191Y-67156991D01*
X170978843Y-67367035D01*
X170929560Y-67614800D01*
X170929560Y-69545200D01*
X170978843Y-69792965D01*
X171119191Y-70003009D01*
X171329235Y-70143357D01*
X171577000Y-70192640D01*
X173532801Y-70192640D01*
X173532801Y-70668954D01*
X173518868Y-70739000D01*
X173574065Y-71016496D01*
X173691576Y-71192364D01*
X173691579Y-71192367D01*
X173731255Y-71251746D01*
X173790634Y-71291422D01*
X173913800Y-71414588D01*
X173913800Y-71687265D01*
X173776843Y-71892235D01*
X173727560Y-72140000D01*
X173727560Y-72640000D01*
X173776843Y-72887765D01*
X173917191Y-73097809D01*
X174127235Y-73238157D01*
X174375000Y-73287440D01*
X174875000Y-73287440D01*
X175122765Y-73238157D01*
X175136916Y-73228701D01*
X175248691Y-73275000D01*
X175341250Y-73275000D01*
X175500000Y-73116250D01*
X175500000Y-72752815D01*
X175522440Y-72640000D01*
X175522440Y-72515000D01*
X175750000Y-72515000D01*
X175750000Y-73116250D01*
X175908750Y-73275000D01*
X176001309Y-73275000D01*
X176234698Y-73178327D01*
X176413327Y-72999699D01*
X176510000Y-72766310D01*
X176510000Y-72673750D01*
X181630000Y-72673750D01*
X181630000Y-72766310D01*
X181726673Y-72999699D01*
X181905302Y-73178327D01*
X182138691Y-73275000D01*
X182231250Y-73275000D01*
X182390000Y-73116250D01*
X182390000Y-72515000D01*
X181788750Y-72515000D01*
X181630000Y-72673750D01*
X176510000Y-72673750D01*
X176351250Y-72515000D01*
X175750000Y-72515000D01*
X175522440Y-72515000D01*
X175522440Y-72140000D01*
X175500000Y-72027185D01*
X175500000Y-71663750D01*
X175750000Y-71663750D01*
X175750000Y-72265000D01*
X176351250Y-72265000D01*
X176510000Y-72106250D01*
X176510000Y-72013690D01*
X181630000Y-72013690D01*
X181630000Y-72106250D01*
X181788750Y-72265000D01*
X182390000Y-72265000D01*
X182390000Y-71663750D01*
X182231250Y-71505000D01*
X182138691Y-71505000D01*
X181905302Y-71601673D01*
X181726673Y-71780301D01*
X181630000Y-72013690D01*
X176510000Y-72013690D01*
X176413327Y-71780301D01*
X176234698Y-71601673D01*
X176001309Y-71505000D01*
X175908750Y-71505000D01*
X175750000Y-71663750D01*
X175500000Y-71663750D01*
X175341250Y-71505000D01*
X175336200Y-71505000D01*
X175336200Y-71190041D01*
X175350132Y-71119999D01*
X175336200Y-71049955D01*
X175336200Y-71049954D01*
X175294936Y-70842504D01*
X175225777Y-70739001D01*
X175177424Y-70666636D01*
X175177422Y-70666634D01*
X175137745Y-70607254D01*
X175078366Y-70567578D01*
X174955200Y-70444412D01*
X174955200Y-70192640D01*
X176911000Y-70192640D01*
X177158765Y-70143357D01*
X177368809Y-70003009D01*
X177509157Y-69792965D01*
X177558440Y-69545200D01*
X177558440Y-69291200D01*
X177729959Y-69291200D01*
X177800000Y-69305132D01*
X177870041Y-69291200D01*
X177870046Y-69291200D01*
X178077496Y-69249936D01*
X178312746Y-69092746D01*
X178352424Y-69033364D01*
X178752500Y-68633289D01*
X179152578Y-69033367D01*
X179192254Y-69092746D01*
X179251633Y-69132422D01*
X179251635Y-69132424D01*
X179367336Y-69209733D01*
X179427504Y-69249936D01*
X179634954Y-69291200D01*
X179634958Y-69291200D01*
X179705000Y-69305132D01*
X179775042Y-69291200D01*
X180581560Y-69291200D01*
X180581560Y-69545200D01*
X180630843Y-69792965D01*
X180771191Y-70003009D01*
X180981235Y-70143357D01*
X181229000Y-70192640D01*
X183184801Y-70192640D01*
X183184801Y-70444411D01*
X183061634Y-70567578D01*
X183002254Y-70607255D01*
X182962578Y-70666634D01*
X182962576Y-70666636D01*
X182885267Y-70782337D01*
X182845064Y-70842505D01*
X182803800Y-71049955D01*
X182803800Y-71049959D01*
X182789868Y-71120000D01*
X182803800Y-71190042D01*
X182803800Y-71505000D01*
X182798750Y-71505000D01*
X182640000Y-71663750D01*
X182640000Y-72027185D01*
X182617560Y-72140000D01*
X182617560Y-72640000D01*
X182640000Y-72752815D01*
X182640000Y-73116250D01*
X182798750Y-73275000D01*
X182891309Y-73275000D01*
X183003084Y-73228701D01*
X183017235Y-73238157D01*
X183265000Y-73287440D01*
X183765000Y-73287440D01*
X184012765Y-73238157D01*
X184222809Y-73097809D01*
X184363157Y-72887765D01*
X184412440Y-72640000D01*
X184412440Y-72140000D01*
X184363157Y-71892235D01*
X184226200Y-71687266D01*
X184226200Y-71414588D01*
X184349364Y-71291424D01*
X184408746Y-71251746D01*
X184458075Y-71177921D01*
X184565935Y-71016498D01*
X184565935Y-71016497D01*
X184565936Y-71016496D01*
X184607200Y-70809046D01*
X184607200Y-70809043D01*
X184621132Y-70739001D01*
X184607200Y-70668959D01*
X184607200Y-70192640D01*
X186563000Y-70192640D01*
X186810765Y-70143357D01*
X187020809Y-70003009D01*
X187161157Y-69792965D01*
X187210440Y-69545200D01*
X187210440Y-67614800D01*
X187161157Y-67367035D01*
X187020809Y-67156991D01*
X186810765Y-67016643D01*
X186563000Y-66967360D01*
X181229000Y-66967360D01*
X180981235Y-67016643D01*
X180771191Y-67156991D01*
X180630843Y-67367035D01*
X180581560Y-67614800D01*
X180581560Y-67868800D01*
X179999589Y-67868800D01*
X179781200Y-67650412D01*
X179781200Y-62524588D01*
X180035190Y-62270599D01*
X180035190Y-62367778D01*
X180178266Y-62713194D01*
X180213000Y-62747928D01*
X180213000Y-64770000D01*
X180222667Y-64818601D01*
X180250197Y-64859803D01*
X180291399Y-64887333D01*
X180340000Y-64897000D01*
X181193974Y-64897000D01*
X181370302Y-65073327D01*
X181603691Y-65170000D01*
X181844250Y-65170000D01*
X182003000Y-65011250D01*
X182003000Y-64897000D01*
X182257000Y-64897000D01*
X182257000Y-65011250D01*
X182415750Y-65170000D01*
X182656309Y-65170000D01*
X182889698Y-65073327D01*
X182890898Y-65072127D01*
X182982235Y-65133157D01*
X183230000Y-65182440D01*
X184030000Y-65182440D01*
X184277765Y-65133157D01*
X184301173Y-65117516D01*
X184461324Y-65149372D01*
X184461329Y-65149372D01*
X184536372Y-65164299D01*
X184611415Y-65149372D01*
X187833000Y-65149372D01*
X187833000Y-74168000D01*
X170307000Y-74168000D01*
X170307000Y-64897000D01*
X177165000Y-64897000D01*
X177213601Y-64887333D01*
X177254803Y-64859803D01*
X177282333Y-64818601D01*
X177292000Y-64770000D01*
X177292000Y-61470280D01*
X177375820Y-61470280D01*
X177476150Y-61450323D01*
X177576480Y-61470280D01*
X177876200Y-61470280D01*
X177976530Y-61450323D01*
X178076860Y-61470280D01*
X178076860Y-61470280D01*
G37*
X178076860Y-61470280D02*
X178188932Y-61470280D01*
X177981634Y-61677578D01*
X177922255Y-61717254D01*
X177882579Y-61776633D01*
X177882576Y-61776636D01*
X177765065Y-61952504D01*
X177709868Y-62230000D01*
X177723801Y-62300046D01*
X177723800Y-67650411D01*
X177558440Y-67815772D01*
X177558440Y-67614800D01*
X177509157Y-67367035D01*
X177368809Y-67156991D01*
X177158765Y-67016643D01*
X176911000Y-66967360D01*
X171577000Y-66967360D01*
X171329235Y-67016643D01*
X171119191Y-67156991D01*
X170978843Y-67367035D01*
X170929560Y-67614800D01*
X170929560Y-69545200D01*
X170978843Y-69792965D01*
X171119191Y-70003009D01*
X171329235Y-70143357D01*
X171577000Y-70192640D01*
X173532801Y-70192640D01*
X173532801Y-70668954D01*
X173518868Y-70739000D01*
X173574065Y-71016496D01*
X173691576Y-71192364D01*
X173691579Y-71192367D01*
X173731255Y-71251746D01*
X173790634Y-71291422D01*
X173913800Y-71414588D01*
X173913800Y-71687265D01*
X173776843Y-71892235D01*
X173727560Y-72140000D01*
X173727560Y-72640000D01*
X173776843Y-72887765D01*
X173917191Y-73097809D01*
X174127235Y-73238157D01*
X174375000Y-73287440D01*
X174875000Y-73287440D01*
X175122765Y-73238157D01*
X175136916Y-73228701D01*
X175248691Y-73275000D01*
X175341250Y-73275000D01*
X175500000Y-73116250D01*
X175500000Y-72752815D01*
X175522440Y-72640000D01*
X175522440Y-72515000D01*
X175750000Y-72515000D01*
X175750000Y-73116250D01*
X175908750Y-73275000D01*
X176001309Y-73275000D01*
X176234698Y-73178327D01*
X176413327Y-72999699D01*
X176510000Y-72766310D01*
X176510000Y-72673750D01*
X181630000Y-72673750D01*
X181630000Y-72766310D01*
X181726673Y-72999699D01*
X181905302Y-73178327D01*
X182138691Y-73275000D01*
X182231250Y-73275000D01*
X182390000Y-73116250D01*
X182390000Y-72515000D01*
X181788750Y-72515000D01*
X181630000Y-72673750D01*
X176510000Y-72673750D01*
X176351250Y-72515000D01*
X175750000Y-72515000D01*
X175522440Y-72515000D01*
X175522440Y-72140000D01*
X175500000Y-72027185D01*
X175500000Y-71663750D01*
X175750000Y-71663750D01*
X175750000Y-72265000D01*
X176351250Y-72265000D01*
X176510000Y-72106250D01*
X176510000Y-72013690D01*
X181630000Y-72013690D01*
X181630000Y-72106250D01*
X181788750Y-72265000D01*
X182390000Y-72265000D01*
X182390000Y-71663750D01*
X182231250Y-71505000D01*
X182138691Y-71505000D01*
X181905302Y-71601673D01*
X181726673Y-71780301D01*
X181630000Y-72013690D01*
X176510000Y-72013690D01*
X176413327Y-71780301D01*
X176234698Y-71601673D01*
X176001309Y-71505000D01*
X175908750Y-71505000D01*
X175750000Y-71663750D01*
X175500000Y-71663750D01*
X175341250Y-71505000D01*
X175336200Y-71505000D01*
X175336200Y-71190041D01*
X175350132Y-71119999D01*
X175336200Y-71049955D01*
X175336200Y-71049954D01*
X175294936Y-70842504D01*
X175225777Y-70739001D01*
X175177424Y-70666636D01*
X175177422Y-70666634D01*
X175137745Y-70607254D01*
X175078366Y-70567578D01*
X174955200Y-70444412D01*
X174955200Y-70192640D01*
X176911000Y-70192640D01*
X177158765Y-70143357D01*
X177368809Y-70003009D01*
X177509157Y-69792965D01*
X177558440Y-69545200D01*
X177558440Y-69291200D01*
X177729959Y-69291200D01*
X177800000Y-69305132D01*
X177870041Y-69291200D01*
X177870046Y-69291200D01*
X178077496Y-69249936D01*
X178312746Y-69092746D01*
X178352424Y-69033364D01*
X178752500Y-68633289D01*
X179152578Y-69033367D01*
X179192254Y-69092746D01*
X179251633Y-69132422D01*
X179251635Y-69132424D01*
X179367336Y-69209733D01*
X179427504Y-69249936D01*
X179634954Y-69291200D01*
X179634958Y-69291200D01*
X179705000Y-69305132D01*
X179775042Y-69291200D01*
X180581560Y-69291200D01*
X180581560Y-69545200D01*
X180630843Y-69792965D01*
X180771191Y-70003009D01*
X180981235Y-70143357D01*
X181229000Y-70192640D01*
X183184801Y-70192640D01*
X183184801Y-70444411D01*
X183061634Y-70567578D01*
X183002254Y-70607255D01*
X182962578Y-70666634D01*
X182962576Y-70666636D01*
X182885267Y-70782337D01*
X182845064Y-70842505D01*
X182803800Y-71049955D01*
X182803800Y-71049959D01*
X182789868Y-71120000D01*
X182803800Y-71190042D01*
X182803800Y-71505000D01*
X182798750Y-71505000D01*
X182640000Y-71663750D01*
X182640000Y-72027185D01*
X182617560Y-72140000D01*
X182617560Y-72640000D01*
X182640000Y-72752815D01*
X182640000Y-73116250D01*
X182798750Y-73275000D01*
X182891309Y-73275000D01*
X183003084Y-73228701D01*
X183017235Y-73238157D01*
X183265000Y-73287440D01*
X183765000Y-73287440D01*
X184012765Y-73238157D01*
X184222809Y-73097809D01*
X184363157Y-72887765D01*
X184412440Y-72640000D01*
X184412440Y-72140000D01*
X184363157Y-71892235D01*
X184226200Y-71687266D01*
X184226200Y-71414588D01*
X184349364Y-71291424D01*
X184408746Y-71251746D01*
X184458075Y-71177921D01*
X184565935Y-71016498D01*
X184565935Y-71016497D01*
X184565936Y-71016496D01*
X184607200Y-70809046D01*
X184607200Y-70809043D01*
X184621132Y-70739001D01*
X184607200Y-70668959D01*
X184607200Y-70192640D01*
X186563000Y-70192640D01*
X186810765Y-70143357D01*
X187020809Y-70003009D01*
X187161157Y-69792965D01*
X187210440Y-69545200D01*
X187210440Y-67614800D01*
X187161157Y-67367035D01*
X187020809Y-67156991D01*
X186810765Y-67016643D01*
X186563000Y-66967360D01*
X181229000Y-66967360D01*
X180981235Y-67016643D01*
X180771191Y-67156991D01*
X180630843Y-67367035D01*
X180581560Y-67614800D01*
X180581560Y-67868800D01*
X179999589Y-67868800D01*
X179781200Y-67650412D01*
X179781200Y-62524588D01*
X180035190Y-62270599D01*
X180035190Y-62367778D01*
X180178266Y-62713194D01*
X180213000Y-62747928D01*
X180213000Y-64770000D01*
X180222667Y-64818601D01*
X180250197Y-64859803D01*
X180291399Y-64887333D01*
X180340000Y-64897000D01*
X181193974Y-64897000D01*
X181370302Y-65073327D01*
X181603691Y-65170000D01*
X181844250Y-65170000D01*
X182003000Y-65011250D01*
X182003000Y-64897000D01*
X182257000Y-64897000D01*
X182257000Y-65011250D01*
X182415750Y-65170000D01*
X182656309Y-65170000D01*
X182889698Y-65073327D01*
X182890898Y-65072127D01*
X182982235Y-65133157D01*
X183230000Y-65182440D01*
X184030000Y-65182440D01*
X184277765Y-65133157D01*
X184301173Y-65117516D01*
X184461324Y-65149372D01*
X184461329Y-65149372D01*
X184536372Y-65164299D01*
X184611415Y-65149372D01*
X187833000Y-65149372D01*
X187833000Y-74168000D01*
X170307000Y-74168000D01*
X170307000Y-64897000D01*
X177165000Y-64897000D01*
X177213601Y-64887333D01*
X177254803Y-64859803D01*
X177282333Y-64818601D01*
X177292000Y-64770000D01*
X177292000Y-61470280D01*
X177375820Y-61470280D01*
X177476150Y-61450323D01*
X177576480Y-61470280D01*
X177876200Y-61470280D01*
X177976530Y-61450323D01*
X178076860Y-61470280D01*
G36*
X139573000Y-74803000D02*
X128397000Y-74803000D01*
X128397000Y-60822788D01*
X130733801Y-63159590D01*
X130733800Y-64496024D01*
X130719868Y-64566066D01*
X130733800Y-64636107D01*
X130733800Y-64636111D01*
X130775064Y-64843561D01*
X130775065Y-64843562D01*
X130892576Y-65019430D01*
X130892578Y-65019432D01*
X130932254Y-65078811D01*
X130991634Y-65118488D01*
X132036323Y-66163178D01*
X132075997Y-66222554D01*
X132135373Y-66262228D01*
X132135378Y-66262233D01*
X132311246Y-66379744D01*
X132588743Y-66434941D01*
X132658788Y-66421008D01*
X133360221Y-66421009D01*
X133908801Y-66969590D01*
X133908801Y-67551560D01*
X133654800Y-67551560D01*
X133407035Y-67600843D01*
X133196991Y-67741191D01*
X133056643Y-67951235D01*
X133007360Y-68199000D01*
X133007360Y-73533000D01*
X133056643Y-73780765D01*
X133196991Y-73990809D01*
X133407035Y-74131157D01*
X133654800Y-74180440D01*
X135585200Y-74180440D01*
X135832965Y-74131157D01*
X136043009Y-73990809D01*
X136183357Y-73780765D01*
X136232640Y-73533000D01*
X136232640Y-71577200D01*
X136708959Y-71577200D01*
X136779000Y-71591132D01*
X136849041Y-71577200D01*
X136849046Y-71577200D01*
X137056496Y-71535936D01*
X137291746Y-71378746D01*
X137331424Y-71319364D01*
X137454588Y-71196200D01*
X137727266Y-71196200D01*
X137932235Y-71333157D01*
X138180000Y-71382440D01*
X138680000Y-71382440D01*
X138927765Y-71333157D01*
X139137809Y-71192809D01*
X139278157Y-70982765D01*
X139327440Y-70735000D01*
X139327440Y-70235000D01*
X139278157Y-69987235D01*
X139268701Y-69973084D01*
X139315000Y-69861309D01*
X139315000Y-69768750D01*
X139156250Y-69610000D01*
X138792815Y-69610000D01*
X138680000Y-69587560D01*
X138180000Y-69587560D01*
X138067185Y-69610000D01*
X137703750Y-69610000D01*
X137545000Y-69768750D01*
X137545000Y-69773800D01*
X137230041Y-69773800D01*
X137159999Y-69759868D01*
X137089957Y-69773800D01*
X137089954Y-69773800D01*
X136882504Y-69815064D01*
X136882503Y-69815065D01*
X136882502Y-69815065D01*
X136813294Y-69861309D01*
X136647254Y-69972254D01*
X136607576Y-70031636D01*
X136484412Y-70154800D01*
X136232640Y-70154800D01*
X136232640Y-69108691D01*
X137545000Y-69108691D01*
X137545000Y-69201250D01*
X137703750Y-69360000D01*
X138305000Y-69360000D01*
X138305000Y-68758750D01*
X138555000Y-68758750D01*
X138555000Y-69360000D01*
X139156250Y-69360000D01*
X139315000Y-69201250D01*
X139315000Y-69108691D01*
X139218327Y-68875302D01*
X139039699Y-68696673D01*
X138806310Y-68600000D01*
X138713750Y-68600000D01*
X138555000Y-68758750D01*
X138305000Y-68758750D01*
X138146250Y-68600000D01*
X138053690Y-68600000D01*
X137820301Y-68696673D01*
X137641673Y-68875302D01*
X137545000Y-69108691D01*
X136232640Y-69108691D01*
X136232640Y-68199000D01*
X136183357Y-67951235D01*
X136043009Y-67741191D01*
X135832965Y-67600843D01*
X135585200Y-67551560D01*
X135331200Y-67551560D01*
X135331200Y-66745042D01*
X135345132Y-66675000D01*
X135331200Y-66604958D01*
X135331200Y-66604954D01*
X135289936Y-66397504D01*
X135249733Y-66337336D01*
X135172424Y-66221635D01*
X135172422Y-66221633D01*
X135132746Y-66162254D01*
X135073367Y-66122578D01*
X134673288Y-65722500D01*
X135073367Y-65322422D01*
X135132746Y-65282746D01*
X135172422Y-65223367D01*
X135172424Y-65223365D01*
X135289935Y-65047497D01*
X135289936Y-65047496D01*
X135331200Y-64840046D01*
X135331200Y-64840042D01*
X135345132Y-64770000D01*
X135331200Y-64699958D01*
X135331200Y-64528440D01*
X135585200Y-64528440D01*
X135832965Y-64479157D01*
X136043009Y-64338809D01*
X136183357Y-64128765D01*
X136232640Y-63881000D01*
X136232640Y-62878750D01*
X137545000Y-62878750D01*
X137545000Y-62971309D01*
X137641673Y-63204698D01*
X137820301Y-63383327D01*
X138053690Y-63480000D01*
X138146250Y-63480000D01*
X138305000Y-63321250D01*
X138305000Y-62720000D01*
X138555000Y-62720000D01*
X138555000Y-63321250D01*
X138713750Y-63480000D01*
X138806310Y-63480000D01*
X139039699Y-63383327D01*
X139218327Y-63204698D01*
X139315000Y-62971309D01*
X139315000Y-62878750D01*
X139156250Y-62720000D01*
X138555000Y-62720000D01*
X138305000Y-62720000D01*
X137703750Y-62720000D01*
X137545000Y-62878750D01*
X136232640Y-62878750D01*
X136232640Y-61925200D01*
X136484412Y-61925200D01*
X136607576Y-62048364D01*
X136647254Y-62107746D01*
X136706636Y-62147424D01*
X136882502Y-62264935D01*
X136882503Y-62264935D01*
X136882504Y-62264936D01*
X137089954Y-62306200D01*
X137089957Y-62306200D01*
X137159999Y-62320132D01*
X137230041Y-62306200D01*
X137545000Y-62306200D01*
X137545000Y-62311250D01*
X137703750Y-62470000D01*
X138067185Y-62470000D01*
X138180000Y-62492440D01*
X138680000Y-62492440D01*
X138792815Y-62470000D01*
X139156250Y-62470000D01*
X139315000Y-62311250D01*
X139315000Y-62218691D01*
X139268701Y-62106916D01*
X139278157Y-62092765D01*
X139327440Y-61845000D01*
X139327440Y-61345000D01*
X139278157Y-61097235D01*
X139137809Y-60887191D01*
X138927765Y-60746843D01*
X138680000Y-60697560D01*
X138180000Y-60697560D01*
X137932235Y-60746843D01*
X137727266Y-60883800D01*
X137454588Y-60883800D01*
X137331424Y-60760636D01*
X137291746Y-60701254D01*
X137056496Y-60544064D01*
X136849046Y-60502800D01*
X136849041Y-60502800D01*
X136779000Y-60488868D01*
X136708959Y-60502800D01*
X136232640Y-60502800D01*
X136232640Y-58547000D01*
X136183357Y-58299235D01*
X136043009Y-58089191D01*
X135832965Y-57948843D01*
X135585200Y-57899560D01*
X133654800Y-57899560D01*
X133407035Y-57948843D01*
X133196991Y-58089191D01*
X133056643Y-58299235D01*
X133007360Y-58547000D01*
X133007360Y-63881000D01*
X133056643Y-64128765D01*
X133196991Y-64338809D01*
X133407035Y-64479157D01*
X133654800Y-64528440D01*
X133855771Y-64528440D01*
X133690412Y-64693800D01*
X133009589Y-64693800D01*
X132461010Y-64145222D01*
X132461010Y-62604852D01*
X132474942Y-62534810D01*
X132461010Y-62464768D01*
X132461010Y-62464764D01*
X132419746Y-62257314D01*
X132378152Y-62195064D01*
X132302234Y-62081445D01*
X132302232Y-62081443D01*
X132262556Y-62022064D01*
X132203177Y-61982388D01*
X129358723Y-59137935D01*
X129514699Y-59073327D01*
X129693327Y-58894698D01*
X129723957Y-58820750D01*
X129775000Y-58820750D01*
X129775000Y-59061309D01*
X129871673Y-59294698D01*
X130050301Y-59473327D01*
X130283690Y-59570000D01*
X130524250Y-59570000D01*
X130683000Y-59411250D01*
X130683000Y-58662000D01*
X130937000Y-58662000D01*
X130937000Y-59411250D01*
X131095750Y-59570000D01*
X131336310Y-59570000D01*
X131569699Y-59473327D01*
X131748327Y-59294698D01*
X131845000Y-59061309D01*
X131845000Y-58820750D01*
X131686250Y-58662000D01*
X130937000Y-58662000D01*
X130683000Y-58662000D01*
X129933750Y-58662000D01*
X129775000Y-58820750D01*
X129723957Y-58820750D01*
X129790000Y-58661309D01*
X129790000Y-58568750D01*
X129631250Y-58410000D01*
X129030000Y-58410000D01*
X129030000Y-58432000D01*
X128780000Y-58432000D01*
X128780000Y-58410000D01*
X128758000Y-58410000D01*
X128758000Y-58359532D01*
X128867317Y-58337788D01*
X129099812Y-58182440D01*
X129155000Y-58182440D01*
X129267815Y-58160000D01*
X129631250Y-58160000D01*
X129775000Y-58016250D01*
X129775000Y-58249250D01*
X129933750Y-58408000D01*
X130683000Y-58408000D01*
X130683000Y-58388000D01*
X130937000Y-58388000D01*
X130937000Y-58408000D01*
X131686250Y-58408000D01*
X131845000Y-58249250D01*
X131845000Y-58008691D01*
X131748327Y-57775302D01*
X131747127Y-57774102D01*
X131808157Y-57682765D01*
X131857440Y-57435000D01*
X131857440Y-57277000D01*
X139573000Y-57277000D01*
X139573000Y-74803000D01*
X139573000Y-74803000D01*
G37*
X139573000Y-74803000D02*
X128397000Y-74803000D01*
X128397000Y-60822788D01*
X130733801Y-63159590D01*
X130733800Y-64496024D01*
X130719868Y-64566066D01*
X130733800Y-64636107D01*
X130733800Y-64636111D01*
X130775064Y-64843561D01*
X130775065Y-64843562D01*
X130892576Y-65019430D01*
X130892578Y-65019432D01*
X130932254Y-65078811D01*
X130991634Y-65118488D01*
X132036323Y-66163178D01*
X132075997Y-66222554D01*
X132135373Y-66262228D01*
X132135378Y-66262233D01*
X132311246Y-66379744D01*
X132588743Y-66434941D01*
X132658788Y-66421008D01*
X133360221Y-66421009D01*
X133908801Y-66969590D01*
X133908801Y-67551560D01*
X133654800Y-67551560D01*
X133407035Y-67600843D01*
X133196991Y-67741191D01*
X133056643Y-67951235D01*
X133007360Y-68199000D01*
X133007360Y-73533000D01*
X133056643Y-73780765D01*
X133196991Y-73990809D01*
X133407035Y-74131157D01*
X133654800Y-74180440D01*
X135585200Y-74180440D01*
X135832965Y-74131157D01*
X136043009Y-73990809D01*
X136183357Y-73780765D01*
X136232640Y-73533000D01*
X136232640Y-71577200D01*
X136708959Y-71577200D01*
X136779000Y-71591132D01*
X136849041Y-71577200D01*
X136849046Y-71577200D01*
X137056496Y-71535936D01*
X137291746Y-71378746D01*
X137331424Y-71319364D01*
X137454588Y-71196200D01*
X137727266Y-71196200D01*
X137932235Y-71333157D01*
X138180000Y-71382440D01*
X138680000Y-71382440D01*
X138927765Y-71333157D01*
X139137809Y-71192809D01*
X139278157Y-70982765D01*
X139327440Y-70735000D01*
X139327440Y-70235000D01*
X139278157Y-69987235D01*
X139268701Y-69973084D01*
X139315000Y-69861309D01*
X139315000Y-69768750D01*
X139156250Y-69610000D01*
X138792815Y-69610000D01*
X138680000Y-69587560D01*
X138180000Y-69587560D01*
X138067185Y-69610000D01*
X137703750Y-69610000D01*
X137545000Y-69768750D01*
X137545000Y-69773800D01*
X137230041Y-69773800D01*
X137159999Y-69759868D01*
X137089957Y-69773800D01*
X137089954Y-69773800D01*
X136882504Y-69815064D01*
X136882503Y-69815065D01*
X136882502Y-69815065D01*
X136813294Y-69861309D01*
X136647254Y-69972254D01*
X136607576Y-70031636D01*
X136484412Y-70154800D01*
X136232640Y-70154800D01*
X136232640Y-69108691D01*
X137545000Y-69108691D01*
X137545000Y-69201250D01*
X137703750Y-69360000D01*
X138305000Y-69360000D01*
X138305000Y-68758750D01*
X138555000Y-68758750D01*
X138555000Y-69360000D01*
X139156250Y-69360000D01*
X139315000Y-69201250D01*
X139315000Y-69108691D01*
X139218327Y-68875302D01*
X139039699Y-68696673D01*
X138806310Y-68600000D01*
X138713750Y-68600000D01*
X138555000Y-68758750D01*
X138305000Y-68758750D01*
X138146250Y-68600000D01*
X138053690Y-68600000D01*
X137820301Y-68696673D01*
X137641673Y-68875302D01*
X137545000Y-69108691D01*
X136232640Y-69108691D01*
X136232640Y-68199000D01*
X136183357Y-67951235D01*
X136043009Y-67741191D01*
X135832965Y-67600843D01*
X135585200Y-67551560D01*
X135331200Y-67551560D01*
X135331200Y-66745042D01*
X135345132Y-66675000D01*
X135331200Y-66604958D01*
X135331200Y-66604954D01*
X135289936Y-66397504D01*
X135249733Y-66337336D01*
X135172424Y-66221635D01*
X135172422Y-66221633D01*
X135132746Y-66162254D01*
X135073367Y-66122578D01*
X134673288Y-65722500D01*
X135073367Y-65322422D01*
X135132746Y-65282746D01*
X135172422Y-65223367D01*
X135172424Y-65223365D01*
X135289935Y-65047497D01*
X135289936Y-65047496D01*
X135331200Y-64840046D01*
X135331200Y-64840042D01*
X135345132Y-64770000D01*
X135331200Y-64699958D01*
X135331200Y-64528440D01*
X135585200Y-64528440D01*
X135832965Y-64479157D01*
X136043009Y-64338809D01*
X136183357Y-64128765D01*
X136232640Y-63881000D01*
X136232640Y-62878750D01*
X137545000Y-62878750D01*
X137545000Y-62971309D01*
X137641673Y-63204698D01*
X137820301Y-63383327D01*
X138053690Y-63480000D01*
X138146250Y-63480000D01*
X138305000Y-63321250D01*
X138305000Y-62720000D01*
X138555000Y-62720000D01*
X138555000Y-63321250D01*
X138713750Y-63480000D01*
X138806310Y-63480000D01*
X139039699Y-63383327D01*
X139218327Y-63204698D01*
X139315000Y-62971309D01*
X139315000Y-62878750D01*
X139156250Y-62720000D01*
X138555000Y-62720000D01*
X138305000Y-62720000D01*
X137703750Y-62720000D01*
X137545000Y-62878750D01*
X136232640Y-62878750D01*
X136232640Y-61925200D01*
X136484412Y-61925200D01*
X136607576Y-62048364D01*
X136647254Y-62107746D01*
X136706636Y-62147424D01*
X136882502Y-62264935D01*
X136882503Y-62264935D01*
X136882504Y-62264936D01*
X137089954Y-62306200D01*
X137089957Y-62306200D01*
X137159999Y-62320132D01*
X137230041Y-62306200D01*
X137545000Y-62306200D01*
X137545000Y-62311250D01*
X137703750Y-62470000D01*
X138067185Y-62470000D01*
X138180000Y-62492440D01*
X138680000Y-62492440D01*
X138792815Y-62470000D01*
X139156250Y-62470000D01*
X139315000Y-62311250D01*
X139315000Y-62218691D01*
X139268701Y-62106916D01*
X139278157Y-62092765D01*
X139327440Y-61845000D01*
X139327440Y-61345000D01*
X139278157Y-61097235D01*
X139137809Y-60887191D01*
X138927765Y-60746843D01*
X138680000Y-60697560D01*
X138180000Y-60697560D01*
X137932235Y-60746843D01*
X137727266Y-60883800D01*
X137454588Y-60883800D01*
X137331424Y-60760636D01*
X137291746Y-60701254D01*
X137056496Y-60544064D01*
X136849046Y-60502800D01*
X136849041Y-60502800D01*
X136779000Y-60488868D01*
X136708959Y-60502800D01*
X136232640Y-60502800D01*
X136232640Y-58547000D01*
X136183357Y-58299235D01*
X136043009Y-58089191D01*
X135832965Y-57948843D01*
X135585200Y-57899560D01*
X133654800Y-57899560D01*
X133407035Y-57948843D01*
X133196991Y-58089191D01*
X133056643Y-58299235D01*
X133007360Y-58547000D01*
X133007360Y-63881000D01*
X133056643Y-64128765D01*
X133196991Y-64338809D01*
X133407035Y-64479157D01*
X133654800Y-64528440D01*
X133855771Y-64528440D01*
X133690412Y-64693800D01*
X133009589Y-64693800D01*
X132461010Y-64145222D01*
X132461010Y-62604852D01*
X132474942Y-62534810D01*
X132461010Y-62464768D01*
X132461010Y-62464764D01*
X132419746Y-62257314D01*
X132378152Y-62195064D01*
X132302234Y-62081445D01*
X132302232Y-62081443D01*
X132262556Y-62022064D01*
X132203177Y-61982388D01*
X129358723Y-59137935D01*
X129514699Y-59073327D01*
X129693327Y-58894698D01*
X129723957Y-58820750D01*
X129775000Y-58820750D01*
X129775000Y-59061309D01*
X129871673Y-59294698D01*
X130050301Y-59473327D01*
X130283690Y-59570000D01*
X130524250Y-59570000D01*
X130683000Y-59411250D01*
X130683000Y-58662000D01*
X130937000Y-58662000D01*
X130937000Y-59411250D01*
X131095750Y-59570000D01*
X131336310Y-59570000D01*
X131569699Y-59473327D01*
X131748327Y-59294698D01*
X131845000Y-59061309D01*
X131845000Y-58820750D01*
X131686250Y-58662000D01*
X130937000Y-58662000D01*
X130683000Y-58662000D01*
X129933750Y-58662000D01*
X129775000Y-58820750D01*
X129723957Y-58820750D01*
X129790000Y-58661309D01*
X129790000Y-58568750D01*
X129631250Y-58410000D01*
X129030000Y-58410000D01*
X129030000Y-58432000D01*
X128780000Y-58432000D01*
X128780000Y-58410000D01*
X128758000Y-58410000D01*
X128758000Y-58359532D01*
X128867317Y-58337788D01*
X129099812Y-58182440D01*
X129155000Y-58182440D01*
X129267815Y-58160000D01*
X129631250Y-58160000D01*
X129775000Y-58016250D01*
X129775000Y-58249250D01*
X129933750Y-58408000D01*
X130683000Y-58408000D01*
X130683000Y-58388000D01*
X130937000Y-58388000D01*
X130937000Y-58408000D01*
X131686250Y-58408000D01*
X131845000Y-58249250D01*
X131845000Y-58008691D01*
X131748327Y-57775302D01*
X131747127Y-57774102D01*
X131808157Y-57682765D01*
X131857440Y-57435000D01*
X131857440Y-57277000D01*
X139573000Y-57277000D01*
X139573000Y-74803000D01*
M02*
