G04 #@! TF.GenerationSoftware,KiCad,Pcbnew,(5.0.0-rc2-dev-319-g0ded476)*
G04 #@! TF.CreationDate,2018-08-03T18:05:57-07:00*
G04 #@! TF.ProjectId,paranoids-hackme-1,706172616E6F6964732D6861636B6D65,B-eco1*
G04 #@! TF.SameCoordinates,Original*
G04 #@! TF.FileFunction,Paste,Top*
G04 #@! TF.FilePolarity,Positive*
%FSLAX46Y46*%
G04 Gerber Fmt 4.6, Leading zero omitted, Abs format (unit mm)*
G04 Created by KiCad (PCBNEW (5.0.0-rc2-dev-319-g0ded476)) date Friday, August 03, 2018 at 06:05:57 PM*
%MOMM*%
%LPD*%
G01*
G04 APERTURE LIST*
%ADD10R,1.200000X0.600000*%
%ADD11R,0.610000X0.635000*%
%ADD12R,1.500000X0.500000*%
%ADD13R,0.500000X1.500000*%
%ADD14R,0.500000X0.500000*%
%ADD15R,0.800000X0.800000*%
%ADD16R,0.900000X0.800000*%
%ADD17R,0.920000X1.220000*%
%ADD18R,1.300000X0.250000*%
%ADD19R,0.250000X1.300000*%
%ADD20R,0.635000X0.610000*%
%ADD21R,0.600000X1.550000*%
%ADD22R,2.000000X3.650000*%
%ADD23R,2.000000X1.000000*%
%ADD24R,3.650000X2.000000*%
%ADD25R,1.000000X2.000000*%
%ADD26R,1.400000X0.800000*%
%ADD27R,1.550000X1.000000*%
%ADD28R,1.000000X1.450000*%
%ADD29R,1.500000X0.800000*%
%ADD30R,1.750000X0.700000*%
%ADD31R,1.500000X1.300000*%
%ADD32R,1.500000X1.500000*%
%ADD33R,5.334000X1.930400*%
%ADD34R,1.930400X5.334000*%
%ADD35R,1.899920X0.299720*%
%ADD36R,0.299720X1.899920*%
%ADD37R,1.800000X1.900000*%
%ADD38R,1.900000X1.900000*%
%ADD39R,2.100000X1.600000*%
%ADD40R,0.400000X1.350000*%
%ADD41R,1.900000X1.800000*%
%ADD42R,1.600000X2.100000*%
%ADD43R,1.350000X0.400000*%
G04 APERTURE END LIST*
D10*
X184905000Y-38674000D03*
X184905000Y-39624000D03*
X184905000Y-40574000D03*
X187205000Y-40574000D03*
X187205000Y-38674000D03*
D11*
X154305000Y-59728000D03*
X154305000Y-60922000D03*
X147955000Y-60922000D03*
X147955000Y-59728000D03*
D12*
X199910000Y-89345000D03*
X199910000Y-90145000D03*
X199910000Y-90945000D03*
X199910000Y-91745000D03*
X199910000Y-92545000D03*
X199910000Y-94145000D03*
X199910000Y-93345000D03*
X199910000Y-94945000D03*
X199910000Y-95745000D03*
X199910000Y-96545000D03*
X199910000Y-97345000D03*
X188710000Y-97345000D03*
X188710000Y-96545000D03*
X188710000Y-95745000D03*
X188710000Y-94945000D03*
X188710000Y-94145000D03*
X188710000Y-93345000D03*
X188710000Y-92545000D03*
X188710000Y-91745000D03*
X188710000Y-90945000D03*
X188710000Y-90145000D03*
D13*
X190310000Y-87745000D03*
X192710000Y-87745000D03*
X191910000Y-87745000D03*
X191110000Y-87745000D03*
X194310000Y-87745000D03*
X195110000Y-87745000D03*
X197510000Y-87745000D03*
X198310000Y-87745000D03*
X195910000Y-87745000D03*
X196710000Y-87745000D03*
X193510000Y-87745000D03*
D12*
X188710000Y-89345000D03*
D13*
X198310000Y-99045000D03*
X197510000Y-99045000D03*
X196710000Y-99045000D03*
X195910000Y-99045000D03*
X195110000Y-99045000D03*
X194310000Y-99045000D03*
X193510000Y-99045000D03*
X192710000Y-99045000D03*
X191910000Y-99045000D03*
X191110000Y-99045000D03*
X190310000Y-99045000D03*
D14*
X154940000Y-67445000D03*
X154940000Y-68445000D03*
D15*
X184900000Y-36830000D03*
X183400000Y-36830000D03*
X203720000Y-89535000D03*
X205220000Y-89535000D03*
D16*
X212995000Y-67630000D03*
X212995000Y-69530000D03*
X214995000Y-68580000D03*
D17*
X215635000Y-49530000D03*
X212355000Y-49530000D03*
D18*
X126960000Y-61620000D03*
X126960000Y-61120000D03*
X126960000Y-60620000D03*
X126960000Y-60120000D03*
X126960000Y-59620000D03*
X126960000Y-59120000D03*
X126960000Y-58620000D03*
X126960000Y-58120000D03*
X126960000Y-57620000D03*
X126960000Y-57120000D03*
X126960000Y-56620000D03*
X126960000Y-56120000D03*
D19*
X125360000Y-54520000D03*
X124860000Y-54520000D03*
X124360000Y-54520000D03*
X123860000Y-54520000D03*
X123360000Y-54520000D03*
X122860000Y-54520000D03*
X122360000Y-54520000D03*
X121860000Y-54520000D03*
X121360000Y-54520000D03*
X120860000Y-54520000D03*
X120360000Y-54520000D03*
X119860000Y-54520000D03*
D18*
X118260000Y-56120000D03*
X118260000Y-56620000D03*
X118260000Y-57120000D03*
X118260000Y-57620000D03*
X118260000Y-58120000D03*
X118260000Y-58620000D03*
X118260000Y-59120000D03*
X118260000Y-59620000D03*
X118260000Y-60120000D03*
X118260000Y-60620000D03*
X118260000Y-61120000D03*
X118260000Y-61620000D03*
D19*
X119860000Y-63220000D03*
X120360000Y-63220000D03*
X120860000Y-63220000D03*
X121360000Y-63220000D03*
X121860000Y-63220000D03*
X122360000Y-63220000D03*
X122860000Y-63220000D03*
X123360000Y-63220000D03*
X123860000Y-63220000D03*
X124360000Y-63220000D03*
X124860000Y-63220000D03*
X125360000Y-63220000D03*
D14*
X138430000Y-62595000D03*
X138430000Y-61595000D03*
X138430000Y-70485000D03*
X138430000Y-69485000D03*
X124595000Y-65405000D03*
X125595000Y-65405000D03*
X120515000Y-52070000D03*
X119515000Y-52070000D03*
X128905000Y-58285000D03*
X128905000Y-57285000D03*
X198620000Y-85725000D03*
X197620000Y-85725000D03*
X201930000Y-95750000D03*
X201930000Y-94750000D03*
X194175000Y-100965000D03*
X193175000Y-100965000D03*
X183515000Y-72390000D03*
X182515000Y-72390000D03*
X174625000Y-72390000D03*
X175625000Y-72390000D03*
X182380000Y-62230000D03*
X183380000Y-62230000D03*
X175895000Y-43950000D03*
X175895000Y-44950000D03*
X189230000Y-57515000D03*
X189230000Y-56515000D03*
X190365000Y-48895000D03*
X189365000Y-48895000D03*
X172720000Y-56904000D03*
X172720000Y-57904000D03*
X186690000Y-92845000D03*
X186690000Y-93845000D03*
X116205000Y-61095000D03*
X116205000Y-62095000D03*
D11*
X192405000Y-80607000D03*
X192405000Y-79413000D03*
X193675000Y-80607000D03*
X193675000Y-79413000D03*
X194945000Y-80607000D03*
X194945000Y-79413000D03*
X196215000Y-80607000D03*
X196215000Y-79413000D03*
X118110000Y-41237000D03*
X118110000Y-40043000D03*
X121920000Y-41237000D03*
X121920000Y-40043000D03*
X120650000Y-41237000D03*
X120650000Y-40043000D03*
X119380000Y-41237000D03*
X119380000Y-40043000D03*
D20*
X166332000Y-47440000D03*
X165138000Y-47440000D03*
X166332000Y-48710000D03*
X165138000Y-48710000D03*
X166332000Y-50165000D03*
X165138000Y-50165000D03*
X166332000Y-51435000D03*
X165138000Y-51435000D03*
D11*
X194945000Y-83147000D03*
X194945000Y-81953000D03*
X193675000Y-83147000D03*
X193675000Y-81953000D03*
X192405000Y-83147000D03*
X192405000Y-81953000D03*
X163703000Y-56172000D03*
X163703000Y-57366000D03*
X152400000Y-44488000D03*
X152400000Y-45682000D03*
D20*
X143548000Y-52070000D03*
X144742000Y-52070000D03*
X188887000Y-44069000D03*
X190081000Y-44069000D03*
X206337000Y-44450000D03*
X205143000Y-44450000D03*
X206337000Y-34925000D03*
X205143000Y-34925000D03*
X206337000Y-33655000D03*
X205143000Y-33655000D03*
X206337000Y-43180000D03*
X205143000Y-43180000D03*
X206299000Y-41910000D03*
X205105000Y-41910000D03*
X206337000Y-37465000D03*
X205143000Y-37465000D03*
X206337000Y-36195000D03*
X205143000Y-36195000D03*
X143548000Y-49530000D03*
X144742000Y-49530000D03*
D11*
X179760000Y-39223000D03*
X179760000Y-40417000D03*
X180975000Y-39223000D03*
X180975000Y-40417000D03*
D20*
X170777000Y-92075000D03*
X169583000Y-92075000D03*
X170777000Y-94615000D03*
X169583000Y-94615000D03*
X170777000Y-97210000D03*
X169583000Y-97210000D03*
X170777000Y-99695000D03*
X169583000Y-99695000D03*
D11*
X180975000Y-43218000D03*
X180975000Y-44412000D03*
D20*
X190462000Y-52705000D03*
X189268000Y-52705000D03*
X171412000Y-45720000D03*
X170218000Y-45720000D03*
X143548000Y-46990000D03*
X144742000Y-46990000D03*
X143548000Y-44450000D03*
X144742000Y-44450000D03*
X143548000Y-41910000D03*
X144742000Y-41910000D03*
X169524000Y-47440000D03*
X168330000Y-47440000D03*
D11*
X119380000Y-65443000D03*
X119380000Y-66637000D03*
X107950000Y-67983000D03*
X107950000Y-69177000D03*
X116840000Y-68618000D03*
X116840000Y-69812000D03*
X123190000Y-66637000D03*
X123190000Y-65443000D03*
X118110000Y-68618000D03*
X118110000Y-69812000D03*
X119380000Y-68618000D03*
X119380000Y-69812000D03*
D20*
X116802000Y-50165000D03*
X115608000Y-50165000D03*
X115608000Y-51435000D03*
X116802000Y-51435000D03*
X123863000Y-50165000D03*
X125057000Y-50165000D03*
X125057000Y-51435000D03*
X123863000Y-51435000D03*
D11*
X112268000Y-74765000D03*
X112268000Y-73571000D03*
X196215000Y-83147000D03*
X196215000Y-81953000D03*
X118110000Y-43777000D03*
X118110000Y-42583000D03*
X121920000Y-43777000D03*
X121920000Y-42583000D03*
X120650000Y-43777000D03*
X120650000Y-42583000D03*
X119380000Y-43777000D03*
X119380000Y-42583000D03*
D20*
X112433000Y-55245000D03*
X113627000Y-55245000D03*
X112433000Y-56515000D03*
X113627000Y-56515000D03*
X113627000Y-57785000D03*
X112433000Y-57785000D03*
X144742000Y-81280000D03*
X143548000Y-81280000D03*
X144742000Y-83820000D03*
X143548000Y-83820000D03*
D11*
X153035000Y-60922000D03*
X153035000Y-59728000D03*
X149225000Y-60922000D03*
X149225000Y-59728000D03*
X147955000Y-70396000D03*
X147955000Y-71590000D03*
X146685000Y-71590000D03*
X146685000Y-70396000D03*
D20*
X169524000Y-48710000D03*
X168330000Y-48710000D03*
X169507000Y-50165000D03*
X168313000Y-50165000D03*
X169507000Y-51435000D03*
X168313000Y-51435000D03*
X190081000Y-42799000D03*
X188887000Y-42799000D03*
D11*
X178490000Y-39223000D03*
X178490000Y-40417000D03*
D15*
X124345000Y-67310000D03*
X125845000Y-67310000D03*
X106565000Y-48260000D03*
X108065000Y-48260000D03*
X109740000Y-48260000D03*
X111240000Y-48260000D03*
X130810000Y-58535000D03*
X130810000Y-57035000D03*
X202565000Y-83070000D03*
X202565000Y-84570000D03*
X190730000Y-50800000D03*
X189230000Y-50800000D03*
X177800000Y-43700000D03*
X177800000Y-45200000D03*
X182130000Y-64135000D03*
X183630000Y-64135000D03*
X173355000Y-43700000D03*
X173355000Y-45200000D03*
D21*
X153035000Y-68740000D03*
X151765000Y-68740000D03*
X150495000Y-68740000D03*
X149225000Y-68740000D03*
X147955000Y-68740000D03*
X146685000Y-68740000D03*
X145415000Y-68740000D03*
X145415000Y-63340000D03*
X146685000Y-63340000D03*
X147955000Y-63340000D03*
X149225000Y-63340000D03*
X150495000Y-63340000D03*
X151765000Y-63340000D03*
X153035000Y-63340000D03*
D22*
X212215000Y-85090000D03*
D23*
X205615000Y-85090000D03*
X205615000Y-82810000D03*
X205615000Y-87370000D03*
D24*
X109220000Y-37340000D03*
D25*
X109220000Y-43940000D03*
X106940000Y-43940000D03*
X111500000Y-43940000D03*
D26*
X213240000Y-32680000D03*
D27*
X210815000Y-33080000D03*
D28*
X212390000Y-44305000D03*
D29*
X213890000Y-44630000D03*
D30*
X221615000Y-43180000D03*
X221615000Y-42080000D03*
X221615000Y-40980000D03*
X221615000Y-39880000D03*
X221615000Y-38780000D03*
X221615000Y-37680000D03*
X221615000Y-36580000D03*
X221615000Y-35480000D03*
D31*
X221490000Y-44380000D03*
D32*
X221490000Y-33030000D03*
D33*
X183896000Y-68580000D03*
X174244000Y-68580000D03*
D34*
X134620000Y-61214000D03*
X134620000Y-70866000D03*
D35*
X175077120Y-57724040D03*
X175077120Y-57223660D03*
X175077120Y-56723280D03*
X175077120Y-56222900D03*
X175077120Y-55722520D03*
X175077120Y-55224680D03*
X175077120Y-54724300D03*
X175077120Y-54223920D03*
X175077120Y-53726080D03*
X175077120Y-53225700D03*
X175077120Y-52725320D03*
X175077120Y-52227480D03*
X175077120Y-51727100D03*
X175077120Y-51226720D03*
X175077120Y-50726340D03*
X175077120Y-50225960D03*
D36*
X177225960Y-48077120D03*
X177726340Y-48077120D03*
X178226720Y-48077120D03*
X178727100Y-48077120D03*
X179227480Y-48077120D03*
X179725320Y-48077120D03*
X180225700Y-48077120D03*
X180726080Y-48077120D03*
X181223920Y-48077120D03*
X181724300Y-48077120D03*
X182224680Y-48077120D03*
X182722520Y-48077120D03*
X183222900Y-48077120D03*
X183723280Y-48077120D03*
X184223660Y-48077120D03*
X184724040Y-48077120D03*
D35*
X186872880Y-50225960D03*
X186872880Y-50726340D03*
X186872880Y-51226720D03*
X186872880Y-51727100D03*
X186872880Y-52227480D03*
X186872880Y-52725320D03*
X186872880Y-53225700D03*
X186872880Y-53726080D03*
X186872880Y-54223920D03*
X186872880Y-54724300D03*
X186872880Y-55224680D03*
X186872880Y-55722520D03*
X186872880Y-56222900D03*
X186872880Y-56723280D03*
X186872880Y-57223660D03*
X186872880Y-57724040D03*
D36*
X184724040Y-59872880D03*
X184223660Y-59872880D03*
X183723280Y-59872880D03*
X183222900Y-59872880D03*
X182722520Y-59872880D03*
X182224680Y-59872880D03*
X181724300Y-59872880D03*
X181223920Y-59872880D03*
X180726080Y-59872880D03*
X180225700Y-59872880D03*
X179725320Y-59872880D03*
X179227480Y-59872880D03*
X178727100Y-59872880D03*
X178226720Y-59872880D03*
X177726340Y-59872880D03*
X177225960Y-59872880D03*
D37*
X177030000Y-31795000D03*
D38*
X179830000Y-31795000D03*
X182230000Y-31795000D03*
D37*
X185030000Y-31795000D03*
D39*
X177930000Y-34345000D03*
X184130000Y-34345000D03*
D40*
X179730000Y-34470000D03*
X180380000Y-34470000D03*
X181030000Y-34470000D03*
X181680000Y-34470000D03*
X182330000Y-34470000D03*
D41*
X101830000Y-60330000D03*
D38*
X101830000Y-57530000D03*
X101830000Y-55130000D03*
D41*
X101830000Y-52330000D03*
D42*
X104380000Y-59430000D03*
X104380000Y-53230000D03*
D43*
X104505000Y-57630000D03*
X104505000Y-56980000D03*
X104505000Y-56330000D03*
X104505000Y-55680000D03*
X104505000Y-55030000D03*
M02*
