G04 #@! TF.GenerationSoftware,KiCad,Pcbnew,(5.0.0-rc2-dev-319-g0ded476)*
G04 #@! TF.CreationDate,2018-04-17T17:50:58-07:00*
G04 #@! TF.ProjectId,paranoids-hackme-1,706172616E6F6964732D6861636B6D65,A*
G04 #@! TF.SameCoordinates,Original*
G04 #@! TF.FileFunction,Copper,L2,Bot,Signal*
G04 #@! TF.FilePolarity,Positive*
%FSLAX46Y46*%
G04 Gerber Fmt 4.6, Leading zero omitted, Abs format (unit mm)*
G04 Created by KiCad (PCBNEW (5.0.0-rc2-dev-319-g0ded476)) date Tuesday, April 17, 2018 at 05:50:58 PM*
%MOMM*%
%LPD*%
G01*
G04 APERTURE LIST*
%ADD10C,0.254000*%
%ADD11C,1.524000*%
%ADD12C,2.000000*%
%ADD13C,0.635000*%
%ADD14C,0.508000*%
%ADD15C,0.381000*%
%ADD16C,0.152400*%
G04 APERTURE END LIST*
D10*
X113836147Y-115630476D02*
X113775671Y-115570000D01*
X113654719Y-115509523D01*
X113352338Y-115509523D01*
X113231385Y-115570000D01*
X113170909Y-115630476D01*
X113110433Y-115751428D01*
X113110433Y-115872380D01*
X113170909Y-116053809D01*
X113896623Y-116779523D01*
X113110433Y-116779523D01*
X112324242Y-115509523D02*
X112203290Y-115509523D01*
X112082338Y-115570000D01*
X112021861Y-115630476D01*
X111961385Y-115751428D01*
X111900909Y-115993333D01*
X111900909Y-116295714D01*
X111961385Y-116537619D01*
X112021861Y-116658571D01*
X112082338Y-116719047D01*
X112203290Y-116779523D01*
X112324242Y-116779523D01*
X112445195Y-116719047D01*
X112505671Y-116658571D01*
X112566147Y-116537619D01*
X112626623Y-116295714D01*
X112626623Y-115993333D01*
X112566147Y-115751428D01*
X112505671Y-115630476D01*
X112445195Y-115570000D01*
X112324242Y-115509523D01*
X110691385Y-116779523D02*
X111417100Y-116779523D01*
X111054242Y-116779523D02*
X111054242Y-115509523D01*
X111175195Y-115690952D01*
X111296147Y-115811904D01*
X111417100Y-115872380D01*
X109965671Y-116053809D02*
X110086623Y-115993333D01*
X110147100Y-115932857D01*
X110207576Y-115811904D01*
X110207576Y-115751428D01*
X110147100Y-115630476D01*
X110086623Y-115570000D01*
X109965671Y-115509523D01*
X109723766Y-115509523D01*
X109602814Y-115570000D01*
X109542338Y-115630476D01*
X109481861Y-115751428D01*
X109481861Y-115811904D01*
X109542338Y-115932857D01*
X109602814Y-115993333D01*
X109723766Y-116053809D01*
X109965671Y-116053809D01*
X110086623Y-116114285D01*
X110147100Y-116174761D01*
X110207576Y-116295714D01*
X110207576Y-116537619D01*
X110147100Y-116658571D01*
X110086623Y-116719047D01*
X109965671Y-116779523D01*
X109723766Y-116779523D01*
X109602814Y-116719047D01*
X109542338Y-116658571D01*
X109481861Y-116537619D01*
X109481861Y-116295714D01*
X109542338Y-116174761D01*
X109602814Y-116114285D01*
X109723766Y-116053809D01*
X108937576Y-116295714D02*
X107969957Y-116295714D01*
X107123290Y-115509523D02*
X107002338Y-115509523D01*
X106881385Y-115570000D01*
X106820909Y-115630476D01*
X106760433Y-115751428D01*
X106699957Y-115993333D01*
X106699957Y-116295714D01*
X106760433Y-116537619D01*
X106820909Y-116658571D01*
X106881385Y-116719047D01*
X107002338Y-116779523D01*
X107123290Y-116779523D01*
X107244242Y-116719047D01*
X107304719Y-116658571D01*
X107365195Y-116537619D01*
X107425671Y-116295714D01*
X107425671Y-115993333D01*
X107365195Y-115751428D01*
X107304719Y-115630476D01*
X107244242Y-115570000D01*
X107123290Y-115509523D01*
X105611385Y-115932857D02*
X105611385Y-116779523D01*
X105913766Y-115449047D02*
X106216147Y-116356190D01*
X105429957Y-116356190D01*
X104946147Y-116295714D02*
X103978528Y-116295714D01*
X102708528Y-116779523D02*
X103434242Y-116779523D01*
X103071385Y-116779523D02*
X103071385Y-115509523D01*
X103192338Y-115690952D01*
X103313290Y-115811904D01*
X103434242Y-115872380D01*
X102285195Y-115509523D02*
X101438528Y-115509523D01*
X101982814Y-116779523D01*
D11*
X133350000Y-39370000D03*
X133350000Y-41910000D03*
X133350000Y-44450000D03*
X133350000Y-46990000D03*
X133350000Y-49530000D03*
X133350000Y-52070000D03*
X133350000Y-54610000D03*
X200660000Y-60325000D03*
X200660000Y-62865000D03*
X200660000Y-65405000D03*
X200660000Y-67945000D03*
X200660000Y-70485000D03*
X200660000Y-73025000D03*
X189230000Y-107950000D03*
X191770000Y-107950000D03*
X195580000Y-57785000D03*
X195580000Y-60325000D03*
X195580000Y-62865000D03*
X195580000Y-65405000D03*
X195580000Y-67945000D03*
X195580000Y-70485000D03*
X195580000Y-73025000D03*
X177800000Y-83185000D03*
X175260000Y-83185000D03*
X172720000Y-83185000D03*
X187960000Y-83185000D03*
X185420000Y-83185000D03*
X182880000Y-83185000D03*
X188595000Y-76835000D03*
X186055000Y-76835000D03*
X183515000Y-76835000D03*
X180975000Y-76835000D03*
X133350000Y-86360000D03*
X133350000Y-83820000D03*
X133350000Y-81280000D03*
X133350000Y-78740000D03*
X157480000Y-86360000D03*
X157480000Y-83820000D03*
X157480000Y-81280000D03*
X157480000Y-78740000D03*
X200660000Y-42545000D03*
X200660000Y-45085000D03*
X200660000Y-47625000D03*
X200660000Y-50165000D03*
X200660000Y-52705000D03*
X200660000Y-55245000D03*
X104140000Y-65405000D03*
X104140000Y-67945000D03*
X104140000Y-70485000D03*
X104140000Y-73025000D03*
X104140000Y-75565000D03*
X104140000Y-78105000D03*
X175895000Y-102235000D03*
X175895000Y-99695000D03*
X175895000Y-97155000D03*
X175895000Y-94615000D03*
X175895000Y-92075000D03*
X175895000Y-89535000D03*
X157480000Y-41910000D03*
X157480000Y-44450000D03*
X157480000Y-46990000D03*
X157480000Y-49530000D03*
X157480000Y-52070000D03*
X157480000Y-54610000D03*
X214630000Y-102235000D03*
X214630000Y-99695000D03*
X214630000Y-97155000D03*
X214630000Y-94615000D03*
X214630000Y-92075000D03*
X214630000Y-89535000D03*
D12*
X217245000Y-57785000D03*
X210745000Y-57785000D03*
X114990000Y-81150000D03*
X114990000Y-76650000D03*
X121490000Y-81150000D03*
X121490000Y-76650000D03*
D11*
X172720000Y-105410000D03*
X175260000Y-105410000D03*
X175260000Y-107950000D03*
X172720000Y-107950000D03*
X180340000Y-107950000D03*
X182880000Y-107950000D03*
X185420000Y-107950000D03*
X185420000Y-105410000D03*
X182880000Y-105410000D03*
X180340000Y-105410000D03*
X177800000Y-107950000D03*
X177800000Y-105410000D03*
X195580000Y-105410000D03*
X198120000Y-105410000D03*
X198120000Y-107950000D03*
X195580000Y-107950000D03*
X203200000Y-107950000D03*
X205740000Y-107950000D03*
X208280000Y-107950000D03*
X208280000Y-105410000D03*
X205740000Y-105410000D03*
X203200000Y-105410000D03*
X200660000Y-107950000D03*
X200660000Y-105410000D03*
D13*
X222885000Y-46990000D03*
X208280000Y-31750000D03*
X188595000Y-31750000D03*
X173355000Y-31750000D03*
X170307000Y-56769000D03*
X164084000Y-43688000D03*
X123063004Y-40005000D03*
X106299000Y-59436024D03*
X106299000Y-57658008D03*
X106299000Y-53213000D03*
X106553000Y-49530000D03*
X109728000Y-49530000D03*
X126365000Y-51434989D03*
X188589552Y-35538205D03*
X190937193Y-58391741D03*
X146685000Y-73025000D03*
X144310100Y-63754000D03*
X114935000Y-61595000D03*
X139065000Y-66040000D03*
X128905000Y-66040000D03*
X128905000Y-74295000D03*
X139065000Y-74295000D03*
X139065000Y-57785000D03*
X179070000Y-73660000D03*
X187325000Y-73660000D03*
X170815000Y-73660000D03*
X187325000Y-69215000D03*
X170815000Y-69215000D03*
X170815000Y-65405000D03*
X177165000Y-65405000D03*
X180340000Y-65405000D03*
X187325000Y-65405000D03*
X180974984Y-63500000D03*
X183515000Y-40005000D03*
X191770000Y-49530000D03*
D14*
X179070000Y-36830000D03*
D13*
X168910000Y-55245000D03*
X177800000Y-42545000D03*
X186690000Y-34290000D03*
X177165000Y-36830000D03*
X212725000Y-72390000D03*
X219075000Y-41275000D03*
X200025000Y-86360000D03*
X202565000Y-88265000D03*
X201295000Y-82550000D03*
X185420000Y-92710000D03*
X194945000Y-102235000D03*
X203200000Y-96520000D03*
X197485000Y-79375000D03*
X156210000Y-66675000D03*
X123825000Y-68580000D03*
X122555000Y-67945000D03*
X132080000Y-58420000D03*
X120650000Y-50800000D03*
X114300000Y-51435000D03*
X154305000Y-45720000D03*
X189865000Y-72390000D03*
X208915000Y-33020000D03*
X219075000Y-38735000D03*
X221615000Y-46990000D03*
X188595000Y-33020000D03*
X173355000Y-33020000D03*
X104140000Y-39370000D03*
X104140000Y-41910000D03*
D14*
X180340000Y-55372000D03*
X176911000Y-56769000D03*
X180340000Y-56515000D03*
X183134000Y-45466006D03*
X180975000Y-57785000D03*
X180974990Y-62230000D03*
X181610000Y-61595000D03*
X183378959Y-58331473D03*
X184643907Y-63469643D03*
X186055000Y-63500000D03*
X164846000Y-64135000D03*
X185951750Y-62714250D03*
X183134000Y-55372000D03*
X164084000Y-63500000D03*
X191241110Y-56896037D03*
X192079833Y-56336137D03*
X191627864Y-55854610D03*
X191008000Y-55626016D03*
X191008000Y-54610000D03*
X193040000Y-54736957D03*
X194056000Y-54736957D03*
X191007992Y-53848000D03*
X193381257Y-53760743D03*
X189254195Y-53721237D03*
X203454000Y-67818000D03*
X193802000Y-52832000D03*
X191426763Y-52882784D03*
X203454000Y-62992000D03*
X190866536Y-51911211D03*
X193294000Y-52324000D03*
X177176531Y-50172691D03*
X165608000Y-59055000D03*
X177836893Y-50164546D03*
X166370000Y-59055000D03*
X178497205Y-50153059D03*
X167132000Y-59055000D03*
X167893996Y-59055000D03*
X179705000Y-49530000D03*
X192278000Y-63754000D03*
X190754000Y-59309000D03*
X181800968Y-53784278D03*
X181610000Y-49530000D03*
X162687000Y-55753000D03*
X159131000Y-61468000D03*
X163957000Y-54356000D03*
X182636301Y-46715333D03*
X151765022Y-61595000D03*
X164465000Y-45085000D03*
X197865975Y-38608010D03*
X207518000Y-42672000D03*
X197104000Y-38608000D03*
X207540680Y-43822400D03*
X179710080Y-43180000D03*
X179046250Y-41886250D03*
X174625000Y-47371000D03*
X173863000Y-47117000D03*
X176403000Y-49911000D03*
X199136000Y-36068014D03*
X198475577Y-38354013D03*
X207518000Y-34290000D03*
X199135984Y-38354000D03*
X207517992Y-35560000D03*
X201168000Y-38862000D03*
X207518000Y-38100000D03*
X200152000Y-38862000D03*
X207518000Y-36830010D03*
X172720000Y-46990000D03*
X191515996Y-61214000D03*
X190246000Y-60071000D03*
D13*
X207264000Y-97028000D03*
X208280000Y-88265000D03*
D14*
X143002000Y-56134000D03*
X120015000Y-57810413D03*
X168656000Y-62103000D03*
X151765000Y-65405000D03*
X190500000Y-85090000D03*
X191746250Y-85748750D03*
X137160000Y-56032421D03*
X120015000Y-57150000D03*
X139646004Y-55651389D03*
X126365000Y-55245000D03*
X121260043Y-55904957D03*
X138453757Y-55903757D03*
X193675000Y-96520000D03*
X197612000Y-102108000D03*
X198627988Y-102108000D03*
X201168000Y-102108000D03*
X202692000Y-102108000D03*
X196215000Y-84582000D03*
X196723000Y-89408000D03*
X184150000Y-43434000D03*
X190246000Y-62738000D03*
X190499990Y-90932000D03*
X190754000Y-91948000D03*
X190246000Y-93725992D03*
X186690000Y-95250000D03*
X186182000Y-96520000D03*
X184658000Y-98044000D03*
X184785000Y-99695000D03*
X186690000Y-97155000D03*
X185674000Y-99821996D03*
X187325000Y-97790000D03*
X202692000Y-98044000D03*
X196596000Y-92202000D03*
X120015000Y-59715403D03*
X120015000Y-59055000D03*
X114935000Y-59054992D03*
X116205000Y-57785000D03*
X118364000Y-55118000D03*
X115570000Y-66040000D03*
X123190007Y-60960007D03*
X136398000Y-41910000D03*
X129413000Y-46736000D03*
X130556000Y-52832000D03*
X136398000Y-44450004D03*
X129540000Y-52857390D03*
X129540000Y-48895000D03*
X136398000Y-46990000D03*
X136398000Y-49530000D03*
X136398000Y-52070000D03*
X113665000Y-66040000D03*
X193293970Y-50800000D03*
X191770000Y-50800000D03*
D15*
X220345000Y-31750000D02*
X222885000Y-34290000D01*
X222885000Y-34290000D02*
X222885000Y-46990000D01*
X208280000Y-31750000D02*
X220345000Y-31750000D01*
X173355000Y-31750000D02*
X188595000Y-31750000D01*
D10*
X128905000Y-74295000D02*
X128905000Y-66040000D01*
X139065000Y-57785000D02*
X139065000Y-74295000D01*
X187325000Y-73660000D02*
X187325000Y-69215000D01*
X172085000Y-72390000D02*
X170815000Y-73660000D01*
X179070000Y-72390000D02*
X172085000Y-72390000D01*
X187325000Y-69215000D02*
X187325000Y-65405000D01*
X170815000Y-69215000D02*
X187325000Y-69215000D01*
X180340000Y-65405000D02*
X177165000Y-65405000D01*
X154305000Y-45720000D02*
X154305000Y-52832000D01*
X154305000Y-52832000D02*
X156083000Y-54610000D01*
X156083000Y-54610000D02*
X157480000Y-54610000D01*
X189865000Y-72390000D02*
X190500000Y-73025000D01*
X190500000Y-73025000D02*
X195580000Y-73025000D01*
D15*
X221615000Y-38735000D02*
X221615000Y-34925000D01*
X219710000Y-33020000D02*
X209364012Y-33020000D01*
X209364012Y-33020000D02*
X208915000Y-33020000D01*
X221615000Y-34925000D02*
X219710000Y-33020000D01*
X221615000Y-46990000D02*
X221615000Y-38735000D01*
D10*
X219075000Y-38735000D02*
X221615000Y-38735000D01*
D15*
X175260000Y-107950000D02*
X180975000Y-113665000D01*
X180975000Y-113665000D02*
X192405000Y-113665000D01*
X192405000Y-113665000D02*
X197358001Y-108711999D01*
X197358001Y-108711999D02*
X198120000Y-107950000D01*
X173355000Y-33020000D02*
X188595000Y-33020000D01*
X104140000Y-41910000D02*
X104140000Y-39370000D01*
D16*
X157480000Y-44450000D02*
X158838899Y-45808899D01*
X158838899Y-45808899D02*
X176110899Y-45808899D01*
X176110899Y-45808899D02*
X176784000Y-46482000D01*
X175920399Y-48615601D02*
X175920399Y-55778399D01*
X176784000Y-46482000D02*
X176784000Y-47752000D01*
X176784000Y-47752000D02*
X175920399Y-48615601D01*
X175920399Y-55778399D02*
X176911000Y-56769000D01*
X180340000Y-55372000D02*
X180340000Y-56515000D01*
X180975000Y-55292750D02*
X183727162Y-52540588D01*
X183727162Y-52540588D02*
X183727162Y-46059168D01*
X183727162Y-46059168D02*
X183387999Y-45720005D01*
X180975000Y-57785000D02*
X180975000Y-55292750D01*
X183387999Y-45720005D02*
X183134000Y-45466006D01*
X194818001Y-69723001D02*
X193775135Y-69723001D01*
X186282134Y-62230000D02*
X181334200Y-62230000D01*
X193775135Y-69723001D02*
X186282134Y-62230000D01*
X181334200Y-62230000D02*
X180974990Y-62230000D01*
X195580000Y-70485000D02*
X194818001Y-69723001D01*
X181969210Y-61595000D02*
X181610000Y-61595000D01*
X192428201Y-67945000D02*
X186078201Y-61595000D01*
X186078201Y-61595000D02*
X181969210Y-61595000D01*
X195580000Y-67945000D02*
X192428201Y-67945000D01*
X183632958Y-58585472D02*
X183378959Y-58331473D01*
X190452486Y-65405000D02*
X183632958Y-58585472D01*
X195580000Y-65405000D02*
X190452486Y-65405000D01*
X183515000Y-76835000D02*
X185166000Y-75184000D01*
X185166000Y-75184000D02*
X187071000Y-75184000D01*
X188595000Y-73660000D02*
X188595000Y-65405000D01*
X187325000Y-64135000D02*
X184950054Y-64135000D01*
X184950054Y-64135000D02*
X184643907Y-63828853D01*
X184643907Y-63828853D02*
X184643907Y-63469643D01*
X188595000Y-65405000D02*
X187325000Y-64135000D01*
X187071000Y-75184000D02*
X188595000Y-73660000D01*
X186414210Y-63500000D02*
X186055000Y-63500000D01*
X188899811Y-65278744D02*
X187121067Y-63500000D01*
X187121067Y-63500000D02*
X186414210Y-63500000D01*
X186055000Y-76835000D02*
X188899811Y-73990189D01*
X188899811Y-73990189D02*
X188899811Y-65278744D01*
X177569758Y-62714250D02*
X176149008Y-64135000D01*
X165205210Y-64135000D02*
X164846000Y-64135000D01*
X176149008Y-64135000D02*
X165205210Y-64135000D01*
X185951750Y-62714250D02*
X177569758Y-62714250D01*
X183134000Y-55731210D02*
X183134000Y-55372000D01*
X183134000Y-56388000D02*
X183134000Y-55731210D01*
X176022000Y-63500000D02*
X183134000Y-56388000D01*
X164084000Y-63500000D02*
X176022000Y-63500000D01*
X197231000Y-56134000D02*
X192992030Y-56134000D01*
X200660000Y-52705000D02*
X197231000Y-56134000D01*
X192992030Y-56134000D02*
X192229993Y-56896037D01*
X191600320Y-56896037D02*
X191241110Y-56896037D01*
X192229993Y-56896037D02*
X191600320Y-56896037D01*
X198882000Y-53020630D02*
X196073441Y-55829189D01*
X196073441Y-55829189D02*
X192586781Y-55829189D01*
X198882000Y-51943000D02*
X198882000Y-53020630D01*
X200660000Y-50165000D02*
X198882000Y-51943000D01*
X192586781Y-55829189D02*
X192333832Y-56082138D01*
X192333832Y-56082138D02*
X192079833Y-56336137D01*
X198145410Y-50139590D02*
X198145410Y-53214459D01*
X191881863Y-55600611D02*
X191627864Y-55854610D01*
X200660000Y-47625000D02*
X198145410Y-50139590D01*
X198145410Y-53214459D02*
X195835491Y-55524378D01*
X191958096Y-55524378D02*
X191881863Y-55600611D01*
X195835491Y-55524378D02*
X191958096Y-55524378D01*
X191261999Y-55372017D02*
X191008000Y-55626016D01*
X195709235Y-55219567D02*
X191414449Y-55219567D01*
X200660000Y-45085000D02*
X197840599Y-47904401D01*
X191414449Y-55219567D02*
X191261999Y-55372017D01*
X197840599Y-53088203D02*
X195709235Y-55219567D01*
X197840599Y-47904401D02*
X197840599Y-53088203D01*
X191134957Y-54736957D02*
X191008000Y-54610000D01*
X193040000Y-54736957D02*
X191134957Y-54736957D01*
X191007992Y-53848000D02*
X192405000Y-53848000D01*
X192811355Y-54254355D02*
X193573398Y-54254355D01*
X192405000Y-53848000D02*
X192811355Y-54254355D01*
X193573398Y-54254355D02*
X193802001Y-54482958D01*
X193802001Y-54482958D02*
X194056000Y-54736957D01*
X189254195Y-53721237D02*
X189610047Y-53365385D01*
X189610047Y-53365385D02*
X192985899Y-53365385D01*
X193127258Y-53506744D02*
X193381257Y-53760743D01*
X192985899Y-53365385D02*
X193127258Y-53506744D01*
X191426763Y-52882784D02*
X193751216Y-52882784D01*
X193751216Y-52882784D02*
X193802000Y-52832000D01*
X203454000Y-67818000D02*
X200787000Y-67818000D01*
X200787000Y-67818000D02*
X200660000Y-67945000D01*
X203454000Y-62992000D02*
X200787000Y-62992000D01*
X200787000Y-62992000D02*
X200660000Y-62865000D01*
X192881211Y-51911211D02*
X191225746Y-51911211D01*
X193294000Y-52324000D02*
X192881211Y-51911211D01*
X191225746Y-51911211D02*
X190866536Y-51911211D01*
X166966899Y-57696101D02*
X171204129Y-57696101D01*
X165608000Y-59055000D02*
X166966899Y-57696101D01*
X171572451Y-57327779D02*
X177066471Y-57327779D01*
X171204129Y-57696101D02*
X171572451Y-57327779D01*
X177430530Y-50426690D02*
X177176531Y-50172691D01*
X177430530Y-56963720D02*
X177430530Y-50426690D01*
X177066471Y-57327779D02*
X177430530Y-56963720D01*
X171698707Y-57632590D02*
X177317410Y-57632590D01*
X177836893Y-50523756D02*
X177836893Y-50164546D01*
X177836893Y-57113107D02*
X177836893Y-50523756D01*
X177317410Y-57632590D02*
X177836893Y-57113107D01*
X167424088Y-58000912D02*
X171330385Y-58000912D01*
X166370000Y-59055000D02*
X167424088Y-58000912D01*
X171330385Y-58000912D02*
X171698707Y-57632590D01*
X171456641Y-58305723D02*
X171824963Y-57937401D01*
X177443666Y-57937401D02*
X178497205Y-56883862D01*
X178497205Y-56883862D02*
X178497205Y-50512269D01*
X167132000Y-59055000D02*
X167881277Y-58305723D01*
X167881277Y-58305723D02*
X171456641Y-58305723D01*
X178497205Y-50512269D02*
X178497205Y-50153059D01*
X171824963Y-57937401D02*
X177443666Y-57937401D01*
X179705000Y-49530000D02*
X179705000Y-56134000D01*
X177546000Y-58293000D02*
X172085000Y-58293000D01*
X171704000Y-58674000D02*
X168274996Y-58674000D01*
X179705000Y-56134000D02*
X177546000Y-58293000D01*
X172085000Y-58293000D02*
X171704000Y-58674000D01*
X168274996Y-58674000D02*
X167893996Y-59055000D01*
X192278000Y-60833000D02*
X192278000Y-63394790D01*
X190754000Y-59309000D02*
X192278000Y-60833000D01*
X192278000Y-63394790D02*
X192278000Y-63754000D01*
X181610000Y-53593310D02*
X181800968Y-53784278D01*
X181610000Y-49530000D02*
X181610000Y-53593310D01*
X162687000Y-55626000D02*
X162687000Y-55753000D01*
X163957000Y-54356000D02*
X162687000Y-55626000D01*
X159004000Y-61595000D02*
X159131000Y-61468000D01*
X151765022Y-61595000D02*
X159004000Y-61595000D01*
X182382302Y-46461334D02*
X182636301Y-46715333D01*
X164465000Y-45085000D02*
X181005968Y-45085000D01*
X181005968Y-45085000D02*
X182382302Y-46461334D01*
X199235653Y-39977688D02*
X198119974Y-38862009D01*
X204823688Y-39977688D02*
X199235653Y-39977688D01*
X198119974Y-38862009D02*
X197865975Y-38608010D01*
X207518000Y-42672000D02*
X204823688Y-39977688D01*
X197357999Y-38861999D02*
X197104000Y-38608000D01*
X207540680Y-43822400D02*
X204358280Y-40640000D01*
X199136000Y-40640000D02*
X197357999Y-38861999D01*
X204358280Y-40640000D02*
X199136000Y-40640000D01*
X179046250Y-41886250D02*
X179710080Y-42550080D01*
X179710080Y-42550080D02*
X179710080Y-43180000D01*
X169926000Y-52070000D02*
X174371001Y-47624999D01*
X157480000Y-52070000D02*
X169926000Y-52070000D01*
X174371001Y-47624999D02*
X174625000Y-47371000D01*
X173609001Y-47370999D02*
X173863000Y-47117000D01*
X171450000Y-49530000D02*
X173609001Y-47370999D01*
X157480000Y-49530000D02*
X171450000Y-49530000D01*
X182371986Y-45418240D02*
X183220553Y-46266807D01*
X179116065Y-47197935D02*
X176656999Y-49657001D01*
X176656999Y-49657001D02*
X176403000Y-49911000D01*
X188721986Y-36068014D02*
X182371986Y-42418014D01*
X183220553Y-46845333D02*
X182867951Y-47197935D01*
X199136000Y-36068014D02*
X188721986Y-36068014D01*
X183220553Y-46266807D02*
X183220553Y-46845333D01*
X182371986Y-42418014D02*
X182371986Y-45418240D01*
X182867951Y-47197935D02*
X179116065Y-47197935D01*
X207518000Y-34290000D02*
X202180380Y-34290000D01*
X202180380Y-34290000D02*
X198475577Y-37994803D01*
X198475577Y-37994803D02*
X198475577Y-38354013D01*
X201929984Y-35560000D02*
X199389983Y-38100001D01*
X199389983Y-38100001D02*
X199135984Y-38354000D01*
X207517992Y-35560000D02*
X201929984Y-35560000D01*
X207518000Y-38100000D02*
X206756000Y-38862000D01*
X206756000Y-38862000D02*
X201527210Y-38862000D01*
X201527210Y-38862000D02*
X201168000Y-38862000D01*
X200405999Y-38608001D02*
X200152000Y-38862000D01*
X202183990Y-36830010D02*
X200405999Y-38608001D01*
X207518000Y-36830010D02*
X202183990Y-36830010D01*
X157480000Y-46990000D02*
X158557630Y-46990000D01*
X158557630Y-46990000D02*
X160655000Y-46990000D01*
X172360790Y-46990000D02*
X172720000Y-46990000D01*
X160655000Y-46990000D02*
X172360790Y-46990000D01*
X190246000Y-60071000D02*
X191389000Y-61214000D01*
X191389000Y-61214000D02*
X191515996Y-61214000D01*
D10*
X208280000Y-88265000D02*
X208280000Y-96266000D01*
X208280000Y-96266000D02*
X207518000Y-97028000D01*
X207518000Y-97028000D02*
X207264000Y-97028000D01*
D16*
X141147808Y-56819810D02*
X142316190Y-56819810D01*
X142316190Y-56819810D02*
X143002000Y-56134000D01*
X121364813Y-56819810D02*
X141147808Y-56819810D01*
X120015000Y-57810413D02*
X120374210Y-57810413D01*
X120374210Y-57810413D02*
X121364813Y-56819810D01*
X151765000Y-65405000D02*
X155067000Y-62103000D01*
X168296790Y-62103000D02*
X168656000Y-62103000D01*
X155067000Y-62103000D02*
X168296790Y-62103000D01*
X191746250Y-85748750D02*
X191158750Y-85748750D01*
X191158750Y-85748750D02*
X190500000Y-85090000D01*
X120015000Y-57150000D02*
X120650000Y-56515000D01*
X120650000Y-56515000D02*
X136677421Y-56515000D01*
X136677421Y-56515000D02*
X136906001Y-56286420D01*
X136906001Y-56286420D02*
X137160000Y-56032421D01*
X126365000Y-55245000D02*
X127000000Y-55880000D01*
X127000000Y-55880000D02*
X135890000Y-55880000D01*
X139239615Y-55245000D02*
X139392005Y-55397390D01*
X135890000Y-55880000D02*
X136525000Y-55245000D01*
X136525000Y-55245000D02*
X139239615Y-55245000D01*
X139392005Y-55397390D02*
X139646004Y-55651389D01*
X121539897Y-56184811D02*
X121514042Y-56158956D01*
X136220189Y-56184811D02*
X121539897Y-56184811D01*
X136855189Y-55549811D02*
X136220189Y-56184811D01*
X138453757Y-55903757D02*
X138099811Y-55549811D01*
X121514042Y-56158956D02*
X121260043Y-55904957D01*
X138099811Y-55549811D02*
X136855189Y-55549811D01*
X177800000Y-107950000D02*
X179070000Y-109220000D01*
X186055000Y-109220000D02*
X187960000Y-107315000D01*
X179070000Y-109220000D02*
X186055000Y-109220000D01*
X187960000Y-107315000D02*
X187960000Y-100584000D01*
X187960000Y-100584000D02*
X192024000Y-96520000D01*
X192024000Y-96520000D02*
X193675000Y-96520000D01*
X200660000Y-105410000D02*
X197612000Y-102362000D01*
X197612000Y-102362000D02*
X197612000Y-102108000D01*
X201930000Y-106680000D02*
X201930000Y-104140000D01*
X198987198Y-102108000D02*
X198627988Y-102108000D01*
X199898000Y-102108000D02*
X198987198Y-102108000D01*
X200660000Y-107950000D02*
X201930000Y-106680000D01*
X201930000Y-104140000D02*
X199898000Y-102108000D01*
X203200000Y-105410000D02*
X203200000Y-104140000D01*
X203200000Y-104140000D02*
X201421999Y-102361999D01*
X201421999Y-102361999D02*
X201168000Y-102108000D01*
X203200000Y-107950000D02*
X204470000Y-106680000D01*
X204470000Y-106680000D02*
X204470000Y-103886000D01*
X204470000Y-103886000D02*
X202945999Y-102361999D01*
X202945999Y-102361999D02*
X202692000Y-102108000D01*
X196468999Y-84835999D02*
X196215000Y-84582000D01*
X196723000Y-89408000D02*
X196723000Y-85090000D01*
X196723000Y-85090000D02*
X196468999Y-84835999D01*
X184509210Y-43434000D02*
X184150000Y-43434000D01*
X184610250Y-43434000D02*
X184509210Y-43434000D01*
X185394601Y-44218351D02*
X184610250Y-43434000D01*
X185394601Y-57886601D02*
X185394601Y-44218351D01*
X190246000Y-62738000D02*
X185394601Y-57886601D01*
X185420000Y-101092000D02*
X190982607Y-95529393D01*
X190982607Y-95529393D02*
X190982607Y-92986357D01*
X190245991Y-92249741D02*
X190245991Y-91185999D01*
X185420000Y-105410000D02*
X185420000Y-101092000D01*
X190982607Y-92986357D02*
X190245991Y-92249741D01*
X190245991Y-91185999D02*
X190499990Y-90932000D01*
X185420000Y-107950000D02*
X186497630Y-107950000D01*
X191516000Y-92710000D02*
X191007999Y-92201999D01*
X186497630Y-107950000D02*
X187198000Y-107249630D01*
X187198000Y-107249630D02*
X187198000Y-100584000D01*
X191516000Y-96266000D02*
X191516000Y-92710000D01*
X187198000Y-100584000D02*
X191516000Y-96266000D01*
X191007999Y-92201999D02*
X190754000Y-91948000D01*
X182880000Y-105410000D02*
X182880000Y-98345750D01*
X187499758Y-93725992D02*
X189886790Y-93725992D01*
X182880000Y-98345750D02*
X187499758Y-93725992D01*
X189886790Y-93725992D02*
X190246000Y-93725992D01*
X186690000Y-95250000D02*
X184150000Y-97790000D01*
X184150000Y-106680000D02*
X183641999Y-107188001D01*
X183641999Y-107188001D02*
X182880000Y-107950000D01*
X184150000Y-97790000D02*
X184150000Y-106680000D01*
X184658000Y-98044000D02*
X186182000Y-96520000D01*
X186690000Y-97155000D02*
X184785000Y-99060000D01*
X184785000Y-99060000D02*
X184785000Y-99695000D01*
X185674000Y-99441000D02*
X185674000Y-99462786D01*
X187325000Y-97790000D02*
X185674000Y-99441000D01*
X185674000Y-99462786D02*
X185674000Y-99821996D01*
X205740000Y-105410000D02*
X205740000Y-101092000D01*
X205740000Y-101092000D02*
X202945999Y-98297999D01*
X202945999Y-98297999D02*
X202692000Y-98044000D01*
X175895000Y-94615000D02*
X181483000Y-89027000D01*
X181483000Y-89027000D02*
X193421000Y-89027000D01*
X193421000Y-89027000D02*
X196342001Y-91948001D01*
X196342001Y-91948001D02*
X196596000Y-92202000D01*
X120015000Y-59715403D02*
X124564653Y-59715403D01*
X124564653Y-59715403D02*
X127025378Y-62176128D01*
X127025378Y-80670378D02*
X130175000Y-83820000D01*
X127025378Y-62176128D02*
X127025378Y-80670378D01*
X130175000Y-83820000D02*
X133350000Y-83820000D01*
X120015000Y-59055000D02*
X124460000Y-59055000D01*
X132272370Y-81280000D02*
X133350000Y-81280000D01*
X127330189Y-61925189D02*
X127330189Y-79705189D01*
X124460000Y-59055000D02*
X127330189Y-61925189D01*
X128905000Y-81280000D02*
X132272370Y-81280000D01*
X127330189Y-79705189D02*
X128905000Y-81280000D01*
X114935008Y-59054992D02*
X114935000Y-59054992D01*
X116205000Y-57785000D02*
X114935008Y-59054992D01*
X118371658Y-62484000D02*
X116205000Y-64650658D01*
X118364000Y-55118000D02*
X118364000Y-62476342D01*
X118364000Y-62476342D02*
X118371658Y-62484000D01*
X115570000Y-66040000D02*
X115570000Y-65285658D01*
X115570000Y-65285658D02*
X116205000Y-64650658D01*
X112395000Y-67945000D02*
X116205014Y-67945000D01*
X116205014Y-67945000D02*
X122936008Y-61214006D01*
X122936008Y-61214006D02*
X123190007Y-60960007D01*
X104140000Y-67945000D02*
X112395000Y-67945000D01*
X133350000Y-41910000D02*
X136398000Y-41910000D01*
X129666999Y-46989999D02*
X129413000Y-46736000D01*
X130556000Y-47879000D02*
X129666999Y-46989999D01*
X130556000Y-52832000D02*
X130556000Y-47879000D01*
X136397996Y-44450000D02*
X136398000Y-44450004D01*
X133350000Y-44450000D02*
X136397996Y-44450000D01*
X129540000Y-48895000D02*
X129540000Y-52857390D01*
X133350000Y-46990000D02*
X136398000Y-46990000D01*
X133350000Y-49530000D02*
X136398000Y-49530000D01*
X133350000Y-52070000D02*
X136398000Y-52070000D01*
X104140000Y-65405000D02*
X113030000Y-65405000D01*
X113030000Y-65405000D02*
X113411001Y-65786001D01*
X113411001Y-65786001D02*
X113665000Y-66040000D01*
X191770000Y-50800000D02*
X193293970Y-50800000D01*
D10*
G36*
X172547509Y-31210452D02*
X172402500Y-31560536D01*
X172402500Y-31939464D01*
X172547509Y-32289548D01*
X172642961Y-32385000D01*
X172547509Y-32480452D01*
X172402500Y-32830536D01*
X172402500Y-33209464D01*
X172547509Y-33559548D01*
X172815452Y-33827491D01*
X173165536Y-33972500D01*
X173544464Y-33972500D01*
X173851070Y-33845500D01*
X188098930Y-33845500D01*
X188405536Y-33972500D01*
X188784464Y-33972500D01*
X189134548Y-33827491D01*
X189402491Y-33559548D01*
X189547500Y-33209464D01*
X189547500Y-32830536D01*
X189402491Y-32480452D01*
X189307039Y-32385000D01*
X189402491Y-32289548D01*
X189547500Y-31939464D01*
X189547500Y-31560536D01*
X189402491Y-31210452D01*
X189319039Y-31127000D01*
X207555961Y-31127000D01*
X207472509Y-31210452D01*
X207327500Y-31560536D01*
X207327500Y-31939464D01*
X207472509Y-32289548D01*
X207740452Y-32557491D01*
X208026518Y-32675983D01*
X207962500Y-32830536D01*
X207962500Y-33209464D01*
X208107509Y-33559548D01*
X208375452Y-33827491D01*
X208725536Y-33972500D01*
X209104464Y-33972500D01*
X209411070Y-33845500D01*
X219368068Y-33845500D01*
X220789501Y-35266934D01*
X220789500Y-37973000D01*
X219660039Y-37973000D01*
X219614548Y-37927509D01*
X219264464Y-37782500D01*
X218885536Y-37782500D01*
X218535452Y-37927509D01*
X218267509Y-38195452D01*
X218122500Y-38545536D01*
X218122500Y-38924464D01*
X218267509Y-39274548D01*
X218535452Y-39542491D01*
X218885536Y-39687500D01*
X219264464Y-39687500D01*
X219614548Y-39542491D01*
X219660039Y-39497000D01*
X220789501Y-39497000D01*
X220789500Y-46493930D01*
X220662500Y-46800536D01*
X220662500Y-47179464D01*
X220807509Y-47529548D01*
X221075452Y-47797491D01*
X221425536Y-47942500D01*
X221804464Y-47942500D01*
X222154548Y-47797491D01*
X222250000Y-47702039D01*
X222345452Y-47797491D01*
X222695536Y-47942500D01*
X223074464Y-47942500D01*
X223424548Y-47797491D01*
X223692491Y-47529548D01*
X223837500Y-47179464D01*
X223837500Y-46800536D01*
X223710500Y-46493930D01*
X223710500Y-34371297D01*
X223726671Y-34289999D01*
X223710500Y-34208701D01*
X223710500Y-34208697D01*
X223662604Y-33967906D01*
X223580815Y-33845500D01*
X223526206Y-33763772D01*
X223526205Y-33763771D01*
X223480152Y-33694848D01*
X223411229Y-33648795D01*
X220986209Y-31223777D01*
X220940152Y-31154848D01*
X220898475Y-31127000D01*
X223873000Y-31127000D01*
X223873000Y-116873000D01*
X114801952Y-116873000D01*
X114801952Y-114592100D01*
X101127000Y-114592100D01*
X101127000Y-108930213D01*
X171919392Y-108930213D01*
X171988857Y-109172397D01*
X172512302Y-109359144D01*
X173067368Y-109331362D01*
X173451143Y-109172397D01*
X173520608Y-108930213D01*
X172720000Y-108129605D01*
X171919392Y-108930213D01*
X101127000Y-108930213D01*
X101127000Y-107742302D01*
X171310856Y-107742302D01*
X171338638Y-108297368D01*
X171497603Y-108681143D01*
X171739787Y-108750608D01*
X172540395Y-107950000D01*
X171739787Y-107149392D01*
X171497603Y-107218857D01*
X171310856Y-107742302D01*
X101127000Y-107742302D01*
X101127000Y-106390213D01*
X171919392Y-106390213D01*
X171988857Y-106632397D01*
X172112344Y-106676453D01*
X171988857Y-106727603D01*
X171919392Y-106969787D01*
X172720000Y-107770395D01*
X173520608Y-106969787D01*
X173451143Y-106727603D01*
X173327656Y-106683547D01*
X173451143Y-106632397D01*
X173520608Y-106390213D01*
X172720000Y-105589605D01*
X171919392Y-106390213D01*
X101127000Y-106390213D01*
X101127000Y-105202302D01*
X171310856Y-105202302D01*
X171338638Y-105757368D01*
X171497603Y-106141143D01*
X171739787Y-106210608D01*
X172540395Y-105410000D01*
X172899605Y-105410000D01*
X173700213Y-106210608D01*
X173942397Y-106141143D01*
X173992535Y-106000607D01*
X174075680Y-106201337D01*
X174468663Y-106594320D01*
X174675513Y-106680000D01*
X174468663Y-106765680D01*
X174075680Y-107158663D01*
X173996572Y-107349647D01*
X173942397Y-107218857D01*
X173700213Y-107149392D01*
X172899605Y-107950000D01*
X173700213Y-108750608D01*
X173942397Y-108681143D01*
X173992535Y-108540607D01*
X174075680Y-108741337D01*
X174468663Y-109134320D01*
X174982119Y-109347000D01*
X175489568Y-109347000D01*
X180333793Y-114191226D01*
X180379848Y-114260152D01*
X180448773Y-114306206D01*
X180652906Y-114442604D01*
X180975000Y-114506672D01*
X181056303Y-114490500D01*
X192323699Y-114490500D01*
X192405000Y-114506672D01*
X192486301Y-114490500D01*
X192486303Y-114490500D01*
X192727094Y-114442604D01*
X193000152Y-114260152D01*
X193046209Y-114191223D01*
X197890433Y-109347000D01*
X198397881Y-109347000D01*
X198911337Y-109134320D01*
X199304320Y-108741337D01*
X199390000Y-108534487D01*
X199475680Y-108741337D01*
X199868663Y-109134320D01*
X200382119Y-109347000D01*
X200937881Y-109347000D01*
X201451337Y-109134320D01*
X201844320Y-108741337D01*
X201930000Y-108534487D01*
X202015680Y-108741337D01*
X202408663Y-109134320D01*
X202922119Y-109347000D01*
X203477881Y-109347000D01*
X203991337Y-109134320D01*
X204384320Y-108741337D01*
X204470000Y-108534487D01*
X204555680Y-108741337D01*
X204948663Y-109134320D01*
X205462119Y-109347000D01*
X206017881Y-109347000D01*
X206531337Y-109134320D01*
X206924320Y-108741337D01*
X207010000Y-108534487D01*
X207095680Y-108741337D01*
X207488663Y-109134320D01*
X208002119Y-109347000D01*
X208557881Y-109347000D01*
X209071337Y-109134320D01*
X209464320Y-108741337D01*
X209677000Y-108227881D01*
X209677000Y-107672119D01*
X209464320Y-107158663D01*
X209071337Y-106765680D01*
X208864487Y-106680000D01*
X209071337Y-106594320D01*
X209464320Y-106201337D01*
X209677000Y-105687881D01*
X209677000Y-105132119D01*
X209464320Y-104618663D01*
X209071337Y-104225680D01*
X208557881Y-104013000D01*
X208002119Y-104013000D01*
X207488663Y-104225680D01*
X207095680Y-104618663D01*
X207010000Y-104825513D01*
X206924320Y-104618663D01*
X206531337Y-104225680D01*
X206451200Y-104192486D01*
X206451200Y-103215213D01*
X213829392Y-103215213D01*
X213898857Y-103457397D01*
X214422302Y-103644144D01*
X214977368Y-103616362D01*
X215361143Y-103457397D01*
X215430608Y-103215213D01*
X214630000Y-102414605D01*
X213829392Y-103215213D01*
X206451200Y-103215213D01*
X206451200Y-102027302D01*
X213220856Y-102027302D01*
X213248638Y-102582368D01*
X213407603Y-102966143D01*
X213649787Y-103035608D01*
X214450395Y-102235000D01*
X214809605Y-102235000D01*
X215610213Y-103035608D01*
X215852397Y-102966143D01*
X216039144Y-102442698D01*
X216011362Y-101887632D01*
X215852397Y-101503857D01*
X215610213Y-101434392D01*
X214809605Y-102235000D01*
X214450395Y-102235000D01*
X213649787Y-101434392D01*
X213407603Y-101503857D01*
X213220856Y-102027302D01*
X206451200Y-102027302D01*
X206451200Y-101162041D01*
X206465132Y-101091999D01*
X206451200Y-101021957D01*
X206451200Y-101021954D01*
X206409936Y-100814504D01*
X206340774Y-100710996D01*
X206292424Y-100638635D01*
X206292422Y-100638633D01*
X206252746Y-100579254D01*
X206193367Y-100539578D01*
X203581000Y-97927212D01*
X203581000Y-97867167D01*
X203445658Y-97540422D01*
X203195578Y-97290342D01*
X202868833Y-97155000D01*
X202515167Y-97155000D01*
X202188422Y-97290342D01*
X201938342Y-97540422D01*
X201803000Y-97867167D01*
X201803000Y-98220833D01*
X201938342Y-98547578D01*
X202188422Y-98797658D01*
X202515167Y-98933000D01*
X202575212Y-98933000D01*
X205028801Y-101386590D01*
X205028800Y-103442178D01*
X205022424Y-103432635D01*
X205022422Y-103432633D01*
X204982746Y-103373254D01*
X204923367Y-103333578D01*
X203581000Y-101991212D01*
X203581000Y-101931167D01*
X203445658Y-101604422D01*
X203195578Y-101354342D01*
X202868833Y-101219000D01*
X202515167Y-101219000D01*
X202188422Y-101354342D01*
X201938342Y-101604422D01*
X201930000Y-101624561D01*
X201921658Y-101604422D01*
X201671578Y-101354342D01*
X201344833Y-101219000D01*
X200991167Y-101219000D01*
X200664422Y-101354342D01*
X200415859Y-101602905D01*
X200410746Y-101595254D01*
X200175496Y-101438064D01*
X199968046Y-101396800D01*
X199968041Y-101396800D01*
X199898000Y-101382868D01*
X199827959Y-101396800D01*
X199174024Y-101396800D01*
X199131566Y-101354342D01*
X198804821Y-101219000D01*
X198451155Y-101219000D01*
X198124410Y-101354342D01*
X198119994Y-101358758D01*
X198115578Y-101354342D01*
X197788833Y-101219000D01*
X197435167Y-101219000D01*
X197108422Y-101354342D01*
X196858342Y-101604422D01*
X196723000Y-101931167D01*
X196723000Y-102284833D01*
X196858342Y-102611578D01*
X197054437Y-102807673D01*
X197059576Y-102815364D01*
X197059578Y-102815366D01*
X197099254Y-102874745D01*
X197158634Y-102914422D01*
X198257212Y-104013000D01*
X197842119Y-104013000D01*
X197328663Y-104225680D01*
X196935680Y-104618663D01*
X196856572Y-104809647D01*
X196802397Y-104678857D01*
X196560213Y-104609392D01*
X195759605Y-105410000D01*
X196560213Y-106210608D01*
X196802397Y-106141143D01*
X196852535Y-106000607D01*
X196935680Y-106201337D01*
X197328663Y-106594320D01*
X197535513Y-106680000D01*
X197328663Y-106765680D01*
X196935680Y-107158663D01*
X196856572Y-107349647D01*
X196802397Y-107218857D01*
X196560213Y-107149392D01*
X195759605Y-107950000D01*
X195773748Y-107964143D01*
X195594143Y-108143748D01*
X195580000Y-108129605D01*
X194779392Y-108930213D01*
X194848857Y-109172397D01*
X195372302Y-109359144D01*
X195552439Y-109350128D01*
X192063068Y-112839500D01*
X181316933Y-112839500D01*
X177824432Y-109347000D01*
X178077881Y-109347000D01*
X178158018Y-109313806D01*
X178517578Y-109673367D01*
X178557254Y-109732746D01*
X178616633Y-109772422D01*
X178616635Y-109772424D01*
X178792502Y-109889935D01*
X178792503Y-109889935D01*
X178792504Y-109889936D01*
X178999954Y-109931200D01*
X178999957Y-109931200D01*
X179069999Y-109945132D01*
X179140041Y-109931200D01*
X185984959Y-109931200D01*
X186055000Y-109945132D01*
X186125041Y-109931200D01*
X186125046Y-109931200D01*
X186332496Y-109889936D01*
X186567746Y-109732746D01*
X186607424Y-109673364D01*
X187350575Y-108930213D01*
X188429392Y-108930213D01*
X188498857Y-109172397D01*
X189022302Y-109359144D01*
X189577368Y-109331362D01*
X189961143Y-109172397D01*
X190030608Y-108930213D01*
X189230000Y-108129605D01*
X188429392Y-108930213D01*
X187350575Y-108930213D01*
X187888115Y-108392674D01*
X188007603Y-108681143D01*
X188249787Y-108750608D01*
X189050395Y-107950000D01*
X189409605Y-107950000D01*
X190210213Y-108750608D01*
X190452397Y-108681143D01*
X190502535Y-108540607D01*
X190585680Y-108741337D01*
X190978663Y-109134320D01*
X191492119Y-109347000D01*
X192047881Y-109347000D01*
X192561337Y-109134320D01*
X192954320Y-108741337D01*
X193167000Y-108227881D01*
X193167000Y-107742302D01*
X194170856Y-107742302D01*
X194198638Y-108297368D01*
X194357603Y-108681143D01*
X194599787Y-108750608D01*
X195400395Y-107950000D01*
X194599787Y-107149392D01*
X194357603Y-107218857D01*
X194170856Y-107742302D01*
X193167000Y-107742302D01*
X193167000Y-107672119D01*
X192954320Y-107158663D01*
X192561337Y-106765680D01*
X192047881Y-106553000D01*
X191492119Y-106553000D01*
X190978663Y-106765680D01*
X190585680Y-107158663D01*
X190506572Y-107349647D01*
X190452397Y-107218857D01*
X190210213Y-107149392D01*
X189409605Y-107950000D01*
X189050395Y-107950000D01*
X189036253Y-107935858D01*
X189215858Y-107756253D01*
X189230000Y-107770395D01*
X190030608Y-106969787D01*
X189961143Y-106727603D01*
X189437698Y-106540856D01*
X188882632Y-106568638D01*
X188671200Y-106656216D01*
X188671200Y-106390213D01*
X194779392Y-106390213D01*
X194848857Y-106632397D01*
X194972344Y-106676453D01*
X194848857Y-106727603D01*
X194779392Y-106969787D01*
X195580000Y-107770395D01*
X196380608Y-106969787D01*
X196311143Y-106727603D01*
X196187656Y-106683547D01*
X196311143Y-106632397D01*
X196380608Y-106390213D01*
X195580000Y-105589605D01*
X194779392Y-106390213D01*
X188671200Y-106390213D01*
X188671200Y-105202302D01*
X194170856Y-105202302D01*
X194198638Y-105757368D01*
X194357603Y-106141143D01*
X194599787Y-106210608D01*
X195400395Y-105410000D01*
X194599787Y-104609392D01*
X194357603Y-104678857D01*
X194170856Y-105202302D01*
X188671200Y-105202302D01*
X188671200Y-104429787D01*
X194779392Y-104429787D01*
X195580000Y-105230395D01*
X196380608Y-104429787D01*
X196311143Y-104187603D01*
X195787698Y-104000856D01*
X195232632Y-104028638D01*
X194848857Y-104187603D01*
X194779392Y-104429787D01*
X188671200Y-104429787D01*
X188671200Y-100878588D01*
X192318589Y-97231200D01*
X193128964Y-97231200D01*
X193171422Y-97273658D01*
X193498167Y-97409000D01*
X193851833Y-97409000D01*
X194178578Y-97273658D01*
X194428658Y-97023578D01*
X194505304Y-96838536D01*
X206311500Y-96838536D01*
X206311500Y-97217464D01*
X206456509Y-97567548D01*
X206724452Y-97835491D01*
X207074536Y-97980500D01*
X207453464Y-97980500D01*
X207803548Y-97835491D01*
X208050184Y-97588855D01*
X208067371Y-97577371D01*
X208109883Y-97513747D01*
X208765749Y-96857882D01*
X208829371Y-96815371D01*
X208997788Y-96563317D01*
X209042000Y-96341048D01*
X209042000Y-96341047D01*
X209056928Y-96266000D01*
X209042000Y-96190953D01*
X209042000Y-89257119D01*
X213233000Y-89257119D01*
X213233000Y-89812881D01*
X213445680Y-90326337D01*
X213838663Y-90719320D01*
X214045513Y-90805000D01*
X213838663Y-90890680D01*
X213445680Y-91283663D01*
X213233000Y-91797119D01*
X213233000Y-92352881D01*
X213445680Y-92866337D01*
X213838663Y-93259320D01*
X214045513Y-93345000D01*
X213838663Y-93430680D01*
X213445680Y-93823663D01*
X213233000Y-94337119D01*
X213233000Y-94892881D01*
X213445680Y-95406337D01*
X213838663Y-95799320D01*
X214045513Y-95885000D01*
X213838663Y-95970680D01*
X213445680Y-96363663D01*
X213233000Y-96877119D01*
X213233000Y-97432881D01*
X213445680Y-97946337D01*
X213838663Y-98339320D01*
X214045513Y-98425000D01*
X213838663Y-98510680D01*
X213445680Y-98903663D01*
X213233000Y-99417119D01*
X213233000Y-99972881D01*
X213445680Y-100486337D01*
X213838663Y-100879320D01*
X214029647Y-100958428D01*
X213898857Y-101012603D01*
X213829392Y-101254787D01*
X214630000Y-102055395D01*
X215430608Y-101254787D01*
X215361143Y-101012603D01*
X215220607Y-100962465D01*
X215421337Y-100879320D01*
X215814320Y-100486337D01*
X216027000Y-99972881D01*
X216027000Y-99417119D01*
X215814320Y-98903663D01*
X215421337Y-98510680D01*
X215214487Y-98425000D01*
X215421337Y-98339320D01*
X215814320Y-97946337D01*
X216027000Y-97432881D01*
X216027000Y-96877119D01*
X215814320Y-96363663D01*
X215421337Y-95970680D01*
X215214487Y-95885000D01*
X215421337Y-95799320D01*
X215814320Y-95406337D01*
X216027000Y-94892881D01*
X216027000Y-94337119D01*
X215814320Y-93823663D01*
X215421337Y-93430680D01*
X215214487Y-93345000D01*
X215421337Y-93259320D01*
X215814320Y-92866337D01*
X216027000Y-92352881D01*
X216027000Y-91797119D01*
X215814320Y-91283663D01*
X215421337Y-90890680D01*
X215214487Y-90805000D01*
X215421337Y-90719320D01*
X215814320Y-90326337D01*
X216027000Y-89812881D01*
X216027000Y-89257119D01*
X215814320Y-88743663D01*
X215421337Y-88350680D01*
X214907881Y-88138000D01*
X214352119Y-88138000D01*
X213838663Y-88350680D01*
X213445680Y-88743663D01*
X213233000Y-89257119D01*
X209042000Y-89257119D01*
X209042000Y-88850039D01*
X209087491Y-88804548D01*
X209232500Y-88454464D01*
X209232500Y-88075536D01*
X209087491Y-87725452D01*
X208819548Y-87457509D01*
X208469464Y-87312500D01*
X208090536Y-87312500D01*
X207740452Y-87457509D01*
X207472509Y-87725452D01*
X207327500Y-88075536D01*
X207327500Y-88454464D01*
X207472509Y-88804548D01*
X207518000Y-88850039D01*
X207518001Y-95950368D01*
X207392869Y-96075500D01*
X207074536Y-96075500D01*
X206724452Y-96220509D01*
X206456509Y-96488452D01*
X206311500Y-96838536D01*
X194505304Y-96838536D01*
X194564000Y-96696833D01*
X194564000Y-96343167D01*
X194428658Y-96016422D01*
X194178578Y-95766342D01*
X193851833Y-95631000D01*
X193498167Y-95631000D01*
X193171422Y-95766342D01*
X193128964Y-95808800D01*
X192227200Y-95808800D01*
X192227200Y-92780042D01*
X192241132Y-92710000D01*
X192227200Y-92639958D01*
X192227200Y-92639954D01*
X192185936Y-92432504D01*
X192132733Y-92352881D01*
X192068424Y-92256635D01*
X192068422Y-92256633D01*
X192028746Y-92197254D01*
X191969366Y-92157578D01*
X191643000Y-91831212D01*
X191643000Y-91771167D01*
X191507658Y-91444422D01*
X191325455Y-91262219D01*
X191388990Y-91108833D01*
X191388990Y-90755167D01*
X191253648Y-90428422D01*
X191003568Y-90178342D01*
X190676823Y-90043000D01*
X190323157Y-90043000D01*
X189996412Y-90178342D01*
X189746332Y-90428422D01*
X189610990Y-90755167D01*
X189610990Y-90856220D01*
X189576056Y-90908503D01*
X189520859Y-91185999D01*
X189534792Y-91256045D01*
X189534791Y-92179699D01*
X189520859Y-92249741D01*
X189534791Y-92319782D01*
X189534791Y-92319786D01*
X189576055Y-92527236D01*
X189576056Y-92527237D01*
X189693567Y-92703105D01*
X189693569Y-92703107D01*
X189733245Y-92762486D01*
X189792624Y-92802163D01*
X189898250Y-92907788D01*
X189742422Y-92972334D01*
X189699964Y-93014792D01*
X187569799Y-93014792D01*
X187499757Y-93000860D01*
X187429715Y-93014792D01*
X187429712Y-93014792D01*
X187222262Y-93056056D01*
X187222261Y-93056057D01*
X187222260Y-93056057D01*
X187046393Y-93173568D01*
X187046391Y-93173570D01*
X186987012Y-93213246D01*
X186947336Y-93272625D01*
X182426634Y-97793328D01*
X182367255Y-97833004D01*
X182327579Y-97892383D01*
X182327576Y-97892386D01*
X182210065Y-98068254D01*
X182154868Y-98345750D01*
X182168801Y-98415796D01*
X182168800Y-104192486D01*
X182088663Y-104225680D01*
X181695680Y-104618663D01*
X181610000Y-104825513D01*
X181524320Y-104618663D01*
X181131337Y-104225680D01*
X180617881Y-104013000D01*
X180062119Y-104013000D01*
X179548663Y-104225680D01*
X179155680Y-104618663D01*
X179070000Y-104825513D01*
X178984320Y-104618663D01*
X178591337Y-104225680D01*
X178077881Y-104013000D01*
X177522119Y-104013000D01*
X177008663Y-104225680D01*
X176615680Y-104618663D01*
X176530000Y-104825513D01*
X176444320Y-104618663D01*
X176051337Y-104225680D01*
X175537881Y-104013000D01*
X174982119Y-104013000D01*
X174468663Y-104225680D01*
X174075680Y-104618663D01*
X173996572Y-104809647D01*
X173942397Y-104678857D01*
X173700213Y-104609392D01*
X172899605Y-105410000D01*
X172540395Y-105410000D01*
X171739787Y-104609392D01*
X171497603Y-104678857D01*
X171310856Y-105202302D01*
X101127000Y-105202302D01*
X101127000Y-104429787D01*
X171919392Y-104429787D01*
X172720000Y-105230395D01*
X173520608Y-104429787D01*
X173451143Y-104187603D01*
X172927698Y-104000856D01*
X172372632Y-104028638D01*
X171988857Y-104187603D01*
X171919392Y-104429787D01*
X101127000Y-104429787D01*
X101127000Y-103215213D01*
X175094392Y-103215213D01*
X175163857Y-103457397D01*
X175687302Y-103644144D01*
X176242368Y-103616362D01*
X176626143Y-103457397D01*
X176695608Y-103215213D01*
X175895000Y-102414605D01*
X175094392Y-103215213D01*
X101127000Y-103215213D01*
X101127000Y-102027302D01*
X174485856Y-102027302D01*
X174513638Y-102582368D01*
X174672603Y-102966143D01*
X174914787Y-103035608D01*
X175715395Y-102235000D01*
X176074605Y-102235000D01*
X176875213Y-103035608D01*
X177117397Y-102966143D01*
X177304144Y-102442698D01*
X177276362Y-101887632D01*
X177117397Y-101503857D01*
X176875213Y-101434392D01*
X176074605Y-102235000D01*
X175715395Y-102235000D01*
X174914787Y-101434392D01*
X174672603Y-101503857D01*
X174485856Y-102027302D01*
X101127000Y-102027302D01*
X101127000Y-89257119D01*
X174498000Y-89257119D01*
X174498000Y-89812881D01*
X174710680Y-90326337D01*
X175103663Y-90719320D01*
X175310513Y-90805000D01*
X175103663Y-90890680D01*
X174710680Y-91283663D01*
X174498000Y-91797119D01*
X174498000Y-92352881D01*
X174710680Y-92866337D01*
X175103663Y-93259320D01*
X175310513Y-93345000D01*
X175103663Y-93430680D01*
X174710680Y-93823663D01*
X174498000Y-94337119D01*
X174498000Y-94892881D01*
X174710680Y-95406337D01*
X175103663Y-95799320D01*
X175310513Y-95885000D01*
X175103663Y-95970680D01*
X174710680Y-96363663D01*
X174498000Y-96877119D01*
X174498000Y-97432881D01*
X174710680Y-97946337D01*
X175103663Y-98339320D01*
X175310513Y-98425000D01*
X175103663Y-98510680D01*
X174710680Y-98903663D01*
X174498000Y-99417119D01*
X174498000Y-99972881D01*
X174710680Y-100486337D01*
X175103663Y-100879320D01*
X175294647Y-100958428D01*
X175163857Y-101012603D01*
X175094392Y-101254787D01*
X175895000Y-102055395D01*
X176695608Y-101254787D01*
X176626143Y-101012603D01*
X176485607Y-100962465D01*
X176686337Y-100879320D01*
X177079320Y-100486337D01*
X177292000Y-99972881D01*
X177292000Y-99417119D01*
X177079320Y-98903663D01*
X176686337Y-98510680D01*
X176479487Y-98425000D01*
X176686337Y-98339320D01*
X177079320Y-97946337D01*
X177292000Y-97432881D01*
X177292000Y-96877119D01*
X177079320Y-96363663D01*
X176686337Y-95970680D01*
X176479487Y-95885000D01*
X176686337Y-95799320D01*
X177079320Y-95406337D01*
X177292000Y-94892881D01*
X177292000Y-94337119D01*
X177258806Y-94256982D01*
X181777589Y-89738200D01*
X193126412Y-89738200D01*
X195707000Y-92318789D01*
X195707000Y-92378833D01*
X195842342Y-92705578D01*
X196092422Y-92955658D01*
X196419167Y-93091000D01*
X196772833Y-93091000D01*
X197099578Y-92955658D01*
X197349658Y-92705578D01*
X197485000Y-92378833D01*
X197485000Y-92025167D01*
X197349658Y-91698422D01*
X197099578Y-91448342D01*
X196772833Y-91313000D01*
X196712789Y-91313000D01*
X193973424Y-88573636D01*
X193933746Y-88514254D01*
X193698496Y-88357064D01*
X193491046Y-88315800D01*
X193491041Y-88315800D01*
X193421000Y-88301868D01*
X193350959Y-88315800D01*
X181553041Y-88315800D01*
X181482999Y-88301868D01*
X181412957Y-88315800D01*
X181412954Y-88315800D01*
X181205504Y-88357064D01*
X181205503Y-88357065D01*
X181205502Y-88357065D01*
X181029635Y-88474576D01*
X181029633Y-88474578D01*
X180970254Y-88514254D01*
X180930578Y-88573633D01*
X177292000Y-92212212D01*
X177292000Y-91797119D01*
X177079320Y-91283663D01*
X176686337Y-90890680D01*
X176479487Y-90805000D01*
X176686337Y-90719320D01*
X177079320Y-90326337D01*
X177292000Y-89812881D01*
X177292000Y-89257119D01*
X177079320Y-88743663D01*
X176686337Y-88350680D01*
X176172881Y-88138000D01*
X175617119Y-88138000D01*
X175103663Y-88350680D01*
X174710680Y-88743663D01*
X174498000Y-89257119D01*
X101127000Y-89257119D01*
X101127000Y-87340213D01*
X132549392Y-87340213D01*
X132618857Y-87582397D01*
X133142302Y-87769144D01*
X133697368Y-87741362D01*
X134081143Y-87582397D01*
X134150608Y-87340213D01*
X156679392Y-87340213D01*
X156748857Y-87582397D01*
X157272302Y-87769144D01*
X157827368Y-87741362D01*
X158211143Y-87582397D01*
X158280608Y-87340213D01*
X157480000Y-86539605D01*
X156679392Y-87340213D01*
X134150608Y-87340213D01*
X133350000Y-86539605D01*
X132549392Y-87340213D01*
X101127000Y-87340213D01*
X101127000Y-86152302D01*
X131940856Y-86152302D01*
X131968638Y-86707368D01*
X132127603Y-87091143D01*
X132369787Y-87160608D01*
X133170395Y-86360000D01*
X133529605Y-86360000D01*
X134330213Y-87160608D01*
X134572397Y-87091143D01*
X134759144Y-86567698D01*
X134738353Y-86152302D01*
X156070856Y-86152302D01*
X156098638Y-86707368D01*
X156257603Y-87091143D01*
X156499787Y-87160608D01*
X157300395Y-86360000D01*
X157659605Y-86360000D01*
X158460213Y-87160608D01*
X158702397Y-87091143D01*
X158889144Y-86567698D01*
X158861362Y-86012632D01*
X158702397Y-85628857D01*
X158460213Y-85559392D01*
X157659605Y-86360000D01*
X157300395Y-86360000D01*
X156499787Y-85559392D01*
X156257603Y-85628857D01*
X156070856Y-86152302D01*
X134738353Y-86152302D01*
X134731362Y-86012632D01*
X134572397Y-85628857D01*
X134330213Y-85559392D01*
X133529605Y-86360000D01*
X133170395Y-86360000D01*
X132369787Y-85559392D01*
X132127603Y-85628857D01*
X131940856Y-86152302D01*
X101127000Y-86152302D01*
X101127000Y-82302532D01*
X114017073Y-82302532D01*
X114115736Y-82569387D01*
X114725461Y-82795908D01*
X115375460Y-82771856D01*
X115864264Y-82569387D01*
X115962927Y-82302532D01*
X120517073Y-82302532D01*
X120615736Y-82569387D01*
X121225461Y-82795908D01*
X121875460Y-82771856D01*
X122364264Y-82569387D01*
X122462927Y-82302532D01*
X121490000Y-81329605D01*
X120517073Y-82302532D01*
X115962927Y-82302532D01*
X114990000Y-81329605D01*
X114017073Y-82302532D01*
X101127000Y-82302532D01*
X101127000Y-80885461D01*
X113344092Y-80885461D01*
X113368144Y-81535460D01*
X113570613Y-82024264D01*
X113837468Y-82122927D01*
X114810395Y-81150000D01*
X115169605Y-81150000D01*
X116142532Y-82122927D01*
X116409387Y-82024264D01*
X116635908Y-81414539D01*
X116616331Y-80885461D01*
X119844092Y-80885461D01*
X119868144Y-81535460D01*
X120070613Y-82024264D01*
X120337468Y-82122927D01*
X121310395Y-81150000D01*
X121669605Y-81150000D01*
X122642532Y-82122927D01*
X122909387Y-82024264D01*
X123135908Y-81414539D01*
X123111856Y-80764540D01*
X122909387Y-80275736D01*
X122642532Y-80177073D01*
X121669605Y-81150000D01*
X121310395Y-81150000D01*
X120337468Y-80177073D01*
X120070613Y-80275736D01*
X119844092Y-80885461D01*
X116616331Y-80885461D01*
X116611856Y-80764540D01*
X116409387Y-80275736D01*
X116142532Y-80177073D01*
X115169605Y-81150000D01*
X114810395Y-81150000D01*
X113837468Y-80177073D01*
X113570613Y-80275736D01*
X113344092Y-80885461D01*
X101127000Y-80885461D01*
X101127000Y-79997468D01*
X114017073Y-79997468D01*
X114990000Y-80970395D01*
X115962927Y-79997468D01*
X120517073Y-79997468D01*
X121490000Y-80970395D01*
X122462927Y-79997468D01*
X122364264Y-79730613D01*
X121754539Y-79504092D01*
X121104540Y-79528144D01*
X120615736Y-79730613D01*
X120517073Y-79997468D01*
X115962927Y-79997468D01*
X115864264Y-79730613D01*
X115254539Y-79504092D01*
X114604540Y-79528144D01*
X114115736Y-79730613D01*
X114017073Y-79997468D01*
X101127000Y-79997468D01*
X101127000Y-75287119D01*
X102743000Y-75287119D01*
X102743000Y-75842881D01*
X102955680Y-76356337D01*
X103348663Y-76749320D01*
X103555513Y-76835000D01*
X103348663Y-76920680D01*
X102955680Y-77313663D01*
X102743000Y-77827119D01*
X102743000Y-78382881D01*
X102955680Y-78896337D01*
X103348663Y-79289320D01*
X103862119Y-79502000D01*
X104417881Y-79502000D01*
X104931337Y-79289320D01*
X105324320Y-78896337D01*
X105537000Y-78382881D01*
X105537000Y-77827119D01*
X105324320Y-77313663D01*
X104931337Y-76920680D01*
X104724487Y-76835000D01*
X104931337Y-76749320D01*
X105324320Y-76356337D01*
X105337392Y-76324778D01*
X113355000Y-76324778D01*
X113355000Y-76975222D01*
X113603914Y-77576153D01*
X114063847Y-78036086D01*
X114664778Y-78285000D01*
X115315222Y-78285000D01*
X115916153Y-78036086D01*
X116376086Y-77576153D01*
X116625000Y-76975222D01*
X116625000Y-76324778D01*
X119855000Y-76324778D01*
X119855000Y-76975222D01*
X120103914Y-77576153D01*
X120563847Y-78036086D01*
X121164778Y-78285000D01*
X121815222Y-78285000D01*
X122416153Y-78036086D01*
X122876086Y-77576153D01*
X123125000Y-76975222D01*
X123125000Y-76324778D01*
X122876086Y-75723847D01*
X122416153Y-75263914D01*
X121815222Y-75015000D01*
X121164778Y-75015000D01*
X120563847Y-75263914D01*
X120103914Y-75723847D01*
X119855000Y-76324778D01*
X116625000Y-76324778D01*
X116376086Y-75723847D01*
X115916153Y-75263914D01*
X115315222Y-75015000D01*
X114664778Y-75015000D01*
X114063847Y-75263914D01*
X113603914Y-75723847D01*
X113355000Y-76324778D01*
X105337392Y-76324778D01*
X105537000Y-75842881D01*
X105537000Y-75287119D01*
X105324320Y-74773663D01*
X104931337Y-74380680D01*
X104740353Y-74301572D01*
X104871143Y-74247397D01*
X104940608Y-74005213D01*
X104140000Y-73204605D01*
X103339392Y-74005213D01*
X103408857Y-74247397D01*
X103549393Y-74297535D01*
X103348663Y-74380680D01*
X102955680Y-74773663D01*
X102743000Y-75287119D01*
X101127000Y-75287119D01*
X101127000Y-72817302D01*
X102730856Y-72817302D01*
X102758638Y-73372368D01*
X102917603Y-73756143D01*
X103159787Y-73825608D01*
X103960395Y-73025000D01*
X104319605Y-73025000D01*
X105120213Y-73825608D01*
X105362397Y-73756143D01*
X105549144Y-73232698D01*
X105521362Y-72677632D01*
X105362397Y-72293857D01*
X105120213Y-72224392D01*
X104319605Y-73025000D01*
X103960395Y-73025000D01*
X103159787Y-72224392D01*
X102917603Y-72293857D01*
X102730856Y-72817302D01*
X101127000Y-72817302D01*
X101127000Y-65127119D01*
X102743000Y-65127119D01*
X102743000Y-65682881D01*
X102955680Y-66196337D01*
X103348663Y-66589320D01*
X103555513Y-66675000D01*
X103348663Y-66760680D01*
X102955680Y-67153663D01*
X102743000Y-67667119D01*
X102743000Y-68222881D01*
X102955680Y-68736337D01*
X103348663Y-69129320D01*
X103555513Y-69215000D01*
X103348663Y-69300680D01*
X102955680Y-69693663D01*
X102743000Y-70207119D01*
X102743000Y-70762881D01*
X102955680Y-71276337D01*
X103348663Y-71669320D01*
X103539647Y-71748428D01*
X103408857Y-71802603D01*
X103339392Y-72044787D01*
X104140000Y-72845395D01*
X104940608Y-72044787D01*
X104871143Y-71802603D01*
X104730607Y-71752465D01*
X104931337Y-71669320D01*
X105324320Y-71276337D01*
X105537000Y-70762881D01*
X105537000Y-70207119D01*
X105324320Y-69693663D01*
X104931337Y-69300680D01*
X104724487Y-69215000D01*
X104931337Y-69129320D01*
X105324320Y-68736337D01*
X105357514Y-68656200D01*
X116134973Y-68656200D01*
X116205014Y-68670132D01*
X116275055Y-68656200D01*
X116275060Y-68656200D01*
X116482510Y-68614936D01*
X116717760Y-68457746D01*
X116757438Y-68398364D01*
X123306796Y-61849007D01*
X123366840Y-61849007D01*
X123693585Y-61713665D01*
X123943665Y-61463585D01*
X124079007Y-61136840D01*
X124079007Y-60783174D01*
X123943665Y-60456429D01*
X123913839Y-60426603D01*
X124270065Y-60426603D01*
X126314178Y-62470717D01*
X126314179Y-80600332D01*
X126300246Y-80670378D01*
X126355443Y-80947874D01*
X126472954Y-81123742D01*
X126472957Y-81123745D01*
X126512633Y-81183124D01*
X126572012Y-81222800D01*
X129622578Y-84273367D01*
X129662254Y-84332746D01*
X129721633Y-84372422D01*
X129721635Y-84372424D01*
X129897502Y-84489935D01*
X129897503Y-84489935D01*
X129897504Y-84489936D01*
X130104954Y-84531200D01*
X130104957Y-84531200D01*
X130174999Y-84545132D01*
X130245041Y-84531200D01*
X132132486Y-84531200D01*
X132165680Y-84611337D01*
X132558663Y-85004320D01*
X132749647Y-85083428D01*
X132618857Y-85137603D01*
X132549392Y-85379787D01*
X133350000Y-86180395D01*
X134150608Y-85379787D01*
X134081143Y-85137603D01*
X133940607Y-85087465D01*
X134141337Y-85004320D01*
X134534320Y-84611337D01*
X134747000Y-84097881D01*
X134747000Y-83542119D01*
X134534320Y-83028663D01*
X134141337Y-82635680D01*
X133934487Y-82550000D01*
X134141337Y-82464320D01*
X134534320Y-82071337D01*
X134747000Y-81557881D01*
X134747000Y-81002119D01*
X134534320Y-80488663D01*
X134141337Y-80095680D01*
X133934487Y-80010000D01*
X134141337Y-79924320D01*
X134534320Y-79531337D01*
X134747000Y-79017881D01*
X134747000Y-78462119D01*
X156083000Y-78462119D01*
X156083000Y-79017881D01*
X156295680Y-79531337D01*
X156688663Y-79924320D01*
X156895513Y-80010000D01*
X156688663Y-80095680D01*
X156295680Y-80488663D01*
X156083000Y-81002119D01*
X156083000Y-81557881D01*
X156295680Y-82071337D01*
X156688663Y-82464320D01*
X156895513Y-82550000D01*
X156688663Y-82635680D01*
X156295680Y-83028663D01*
X156083000Y-83542119D01*
X156083000Y-84097881D01*
X156295680Y-84611337D01*
X156688663Y-85004320D01*
X156879647Y-85083428D01*
X156748857Y-85137603D01*
X156679392Y-85379787D01*
X157480000Y-86180395D01*
X158280608Y-85379787D01*
X158211143Y-85137603D01*
X158070607Y-85087465D01*
X158271337Y-85004320D01*
X158362490Y-84913167D01*
X189611000Y-84913167D01*
X189611000Y-85266833D01*
X189746342Y-85593578D01*
X189996422Y-85843658D01*
X190323167Y-85979000D01*
X190383211Y-85979000D01*
X190606328Y-86202117D01*
X190646004Y-86261496D01*
X190705383Y-86301172D01*
X190705385Y-86301174D01*
X190881252Y-86418685D01*
X190881253Y-86418685D01*
X190881254Y-86418686D01*
X191088704Y-86459950D01*
X191088707Y-86459950D01*
X191158749Y-86473882D01*
X191204955Y-86464691D01*
X191242672Y-86502408D01*
X191569417Y-86637750D01*
X191923083Y-86637750D01*
X192249828Y-86502408D01*
X192499908Y-86252328D01*
X192635250Y-85925583D01*
X192635250Y-85571917D01*
X192499908Y-85245172D01*
X192249828Y-84995092D01*
X191923083Y-84859750D01*
X191569417Y-84859750D01*
X191389000Y-84934481D01*
X191389000Y-84913167D01*
X191253658Y-84586422D01*
X191072403Y-84405167D01*
X195326000Y-84405167D01*
X195326000Y-84758833D01*
X195461342Y-85085578D01*
X195711422Y-85335658D01*
X196011801Y-85460079D01*
X196011800Y-88861964D01*
X195969342Y-88904422D01*
X195834000Y-89231167D01*
X195834000Y-89584833D01*
X195969342Y-89911578D01*
X196219422Y-90161658D01*
X196546167Y-90297000D01*
X196899833Y-90297000D01*
X197226578Y-90161658D01*
X197476658Y-89911578D01*
X197612000Y-89584833D01*
X197612000Y-89231167D01*
X197476658Y-88904422D01*
X197434200Y-88861964D01*
X197434200Y-85160042D01*
X197448132Y-85090000D01*
X197434200Y-85019959D01*
X197434200Y-85019954D01*
X197392936Y-84812504D01*
X197235746Y-84577254D01*
X197176364Y-84537576D01*
X197104000Y-84465212D01*
X197104000Y-84405167D01*
X196968658Y-84078422D01*
X196718578Y-83828342D01*
X196391833Y-83693000D01*
X196038167Y-83693000D01*
X195711422Y-83828342D01*
X195461342Y-84078422D01*
X195326000Y-84405167D01*
X191072403Y-84405167D01*
X191003578Y-84336342D01*
X190676833Y-84201000D01*
X190323167Y-84201000D01*
X189996422Y-84336342D01*
X189746342Y-84586422D01*
X189611000Y-84913167D01*
X158362490Y-84913167D01*
X158664320Y-84611337D01*
X158849110Y-84165213D01*
X171919392Y-84165213D01*
X171988857Y-84407397D01*
X172512302Y-84594144D01*
X173067368Y-84566362D01*
X173451143Y-84407397D01*
X173520608Y-84165213D01*
X172720000Y-83364605D01*
X171919392Y-84165213D01*
X158849110Y-84165213D01*
X158877000Y-84097881D01*
X158877000Y-83542119D01*
X158664320Y-83028663D01*
X158612959Y-82977302D01*
X171310856Y-82977302D01*
X171338638Y-83532368D01*
X171497603Y-83916143D01*
X171739787Y-83985608D01*
X172540395Y-83185000D01*
X172899605Y-83185000D01*
X173700213Y-83985608D01*
X173942397Y-83916143D01*
X173992535Y-83775607D01*
X174075680Y-83976337D01*
X174468663Y-84369320D01*
X174982119Y-84582000D01*
X175537881Y-84582000D01*
X176051337Y-84369320D01*
X176255444Y-84165213D01*
X176999392Y-84165213D01*
X177068857Y-84407397D01*
X177592302Y-84594144D01*
X178147368Y-84566362D01*
X178531143Y-84407397D01*
X178600608Y-84165213D01*
X182079392Y-84165213D01*
X182148857Y-84407397D01*
X182672302Y-84594144D01*
X183227368Y-84566362D01*
X183611143Y-84407397D01*
X183680608Y-84165213D01*
X182880000Y-83364605D01*
X182079392Y-84165213D01*
X178600608Y-84165213D01*
X177800000Y-83364605D01*
X176999392Y-84165213D01*
X176255444Y-84165213D01*
X176444320Y-83976337D01*
X176523428Y-83785353D01*
X176577603Y-83916143D01*
X176819787Y-83985608D01*
X177620395Y-83185000D01*
X177979605Y-83185000D01*
X178780213Y-83985608D01*
X179022397Y-83916143D01*
X179209144Y-83392698D01*
X179188353Y-82977302D01*
X181470856Y-82977302D01*
X181498638Y-83532368D01*
X181657603Y-83916143D01*
X181899787Y-83985608D01*
X182700395Y-83185000D01*
X183059605Y-83185000D01*
X183860213Y-83985608D01*
X184102397Y-83916143D01*
X184152535Y-83775607D01*
X184235680Y-83976337D01*
X184628663Y-84369320D01*
X185142119Y-84582000D01*
X185697881Y-84582000D01*
X186211337Y-84369320D01*
X186415444Y-84165213D01*
X187159392Y-84165213D01*
X187228857Y-84407397D01*
X187752302Y-84594144D01*
X188307368Y-84566362D01*
X188691143Y-84407397D01*
X188760608Y-84165213D01*
X187960000Y-83364605D01*
X187159392Y-84165213D01*
X186415444Y-84165213D01*
X186604320Y-83976337D01*
X186683428Y-83785353D01*
X186737603Y-83916143D01*
X186979787Y-83985608D01*
X187780395Y-83185000D01*
X188139605Y-83185000D01*
X188940213Y-83985608D01*
X189182397Y-83916143D01*
X189369144Y-83392698D01*
X189341362Y-82837632D01*
X189182397Y-82453857D01*
X188940213Y-82384392D01*
X188139605Y-83185000D01*
X187780395Y-83185000D01*
X186979787Y-82384392D01*
X186737603Y-82453857D01*
X186687465Y-82594393D01*
X186604320Y-82393663D01*
X186415444Y-82204787D01*
X187159392Y-82204787D01*
X187960000Y-83005395D01*
X188760608Y-82204787D01*
X188691143Y-81962603D01*
X188167698Y-81775856D01*
X187612632Y-81803638D01*
X187228857Y-81962603D01*
X187159392Y-82204787D01*
X186415444Y-82204787D01*
X186211337Y-82000680D01*
X185697881Y-81788000D01*
X185142119Y-81788000D01*
X184628663Y-82000680D01*
X184235680Y-82393663D01*
X184156572Y-82584647D01*
X184102397Y-82453857D01*
X183860213Y-82384392D01*
X183059605Y-83185000D01*
X182700395Y-83185000D01*
X181899787Y-82384392D01*
X181657603Y-82453857D01*
X181470856Y-82977302D01*
X179188353Y-82977302D01*
X179181362Y-82837632D01*
X179022397Y-82453857D01*
X178780213Y-82384392D01*
X177979605Y-83185000D01*
X177620395Y-83185000D01*
X176819787Y-82384392D01*
X176577603Y-82453857D01*
X176527465Y-82594393D01*
X176444320Y-82393663D01*
X176255444Y-82204787D01*
X176999392Y-82204787D01*
X177800000Y-83005395D01*
X178600608Y-82204787D01*
X182079392Y-82204787D01*
X182880000Y-83005395D01*
X183680608Y-82204787D01*
X183611143Y-81962603D01*
X183087698Y-81775856D01*
X182532632Y-81803638D01*
X182148857Y-81962603D01*
X182079392Y-82204787D01*
X178600608Y-82204787D01*
X178531143Y-81962603D01*
X178007698Y-81775856D01*
X177452632Y-81803638D01*
X177068857Y-81962603D01*
X176999392Y-82204787D01*
X176255444Y-82204787D01*
X176051337Y-82000680D01*
X175537881Y-81788000D01*
X174982119Y-81788000D01*
X174468663Y-82000680D01*
X174075680Y-82393663D01*
X173996572Y-82584647D01*
X173942397Y-82453857D01*
X173700213Y-82384392D01*
X172899605Y-83185000D01*
X172540395Y-83185000D01*
X171739787Y-82384392D01*
X171497603Y-82453857D01*
X171310856Y-82977302D01*
X158612959Y-82977302D01*
X158271337Y-82635680D01*
X158064487Y-82550000D01*
X158271337Y-82464320D01*
X158530870Y-82204787D01*
X171919392Y-82204787D01*
X172720000Y-83005395D01*
X173520608Y-82204787D01*
X173451143Y-81962603D01*
X172927698Y-81775856D01*
X172372632Y-81803638D01*
X171988857Y-81962603D01*
X171919392Y-82204787D01*
X158530870Y-82204787D01*
X158664320Y-82071337D01*
X158877000Y-81557881D01*
X158877000Y-81002119D01*
X158664320Y-80488663D01*
X158271337Y-80095680D01*
X158064487Y-80010000D01*
X158271337Y-79924320D01*
X158664320Y-79531337D01*
X158877000Y-79017881D01*
X158877000Y-78462119D01*
X158664320Y-77948663D01*
X158271337Y-77555680D01*
X157757881Y-77343000D01*
X157202119Y-77343000D01*
X156688663Y-77555680D01*
X156295680Y-77948663D01*
X156083000Y-78462119D01*
X134747000Y-78462119D01*
X134534320Y-77948663D01*
X134141337Y-77555680D01*
X133627881Y-77343000D01*
X133072119Y-77343000D01*
X132558663Y-77555680D01*
X132165680Y-77948663D01*
X131953000Y-78462119D01*
X131953000Y-79017881D01*
X132165680Y-79531337D01*
X132558663Y-79924320D01*
X132765513Y-80010000D01*
X132558663Y-80095680D01*
X132165680Y-80488663D01*
X132132486Y-80568800D01*
X129199589Y-80568800D01*
X128041389Y-79410601D01*
X128041389Y-65228167D01*
X150876000Y-65228167D01*
X150876000Y-65581833D01*
X151011342Y-65908578D01*
X151261422Y-66158658D01*
X151588167Y-66294000D01*
X151941833Y-66294000D01*
X152268578Y-66158658D01*
X152518658Y-65908578D01*
X152654000Y-65581833D01*
X152654000Y-65521788D01*
X155361589Y-62814200D01*
X163512564Y-62814200D01*
X163330342Y-62996422D01*
X163195000Y-63323167D01*
X163195000Y-63676833D01*
X163330342Y-64003578D01*
X163580422Y-64253658D01*
X163907167Y-64389000D01*
X163988964Y-64389000D01*
X164092342Y-64638578D01*
X164342422Y-64888658D01*
X164669167Y-65024000D01*
X165022833Y-65024000D01*
X165349578Y-64888658D01*
X165392036Y-64846200D01*
X176078967Y-64846200D01*
X176149008Y-64860132D01*
X176219049Y-64846200D01*
X176219054Y-64846200D01*
X176426504Y-64804936D01*
X176661754Y-64647746D01*
X176701432Y-64588364D01*
X177864347Y-63425450D01*
X183754907Y-63425450D01*
X183754907Y-63646476D01*
X183890249Y-63973221D01*
X183961704Y-64044676D01*
X183973971Y-64106348D01*
X183973972Y-64106349D01*
X184091483Y-64282217D01*
X184091485Y-64282219D01*
X184131161Y-64341598D01*
X184190541Y-64381275D01*
X184397630Y-64588364D01*
X184437308Y-64647746D01*
X184496690Y-64687424D01*
X184672556Y-64804935D01*
X184672557Y-64804935D01*
X184672558Y-64804936D01*
X184880008Y-64846200D01*
X184880011Y-64846200D01*
X184950053Y-64860132D01*
X185020095Y-64846200D01*
X187030412Y-64846200D01*
X187883801Y-65699590D01*
X187883800Y-73365411D01*
X186776412Y-74472800D01*
X185236042Y-74472800D01*
X185166000Y-74458868D01*
X185095958Y-74472800D01*
X185095954Y-74472800D01*
X184888504Y-74514064D01*
X184888502Y-74514065D01*
X184888503Y-74514065D01*
X184712635Y-74631576D01*
X184712633Y-74631578D01*
X184653254Y-74671254D01*
X184613578Y-74730633D01*
X183873018Y-75471194D01*
X183792881Y-75438000D01*
X183237119Y-75438000D01*
X182723663Y-75650680D01*
X182330680Y-76043663D01*
X182245000Y-76250513D01*
X182159320Y-76043663D01*
X181766337Y-75650680D01*
X181252881Y-75438000D01*
X180697119Y-75438000D01*
X180183663Y-75650680D01*
X179790680Y-76043663D01*
X179578000Y-76557119D01*
X179578000Y-77112881D01*
X179790680Y-77626337D01*
X180183663Y-78019320D01*
X180697119Y-78232000D01*
X181252881Y-78232000D01*
X181766337Y-78019320D01*
X182159320Y-77626337D01*
X182245000Y-77419487D01*
X182330680Y-77626337D01*
X182723663Y-78019320D01*
X183237119Y-78232000D01*
X183792881Y-78232000D01*
X184306337Y-78019320D01*
X184699320Y-77626337D01*
X184785000Y-77419487D01*
X184870680Y-77626337D01*
X185263663Y-78019320D01*
X185777119Y-78232000D01*
X186332881Y-78232000D01*
X186846337Y-78019320D01*
X187050444Y-77815213D01*
X187794392Y-77815213D01*
X187863857Y-78057397D01*
X188387302Y-78244144D01*
X188942368Y-78216362D01*
X189326143Y-78057397D01*
X189395608Y-77815213D01*
X188595000Y-77014605D01*
X187794392Y-77815213D01*
X187050444Y-77815213D01*
X187239320Y-77626337D01*
X187318428Y-77435353D01*
X187372603Y-77566143D01*
X187614787Y-77635608D01*
X188415395Y-76835000D01*
X188774605Y-76835000D01*
X189575213Y-77635608D01*
X189817397Y-77566143D01*
X190004144Y-77042698D01*
X189976362Y-76487632D01*
X189817397Y-76103857D01*
X189575213Y-76034392D01*
X188774605Y-76835000D01*
X188415395Y-76835000D01*
X188401253Y-76820858D01*
X188580858Y-76641253D01*
X188595000Y-76655395D01*
X189395608Y-75854787D01*
X189326143Y-75612603D01*
X188802698Y-75425856D01*
X188452400Y-75443389D01*
X189353180Y-74542609D01*
X189412556Y-74502935D01*
X189452231Y-74443558D01*
X189452235Y-74443554D01*
X189569746Y-74267687D01*
X189569746Y-74267686D01*
X189569747Y-74267685D01*
X189611011Y-74060235D01*
X189611011Y-74060232D01*
X189624943Y-73990190D01*
X189611011Y-73920148D01*
X189611011Y-73315773D01*
X189675536Y-73342500D01*
X189739869Y-73342500D01*
X189908118Y-73510749D01*
X189950629Y-73574371D01*
X190202683Y-73742788D01*
X190424952Y-73787000D01*
X190424953Y-73787000D01*
X190500000Y-73801928D01*
X190575047Y-73787000D01*
X194383528Y-73787000D01*
X194395680Y-73816337D01*
X194788663Y-74209320D01*
X195302119Y-74422000D01*
X195857881Y-74422000D01*
X196371337Y-74209320D01*
X196764320Y-73816337D01*
X196977000Y-73302881D01*
X196977000Y-72747119D01*
X196764320Y-72233663D01*
X196371337Y-71840680D01*
X196164487Y-71755000D01*
X196371337Y-71669320D01*
X196764320Y-71276337D01*
X196977000Y-70762881D01*
X196977000Y-70207119D01*
X196764320Y-69693663D01*
X196371337Y-69300680D01*
X196164487Y-69215000D01*
X196371337Y-69129320D01*
X196764320Y-68736337D01*
X196977000Y-68222881D01*
X196977000Y-67667119D01*
X196764320Y-67153663D01*
X196371337Y-66760680D01*
X196164487Y-66675000D01*
X196371337Y-66589320D01*
X196764320Y-66196337D01*
X196977000Y-65682881D01*
X196977000Y-65127119D01*
X196764320Y-64613663D01*
X196371337Y-64220680D01*
X196164487Y-64135000D01*
X196371337Y-64049320D01*
X196764320Y-63656337D01*
X196977000Y-63142881D01*
X196977000Y-62587119D01*
X199263000Y-62587119D01*
X199263000Y-63142881D01*
X199475680Y-63656337D01*
X199868663Y-64049320D01*
X200075513Y-64135000D01*
X199868663Y-64220680D01*
X199475680Y-64613663D01*
X199263000Y-65127119D01*
X199263000Y-65682881D01*
X199475680Y-66196337D01*
X199868663Y-66589320D01*
X200075513Y-66675000D01*
X199868663Y-66760680D01*
X199475680Y-67153663D01*
X199263000Y-67667119D01*
X199263000Y-68222881D01*
X199475680Y-68736337D01*
X199868663Y-69129320D01*
X200075513Y-69215000D01*
X199868663Y-69300680D01*
X199475680Y-69693663D01*
X199263000Y-70207119D01*
X199263000Y-70762881D01*
X199475680Y-71276337D01*
X199868663Y-71669320D01*
X200075513Y-71755000D01*
X199868663Y-71840680D01*
X199475680Y-72233663D01*
X199263000Y-72747119D01*
X199263000Y-73302881D01*
X199475680Y-73816337D01*
X199868663Y-74209320D01*
X200382119Y-74422000D01*
X200937881Y-74422000D01*
X201451337Y-74209320D01*
X201844320Y-73816337D01*
X202057000Y-73302881D01*
X202057000Y-72747119D01*
X201844320Y-72233663D01*
X201451337Y-71840680D01*
X201244487Y-71755000D01*
X201451337Y-71669320D01*
X201844320Y-71276337D01*
X202057000Y-70762881D01*
X202057000Y-70207119D01*
X201844320Y-69693663D01*
X201451337Y-69300680D01*
X201244487Y-69215000D01*
X201451337Y-69129320D01*
X201844320Y-68736337D01*
X201930119Y-68529200D01*
X202907964Y-68529200D01*
X202950422Y-68571658D01*
X203277167Y-68707000D01*
X203630833Y-68707000D01*
X203957578Y-68571658D01*
X204207658Y-68321578D01*
X204343000Y-67994833D01*
X204343000Y-67641167D01*
X204207658Y-67314422D01*
X203957578Y-67064342D01*
X203630833Y-66929000D01*
X203277167Y-66929000D01*
X202950422Y-67064342D01*
X202907964Y-67106800D01*
X201797457Y-67106800D01*
X201451337Y-66760680D01*
X201244487Y-66675000D01*
X201451337Y-66589320D01*
X201844320Y-66196337D01*
X202057000Y-65682881D01*
X202057000Y-65127119D01*
X201844320Y-64613663D01*
X201451337Y-64220680D01*
X201244487Y-64135000D01*
X201451337Y-64049320D01*
X201797457Y-63703200D01*
X202907964Y-63703200D01*
X202950422Y-63745658D01*
X203277167Y-63881000D01*
X203630833Y-63881000D01*
X203957578Y-63745658D01*
X204207658Y-63495578D01*
X204343000Y-63168833D01*
X204343000Y-62815167D01*
X204207658Y-62488422D01*
X203957578Y-62238342D01*
X203630833Y-62103000D01*
X203277167Y-62103000D01*
X202950422Y-62238342D01*
X202907964Y-62280800D01*
X201930119Y-62280800D01*
X201844320Y-62073663D01*
X201451337Y-61680680D01*
X201260353Y-61601572D01*
X201391143Y-61547397D01*
X201460608Y-61305213D01*
X200660000Y-60504605D01*
X199859392Y-61305213D01*
X199928857Y-61547397D01*
X200069393Y-61597535D01*
X199868663Y-61680680D01*
X199475680Y-62073663D01*
X199263000Y-62587119D01*
X196977000Y-62587119D01*
X196764320Y-62073663D01*
X196371337Y-61680680D01*
X196164487Y-61595000D01*
X196371337Y-61509320D01*
X196764320Y-61116337D01*
X196977000Y-60602881D01*
X196977000Y-60117302D01*
X199250856Y-60117302D01*
X199278638Y-60672368D01*
X199437603Y-61056143D01*
X199679787Y-61125608D01*
X200480395Y-60325000D01*
X200839605Y-60325000D01*
X201640213Y-61125608D01*
X201882397Y-61056143D01*
X202069144Y-60532698D01*
X202041362Y-59977632D01*
X201882397Y-59593857D01*
X201640213Y-59524392D01*
X200839605Y-60325000D01*
X200480395Y-60325000D01*
X199679787Y-59524392D01*
X199437603Y-59593857D01*
X199250856Y-60117302D01*
X196977000Y-60117302D01*
X196977000Y-60047119D01*
X196764320Y-59533663D01*
X196575444Y-59344787D01*
X199859392Y-59344787D01*
X200660000Y-60145395D01*
X201460608Y-59344787D01*
X201391143Y-59102603D01*
X200867698Y-58915856D01*
X200312632Y-58943638D01*
X199928857Y-59102603D01*
X199859392Y-59344787D01*
X196575444Y-59344787D01*
X196371337Y-59140680D01*
X196180353Y-59061572D01*
X196311143Y-59007397D01*
X196380608Y-58765213D01*
X195580000Y-57964605D01*
X194779392Y-58765213D01*
X194848857Y-59007397D01*
X194989393Y-59057535D01*
X194788663Y-59140680D01*
X194395680Y-59533663D01*
X194183000Y-60047119D01*
X194183000Y-60602881D01*
X194395680Y-61116337D01*
X194788663Y-61509320D01*
X194995513Y-61595000D01*
X194788663Y-61680680D01*
X194395680Y-62073663D01*
X194183000Y-62587119D01*
X194183000Y-63142881D01*
X194395680Y-63656337D01*
X194788663Y-64049320D01*
X194995513Y-64135000D01*
X194788663Y-64220680D01*
X194395680Y-64613663D01*
X194362486Y-64693800D01*
X190747075Y-64693800D01*
X184267959Y-58214685D01*
X184267959Y-58154640D01*
X184132617Y-57827895D01*
X183882537Y-57577815D01*
X183555792Y-57442473D01*
X183202126Y-57442473D01*
X183002719Y-57525070D01*
X183587369Y-56940420D01*
X183646745Y-56900746D01*
X183686420Y-56841369D01*
X183686424Y-56841365D01*
X183803935Y-56665497D01*
X183803936Y-56665496D01*
X183845200Y-56458046D01*
X183845200Y-56458042D01*
X183859132Y-56388000D01*
X183845200Y-56317958D01*
X183845200Y-55918036D01*
X183887658Y-55875578D01*
X184023000Y-55548833D01*
X184023000Y-55195167D01*
X183887658Y-54868422D01*
X183637578Y-54618342D01*
X183310833Y-54483000D01*
X182957167Y-54483000D01*
X182672715Y-54600824D01*
X184180531Y-53093008D01*
X184239907Y-53053334D01*
X184279582Y-52993957D01*
X184279586Y-52993953D01*
X184387799Y-52832001D01*
X184397098Y-52818084D01*
X184438362Y-52610634D01*
X184438362Y-52610630D01*
X184452294Y-52540588D01*
X184438362Y-52470546D01*
X184438362Y-46129210D01*
X184452294Y-46059168D01*
X184438362Y-45989126D01*
X184438362Y-45989122D01*
X184397098Y-45781672D01*
X184239908Y-45546422D01*
X184180526Y-45506744D01*
X184023000Y-45349218D01*
X184023000Y-45289173D01*
X183887658Y-44962428D01*
X183637578Y-44712348D01*
X183310833Y-44577006D01*
X183083186Y-44577006D01*
X183083186Y-43257167D01*
X183261000Y-43257167D01*
X183261000Y-43610833D01*
X183396342Y-43937578D01*
X183646422Y-44187658D01*
X183973167Y-44323000D01*
X184326833Y-44323000D01*
X184444657Y-44274196D01*
X184683402Y-44512941D01*
X184683401Y-57816560D01*
X184669469Y-57886601D01*
X184683401Y-57956642D01*
X184683401Y-57956646D01*
X184724665Y-58164096D01*
X184738642Y-58185014D01*
X184842177Y-58339965D01*
X184842179Y-58339967D01*
X184881855Y-58399346D01*
X184941235Y-58439023D01*
X189357000Y-62854789D01*
X189357000Y-62914833D01*
X189492342Y-63241578D01*
X189742422Y-63491658D01*
X190069167Y-63627000D01*
X190422833Y-63627000D01*
X190749578Y-63491658D01*
X190999658Y-63241578D01*
X191135000Y-62914833D01*
X191135000Y-62561167D01*
X190999658Y-62234422D01*
X190749578Y-61984342D01*
X190422833Y-61849000D01*
X190362789Y-61849000D01*
X188407956Y-59894167D01*
X189357000Y-59894167D01*
X189357000Y-60247833D01*
X189492342Y-60574578D01*
X189742422Y-60824658D01*
X190069167Y-60960000D01*
X190129212Y-60960000D01*
X190674338Y-61505127D01*
X190762338Y-61717578D01*
X191012418Y-61967658D01*
X191339163Y-62103000D01*
X191566800Y-62103000D01*
X191566801Y-63207963D01*
X191524342Y-63250422D01*
X191389000Y-63577167D01*
X191389000Y-63930833D01*
X191524342Y-64257578D01*
X191774422Y-64507658D01*
X192101167Y-64643000D01*
X192454833Y-64643000D01*
X192781578Y-64507658D01*
X193031658Y-64257578D01*
X193167000Y-63930833D01*
X193167000Y-63577167D01*
X193031658Y-63250422D01*
X192989200Y-63207964D01*
X192989200Y-60903041D01*
X193003132Y-60832999D01*
X192989200Y-60762955D01*
X192989200Y-60762954D01*
X192947936Y-60555504D01*
X192940292Y-60544064D01*
X192830424Y-60379635D01*
X192830420Y-60379631D01*
X192790745Y-60320254D01*
X192731369Y-60280580D01*
X191643000Y-59192212D01*
X191643000Y-59132167D01*
X191507658Y-58805422D01*
X191257578Y-58555342D01*
X190930833Y-58420000D01*
X190577167Y-58420000D01*
X190250422Y-58555342D01*
X190000342Y-58805422D01*
X189865000Y-59132167D01*
X189865000Y-59266569D01*
X189742422Y-59317342D01*
X189492342Y-59567422D01*
X189357000Y-59894167D01*
X188407956Y-59894167D01*
X186105801Y-57592013D01*
X186105801Y-53544404D01*
X188365195Y-53544404D01*
X188365195Y-53898070D01*
X188500537Y-54224815D01*
X188750617Y-54474895D01*
X189077362Y-54610237D01*
X189431028Y-54610237D01*
X189757773Y-54474895D01*
X190007853Y-54224815D01*
X190069252Y-54076585D01*
X190140428Y-54076585D01*
X190203565Y-54229010D01*
X190119000Y-54433167D01*
X190119000Y-54786833D01*
X190254342Y-55113578D01*
X190258772Y-55118008D01*
X190254342Y-55122438D01*
X190119000Y-55449183D01*
X190119000Y-55802849D01*
X190254342Y-56129594D01*
X190502330Y-56377582D01*
X190487452Y-56392459D01*
X190352110Y-56719204D01*
X190352110Y-57072870D01*
X190487452Y-57399615D01*
X190737532Y-57649695D01*
X191064277Y-57785037D01*
X191417943Y-57785037D01*
X191744688Y-57649695D01*
X191787146Y-57607237D01*
X192159952Y-57607237D01*
X192229993Y-57621169D01*
X192300034Y-57607237D01*
X192300039Y-57607237D01*
X192507489Y-57565973D01*
X192742739Y-57408783D01*
X192782417Y-57349401D01*
X193286619Y-56845200D01*
X194508956Y-56845200D01*
X194484774Y-56869382D01*
X194599785Y-56984393D01*
X194357603Y-57053857D01*
X194170856Y-57577302D01*
X194198638Y-58132368D01*
X194357603Y-58516143D01*
X194599787Y-58585608D01*
X195400395Y-57785000D01*
X195386253Y-57770858D01*
X195565858Y-57591253D01*
X195580000Y-57605395D01*
X195594143Y-57591253D01*
X195773748Y-57770858D01*
X195759605Y-57785000D01*
X196560213Y-58585608D01*
X196802397Y-58516143D01*
X196989144Y-57992698D01*
X196962471Y-57459778D01*
X209110000Y-57459778D01*
X209110000Y-58110222D01*
X209358914Y-58711153D01*
X209818847Y-59171086D01*
X210419778Y-59420000D01*
X211070222Y-59420000D01*
X211671153Y-59171086D01*
X212131086Y-58711153D01*
X212380000Y-58110222D01*
X212380000Y-57459778D01*
X215610000Y-57459778D01*
X215610000Y-58110222D01*
X215858914Y-58711153D01*
X216318847Y-59171086D01*
X216919778Y-59420000D01*
X217570222Y-59420000D01*
X218171153Y-59171086D01*
X218631086Y-58711153D01*
X218880000Y-58110222D01*
X218880000Y-57459778D01*
X218631086Y-56858847D01*
X218171153Y-56398914D01*
X217570222Y-56150000D01*
X216919778Y-56150000D01*
X216318847Y-56398914D01*
X215858914Y-56858847D01*
X215610000Y-57459778D01*
X212380000Y-57459778D01*
X212131086Y-56858847D01*
X211671153Y-56398914D01*
X211070222Y-56150000D01*
X210419778Y-56150000D01*
X209818847Y-56398914D01*
X209358914Y-56858847D01*
X209110000Y-57459778D01*
X196962471Y-57459778D01*
X196961362Y-57437632D01*
X196802397Y-57053857D01*
X196560215Y-56984393D01*
X196675226Y-56869382D01*
X196651044Y-56845200D01*
X197160959Y-56845200D01*
X197231000Y-56859132D01*
X197301041Y-56845200D01*
X197301046Y-56845200D01*
X197508496Y-56803936D01*
X197743746Y-56646746D01*
X197783424Y-56587364D01*
X199263000Y-55107788D01*
X199263000Y-55522881D01*
X199475680Y-56036337D01*
X199868663Y-56429320D01*
X200382119Y-56642000D01*
X200937881Y-56642000D01*
X201451337Y-56429320D01*
X201844320Y-56036337D01*
X202057000Y-55522881D01*
X202057000Y-54967119D01*
X201844320Y-54453663D01*
X201451337Y-54060680D01*
X201244487Y-53975000D01*
X201451337Y-53889320D01*
X201844320Y-53496337D01*
X202057000Y-52982881D01*
X202057000Y-52427119D01*
X201844320Y-51913663D01*
X201451337Y-51520680D01*
X201244487Y-51435000D01*
X201451337Y-51349320D01*
X201844320Y-50956337D01*
X202057000Y-50442881D01*
X202057000Y-49887119D01*
X201844320Y-49373663D01*
X201451337Y-48980680D01*
X201244487Y-48895000D01*
X201451337Y-48809320D01*
X201844320Y-48416337D01*
X202057000Y-47902881D01*
X202057000Y-47347119D01*
X201844320Y-46833663D01*
X201451337Y-46440680D01*
X201244487Y-46355000D01*
X201451337Y-46269320D01*
X201844320Y-45876337D01*
X202057000Y-45362881D01*
X202057000Y-44807119D01*
X201844320Y-44293663D01*
X201451337Y-43900680D01*
X201260353Y-43821572D01*
X201391143Y-43767397D01*
X201460608Y-43525213D01*
X200660000Y-42724605D01*
X199859392Y-43525213D01*
X199928857Y-43767397D01*
X200069393Y-43817535D01*
X199868663Y-43900680D01*
X199475680Y-44293663D01*
X199263000Y-44807119D01*
X199263000Y-45362881D01*
X199296194Y-45443018D01*
X197387233Y-47351979D01*
X197327853Y-47391656D01*
X197288177Y-47451035D01*
X197288175Y-47451037D01*
X197245257Y-47515269D01*
X197170663Y-47626906D01*
X197129399Y-47834356D01*
X197129399Y-47834360D01*
X197115467Y-47904401D01*
X197129399Y-47974443D01*
X197129400Y-52793613D01*
X195414647Y-54508367D01*
X194923562Y-54508367D01*
X194809658Y-54233379D01*
X194559578Y-53983299D01*
X194270257Y-53863459D01*
X194270257Y-53600288D01*
X194305578Y-53585658D01*
X194555658Y-53335578D01*
X194691000Y-53008833D01*
X194691000Y-52655167D01*
X194555658Y-52328422D01*
X194305578Y-52078342D01*
X194123201Y-52002799D01*
X194047658Y-51820422D01*
X193797578Y-51570342D01*
X193777424Y-51561994D01*
X193797548Y-51553658D01*
X194047628Y-51303578D01*
X194182970Y-50976833D01*
X194182970Y-50623167D01*
X194047628Y-50296422D01*
X193797548Y-50046342D01*
X193470803Y-49911000D01*
X193117137Y-49911000D01*
X192790392Y-50046342D01*
X192747934Y-50088800D01*
X192316036Y-50088800D01*
X192273578Y-50046342D01*
X191946833Y-49911000D01*
X191593167Y-49911000D01*
X191266422Y-50046342D01*
X191016342Y-50296422D01*
X190881000Y-50623167D01*
X190881000Y-50976833D01*
X190899796Y-51022211D01*
X190689703Y-51022211D01*
X190362958Y-51157553D01*
X190112878Y-51407633D01*
X189977536Y-51734378D01*
X189977536Y-52088044D01*
X190112878Y-52414789D01*
X190352274Y-52654185D01*
X189680089Y-52654185D01*
X189610047Y-52640253D01*
X189540005Y-52654185D01*
X189540001Y-52654185D01*
X189332551Y-52695449D01*
X189127835Y-52832237D01*
X189077362Y-52832237D01*
X188750617Y-52967579D01*
X188500537Y-53217659D01*
X188365195Y-53544404D01*
X186105801Y-53544404D01*
X186105801Y-44288393D01*
X186119733Y-44218351D01*
X186105801Y-44148309D01*
X186105801Y-44148305D01*
X186064537Y-43940855D01*
X186024334Y-43880687D01*
X185947025Y-43764986D01*
X185947023Y-43764984D01*
X185907347Y-43705605D01*
X185847968Y-43665929D01*
X185162674Y-42980636D01*
X185122996Y-42921254D01*
X184887746Y-42764064D01*
X184699944Y-42726708D01*
X184653578Y-42680342D01*
X184326833Y-42545000D01*
X183973167Y-42545000D01*
X183646422Y-42680342D01*
X183396342Y-42930422D01*
X183261000Y-43257167D01*
X183083186Y-43257167D01*
X183083186Y-42712602D01*
X183458486Y-42337302D01*
X199250856Y-42337302D01*
X199278638Y-42892368D01*
X199437603Y-43276143D01*
X199679787Y-43345608D01*
X200480395Y-42545000D01*
X200839605Y-42545000D01*
X201640213Y-43345608D01*
X201882397Y-43276143D01*
X202069144Y-42752698D01*
X202041362Y-42197632D01*
X201882397Y-41813857D01*
X201640213Y-41744392D01*
X200839605Y-42545000D01*
X200480395Y-42545000D01*
X199679787Y-41744392D01*
X199437603Y-41813857D01*
X199250856Y-42337302D01*
X183458486Y-42337302D01*
X189016575Y-36779214D01*
X198589964Y-36779214D01*
X198632422Y-36821672D01*
X198639845Y-36824747D01*
X198022211Y-37442381D01*
X197962831Y-37482058D01*
X197923155Y-37541437D01*
X197923153Y-37541439D01*
X197883787Y-37600355D01*
X197805641Y-37717308D01*
X197805302Y-37719010D01*
X197689142Y-37719010D01*
X197485000Y-37803568D01*
X197280833Y-37719000D01*
X196927167Y-37719000D01*
X196600422Y-37854342D01*
X196350342Y-38104422D01*
X196215000Y-38431167D01*
X196215000Y-38784833D01*
X196350342Y-39111578D01*
X196600422Y-39361658D01*
X196927167Y-39497000D01*
X196987212Y-39497000D01*
X198583578Y-41093367D01*
X198623254Y-41152746D01*
X198682633Y-41192422D01*
X198682635Y-41192424D01*
X198858502Y-41309935D01*
X198858503Y-41309935D01*
X198858504Y-41309936D01*
X199065954Y-41351200D01*
X199065957Y-41351200D01*
X199135999Y-41365132D01*
X199206041Y-41351200D01*
X199920655Y-41351200D01*
X199859392Y-41564787D01*
X200660000Y-42365395D01*
X201460608Y-41564787D01*
X201399345Y-41351200D01*
X204063692Y-41351200D01*
X206651680Y-43939189D01*
X206651680Y-43999233D01*
X206787022Y-44325978D01*
X207037102Y-44576058D01*
X207363847Y-44711400D01*
X207717513Y-44711400D01*
X208044258Y-44576058D01*
X208294338Y-44325978D01*
X208429680Y-43999233D01*
X208429680Y-43645567D01*
X208294338Y-43318822D01*
X208211376Y-43235860D01*
X208271658Y-43175578D01*
X208407000Y-42848833D01*
X208407000Y-42495167D01*
X208271658Y-42168422D01*
X208021578Y-41918342D01*
X207694833Y-41783000D01*
X207634789Y-41783000D01*
X205424988Y-39573200D01*
X206685959Y-39573200D01*
X206756000Y-39587132D01*
X206826041Y-39573200D01*
X206826046Y-39573200D01*
X207033496Y-39531936D01*
X207268746Y-39374746D01*
X207308425Y-39315363D01*
X207634788Y-38989000D01*
X207694833Y-38989000D01*
X208021578Y-38853658D01*
X208271658Y-38603578D01*
X208407000Y-38276833D01*
X208407000Y-37923167D01*
X208271658Y-37596422D01*
X208140241Y-37465005D01*
X208271658Y-37333588D01*
X208407000Y-37006843D01*
X208407000Y-36653177D01*
X208271658Y-36326432D01*
X208140227Y-36195001D01*
X208271650Y-36063578D01*
X208406992Y-35736833D01*
X208406992Y-35383167D01*
X208271650Y-35056422D01*
X208140232Y-34925004D01*
X208271658Y-34793578D01*
X208407000Y-34466833D01*
X208407000Y-34113167D01*
X208271658Y-33786422D01*
X208021578Y-33536342D01*
X207694833Y-33401000D01*
X207341167Y-33401000D01*
X207014422Y-33536342D01*
X206971964Y-33578800D01*
X202250422Y-33578800D01*
X202180380Y-33564868D01*
X202110338Y-33578800D01*
X202110334Y-33578800D01*
X201902884Y-33620064D01*
X201902882Y-33620065D01*
X201902883Y-33620065D01*
X201727015Y-33737576D01*
X201727013Y-33737578D01*
X201667634Y-33777254D01*
X201627958Y-33836633D01*
X199892733Y-35571859D01*
X199889658Y-35564436D01*
X199639578Y-35314356D01*
X199312833Y-35179014D01*
X198959167Y-35179014D01*
X198632422Y-35314356D01*
X198589964Y-35356814D01*
X188792027Y-35356814D01*
X188721985Y-35342882D01*
X188651943Y-35356814D01*
X188651940Y-35356814D01*
X188444490Y-35398078D01*
X188444489Y-35398079D01*
X188444488Y-35398079D01*
X188268621Y-35515590D01*
X188268619Y-35515592D01*
X188209240Y-35555268D01*
X188169564Y-35614647D01*
X181918620Y-41865592D01*
X181859240Y-41905269D01*
X181819564Y-41964648D01*
X181819562Y-41964650D01*
X181770996Y-42037334D01*
X181702050Y-42140519D01*
X181660786Y-42347969D01*
X181660786Y-42347973D01*
X181646854Y-42418014D01*
X181660786Y-42488056D01*
X181660787Y-44734031D01*
X181558392Y-44631636D01*
X181518714Y-44572254D01*
X181283464Y-44415064D01*
X181076014Y-44373800D01*
X181076009Y-44373800D01*
X181005968Y-44359868D01*
X180935927Y-44373800D01*
X165011036Y-44373800D01*
X164968578Y-44331342D01*
X164641833Y-44196000D01*
X164288167Y-44196000D01*
X163961422Y-44331342D01*
X163711342Y-44581422D01*
X163576000Y-44908167D01*
X163576000Y-45097699D01*
X159133488Y-45097699D01*
X158843806Y-44808018D01*
X158877000Y-44727881D01*
X158877000Y-44172119D01*
X158664320Y-43658663D01*
X158271337Y-43265680D01*
X158080353Y-43186572D01*
X158211143Y-43132397D01*
X158280608Y-42890213D01*
X157480000Y-42089605D01*
X156679392Y-42890213D01*
X156748857Y-43132397D01*
X156889393Y-43182535D01*
X156688663Y-43265680D01*
X156295680Y-43658663D01*
X156083000Y-44172119D01*
X156083000Y-44727881D01*
X156295680Y-45241337D01*
X156688663Y-45634320D01*
X156895513Y-45720000D01*
X156688663Y-45805680D01*
X156295680Y-46198663D01*
X156083000Y-46712119D01*
X156083000Y-47267881D01*
X156295680Y-47781337D01*
X156688663Y-48174320D01*
X156895513Y-48260000D01*
X156688663Y-48345680D01*
X156295680Y-48738663D01*
X156083000Y-49252119D01*
X156083000Y-49807881D01*
X156295680Y-50321337D01*
X156688663Y-50714320D01*
X156895513Y-50800000D01*
X156688663Y-50885680D01*
X156295680Y-51278663D01*
X156083000Y-51792119D01*
X156083000Y-52347881D01*
X156295680Y-52861337D01*
X156688663Y-53254320D01*
X156895513Y-53340000D01*
X156688663Y-53425680D01*
X156332487Y-53781856D01*
X155067000Y-52516370D01*
X155067000Y-46305039D01*
X155112491Y-46259548D01*
X155257500Y-45909464D01*
X155257500Y-45530536D01*
X155112491Y-45180452D01*
X154844548Y-44912509D01*
X154494464Y-44767500D01*
X154115536Y-44767500D01*
X153765452Y-44912509D01*
X153497509Y-45180452D01*
X153352500Y-45530536D01*
X153352500Y-45909464D01*
X153497509Y-46259548D01*
X153543000Y-46305039D01*
X153543001Y-52756952D01*
X153528073Y-52832000D01*
X153587213Y-53129317D01*
X153700009Y-53298128D01*
X153755630Y-53381371D01*
X153819251Y-53423881D01*
X155491118Y-55095749D01*
X155533629Y-55159371D01*
X155597251Y-55201882D01*
X155633309Y-55225975D01*
X155785683Y-55327788D01*
X156007952Y-55372000D01*
X156007953Y-55372000D01*
X156083000Y-55386928D01*
X156158047Y-55372000D01*
X156283528Y-55372000D01*
X156295680Y-55401337D01*
X156688663Y-55794320D01*
X157202119Y-56007000D01*
X157757881Y-56007000D01*
X158271337Y-55794320D01*
X158489490Y-55576167D01*
X161798000Y-55576167D01*
X161798000Y-55929833D01*
X161933342Y-56256578D01*
X162183422Y-56506658D01*
X162510167Y-56642000D01*
X162863833Y-56642000D01*
X163190578Y-56506658D01*
X163440658Y-56256578D01*
X163576000Y-55929833D01*
X163576000Y-55742788D01*
X164073789Y-55245000D01*
X164133833Y-55245000D01*
X164460578Y-55109658D01*
X164710658Y-54859578D01*
X164846000Y-54532833D01*
X164846000Y-54179167D01*
X164710658Y-53852422D01*
X164460578Y-53602342D01*
X164133833Y-53467000D01*
X163780167Y-53467000D01*
X163453422Y-53602342D01*
X163203342Y-53852422D01*
X163068000Y-54179167D01*
X163068000Y-54239211D01*
X162395867Y-54911344D01*
X162183422Y-54999342D01*
X161933342Y-55249422D01*
X161798000Y-55576167D01*
X158489490Y-55576167D01*
X158664320Y-55401337D01*
X158877000Y-54887881D01*
X158877000Y-54332119D01*
X158664320Y-53818663D01*
X158271337Y-53425680D01*
X158064487Y-53340000D01*
X158271337Y-53254320D01*
X158664320Y-52861337D01*
X158697514Y-52781200D01*
X169855959Y-52781200D01*
X169926000Y-52795132D01*
X169996041Y-52781200D01*
X169996046Y-52781200D01*
X170203496Y-52739936D01*
X170438746Y-52582746D01*
X170478424Y-52523364D01*
X174741789Y-48260000D01*
X174801833Y-48260000D01*
X175128578Y-48124658D01*
X175378658Y-47874578D01*
X175514000Y-47547833D01*
X175514000Y-47194167D01*
X175378658Y-46867422D01*
X175128578Y-46617342D01*
X174893812Y-46520099D01*
X175816311Y-46520099D01*
X176072800Y-46776589D01*
X176072801Y-47457411D01*
X175467033Y-48063179D01*
X175407653Y-48102856D01*
X175367977Y-48162235D01*
X175367975Y-48162237D01*
X175302652Y-48260000D01*
X175250463Y-48338106D01*
X175209199Y-48545556D01*
X175209199Y-48545560D01*
X175195267Y-48615601D01*
X175209199Y-48685642D01*
X175209200Y-55708353D01*
X175195267Y-55778399D01*
X175250464Y-56055895D01*
X175367975Y-56231763D01*
X175367978Y-56231766D01*
X175407654Y-56291145D01*
X175467033Y-56330821D01*
X175752791Y-56616579D01*
X171642493Y-56616579D01*
X171572451Y-56602647D01*
X171502409Y-56616579D01*
X171502405Y-56616579D01*
X171294955Y-56657843D01*
X171059705Y-56815033D01*
X171020027Y-56874415D01*
X170909541Y-56984901D01*
X167036940Y-56984901D01*
X166966898Y-56970969D01*
X166896856Y-56984901D01*
X166896853Y-56984901D01*
X166689403Y-57026165D01*
X166689402Y-57026166D01*
X166689401Y-57026166D01*
X166513534Y-57143677D01*
X166513532Y-57143679D01*
X166454153Y-57183355D01*
X166414477Y-57242734D01*
X165491212Y-58166000D01*
X165431167Y-58166000D01*
X165104422Y-58301342D01*
X164854342Y-58551422D01*
X164719000Y-58878167D01*
X164719000Y-59231833D01*
X164854342Y-59558578D01*
X165104422Y-59808658D01*
X165431167Y-59944000D01*
X165784833Y-59944000D01*
X165989000Y-59859431D01*
X166193167Y-59944000D01*
X166546833Y-59944000D01*
X166751000Y-59859431D01*
X166955167Y-59944000D01*
X167308833Y-59944000D01*
X167512998Y-59859432D01*
X167717163Y-59944000D01*
X168070829Y-59944000D01*
X168397574Y-59808658D01*
X168647654Y-59558578D01*
X168719469Y-59385200D01*
X171633959Y-59385200D01*
X171704000Y-59399132D01*
X171774041Y-59385200D01*
X171774046Y-59385200D01*
X171981496Y-59343936D01*
X172216746Y-59186746D01*
X172256424Y-59127364D01*
X172379588Y-59004200D01*
X177475959Y-59004200D01*
X177546000Y-59018132D01*
X177616041Y-59004200D01*
X177616046Y-59004200D01*
X177823496Y-58962936D01*
X178058746Y-58805746D01*
X178098424Y-58746364D01*
X179706276Y-57138512D01*
X179836422Y-57268658D01*
X180163167Y-57404000D01*
X180170569Y-57404000D01*
X180086000Y-57608167D01*
X180086000Y-57961833D01*
X180221342Y-58288578D01*
X180224488Y-58291724D01*
X175727412Y-62788800D01*
X169227436Y-62788800D01*
X169409658Y-62606578D01*
X169545000Y-62279833D01*
X169545000Y-61926167D01*
X169409658Y-61599422D01*
X169159578Y-61349342D01*
X168832833Y-61214000D01*
X168479167Y-61214000D01*
X168152422Y-61349342D01*
X168109964Y-61391800D01*
X160020000Y-61391800D01*
X160020000Y-61291167D01*
X159884658Y-60964422D01*
X159634578Y-60714342D01*
X159307833Y-60579000D01*
X158954167Y-60579000D01*
X158627422Y-60714342D01*
X158457964Y-60883800D01*
X152311058Y-60883800D01*
X152268600Y-60841342D01*
X151941855Y-60706000D01*
X151588189Y-60706000D01*
X151261444Y-60841342D01*
X151011364Y-61091422D01*
X150876022Y-61418167D01*
X150876022Y-61771833D01*
X151011364Y-62098578D01*
X151261444Y-62348658D01*
X151588189Y-62484000D01*
X151941855Y-62484000D01*
X152268600Y-62348658D01*
X152311058Y-62306200D01*
X153858011Y-62306200D01*
X151648212Y-64516000D01*
X151588167Y-64516000D01*
X151261422Y-64651342D01*
X151011342Y-64901422D01*
X150876000Y-65228167D01*
X128041389Y-65228167D01*
X128041389Y-61995230D01*
X128055321Y-61925188D01*
X128041389Y-61855144D01*
X128041389Y-61855143D01*
X128000125Y-61647693D01*
X127998214Y-61644833D01*
X127882613Y-61471824D01*
X127882609Y-61471820D01*
X127842934Y-61412443D01*
X127783558Y-61372769D01*
X125012424Y-58601636D01*
X124972746Y-58542254D01*
X124737496Y-58385064D01*
X124530046Y-58343800D01*
X124530041Y-58343800D01*
X124460000Y-58329868D01*
X124389959Y-58343800D01*
X120856065Y-58343800D01*
X120886956Y-58323159D01*
X120926634Y-58263777D01*
X121659402Y-57531010D01*
X142246149Y-57531010D01*
X142316190Y-57544942D01*
X142386231Y-57531010D01*
X142386236Y-57531010D01*
X142593686Y-57489746D01*
X142828936Y-57332556D01*
X142868614Y-57273174D01*
X143118788Y-57023000D01*
X143178833Y-57023000D01*
X143505578Y-56887658D01*
X143755658Y-56637578D01*
X143891000Y-56310833D01*
X143891000Y-55957167D01*
X143755658Y-55630422D01*
X143505578Y-55380342D01*
X143178833Y-55245000D01*
X142825167Y-55245000D01*
X142498422Y-55380342D01*
X142248342Y-55630422D01*
X142113000Y-55957167D01*
X142113000Y-56017212D01*
X142021602Y-56108610D01*
X140418864Y-56108610D01*
X140535004Y-55828222D01*
X140535004Y-55474556D01*
X140399662Y-55147811D01*
X140149582Y-54897731D01*
X139822837Y-54762389D01*
X139772497Y-54762389D01*
X139752361Y-54732254D01*
X139517111Y-54575064D01*
X139309661Y-54533800D01*
X139309656Y-54533800D01*
X139239615Y-54519868D01*
X139169574Y-54533800D01*
X136595042Y-54533800D01*
X136525000Y-54519868D01*
X136454958Y-54533800D01*
X136454954Y-54533800D01*
X136247504Y-54575064D01*
X136247502Y-54575065D01*
X136247503Y-54575065D01*
X136071635Y-54692576D01*
X136071633Y-54692578D01*
X136012254Y-54732254D01*
X135972578Y-54791633D01*
X135595412Y-55168800D01*
X134630640Y-55168800D01*
X134747000Y-54887881D01*
X134747000Y-54332119D01*
X134534320Y-53818663D01*
X134141337Y-53425680D01*
X133934487Y-53340000D01*
X134141337Y-53254320D01*
X134534320Y-52861337D01*
X134567514Y-52781200D01*
X135851964Y-52781200D01*
X135894422Y-52823658D01*
X136221167Y-52959000D01*
X136574833Y-52959000D01*
X136901578Y-52823658D01*
X137151658Y-52573578D01*
X137287000Y-52246833D01*
X137287000Y-51893167D01*
X137151658Y-51566422D01*
X136901578Y-51316342D01*
X136574833Y-51181000D01*
X136221167Y-51181000D01*
X135894422Y-51316342D01*
X135851964Y-51358800D01*
X134567514Y-51358800D01*
X134534320Y-51278663D01*
X134141337Y-50885680D01*
X133934487Y-50800000D01*
X134141337Y-50714320D01*
X134534320Y-50321337D01*
X134567514Y-50241200D01*
X135851964Y-50241200D01*
X135894422Y-50283658D01*
X136221167Y-50419000D01*
X136574833Y-50419000D01*
X136901578Y-50283658D01*
X137151658Y-50033578D01*
X137287000Y-49706833D01*
X137287000Y-49353167D01*
X137151658Y-49026422D01*
X136901578Y-48776342D01*
X136574833Y-48641000D01*
X136221167Y-48641000D01*
X135894422Y-48776342D01*
X135851964Y-48818800D01*
X134567514Y-48818800D01*
X134534320Y-48738663D01*
X134141337Y-48345680D01*
X133934487Y-48260000D01*
X134141337Y-48174320D01*
X134534320Y-47781337D01*
X134567514Y-47701200D01*
X135851964Y-47701200D01*
X135894422Y-47743658D01*
X136221167Y-47879000D01*
X136574833Y-47879000D01*
X136901578Y-47743658D01*
X137151658Y-47493578D01*
X137287000Y-47166833D01*
X137287000Y-46813167D01*
X137151658Y-46486422D01*
X136901578Y-46236342D01*
X136574833Y-46101000D01*
X136221167Y-46101000D01*
X135894422Y-46236342D01*
X135851964Y-46278800D01*
X134567514Y-46278800D01*
X134534320Y-46198663D01*
X134141337Y-45805680D01*
X133934487Y-45720000D01*
X134141337Y-45634320D01*
X134534320Y-45241337D01*
X134567514Y-45161200D01*
X135851960Y-45161200D01*
X135894422Y-45203662D01*
X136221167Y-45339004D01*
X136574833Y-45339004D01*
X136901578Y-45203662D01*
X137151658Y-44953582D01*
X137287000Y-44626837D01*
X137287000Y-44273171D01*
X137151658Y-43946426D01*
X136901578Y-43696346D01*
X136574833Y-43561004D01*
X136221167Y-43561004D01*
X135894422Y-43696346D01*
X135851968Y-43738800D01*
X134567514Y-43738800D01*
X134534320Y-43658663D01*
X134141337Y-43265680D01*
X133934487Y-43180000D01*
X134141337Y-43094320D01*
X134534320Y-42701337D01*
X134567514Y-42621200D01*
X135851964Y-42621200D01*
X135894422Y-42663658D01*
X136221167Y-42799000D01*
X136574833Y-42799000D01*
X136901578Y-42663658D01*
X137151658Y-42413578D01*
X137287000Y-42086833D01*
X137287000Y-41733167D01*
X137274216Y-41702302D01*
X156070856Y-41702302D01*
X156098638Y-42257368D01*
X156257603Y-42641143D01*
X156499787Y-42710608D01*
X157300395Y-41910000D01*
X157659605Y-41910000D01*
X158460213Y-42710608D01*
X158702397Y-42641143D01*
X158889144Y-42117698D01*
X158868709Y-41709417D01*
X178157250Y-41709417D01*
X178157250Y-42063083D01*
X178292592Y-42389828D01*
X178542672Y-42639908D01*
X178869417Y-42775250D01*
X178915486Y-42775250D01*
X178821080Y-43003167D01*
X178821080Y-43356833D01*
X178956422Y-43683578D01*
X179206502Y-43933658D01*
X179533247Y-44069000D01*
X179886913Y-44069000D01*
X180213658Y-43933658D01*
X180463738Y-43683578D01*
X180599080Y-43356833D01*
X180599080Y-43003167D01*
X180463738Y-42676422D01*
X180421280Y-42633964D01*
X180421280Y-42620121D01*
X180435212Y-42550079D01*
X180421280Y-42480035D01*
X180421280Y-42480034D01*
X180380016Y-42272584D01*
X180369849Y-42257368D01*
X180262504Y-42096715D01*
X180262500Y-42096711D01*
X180222825Y-42037334D01*
X180163449Y-41997660D01*
X179935250Y-41769461D01*
X179935250Y-41709417D01*
X179799908Y-41382672D01*
X179549828Y-41132592D01*
X179223083Y-40997250D01*
X178869417Y-40997250D01*
X178542672Y-41132592D01*
X178292592Y-41382672D01*
X178157250Y-41709417D01*
X158868709Y-41709417D01*
X158861362Y-41562632D01*
X158702397Y-41178857D01*
X158460213Y-41109392D01*
X157659605Y-41910000D01*
X157300395Y-41910000D01*
X156499787Y-41109392D01*
X156257603Y-41178857D01*
X156070856Y-41702302D01*
X137274216Y-41702302D01*
X137151658Y-41406422D01*
X136901578Y-41156342D01*
X136574833Y-41021000D01*
X136221167Y-41021000D01*
X135894422Y-41156342D01*
X135851964Y-41198800D01*
X134567514Y-41198800D01*
X134534320Y-41118663D01*
X134345444Y-40929787D01*
X156679392Y-40929787D01*
X157480000Y-41730395D01*
X158280608Y-40929787D01*
X158211143Y-40687603D01*
X157687698Y-40500856D01*
X157132632Y-40528638D01*
X156748857Y-40687603D01*
X156679392Y-40929787D01*
X134345444Y-40929787D01*
X134141337Y-40725680D01*
X133950353Y-40646572D01*
X134081143Y-40592397D01*
X134150608Y-40350213D01*
X133350000Y-39549605D01*
X132549392Y-40350213D01*
X132618857Y-40592397D01*
X132759393Y-40642535D01*
X132558663Y-40725680D01*
X132165680Y-41118663D01*
X131953000Y-41632119D01*
X131953000Y-42187881D01*
X132165680Y-42701337D01*
X132558663Y-43094320D01*
X132765513Y-43180000D01*
X132558663Y-43265680D01*
X132165680Y-43658663D01*
X131953000Y-44172119D01*
X131953000Y-44727881D01*
X132165680Y-45241337D01*
X132558663Y-45634320D01*
X132765513Y-45720000D01*
X132558663Y-45805680D01*
X132165680Y-46198663D01*
X131953000Y-46712119D01*
X131953000Y-47267881D01*
X132165680Y-47781337D01*
X132558663Y-48174320D01*
X132765513Y-48260000D01*
X132558663Y-48345680D01*
X132165680Y-48738663D01*
X131953000Y-49252119D01*
X131953000Y-49807881D01*
X132165680Y-50321337D01*
X132558663Y-50714320D01*
X132765513Y-50800000D01*
X132558663Y-50885680D01*
X132165680Y-51278663D01*
X131953000Y-51792119D01*
X131953000Y-52347881D01*
X132165680Y-52861337D01*
X132558663Y-53254320D01*
X132765513Y-53340000D01*
X132558663Y-53425680D01*
X132165680Y-53818663D01*
X131953000Y-54332119D01*
X131953000Y-54887881D01*
X132069360Y-55168800D01*
X127294589Y-55168800D01*
X127254000Y-55128211D01*
X127254000Y-55068167D01*
X127118658Y-54741422D01*
X126868578Y-54491342D01*
X126541833Y-54356000D01*
X126188167Y-54356000D01*
X125861422Y-54491342D01*
X125611342Y-54741422D01*
X125476000Y-55068167D01*
X125476000Y-55421833D01*
X125497447Y-55473611D01*
X122043620Y-55473611D01*
X122013701Y-55401379D01*
X121763621Y-55151299D01*
X121436876Y-55015957D01*
X121083210Y-55015957D01*
X120756465Y-55151299D01*
X120506385Y-55401379D01*
X120371043Y-55728124D01*
X120371043Y-55846040D01*
X120355383Y-55856504D01*
X120196635Y-55962576D01*
X120196633Y-55962578D01*
X120137254Y-56002254D01*
X120097578Y-56061633D01*
X119898211Y-56261000D01*
X119838167Y-56261000D01*
X119511422Y-56396342D01*
X119261342Y-56646422D01*
X119126000Y-56973167D01*
X119126000Y-57326833D01*
X119189529Y-57480206D01*
X119126000Y-57633580D01*
X119126000Y-57987246D01*
X119261342Y-58313991D01*
X119380058Y-58432707D01*
X119261342Y-58551422D01*
X119126000Y-58878167D01*
X119126000Y-59231833D01*
X119189527Y-59385201D01*
X119126000Y-59538570D01*
X119126000Y-59892236D01*
X119261342Y-60218981D01*
X119511422Y-60469061D01*
X119838167Y-60604403D01*
X120191833Y-60604403D01*
X120518578Y-60469061D01*
X120561036Y-60426603D01*
X122466175Y-60426603D01*
X122436349Y-60456429D01*
X122301007Y-60783174D01*
X122301007Y-60843218D01*
X115910426Y-67233800D01*
X105357514Y-67233800D01*
X105324320Y-67153663D01*
X104931337Y-66760680D01*
X104724487Y-66675000D01*
X104931337Y-66589320D01*
X105324320Y-66196337D01*
X105357514Y-66116200D01*
X112735412Y-66116200D01*
X112776000Y-66156788D01*
X112776000Y-66216833D01*
X112911342Y-66543578D01*
X113161422Y-66793658D01*
X113488167Y-66929000D01*
X113841833Y-66929000D01*
X114168578Y-66793658D01*
X114418658Y-66543578D01*
X114554000Y-66216833D01*
X114554000Y-65863167D01*
X114681000Y-65863167D01*
X114681000Y-66216833D01*
X114816342Y-66543578D01*
X115066422Y-66793658D01*
X115393167Y-66929000D01*
X115746833Y-66929000D01*
X116073578Y-66793658D01*
X116323658Y-66543578D01*
X116459000Y-66216833D01*
X116459000Y-65863167D01*
X116324058Y-65537388D01*
X116757424Y-65104023D01*
X116757426Y-65104020D01*
X118825026Y-63036421D01*
X118884404Y-62996746D01*
X118924079Y-62937368D01*
X118924082Y-62937365D01*
X119041593Y-62761498D01*
X119096790Y-62484001D01*
X119095520Y-62477613D01*
X119075200Y-62375458D01*
X119075200Y-55664036D01*
X119117658Y-55621578D01*
X119253000Y-55294833D01*
X119253000Y-54941167D01*
X119117658Y-54614422D01*
X118867578Y-54364342D01*
X118540833Y-54229000D01*
X118187167Y-54229000D01*
X117860422Y-54364342D01*
X117610342Y-54614422D01*
X117475000Y-54941167D01*
X117475000Y-55294833D01*
X117610342Y-55621578D01*
X117652800Y-55664036D01*
X117652801Y-62197068D01*
X115751638Y-64098232D01*
X115751635Y-64098234D01*
X115116634Y-64733236D01*
X115057255Y-64772912D01*
X115017579Y-64832291D01*
X115017576Y-64832294D01*
X114904685Y-65001247D01*
X114900065Y-65008162D01*
X114858800Y-65215612D01*
X114858800Y-65215617D01*
X114844868Y-65285658D01*
X114858800Y-65355699D01*
X114858800Y-65493964D01*
X114816342Y-65536422D01*
X114681000Y-65863167D01*
X114554000Y-65863167D01*
X114418658Y-65536422D01*
X114168578Y-65286342D01*
X113841833Y-65151000D01*
X113781788Y-65151000D01*
X113582423Y-64951635D01*
X113542746Y-64892254D01*
X113307496Y-64735064D01*
X113100046Y-64693800D01*
X113100041Y-64693800D01*
X113030000Y-64679868D01*
X112959959Y-64693800D01*
X105357514Y-64693800D01*
X105324320Y-64613663D01*
X104931337Y-64220680D01*
X104417881Y-64008000D01*
X103862119Y-64008000D01*
X103348663Y-64220680D01*
X102955680Y-64613663D01*
X102743000Y-65127119D01*
X101127000Y-65127119D01*
X101127000Y-58878159D01*
X114046000Y-58878159D01*
X114046000Y-59231825D01*
X114181342Y-59558570D01*
X114431422Y-59808650D01*
X114758167Y-59943992D01*
X115111833Y-59943992D01*
X115438578Y-59808650D01*
X115688658Y-59558570D01*
X115824000Y-59231825D01*
X115824000Y-59171788D01*
X116321789Y-58674000D01*
X116381833Y-58674000D01*
X116708578Y-58538658D01*
X116958658Y-58288578D01*
X117094000Y-57961833D01*
X117094000Y-57608167D01*
X116958658Y-57281422D01*
X116708578Y-57031342D01*
X116381833Y-56896000D01*
X116028167Y-56896000D01*
X115701422Y-57031342D01*
X115451342Y-57281422D01*
X115316000Y-57608167D01*
X115316000Y-57668211D01*
X114818220Y-58165992D01*
X114758167Y-58165992D01*
X114431422Y-58301334D01*
X114181342Y-58551414D01*
X114046000Y-58878159D01*
X101127000Y-58878159D01*
X101127000Y-46559167D01*
X128524000Y-46559167D01*
X128524000Y-46912833D01*
X128659342Y-47239578D01*
X128909422Y-47489658D01*
X129236167Y-47625000D01*
X129296212Y-47625000D01*
X129677211Y-48006000D01*
X129363167Y-48006000D01*
X129036422Y-48141342D01*
X128786342Y-48391422D01*
X128651000Y-48718167D01*
X128651000Y-49071833D01*
X128786342Y-49398578D01*
X128828800Y-49441036D01*
X128828801Y-52311353D01*
X128786342Y-52353812D01*
X128651000Y-52680557D01*
X128651000Y-53034223D01*
X128786342Y-53360968D01*
X129036422Y-53611048D01*
X129363167Y-53746390D01*
X129716833Y-53746390D01*
X130043578Y-53611048D01*
X130064122Y-53590504D01*
X130379167Y-53721000D01*
X130732833Y-53721000D01*
X131059578Y-53585658D01*
X131309658Y-53335578D01*
X131445000Y-53008833D01*
X131445000Y-52655167D01*
X131309658Y-52328422D01*
X131267200Y-52285964D01*
X131267200Y-47949041D01*
X131281132Y-47878999D01*
X131267200Y-47808957D01*
X131267200Y-47808954D01*
X131225936Y-47601504D01*
X131190074Y-47547833D01*
X131108424Y-47425635D01*
X131108422Y-47425633D01*
X131068746Y-47366254D01*
X131009367Y-47326578D01*
X130302000Y-46619212D01*
X130302000Y-46559167D01*
X130166658Y-46232422D01*
X129916578Y-45982342D01*
X129589833Y-45847000D01*
X129236167Y-45847000D01*
X128909422Y-45982342D01*
X128659342Y-46232422D01*
X128524000Y-46559167D01*
X101127000Y-46559167D01*
X101127000Y-39180536D01*
X103187500Y-39180536D01*
X103187500Y-39559464D01*
X103314501Y-39866072D01*
X103314500Y-41413929D01*
X103187500Y-41720536D01*
X103187500Y-42099464D01*
X103332509Y-42449548D01*
X103600452Y-42717491D01*
X103950536Y-42862500D01*
X104329464Y-42862500D01*
X104679548Y-42717491D01*
X104947491Y-42449548D01*
X105092500Y-42099464D01*
X105092500Y-41720536D01*
X104965500Y-41413930D01*
X104965500Y-39866070D01*
X105092500Y-39559464D01*
X105092500Y-39180536D01*
X105084948Y-39162302D01*
X131940856Y-39162302D01*
X131968638Y-39717368D01*
X132127603Y-40101143D01*
X132369787Y-40170608D01*
X133170395Y-39370000D01*
X133529605Y-39370000D01*
X134330213Y-40170608D01*
X134572397Y-40101143D01*
X134759144Y-39577698D01*
X134731362Y-39022632D01*
X134572397Y-38638857D01*
X134330213Y-38569392D01*
X133529605Y-39370000D01*
X133170395Y-39370000D01*
X132369787Y-38569392D01*
X132127603Y-38638857D01*
X131940856Y-39162302D01*
X105084948Y-39162302D01*
X104947491Y-38830452D01*
X104679548Y-38562509D01*
X104329464Y-38417500D01*
X103950536Y-38417500D01*
X103600452Y-38562509D01*
X103332509Y-38830452D01*
X103187500Y-39180536D01*
X101127000Y-39180536D01*
X101127000Y-38389787D01*
X132549392Y-38389787D01*
X133350000Y-39190395D01*
X134150608Y-38389787D01*
X134081143Y-38147603D01*
X133557698Y-37960856D01*
X133002632Y-37988638D01*
X132618857Y-38147603D01*
X132549392Y-38389787D01*
X101127000Y-38389787D01*
X101127000Y-31127000D01*
X172630961Y-31127000D01*
X172547509Y-31210452D01*
X172547509Y-31210452D01*
G37*
X172547509Y-31210452D02*
X172402500Y-31560536D01*
X172402500Y-31939464D01*
X172547509Y-32289548D01*
X172642961Y-32385000D01*
X172547509Y-32480452D01*
X172402500Y-32830536D01*
X172402500Y-33209464D01*
X172547509Y-33559548D01*
X172815452Y-33827491D01*
X173165536Y-33972500D01*
X173544464Y-33972500D01*
X173851070Y-33845500D01*
X188098930Y-33845500D01*
X188405536Y-33972500D01*
X188784464Y-33972500D01*
X189134548Y-33827491D01*
X189402491Y-33559548D01*
X189547500Y-33209464D01*
X189547500Y-32830536D01*
X189402491Y-32480452D01*
X189307039Y-32385000D01*
X189402491Y-32289548D01*
X189547500Y-31939464D01*
X189547500Y-31560536D01*
X189402491Y-31210452D01*
X189319039Y-31127000D01*
X207555961Y-31127000D01*
X207472509Y-31210452D01*
X207327500Y-31560536D01*
X207327500Y-31939464D01*
X207472509Y-32289548D01*
X207740452Y-32557491D01*
X208026518Y-32675983D01*
X207962500Y-32830536D01*
X207962500Y-33209464D01*
X208107509Y-33559548D01*
X208375452Y-33827491D01*
X208725536Y-33972500D01*
X209104464Y-33972500D01*
X209411070Y-33845500D01*
X219368068Y-33845500D01*
X220789501Y-35266934D01*
X220789500Y-37973000D01*
X219660039Y-37973000D01*
X219614548Y-37927509D01*
X219264464Y-37782500D01*
X218885536Y-37782500D01*
X218535452Y-37927509D01*
X218267509Y-38195452D01*
X218122500Y-38545536D01*
X218122500Y-38924464D01*
X218267509Y-39274548D01*
X218535452Y-39542491D01*
X218885536Y-39687500D01*
X219264464Y-39687500D01*
X219614548Y-39542491D01*
X219660039Y-39497000D01*
X220789501Y-39497000D01*
X220789500Y-46493930D01*
X220662500Y-46800536D01*
X220662500Y-47179464D01*
X220807509Y-47529548D01*
X221075452Y-47797491D01*
X221425536Y-47942500D01*
X221804464Y-47942500D01*
X222154548Y-47797491D01*
X222250000Y-47702039D01*
X222345452Y-47797491D01*
X222695536Y-47942500D01*
X223074464Y-47942500D01*
X223424548Y-47797491D01*
X223692491Y-47529548D01*
X223837500Y-47179464D01*
X223837500Y-46800536D01*
X223710500Y-46493930D01*
X223710500Y-34371297D01*
X223726671Y-34289999D01*
X223710500Y-34208701D01*
X223710500Y-34208697D01*
X223662604Y-33967906D01*
X223580815Y-33845500D01*
X223526206Y-33763772D01*
X223526205Y-33763771D01*
X223480152Y-33694848D01*
X223411229Y-33648795D01*
X220986209Y-31223777D01*
X220940152Y-31154848D01*
X220898475Y-31127000D01*
X223873000Y-31127000D01*
X223873000Y-116873000D01*
X114801952Y-116873000D01*
X114801952Y-114592100D01*
X101127000Y-114592100D01*
X101127000Y-108930213D01*
X171919392Y-108930213D01*
X171988857Y-109172397D01*
X172512302Y-109359144D01*
X173067368Y-109331362D01*
X173451143Y-109172397D01*
X173520608Y-108930213D01*
X172720000Y-108129605D01*
X171919392Y-108930213D01*
X101127000Y-108930213D01*
X101127000Y-107742302D01*
X171310856Y-107742302D01*
X171338638Y-108297368D01*
X171497603Y-108681143D01*
X171739787Y-108750608D01*
X172540395Y-107950000D01*
X171739787Y-107149392D01*
X171497603Y-107218857D01*
X171310856Y-107742302D01*
X101127000Y-107742302D01*
X101127000Y-106390213D01*
X171919392Y-106390213D01*
X171988857Y-106632397D01*
X172112344Y-106676453D01*
X171988857Y-106727603D01*
X171919392Y-106969787D01*
X172720000Y-107770395D01*
X173520608Y-106969787D01*
X173451143Y-106727603D01*
X173327656Y-106683547D01*
X173451143Y-106632397D01*
X173520608Y-106390213D01*
X172720000Y-105589605D01*
X171919392Y-106390213D01*
X101127000Y-106390213D01*
X101127000Y-105202302D01*
X171310856Y-105202302D01*
X171338638Y-105757368D01*
X171497603Y-106141143D01*
X171739787Y-106210608D01*
X172540395Y-105410000D01*
X172899605Y-105410000D01*
X173700213Y-106210608D01*
X173942397Y-106141143D01*
X173992535Y-106000607D01*
X174075680Y-106201337D01*
X174468663Y-106594320D01*
X174675513Y-106680000D01*
X174468663Y-106765680D01*
X174075680Y-107158663D01*
X173996572Y-107349647D01*
X173942397Y-107218857D01*
X173700213Y-107149392D01*
X172899605Y-107950000D01*
X173700213Y-108750608D01*
X173942397Y-108681143D01*
X173992535Y-108540607D01*
X174075680Y-108741337D01*
X174468663Y-109134320D01*
X174982119Y-109347000D01*
X175489568Y-109347000D01*
X180333793Y-114191226D01*
X180379848Y-114260152D01*
X180448773Y-114306206D01*
X180652906Y-114442604D01*
X180975000Y-114506672D01*
X181056303Y-114490500D01*
X192323699Y-114490500D01*
X192405000Y-114506672D01*
X192486301Y-114490500D01*
X192486303Y-114490500D01*
X192727094Y-114442604D01*
X193000152Y-114260152D01*
X193046209Y-114191223D01*
X197890433Y-109347000D01*
X198397881Y-109347000D01*
X198911337Y-109134320D01*
X199304320Y-108741337D01*
X199390000Y-108534487D01*
X199475680Y-108741337D01*
X199868663Y-109134320D01*
X200382119Y-109347000D01*
X200937881Y-109347000D01*
X201451337Y-109134320D01*
X201844320Y-108741337D01*
X201930000Y-108534487D01*
X202015680Y-108741337D01*
X202408663Y-109134320D01*
X202922119Y-109347000D01*
X203477881Y-109347000D01*
X203991337Y-109134320D01*
X204384320Y-108741337D01*
X204470000Y-108534487D01*
X204555680Y-108741337D01*
X204948663Y-109134320D01*
X205462119Y-109347000D01*
X206017881Y-109347000D01*
X206531337Y-109134320D01*
X206924320Y-108741337D01*
X207010000Y-108534487D01*
X207095680Y-108741337D01*
X207488663Y-109134320D01*
X208002119Y-109347000D01*
X208557881Y-109347000D01*
X209071337Y-109134320D01*
X209464320Y-108741337D01*
X209677000Y-108227881D01*
X209677000Y-107672119D01*
X209464320Y-107158663D01*
X209071337Y-106765680D01*
X208864487Y-106680000D01*
X209071337Y-106594320D01*
X209464320Y-106201337D01*
X209677000Y-105687881D01*
X209677000Y-105132119D01*
X209464320Y-104618663D01*
X209071337Y-104225680D01*
X208557881Y-104013000D01*
X208002119Y-104013000D01*
X207488663Y-104225680D01*
X207095680Y-104618663D01*
X207010000Y-104825513D01*
X206924320Y-104618663D01*
X206531337Y-104225680D01*
X206451200Y-104192486D01*
X206451200Y-103215213D01*
X213829392Y-103215213D01*
X213898857Y-103457397D01*
X214422302Y-103644144D01*
X214977368Y-103616362D01*
X215361143Y-103457397D01*
X215430608Y-103215213D01*
X214630000Y-102414605D01*
X213829392Y-103215213D01*
X206451200Y-103215213D01*
X206451200Y-102027302D01*
X213220856Y-102027302D01*
X213248638Y-102582368D01*
X213407603Y-102966143D01*
X213649787Y-103035608D01*
X214450395Y-102235000D01*
X214809605Y-102235000D01*
X215610213Y-103035608D01*
X215852397Y-102966143D01*
X216039144Y-102442698D01*
X216011362Y-101887632D01*
X215852397Y-101503857D01*
X215610213Y-101434392D01*
X214809605Y-102235000D01*
X214450395Y-102235000D01*
X213649787Y-101434392D01*
X213407603Y-101503857D01*
X213220856Y-102027302D01*
X206451200Y-102027302D01*
X206451200Y-101162041D01*
X206465132Y-101091999D01*
X206451200Y-101021957D01*
X206451200Y-101021954D01*
X206409936Y-100814504D01*
X206340774Y-100710996D01*
X206292424Y-100638635D01*
X206292422Y-100638633D01*
X206252746Y-100579254D01*
X206193367Y-100539578D01*
X203581000Y-97927212D01*
X203581000Y-97867167D01*
X203445658Y-97540422D01*
X203195578Y-97290342D01*
X202868833Y-97155000D01*
X202515167Y-97155000D01*
X202188422Y-97290342D01*
X201938342Y-97540422D01*
X201803000Y-97867167D01*
X201803000Y-98220833D01*
X201938342Y-98547578D01*
X202188422Y-98797658D01*
X202515167Y-98933000D01*
X202575212Y-98933000D01*
X205028801Y-101386590D01*
X205028800Y-103442178D01*
X205022424Y-103432635D01*
X205022422Y-103432633D01*
X204982746Y-103373254D01*
X204923367Y-103333578D01*
X203581000Y-101991212D01*
X203581000Y-101931167D01*
X203445658Y-101604422D01*
X203195578Y-101354342D01*
X202868833Y-101219000D01*
X202515167Y-101219000D01*
X202188422Y-101354342D01*
X201938342Y-101604422D01*
X201930000Y-101624561D01*
X201921658Y-101604422D01*
X201671578Y-101354342D01*
X201344833Y-101219000D01*
X200991167Y-101219000D01*
X200664422Y-101354342D01*
X200415859Y-101602905D01*
X200410746Y-101595254D01*
X200175496Y-101438064D01*
X199968046Y-101396800D01*
X199968041Y-101396800D01*
X199898000Y-101382868D01*
X199827959Y-101396800D01*
X199174024Y-101396800D01*
X199131566Y-101354342D01*
X198804821Y-101219000D01*
X198451155Y-101219000D01*
X198124410Y-101354342D01*
X198119994Y-101358758D01*
X198115578Y-101354342D01*
X197788833Y-101219000D01*
X197435167Y-101219000D01*
X197108422Y-101354342D01*
X196858342Y-101604422D01*
X196723000Y-101931167D01*
X196723000Y-102284833D01*
X196858342Y-102611578D01*
X197054437Y-102807673D01*
X197059576Y-102815364D01*
X197059578Y-102815366D01*
X197099254Y-102874745D01*
X197158634Y-102914422D01*
X198257212Y-104013000D01*
X197842119Y-104013000D01*
X197328663Y-104225680D01*
X196935680Y-104618663D01*
X196856572Y-104809647D01*
X196802397Y-104678857D01*
X196560213Y-104609392D01*
X195759605Y-105410000D01*
X196560213Y-106210608D01*
X196802397Y-106141143D01*
X196852535Y-106000607D01*
X196935680Y-106201337D01*
X197328663Y-106594320D01*
X197535513Y-106680000D01*
X197328663Y-106765680D01*
X196935680Y-107158663D01*
X196856572Y-107349647D01*
X196802397Y-107218857D01*
X196560213Y-107149392D01*
X195759605Y-107950000D01*
X195773748Y-107964143D01*
X195594143Y-108143748D01*
X195580000Y-108129605D01*
X194779392Y-108930213D01*
X194848857Y-109172397D01*
X195372302Y-109359144D01*
X195552439Y-109350128D01*
X192063068Y-112839500D01*
X181316933Y-112839500D01*
X177824432Y-109347000D01*
X178077881Y-109347000D01*
X178158018Y-109313806D01*
X178517578Y-109673367D01*
X178557254Y-109732746D01*
X178616633Y-109772422D01*
X178616635Y-109772424D01*
X178792502Y-109889935D01*
X178792503Y-109889935D01*
X178792504Y-109889936D01*
X178999954Y-109931200D01*
X178999957Y-109931200D01*
X179069999Y-109945132D01*
X179140041Y-109931200D01*
X185984959Y-109931200D01*
X186055000Y-109945132D01*
X186125041Y-109931200D01*
X186125046Y-109931200D01*
X186332496Y-109889936D01*
X186567746Y-109732746D01*
X186607424Y-109673364D01*
X187350575Y-108930213D01*
X188429392Y-108930213D01*
X188498857Y-109172397D01*
X189022302Y-109359144D01*
X189577368Y-109331362D01*
X189961143Y-109172397D01*
X190030608Y-108930213D01*
X189230000Y-108129605D01*
X188429392Y-108930213D01*
X187350575Y-108930213D01*
X187888115Y-108392674D01*
X188007603Y-108681143D01*
X188249787Y-108750608D01*
X189050395Y-107950000D01*
X189409605Y-107950000D01*
X190210213Y-108750608D01*
X190452397Y-108681143D01*
X190502535Y-108540607D01*
X190585680Y-108741337D01*
X190978663Y-109134320D01*
X191492119Y-109347000D01*
X192047881Y-109347000D01*
X192561337Y-109134320D01*
X192954320Y-108741337D01*
X193167000Y-108227881D01*
X193167000Y-107742302D01*
X194170856Y-107742302D01*
X194198638Y-108297368D01*
X194357603Y-108681143D01*
X194599787Y-108750608D01*
X195400395Y-107950000D01*
X194599787Y-107149392D01*
X194357603Y-107218857D01*
X194170856Y-107742302D01*
X193167000Y-107742302D01*
X193167000Y-107672119D01*
X192954320Y-107158663D01*
X192561337Y-106765680D01*
X192047881Y-106553000D01*
X191492119Y-106553000D01*
X190978663Y-106765680D01*
X190585680Y-107158663D01*
X190506572Y-107349647D01*
X190452397Y-107218857D01*
X190210213Y-107149392D01*
X189409605Y-107950000D01*
X189050395Y-107950000D01*
X189036253Y-107935858D01*
X189215858Y-107756253D01*
X189230000Y-107770395D01*
X190030608Y-106969787D01*
X189961143Y-106727603D01*
X189437698Y-106540856D01*
X188882632Y-106568638D01*
X188671200Y-106656216D01*
X188671200Y-106390213D01*
X194779392Y-106390213D01*
X194848857Y-106632397D01*
X194972344Y-106676453D01*
X194848857Y-106727603D01*
X194779392Y-106969787D01*
X195580000Y-107770395D01*
X196380608Y-106969787D01*
X196311143Y-106727603D01*
X196187656Y-106683547D01*
X196311143Y-106632397D01*
X196380608Y-106390213D01*
X195580000Y-105589605D01*
X194779392Y-106390213D01*
X188671200Y-106390213D01*
X188671200Y-105202302D01*
X194170856Y-105202302D01*
X194198638Y-105757368D01*
X194357603Y-106141143D01*
X194599787Y-106210608D01*
X195400395Y-105410000D01*
X194599787Y-104609392D01*
X194357603Y-104678857D01*
X194170856Y-105202302D01*
X188671200Y-105202302D01*
X188671200Y-104429787D01*
X194779392Y-104429787D01*
X195580000Y-105230395D01*
X196380608Y-104429787D01*
X196311143Y-104187603D01*
X195787698Y-104000856D01*
X195232632Y-104028638D01*
X194848857Y-104187603D01*
X194779392Y-104429787D01*
X188671200Y-104429787D01*
X188671200Y-100878588D01*
X192318589Y-97231200D01*
X193128964Y-97231200D01*
X193171422Y-97273658D01*
X193498167Y-97409000D01*
X193851833Y-97409000D01*
X194178578Y-97273658D01*
X194428658Y-97023578D01*
X194505304Y-96838536D01*
X206311500Y-96838536D01*
X206311500Y-97217464D01*
X206456509Y-97567548D01*
X206724452Y-97835491D01*
X207074536Y-97980500D01*
X207453464Y-97980500D01*
X207803548Y-97835491D01*
X208050184Y-97588855D01*
X208067371Y-97577371D01*
X208109883Y-97513747D01*
X208765749Y-96857882D01*
X208829371Y-96815371D01*
X208997788Y-96563317D01*
X209042000Y-96341048D01*
X209042000Y-96341047D01*
X209056928Y-96266000D01*
X209042000Y-96190953D01*
X209042000Y-89257119D01*
X213233000Y-89257119D01*
X213233000Y-89812881D01*
X213445680Y-90326337D01*
X213838663Y-90719320D01*
X214045513Y-90805000D01*
X213838663Y-90890680D01*
X213445680Y-91283663D01*
X213233000Y-91797119D01*
X213233000Y-92352881D01*
X213445680Y-92866337D01*
X213838663Y-93259320D01*
X214045513Y-93345000D01*
X213838663Y-93430680D01*
X213445680Y-93823663D01*
X213233000Y-94337119D01*
X213233000Y-94892881D01*
X213445680Y-95406337D01*
X213838663Y-95799320D01*
X214045513Y-95885000D01*
X213838663Y-95970680D01*
X213445680Y-96363663D01*
X213233000Y-96877119D01*
X213233000Y-97432881D01*
X213445680Y-97946337D01*
X213838663Y-98339320D01*
X214045513Y-98425000D01*
X213838663Y-98510680D01*
X213445680Y-98903663D01*
X213233000Y-99417119D01*
X213233000Y-99972881D01*
X213445680Y-100486337D01*
X213838663Y-100879320D01*
X214029647Y-100958428D01*
X213898857Y-101012603D01*
X213829392Y-101254787D01*
X214630000Y-102055395D01*
X215430608Y-101254787D01*
X215361143Y-101012603D01*
X215220607Y-100962465D01*
X215421337Y-100879320D01*
X215814320Y-100486337D01*
X216027000Y-99972881D01*
X216027000Y-99417119D01*
X215814320Y-98903663D01*
X215421337Y-98510680D01*
X215214487Y-98425000D01*
X215421337Y-98339320D01*
X215814320Y-97946337D01*
X216027000Y-97432881D01*
X216027000Y-96877119D01*
X215814320Y-96363663D01*
X215421337Y-95970680D01*
X215214487Y-95885000D01*
X215421337Y-95799320D01*
X215814320Y-95406337D01*
X216027000Y-94892881D01*
X216027000Y-94337119D01*
X215814320Y-93823663D01*
X215421337Y-93430680D01*
X215214487Y-93345000D01*
X215421337Y-93259320D01*
X215814320Y-92866337D01*
X216027000Y-92352881D01*
X216027000Y-91797119D01*
X215814320Y-91283663D01*
X215421337Y-90890680D01*
X215214487Y-90805000D01*
X215421337Y-90719320D01*
X215814320Y-90326337D01*
X216027000Y-89812881D01*
X216027000Y-89257119D01*
X215814320Y-88743663D01*
X215421337Y-88350680D01*
X214907881Y-88138000D01*
X214352119Y-88138000D01*
X213838663Y-88350680D01*
X213445680Y-88743663D01*
X213233000Y-89257119D01*
X209042000Y-89257119D01*
X209042000Y-88850039D01*
X209087491Y-88804548D01*
X209232500Y-88454464D01*
X209232500Y-88075536D01*
X209087491Y-87725452D01*
X208819548Y-87457509D01*
X208469464Y-87312500D01*
X208090536Y-87312500D01*
X207740452Y-87457509D01*
X207472509Y-87725452D01*
X207327500Y-88075536D01*
X207327500Y-88454464D01*
X207472509Y-88804548D01*
X207518000Y-88850039D01*
X207518001Y-95950368D01*
X207392869Y-96075500D01*
X207074536Y-96075500D01*
X206724452Y-96220509D01*
X206456509Y-96488452D01*
X206311500Y-96838536D01*
X194505304Y-96838536D01*
X194564000Y-96696833D01*
X194564000Y-96343167D01*
X194428658Y-96016422D01*
X194178578Y-95766342D01*
X193851833Y-95631000D01*
X193498167Y-95631000D01*
X193171422Y-95766342D01*
X193128964Y-95808800D01*
X192227200Y-95808800D01*
X192227200Y-92780042D01*
X192241132Y-92710000D01*
X192227200Y-92639958D01*
X192227200Y-92639954D01*
X192185936Y-92432504D01*
X192132733Y-92352881D01*
X192068424Y-92256635D01*
X192068422Y-92256633D01*
X192028746Y-92197254D01*
X191969366Y-92157578D01*
X191643000Y-91831212D01*
X191643000Y-91771167D01*
X191507658Y-91444422D01*
X191325455Y-91262219D01*
X191388990Y-91108833D01*
X191388990Y-90755167D01*
X191253648Y-90428422D01*
X191003568Y-90178342D01*
X190676823Y-90043000D01*
X190323157Y-90043000D01*
X189996412Y-90178342D01*
X189746332Y-90428422D01*
X189610990Y-90755167D01*
X189610990Y-90856220D01*
X189576056Y-90908503D01*
X189520859Y-91185999D01*
X189534792Y-91256045D01*
X189534791Y-92179699D01*
X189520859Y-92249741D01*
X189534791Y-92319782D01*
X189534791Y-92319786D01*
X189576055Y-92527236D01*
X189576056Y-92527237D01*
X189693567Y-92703105D01*
X189693569Y-92703107D01*
X189733245Y-92762486D01*
X189792624Y-92802163D01*
X189898250Y-92907788D01*
X189742422Y-92972334D01*
X189699964Y-93014792D01*
X187569799Y-93014792D01*
X187499757Y-93000860D01*
X187429715Y-93014792D01*
X187429712Y-93014792D01*
X187222262Y-93056056D01*
X187222261Y-93056057D01*
X187222260Y-93056057D01*
X187046393Y-93173568D01*
X187046391Y-93173570D01*
X186987012Y-93213246D01*
X186947336Y-93272625D01*
X182426634Y-97793328D01*
X182367255Y-97833004D01*
X182327579Y-97892383D01*
X182327576Y-97892386D01*
X182210065Y-98068254D01*
X182154868Y-98345750D01*
X182168801Y-98415796D01*
X182168800Y-104192486D01*
X182088663Y-104225680D01*
X181695680Y-104618663D01*
X181610000Y-104825513D01*
X181524320Y-104618663D01*
X181131337Y-104225680D01*
X180617881Y-104013000D01*
X180062119Y-104013000D01*
X179548663Y-104225680D01*
X179155680Y-104618663D01*
X179070000Y-104825513D01*
X178984320Y-104618663D01*
X178591337Y-104225680D01*
X178077881Y-104013000D01*
X177522119Y-104013000D01*
X177008663Y-104225680D01*
X176615680Y-104618663D01*
X176530000Y-104825513D01*
X176444320Y-104618663D01*
X176051337Y-104225680D01*
X175537881Y-104013000D01*
X174982119Y-104013000D01*
X174468663Y-104225680D01*
X174075680Y-104618663D01*
X173996572Y-104809647D01*
X173942397Y-104678857D01*
X173700213Y-104609392D01*
X172899605Y-105410000D01*
X172540395Y-105410000D01*
X171739787Y-104609392D01*
X171497603Y-104678857D01*
X171310856Y-105202302D01*
X101127000Y-105202302D01*
X101127000Y-104429787D01*
X171919392Y-104429787D01*
X172720000Y-105230395D01*
X173520608Y-104429787D01*
X173451143Y-104187603D01*
X172927698Y-104000856D01*
X172372632Y-104028638D01*
X171988857Y-104187603D01*
X171919392Y-104429787D01*
X101127000Y-104429787D01*
X101127000Y-103215213D01*
X175094392Y-103215213D01*
X175163857Y-103457397D01*
X175687302Y-103644144D01*
X176242368Y-103616362D01*
X176626143Y-103457397D01*
X176695608Y-103215213D01*
X175895000Y-102414605D01*
X175094392Y-103215213D01*
X101127000Y-103215213D01*
X101127000Y-102027302D01*
X174485856Y-102027302D01*
X174513638Y-102582368D01*
X174672603Y-102966143D01*
X174914787Y-103035608D01*
X175715395Y-102235000D01*
X176074605Y-102235000D01*
X176875213Y-103035608D01*
X177117397Y-102966143D01*
X177304144Y-102442698D01*
X177276362Y-101887632D01*
X177117397Y-101503857D01*
X176875213Y-101434392D01*
X176074605Y-102235000D01*
X175715395Y-102235000D01*
X174914787Y-101434392D01*
X174672603Y-101503857D01*
X174485856Y-102027302D01*
X101127000Y-102027302D01*
X101127000Y-89257119D01*
X174498000Y-89257119D01*
X174498000Y-89812881D01*
X174710680Y-90326337D01*
X175103663Y-90719320D01*
X175310513Y-90805000D01*
X175103663Y-90890680D01*
X174710680Y-91283663D01*
X174498000Y-91797119D01*
X174498000Y-92352881D01*
X174710680Y-92866337D01*
X175103663Y-93259320D01*
X175310513Y-93345000D01*
X175103663Y-93430680D01*
X174710680Y-93823663D01*
X174498000Y-94337119D01*
X174498000Y-94892881D01*
X174710680Y-95406337D01*
X175103663Y-95799320D01*
X175310513Y-95885000D01*
X175103663Y-95970680D01*
X174710680Y-96363663D01*
X174498000Y-96877119D01*
X174498000Y-97432881D01*
X174710680Y-97946337D01*
X175103663Y-98339320D01*
X175310513Y-98425000D01*
X175103663Y-98510680D01*
X174710680Y-98903663D01*
X174498000Y-99417119D01*
X174498000Y-99972881D01*
X174710680Y-100486337D01*
X175103663Y-100879320D01*
X175294647Y-100958428D01*
X175163857Y-101012603D01*
X175094392Y-101254787D01*
X175895000Y-102055395D01*
X176695608Y-101254787D01*
X176626143Y-101012603D01*
X176485607Y-100962465D01*
X176686337Y-100879320D01*
X177079320Y-100486337D01*
X177292000Y-99972881D01*
X177292000Y-99417119D01*
X177079320Y-98903663D01*
X176686337Y-98510680D01*
X176479487Y-98425000D01*
X176686337Y-98339320D01*
X177079320Y-97946337D01*
X177292000Y-97432881D01*
X177292000Y-96877119D01*
X177079320Y-96363663D01*
X176686337Y-95970680D01*
X176479487Y-95885000D01*
X176686337Y-95799320D01*
X177079320Y-95406337D01*
X177292000Y-94892881D01*
X177292000Y-94337119D01*
X177258806Y-94256982D01*
X181777589Y-89738200D01*
X193126412Y-89738200D01*
X195707000Y-92318789D01*
X195707000Y-92378833D01*
X195842342Y-92705578D01*
X196092422Y-92955658D01*
X196419167Y-93091000D01*
X196772833Y-93091000D01*
X197099578Y-92955658D01*
X197349658Y-92705578D01*
X197485000Y-92378833D01*
X197485000Y-92025167D01*
X197349658Y-91698422D01*
X197099578Y-91448342D01*
X196772833Y-91313000D01*
X196712789Y-91313000D01*
X193973424Y-88573636D01*
X193933746Y-88514254D01*
X193698496Y-88357064D01*
X193491046Y-88315800D01*
X193491041Y-88315800D01*
X193421000Y-88301868D01*
X193350959Y-88315800D01*
X181553041Y-88315800D01*
X181482999Y-88301868D01*
X181412957Y-88315800D01*
X181412954Y-88315800D01*
X181205504Y-88357064D01*
X181205503Y-88357065D01*
X181205502Y-88357065D01*
X181029635Y-88474576D01*
X181029633Y-88474578D01*
X180970254Y-88514254D01*
X180930578Y-88573633D01*
X177292000Y-92212212D01*
X177292000Y-91797119D01*
X177079320Y-91283663D01*
X176686337Y-90890680D01*
X176479487Y-90805000D01*
X176686337Y-90719320D01*
X177079320Y-90326337D01*
X177292000Y-89812881D01*
X177292000Y-89257119D01*
X177079320Y-88743663D01*
X176686337Y-88350680D01*
X176172881Y-88138000D01*
X175617119Y-88138000D01*
X175103663Y-88350680D01*
X174710680Y-88743663D01*
X174498000Y-89257119D01*
X101127000Y-89257119D01*
X101127000Y-87340213D01*
X132549392Y-87340213D01*
X132618857Y-87582397D01*
X133142302Y-87769144D01*
X133697368Y-87741362D01*
X134081143Y-87582397D01*
X134150608Y-87340213D01*
X156679392Y-87340213D01*
X156748857Y-87582397D01*
X157272302Y-87769144D01*
X157827368Y-87741362D01*
X158211143Y-87582397D01*
X158280608Y-87340213D01*
X157480000Y-86539605D01*
X156679392Y-87340213D01*
X134150608Y-87340213D01*
X133350000Y-86539605D01*
X132549392Y-87340213D01*
X101127000Y-87340213D01*
X101127000Y-86152302D01*
X131940856Y-86152302D01*
X131968638Y-86707368D01*
X132127603Y-87091143D01*
X132369787Y-87160608D01*
X133170395Y-86360000D01*
X133529605Y-86360000D01*
X134330213Y-87160608D01*
X134572397Y-87091143D01*
X134759144Y-86567698D01*
X134738353Y-86152302D01*
X156070856Y-86152302D01*
X156098638Y-86707368D01*
X156257603Y-87091143D01*
X156499787Y-87160608D01*
X157300395Y-86360000D01*
X157659605Y-86360000D01*
X158460213Y-87160608D01*
X158702397Y-87091143D01*
X158889144Y-86567698D01*
X158861362Y-86012632D01*
X158702397Y-85628857D01*
X158460213Y-85559392D01*
X157659605Y-86360000D01*
X157300395Y-86360000D01*
X156499787Y-85559392D01*
X156257603Y-85628857D01*
X156070856Y-86152302D01*
X134738353Y-86152302D01*
X134731362Y-86012632D01*
X134572397Y-85628857D01*
X134330213Y-85559392D01*
X133529605Y-86360000D01*
X133170395Y-86360000D01*
X132369787Y-85559392D01*
X132127603Y-85628857D01*
X131940856Y-86152302D01*
X101127000Y-86152302D01*
X101127000Y-82302532D01*
X114017073Y-82302532D01*
X114115736Y-82569387D01*
X114725461Y-82795908D01*
X115375460Y-82771856D01*
X115864264Y-82569387D01*
X115962927Y-82302532D01*
X120517073Y-82302532D01*
X120615736Y-82569387D01*
X121225461Y-82795908D01*
X121875460Y-82771856D01*
X122364264Y-82569387D01*
X122462927Y-82302532D01*
X121490000Y-81329605D01*
X120517073Y-82302532D01*
X115962927Y-82302532D01*
X114990000Y-81329605D01*
X114017073Y-82302532D01*
X101127000Y-82302532D01*
X101127000Y-80885461D01*
X113344092Y-80885461D01*
X113368144Y-81535460D01*
X113570613Y-82024264D01*
X113837468Y-82122927D01*
X114810395Y-81150000D01*
X115169605Y-81150000D01*
X116142532Y-82122927D01*
X116409387Y-82024264D01*
X116635908Y-81414539D01*
X116616331Y-80885461D01*
X119844092Y-80885461D01*
X119868144Y-81535460D01*
X120070613Y-82024264D01*
X120337468Y-82122927D01*
X121310395Y-81150000D01*
X121669605Y-81150000D01*
X122642532Y-82122927D01*
X122909387Y-82024264D01*
X123135908Y-81414539D01*
X123111856Y-80764540D01*
X122909387Y-80275736D01*
X122642532Y-80177073D01*
X121669605Y-81150000D01*
X121310395Y-81150000D01*
X120337468Y-80177073D01*
X120070613Y-80275736D01*
X119844092Y-80885461D01*
X116616331Y-80885461D01*
X116611856Y-80764540D01*
X116409387Y-80275736D01*
X116142532Y-80177073D01*
X115169605Y-81150000D01*
X114810395Y-81150000D01*
X113837468Y-80177073D01*
X113570613Y-80275736D01*
X113344092Y-80885461D01*
X101127000Y-80885461D01*
X101127000Y-79997468D01*
X114017073Y-79997468D01*
X114990000Y-80970395D01*
X115962927Y-79997468D01*
X120517073Y-79997468D01*
X121490000Y-80970395D01*
X122462927Y-79997468D01*
X122364264Y-79730613D01*
X121754539Y-79504092D01*
X121104540Y-79528144D01*
X120615736Y-79730613D01*
X120517073Y-79997468D01*
X115962927Y-79997468D01*
X115864264Y-79730613D01*
X115254539Y-79504092D01*
X114604540Y-79528144D01*
X114115736Y-79730613D01*
X114017073Y-79997468D01*
X101127000Y-79997468D01*
X101127000Y-75287119D01*
X102743000Y-75287119D01*
X102743000Y-75842881D01*
X102955680Y-76356337D01*
X103348663Y-76749320D01*
X103555513Y-76835000D01*
X103348663Y-76920680D01*
X102955680Y-77313663D01*
X102743000Y-77827119D01*
X102743000Y-78382881D01*
X102955680Y-78896337D01*
X103348663Y-79289320D01*
X103862119Y-79502000D01*
X104417881Y-79502000D01*
X104931337Y-79289320D01*
X105324320Y-78896337D01*
X105537000Y-78382881D01*
X105537000Y-77827119D01*
X105324320Y-77313663D01*
X104931337Y-76920680D01*
X104724487Y-76835000D01*
X104931337Y-76749320D01*
X105324320Y-76356337D01*
X105337392Y-76324778D01*
X113355000Y-76324778D01*
X113355000Y-76975222D01*
X113603914Y-77576153D01*
X114063847Y-78036086D01*
X114664778Y-78285000D01*
X115315222Y-78285000D01*
X115916153Y-78036086D01*
X116376086Y-77576153D01*
X116625000Y-76975222D01*
X116625000Y-76324778D01*
X119855000Y-76324778D01*
X119855000Y-76975222D01*
X120103914Y-77576153D01*
X120563847Y-78036086D01*
X121164778Y-78285000D01*
X121815222Y-78285000D01*
X122416153Y-78036086D01*
X122876086Y-77576153D01*
X123125000Y-76975222D01*
X123125000Y-76324778D01*
X122876086Y-75723847D01*
X122416153Y-75263914D01*
X121815222Y-75015000D01*
X121164778Y-75015000D01*
X120563847Y-75263914D01*
X120103914Y-75723847D01*
X119855000Y-76324778D01*
X116625000Y-76324778D01*
X116376086Y-75723847D01*
X115916153Y-75263914D01*
X115315222Y-75015000D01*
X114664778Y-75015000D01*
X114063847Y-75263914D01*
X113603914Y-75723847D01*
X113355000Y-76324778D01*
X105337392Y-76324778D01*
X105537000Y-75842881D01*
X105537000Y-75287119D01*
X105324320Y-74773663D01*
X104931337Y-74380680D01*
X104740353Y-74301572D01*
X104871143Y-74247397D01*
X104940608Y-74005213D01*
X104140000Y-73204605D01*
X103339392Y-74005213D01*
X103408857Y-74247397D01*
X103549393Y-74297535D01*
X103348663Y-74380680D01*
X102955680Y-74773663D01*
X102743000Y-75287119D01*
X101127000Y-75287119D01*
X101127000Y-72817302D01*
X102730856Y-72817302D01*
X102758638Y-73372368D01*
X102917603Y-73756143D01*
X103159787Y-73825608D01*
X103960395Y-73025000D01*
X104319605Y-73025000D01*
X105120213Y-73825608D01*
X105362397Y-73756143D01*
X105549144Y-73232698D01*
X105521362Y-72677632D01*
X105362397Y-72293857D01*
X105120213Y-72224392D01*
X104319605Y-73025000D01*
X103960395Y-73025000D01*
X103159787Y-72224392D01*
X102917603Y-72293857D01*
X102730856Y-72817302D01*
X101127000Y-72817302D01*
X101127000Y-65127119D01*
X102743000Y-65127119D01*
X102743000Y-65682881D01*
X102955680Y-66196337D01*
X103348663Y-66589320D01*
X103555513Y-66675000D01*
X103348663Y-66760680D01*
X102955680Y-67153663D01*
X102743000Y-67667119D01*
X102743000Y-68222881D01*
X102955680Y-68736337D01*
X103348663Y-69129320D01*
X103555513Y-69215000D01*
X103348663Y-69300680D01*
X102955680Y-69693663D01*
X102743000Y-70207119D01*
X102743000Y-70762881D01*
X102955680Y-71276337D01*
X103348663Y-71669320D01*
X103539647Y-71748428D01*
X103408857Y-71802603D01*
X103339392Y-72044787D01*
X104140000Y-72845395D01*
X104940608Y-72044787D01*
X104871143Y-71802603D01*
X104730607Y-71752465D01*
X104931337Y-71669320D01*
X105324320Y-71276337D01*
X105537000Y-70762881D01*
X105537000Y-70207119D01*
X105324320Y-69693663D01*
X104931337Y-69300680D01*
X104724487Y-69215000D01*
X104931337Y-69129320D01*
X105324320Y-68736337D01*
X105357514Y-68656200D01*
X116134973Y-68656200D01*
X116205014Y-68670132D01*
X116275055Y-68656200D01*
X116275060Y-68656200D01*
X116482510Y-68614936D01*
X116717760Y-68457746D01*
X116757438Y-68398364D01*
X123306796Y-61849007D01*
X123366840Y-61849007D01*
X123693585Y-61713665D01*
X123943665Y-61463585D01*
X124079007Y-61136840D01*
X124079007Y-60783174D01*
X123943665Y-60456429D01*
X123913839Y-60426603D01*
X124270065Y-60426603D01*
X126314178Y-62470717D01*
X126314179Y-80600332D01*
X126300246Y-80670378D01*
X126355443Y-80947874D01*
X126472954Y-81123742D01*
X126472957Y-81123745D01*
X126512633Y-81183124D01*
X126572012Y-81222800D01*
X129622578Y-84273367D01*
X129662254Y-84332746D01*
X129721633Y-84372422D01*
X129721635Y-84372424D01*
X129897502Y-84489935D01*
X129897503Y-84489935D01*
X129897504Y-84489936D01*
X130104954Y-84531200D01*
X130104957Y-84531200D01*
X130174999Y-84545132D01*
X130245041Y-84531200D01*
X132132486Y-84531200D01*
X132165680Y-84611337D01*
X132558663Y-85004320D01*
X132749647Y-85083428D01*
X132618857Y-85137603D01*
X132549392Y-85379787D01*
X133350000Y-86180395D01*
X134150608Y-85379787D01*
X134081143Y-85137603D01*
X133940607Y-85087465D01*
X134141337Y-85004320D01*
X134534320Y-84611337D01*
X134747000Y-84097881D01*
X134747000Y-83542119D01*
X134534320Y-83028663D01*
X134141337Y-82635680D01*
X133934487Y-82550000D01*
X134141337Y-82464320D01*
X134534320Y-82071337D01*
X134747000Y-81557881D01*
X134747000Y-81002119D01*
X134534320Y-80488663D01*
X134141337Y-80095680D01*
X133934487Y-80010000D01*
X134141337Y-79924320D01*
X134534320Y-79531337D01*
X134747000Y-79017881D01*
X134747000Y-78462119D01*
X156083000Y-78462119D01*
X156083000Y-79017881D01*
X156295680Y-79531337D01*
X156688663Y-79924320D01*
X156895513Y-80010000D01*
X156688663Y-80095680D01*
X156295680Y-80488663D01*
X156083000Y-81002119D01*
X156083000Y-81557881D01*
X156295680Y-82071337D01*
X156688663Y-82464320D01*
X156895513Y-82550000D01*
X156688663Y-82635680D01*
X156295680Y-83028663D01*
X156083000Y-83542119D01*
X156083000Y-84097881D01*
X156295680Y-84611337D01*
X156688663Y-85004320D01*
X156879647Y-85083428D01*
X156748857Y-85137603D01*
X156679392Y-85379787D01*
X157480000Y-86180395D01*
X158280608Y-85379787D01*
X158211143Y-85137603D01*
X158070607Y-85087465D01*
X158271337Y-85004320D01*
X158362490Y-84913167D01*
X189611000Y-84913167D01*
X189611000Y-85266833D01*
X189746342Y-85593578D01*
X189996422Y-85843658D01*
X190323167Y-85979000D01*
X190383211Y-85979000D01*
X190606328Y-86202117D01*
X190646004Y-86261496D01*
X190705383Y-86301172D01*
X190705385Y-86301174D01*
X190881252Y-86418685D01*
X190881253Y-86418685D01*
X190881254Y-86418686D01*
X191088704Y-86459950D01*
X191088707Y-86459950D01*
X191158749Y-86473882D01*
X191204955Y-86464691D01*
X191242672Y-86502408D01*
X191569417Y-86637750D01*
X191923083Y-86637750D01*
X192249828Y-86502408D01*
X192499908Y-86252328D01*
X192635250Y-85925583D01*
X192635250Y-85571917D01*
X192499908Y-85245172D01*
X192249828Y-84995092D01*
X191923083Y-84859750D01*
X191569417Y-84859750D01*
X191389000Y-84934481D01*
X191389000Y-84913167D01*
X191253658Y-84586422D01*
X191072403Y-84405167D01*
X195326000Y-84405167D01*
X195326000Y-84758833D01*
X195461342Y-85085578D01*
X195711422Y-85335658D01*
X196011801Y-85460079D01*
X196011800Y-88861964D01*
X195969342Y-88904422D01*
X195834000Y-89231167D01*
X195834000Y-89584833D01*
X195969342Y-89911578D01*
X196219422Y-90161658D01*
X196546167Y-90297000D01*
X196899833Y-90297000D01*
X197226578Y-90161658D01*
X197476658Y-89911578D01*
X197612000Y-89584833D01*
X197612000Y-89231167D01*
X197476658Y-88904422D01*
X197434200Y-88861964D01*
X197434200Y-85160042D01*
X197448132Y-85090000D01*
X197434200Y-85019959D01*
X197434200Y-85019954D01*
X197392936Y-84812504D01*
X197235746Y-84577254D01*
X197176364Y-84537576D01*
X197104000Y-84465212D01*
X197104000Y-84405167D01*
X196968658Y-84078422D01*
X196718578Y-83828342D01*
X196391833Y-83693000D01*
X196038167Y-83693000D01*
X195711422Y-83828342D01*
X195461342Y-84078422D01*
X195326000Y-84405167D01*
X191072403Y-84405167D01*
X191003578Y-84336342D01*
X190676833Y-84201000D01*
X190323167Y-84201000D01*
X189996422Y-84336342D01*
X189746342Y-84586422D01*
X189611000Y-84913167D01*
X158362490Y-84913167D01*
X158664320Y-84611337D01*
X158849110Y-84165213D01*
X171919392Y-84165213D01*
X171988857Y-84407397D01*
X172512302Y-84594144D01*
X173067368Y-84566362D01*
X173451143Y-84407397D01*
X173520608Y-84165213D01*
X172720000Y-83364605D01*
X171919392Y-84165213D01*
X158849110Y-84165213D01*
X158877000Y-84097881D01*
X158877000Y-83542119D01*
X158664320Y-83028663D01*
X158612959Y-82977302D01*
X171310856Y-82977302D01*
X171338638Y-83532368D01*
X171497603Y-83916143D01*
X171739787Y-83985608D01*
X172540395Y-83185000D01*
X172899605Y-83185000D01*
X173700213Y-83985608D01*
X173942397Y-83916143D01*
X173992535Y-83775607D01*
X174075680Y-83976337D01*
X174468663Y-84369320D01*
X174982119Y-84582000D01*
X175537881Y-84582000D01*
X176051337Y-84369320D01*
X176255444Y-84165213D01*
X176999392Y-84165213D01*
X177068857Y-84407397D01*
X177592302Y-84594144D01*
X178147368Y-84566362D01*
X178531143Y-84407397D01*
X178600608Y-84165213D01*
X182079392Y-84165213D01*
X182148857Y-84407397D01*
X182672302Y-84594144D01*
X183227368Y-84566362D01*
X183611143Y-84407397D01*
X183680608Y-84165213D01*
X182880000Y-83364605D01*
X182079392Y-84165213D01*
X178600608Y-84165213D01*
X177800000Y-83364605D01*
X176999392Y-84165213D01*
X176255444Y-84165213D01*
X176444320Y-83976337D01*
X176523428Y-83785353D01*
X176577603Y-83916143D01*
X176819787Y-83985608D01*
X177620395Y-83185000D01*
X177979605Y-83185000D01*
X178780213Y-83985608D01*
X179022397Y-83916143D01*
X179209144Y-83392698D01*
X179188353Y-82977302D01*
X181470856Y-82977302D01*
X181498638Y-83532368D01*
X181657603Y-83916143D01*
X181899787Y-83985608D01*
X182700395Y-83185000D01*
X183059605Y-83185000D01*
X183860213Y-83985608D01*
X184102397Y-83916143D01*
X184152535Y-83775607D01*
X184235680Y-83976337D01*
X184628663Y-84369320D01*
X185142119Y-84582000D01*
X185697881Y-84582000D01*
X186211337Y-84369320D01*
X186415444Y-84165213D01*
X187159392Y-84165213D01*
X187228857Y-84407397D01*
X187752302Y-84594144D01*
X188307368Y-84566362D01*
X188691143Y-84407397D01*
X188760608Y-84165213D01*
X187960000Y-83364605D01*
X187159392Y-84165213D01*
X186415444Y-84165213D01*
X186604320Y-83976337D01*
X186683428Y-83785353D01*
X186737603Y-83916143D01*
X186979787Y-83985608D01*
X187780395Y-83185000D01*
X188139605Y-83185000D01*
X188940213Y-83985608D01*
X189182397Y-83916143D01*
X189369144Y-83392698D01*
X189341362Y-82837632D01*
X189182397Y-82453857D01*
X188940213Y-82384392D01*
X188139605Y-83185000D01*
X187780395Y-83185000D01*
X186979787Y-82384392D01*
X186737603Y-82453857D01*
X186687465Y-82594393D01*
X186604320Y-82393663D01*
X186415444Y-82204787D01*
X187159392Y-82204787D01*
X187960000Y-83005395D01*
X188760608Y-82204787D01*
X188691143Y-81962603D01*
X188167698Y-81775856D01*
X187612632Y-81803638D01*
X187228857Y-81962603D01*
X187159392Y-82204787D01*
X186415444Y-82204787D01*
X186211337Y-82000680D01*
X185697881Y-81788000D01*
X185142119Y-81788000D01*
X184628663Y-82000680D01*
X184235680Y-82393663D01*
X184156572Y-82584647D01*
X184102397Y-82453857D01*
X183860213Y-82384392D01*
X183059605Y-83185000D01*
X182700395Y-83185000D01*
X181899787Y-82384392D01*
X181657603Y-82453857D01*
X181470856Y-82977302D01*
X179188353Y-82977302D01*
X179181362Y-82837632D01*
X179022397Y-82453857D01*
X178780213Y-82384392D01*
X177979605Y-83185000D01*
X177620395Y-83185000D01*
X176819787Y-82384392D01*
X176577603Y-82453857D01*
X176527465Y-82594393D01*
X176444320Y-82393663D01*
X176255444Y-82204787D01*
X176999392Y-82204787D01*
X177800000Y-83005395D01*
X178600608Y-82204787D01*
X182079392Y-82204787D01*
X182880000Y-83005395D01*
X183680608Y-82204787D01*
X183611143Y-81962603D01*
X183087698Y-81775856D01*
X182532632Y-81803638D01*
X182148857Y-81962603D01*
X182079392Y-82204787D01*
X178600608Y-82204787D01*
X178531143Y-81962603D01*
X178007698Y-81775856D01*
X177452632Y-81803638D01*
X177068857Y-81962603D01*
X176999392Y-82204787D01*
X176255444Y-82204787D01*
X176051337Y-82000680D01*
X175537881Y-81788000D01*
X174982119Y-81788000D01*
X174468663Y-82000680D01*
X174075680Y-82393663D01*
X173996572Y-82584647D01*
X173942397Y-82453857D01*
X173700213Y-82384392D01*
X172899605Y-83185000D01*
X172540395Y-83185000D01*
X171739787Y-82384392D01*
X171497603Y-82453857D01*
X171310856Y-82977302D01*
X158612959Y-82977302D01*
X158271337Y-82635680D01*
X158064487Y-82550000D01*
X158271337Y-82464320D01*
X158530870Y-82204787D01*
X171919392Y-82204787D01*
X172720000Y-83005395D01*
X173520608Y-82204787D01*
X173451143Y-81962603D01*
X172927698Y-81775856D01*
X172372632Y-81803638D01*
X171988857Y-81962603D01*
X171919392Y-82204787D01*
X158530870Y-82204787D01*
X158664320Y-82071337D01*
X158877000Y-81557881D01*
X158877000Y-81002119D01*
X158664320Y-80488663D01*
X158271337Y-80095680D01*
X158064487Y-80010000D01*
X158271337Y-79924320D01*
X158664320Y-79531337D01*
X158877000Y-79017881D01*
X158877000Y-78462119D01*
X158664320Y-77948663D01*
X158271337Y-77555680D01*
X157757881Y-77343000D01*
X157202119Y-77343000D01*
X156688663Y-77555680D01*
X156295680Y-77948663D01*
X156083000Y-78462119D01*
X134747000Y-78462119D01*
X134534320Y-77948663D01*
X134141337Y-77555680D01*
X133627881Y-77343000D01*
X133072119Y-77343000D01*
X132558663Y-77555680D01*
X132165680Y-77948663D01*
X131953000Y-78462119D01*
X131953000Y-79017881D01*
X132165680Y-79531337D01*
X132558663Y-79924320D01*
X132765513Y-80010000D01*
X132558663Y-80095680D01*
X132165680Y-80488663D01*
X132132486Y-80568800D01*
X129199589Y-80568800D01*
X128041389Y-79410601D01*
X128041389Y-65228167D01*
X150876000Y-65228167D01*
X150876000Y-65581833D01*
X151011342Y-65908578D01*
X151261422Y-66158658D01*
X151588167Y-66294000D01*
X151941833Y-66294000D01*
X152268578Y-66158658D01*
X152518658Y-65908578D01*
X152654000Y-65581833D01*
X152654000Y-65521788D01*
X155361589Y-62814200D01*
X163512564Y-62814200D01*
X163330342Y-62996422D01*
X163195000Y-63323167D01*
X163195000Y-63676833D01*
X163330342Y-64003578D01*
X163580422Y-64253658D01*
X163907167Y-64389000D01*
X163988964Y-64389000D01*
X164092342Y-64638578D01*
X164342422Y-64888658D01*
X164669167Y-65024000D01*
X165022833Y-65024000D01*
X165349578Y-64888658D01*
X165392036Y-64846200D01*
X176078967Y-64846200D01*
X176149008Y-64860132D01*
X176219049Y-64846200D01*
X176219054Y-64846200D01*
X176426504Y-64804936D01*
X176661754Y-64647746D01*
X176701432Y-64588364D01*
X177864347Y-63425450D01*
X183754907Y-63425450D01*
X183754907Y-63646476D01*
X183890249Y-63973221D01*
X183961704Y-64044676D01*
X183973971Y-64106348D01*
X183973972Y-64106349D01*
X184091483Y-64282217D01*
X184091485Y-64282219D01*
X184131161Y-64341598D01*
X184190541Y-64381275D01*
X184397630Y-64588364D01*
X184437308Y-64647746D01*
X184496690Y-64687424D01*
X184672556Y-64804935D01*
X184672557Y-64804935D01*
X184672558Y-64804936D01*
X184880008Y-64846200D01*
X184880011Y-64846200D01*
X184950053Y-64860132D01*
X185020095Y-64846200D01*
X187030412Y-64846200D01*
X187883801Y-65699590D01*
X187883800Y-73365411D01*
X186776412Y-74472800D01*
X185236042Y-74472800D01*
X185166000Y-74458868D01*
X185095958Y-74472800D01*
X185095954Y-74472800D01*
X184888504Y-74514064D01*
X184888502Y-74514065D01*
X184888503Y-74514065D01*
X184712635Y-74631576D01*
X184712633Y-74631578D01*
X184653254Y-74671254D01*
X184613578Y-74730633D01*
X183873018Y-75471194D01*
X183792881Y-75438000D01*
X183237119Y-75438000D01*
X182723663Y-75650680D01*
X182330680Y-76043663D01*
X182245000Y-76250513D01*
X182159320Y-76043663D01*
X181766337Y-75650680D01*
X181252881Y-75438000D01*
X180697119Y-75438000D01*
X180183663Y-75650680D01*
X179790680Y-76043663D01*
X179578000Y-76557119D01*
X179578000Y-77112881D01*
X179790680Y-77626337D01*
X180183663Y-78019320D01*
X180697119Y-78232000D01*
X181252881Y-78232000D01*
X181766337Y-78019320D01*
X182159320Y-77626337D01*
X182245000Y-77419487D01*
X182330680Y-77626337D01*
X182723663Y-78019320D01*
X183237119Y-78232000D01*
X183792881Y-78232000D01*
X184306337Y-78019320D01*
X184699320Y-77626337D01*
X184785000Y-77419487D01*
X184870680Y-77626337D01*
X185263663Y-78019320D01*
X185777119Y-78232000D01*
X186332881Y-78232000D01*
X186846337Y-78019320D01*
X187050444Y-77815213D01*
X187794392Y-77815213D01*
X187863857Y-78057397D01*
X188387302Y-78244144D01*
X188942368Y-78216362D01*
X189326143Y-78057397D01*
X189395608Y-77815213D01*
X188595000Y-77014605D01*
X187794392Y-77815213D01*
X187050444Y-77815213D01*
X187239320Y-77626337D01*
X187318428Y-77435353D01*
X187372603Y-77566143D01*
X187614787Y-77635608D01*
X188415395Y-76835000D01*
X188774605Y-76835000D01*
X189575213Y-77635608D01*
X189817397Y-77566143D01*
X190004144Y-77042698D01*
X189976362Y-76487632D01*
X189817397Y-76103857D01*
X189575213Y-76034392D01*
X188774605Y-76835000D01*
X188415395Y-76835000D01*
X188401253Y-76820858D01*
X188580858Y-76641253D01*
X188595000Y-76655395D01*
X189395608Y-75854787D01*
X189326143Y-75612603D01*
X188802698Y-75425856D01*
X188452400Y-75443389D01*
X189353180Y-74542609D01*
X189412556Y-74502935D01*
X189452231Y-74443558D01*
X189452235Y-74443554D01*
X189569746Y-74267687D01*
X189569746Y-74267686D01*
X189569747Y-74267685D01*
X189611011Y-74060235D01*
X189611011Y-74060232D01*
X189624943Y-73990190D01*
X189611011Y-73920148D01*
X189611011Y-73315773D01*
X189675536Y-73342500D01*
X189739869Y-73342500D01*
X189908118Y-73510749D01*
X189950629Y-73574371D01*
X190202683Y-73742788D01*
X190424952Y-73787000D01*
X190424953Y-73787000D01*
X190500000Y-73801928D01*
X190575047Y-73787000D01*
X194383528Y-73787000D01*
X194395680Y-73816337D01*
X194788663Y-74209320D01*
X195302119Y-74422000D01*
X195857881Y-74422000D01*
X196371337Y-74209320D01*
X196764320Y-73816337D01*
X196977000Y-73302881D01*
X196977000Y-72747119D01*
X196764320Y-72233663D01*
X196371337Y-71840680D01*
X196164487Y-71755000D01*
X196371337Y-71669320D01*
X196764320Y-71276337D01*
X196977000Y-70762881D01*
X196977000Y-70207119D01*
X196764320Y-69693663D01*
X196371337Y-69300680D01*
X196164487Y-69215000D01*
X196371337Y-69129320D01*
X196764320Y-68736337D01*
X196977000Y-68222881D01*
X196977000Y-67667119D01*
X196764320Y-67153663D01*
X196371337Y-66760680D01*
X196164487Y-66675000D01*
X196371337Y-66589320D01*
X196764320Y-66196337D01*
X196977000Y-65682881D01*
X196977000Y-65127119D01*
X196764320Y-64613663D01*
X196371337Y-64220680D01*
X196164487Y-64135000D01*
X196371337Y-64049320D01*
X196764320Y-63656337D01*
X196977000Y-63142881D01*
X196977000Y-62587119D01*
X199263000Y-62587119D01*
X199263000Y-63142881D01*
X199475680Y-63656337D01*
X199868663Y-64049320D01*
X200075513Y-64135000D01*
X199868663Y-64220680D01*
X199475680Y-64613663D01*
X199263000Y-65127119D01*
X199263000Y-65682881D01*
X199475680Y-66196337D01*
X199868663Y-66589320D01*
X200075513Y-66675000D01*
X199868663Y-66760680D01*
X199475680Y-67153663D01*
X199263000Y-67667119D01*
X199263000Y-68222881D01*
X199475680Y-68736337D01*
X199868663Y-69129320D01*
X200075513Y-69215000D01*
X199868663Y-69300680D01*
X199475680Y-69693663D01*
X199263000Y-70207119D01*
X199263000Y-70762881D01*
X199475680Y-71276337D01*
X199868663Y-71669320D01*
X200075513Y-71755000D01*
X199868663Y-71840680D01*
X199475680Y-72233663D01*
X199263000Y-72747119D01*
X199263000Y-73302881D01*
X199475680Y-73816337D01*
X199868663Y-74209320D01*
X200382119Y-74422000D01*
X200937881Y-74422000D01*
X201451337Y-74209320D01*
X201844320Y-73816337D01*
X202057000Y-73302881D01*
X202057000Y-72747119D01*
X201844320Y-72233663D01*
X201451337Y-71840680D01*
X201244487Y-71755000D01*
X201451337Y-71669320D01*
X201844320Y-71276337D01*
X202057000Y-70762881D01*
X202057000Y-70207119D01*
X201844320Y-69693663D01*
X201451337Y-69300680D01*
X201244487Y-69215000D01*
X201451337Y-69129320D01*
X201844320Y-68736337D01*
X201930119Y-68529200D01*
X202907964Y-68529200D01*
X202950422Y-68571658D01*
X203277167Y-68707000D01*
X203630833Y-68707000D01*
X203957578Y-68571658D01*
X204207658Y-68321578D01*
X204343000Y-67994833D01*
X204343000Y-67641167D01*
X204207658Y-67314422D01*
X203957578Y-67064342D01*
X203630833Y-66929000D01*
X203277167Y-66929000D01*
X202950422Y-67064342D01*
X202907964Y-67106800D01*
X201797457Y-67106800D01*
X201451337Y-66760680D01*
X201244487Y-66675000D01*
X201451337Y-66589320D01*
X201844320Y-66196337D01*
X202057000Y-65682881D01*
X202057000Y-65127119D01*
X201844320Y-64613663D01*
X201451337Y-64220680D01*
X201244487Y-64135000D01*
X201451337Y-64049320D01*
X201797457Y-63703200D01*
X202907964Y-63703200D01*
X202950422Y-63745658D01*
X203277167Y-63881000D01*
X203630833Y-63881000D01*
X203957578Y-63745658D01*
X204207658Y-63495578D01*
X204343000Y-63168833D01*
X204343000Y-62815167D01*
X204207658Y-62488422D01*
X203957578Y-62238342D01*
X203630833Y-62103000D01*
X203277167Y-62103000D01*
X202950422Y-62238342D01*
X202907964Y-62280800D01*
X201930119Y-62280800D01*
X201844320Y-62073663D01*
X201451337Y-61680680D01*
X201260353Y-61601572D01*
X201391143Y-61547397D01*
X201460608Y-61305213D01*
X200660000Y-60504605D01*
X199859392Y-61305213D01*
X199928857Y-61547397D01*
X200069393Y-61597535D01*
X199868663Y-61680680D01*
X199475680Y-62073663D01*
X199263000Y-62587119D01*
X196977000Y-62587119D01*
X196764320Y-62073663D01*
X196371337Y-61680680D01*
X196164487Y-61595000D01*
X196371337Y-61509320D01*
X196764320Y-61116337D01*
X196977000Y-60602881D01*
X196977000Y-60117302D01*
X199250856Y-60117302D01*
X199278638Y-60672368D01*
X199437603Y-61056143D01*
X199679787Y-61125608D01*
X200480395Y-60325000D01*
X200839605Y-60325000D01*
X201640213Y-61125608D01*
X201882397Y-61056143D01*
X202069144Y-60532698D01*
X202041362Y-59977632D01*
X201882397Y-59593857D01*
X201640213Y-59524392D01*
X200839605Y-60325000D01*
X200480395Y-60325000D01*
X199679787Y-59524392D01*
X199437603Y-59593857D01*
X199250856Y-60117302D01*
X196977000Y-60117302D01*
X196977000Y-60047119D01*
X196764320Y-59533663D01*
X196575444Y-59344787D01*
X199859392Y-59344787D01*
X200660000Y-60145395D01*
X201460608Y-59344787D01*
X201391143Y-59102603D01*
X200867698Y-58915856D01*
X200312632Y-58943638D01*
X199928857Y-59102603D01*
X199859392Y-59344787D01*
X196575444Y-59344787D01*
X196371337Y-59140680D01*
X196180353Y-59061572D01*
X196311143Y-59007397D01*
X196380608Y-58765213D01*
X195580000Y-57964605D01*
X194779392Y-58765213D01*
X194848857Y-59007397D01*
X194989393Y-59057535D01*
X194788663Y-59140680D01*
X194395680Y-59533663D01*
X194183000Y-60047119D01*
X194183000Y-60602881D01*
X194395680Y-61116337D01*
X194788663Y-61509320D01*
X194995513Y-61595000D01*
X194788663Y-61680680D01*
X194395680Y-62073663D01*
X194183000Y-62587119D01*
X194183000Y-63142881D01*
X194395680Y-63656337D01*
X194788663Y-64049320D01*
X194995513Y-64135000D01*
X194788663Y-64220680D01*
X194395680Y-64613663D01*
X194362486Y-64693800D01*
X190747075Y-64693800D01*
X184267959Y-58214685D01*
X184267959Y-58154640D01*
X184132617Y-57827895D01*
X183882537Y-57577815D01*
X183555792Y-57442473D01*
X183202126Y-57442473D01*
X183002719Y-57525070D01*
X183587369Y-56940420D01*
X183646745Y-56900746D01*
X183686420Y-56841369D01*
X183686424Y-56841365D01*
X183803935Y-56665497D01*
X183803936Y-56665496D01*
X183845200Y-56458046D01*
X183845200Y-56458042D01*
X183859132Y-56388000D01*
X183845200Y-56317958D01*
X183845200Y-55918036D01*
X183887658Y-55875578D01*
X184023000Y-55548833D01*
X184023000Y-55195167D01*
X183887658Y-54868422D01*
X183637578Y-54618342D01*
X183310833Y-54483000D01*
X182957167Y-54483000D01*
X182672715Y-54600824D01*
X184180531Y-53093008D01*
X184239907Y-53053334D01*
X184279582Y-52993957D01*
X184279586Y-52993953D01*
X184387799Y-52832001D01*
X184397098Y-52818084D01*
X184438362Y-52610634D01*
X184438362Y-52610630D01*
X184452294Y-52540588D01*
X184438362Y-52470546D01*
X184438362Y-46129210D01*
X184452294Y-46059168D01*
X184438362Y-45989126D01*
X184438362Y-45989122D01*
X184397098Y-45781672D01*
X184239908Y-45546422D01*
X184180526Y-45506744D01*
X184023000Y-45349218D01*
X184023000Y-45289173D01*
X183887658Y-44962428D01*
X183637578Y-44712348D01*
X183310833Y-44577006D01*
X183083186Y-44577006D01*
X183083186Y-43257167D01*
X183261000Y-43257167D01*
X183261000Y-43610833D01*
X183396342Y-43937578D01*
X183646422Y-44187658D01*
X183973167Y-44323000D01*
X184326833Y-44323000D01*
X184444657Y-44274196D01*
X184683402Y-44512941D01*
X184683401Y-57816560D01*
X184669469Y-57886601D01*
X184683401Y-57956642D01*
X184683401Y-57956646D01*
X184724665Y-58164096D01*
X184738642Y-58185014D01*
X184842177Y-58339965D01*
X184842179Y-58339967D01*
X184881855Y-58399346D01*
X184941235Y-58439023D01*
X189357000Y-62854789D01*
X189357000Y-62914833D01*
X189492342Y-63241578D01*
X189742422Y-63491658D01*
X190069167Y-63627000D01*
X190422833Y-63627000D01*
X190749578Y-63491658D01*
X190999658Y-63241578D01*
X191135000Y-62914833D01*
X191135000Y-62561167D01*
X190999658Y-62234422D01*
X190749578Y-61984342D01*
X190422833Y-61849000D01*
X190362789Y-61849000D01*
X188407956Y-59894167D01*
X189357000Y-59894167D01*
X189357000Y-60247833D01*
X189492342Y-60574578D01*
X189742422Y-60824658D01*
X190069167Y-60960000D01*
X190129212Y-60960000D01*
X190674338Y-61505127D01*
X190762338Y-61717578D01*
X191012418Y-61967658D01*
X191339163Y-62103000D01*
X191566800Y-62103000D01*
X191566801Y-63207963D01*
X191524342Y-63250422D01*
X191389000Y-63577167D01*
X191389000Y-63930833D01*
X191524342Y-64257578D01*
X191774422Y-64507658D01*
X192101167Y-64643000D01*
X192454833Y-64643000D01*
X192781578Y-64507658D01*
X193031658Y-64257578D01*
X193167000Y-63930833D01*
X193167000Y-63577167D01*
X193031658Y-63250422D01*
X192989200Y-63207964D01*
X192989200Y-60903041D01*
X193003132Y-60832999D01*
X192989200Y-60762955D01*
X192989200Y-60762954D01*
X192947936Y-60555504D01*
X192940292Y-60544064D01*
X192830424Y-60379635D01*
X192830420Y-60379631D01*
X192790745Y-60320254D01*
X192731369Y-60280580D01*
X191643000Y-59192212D01*
X191643000Y-59132167D01*
X191507658Y-58805422D01*
X191257578Y-58555342D01*
X190930833Y-58420000D01*
X190577167Y-58420000D01*
X190250422Y-58555342D01*
X190000342Y-58805422D01*
X189865000Y-59132167D01*
X189865000Y-59266569D01*
X189742422Y-59317342D01*
X189492342Y-59567422D01*
X189357000Y-59894167D01*
X188407956Y-59894167D01*
X186105801Y-57592013D01*
X186105801Y-53544404D01*
X188365195Y-53544404D01*
X188365195Y-53898070D01*
X188500537Y-54224815D01*
X188750617Y-54474895D01*
X189077362Y-54610237D01*
X189431028Y-54610237D01*
X189757773Y-54474895D01*
X190007853Y-54224815D01*
X190069252Y-54076585D01*
X190140428Y-54076585D01*
X190203565Y-54229010D01*
X190119000Y-54433167D01*
X190119000Y-54786833D01*
X190254342Y-55113578D01*
X190258772Y-55118008D01*
X190254342Y-55122438D01*
X190119000Y-55449183D01*
X190119000Y-55802849D01*
X190254342Y-56129594D01*
X190502330Y-56377582D01*
X190487452Y-56392459D01*
X190352110Y-56719204D01*
X190352110Y-57072870D01*
X190487452Y-57399615D01*
X190737532Y-57649695D01*
X191064277Y-57785037D01*
X191417943Y-57785037D01*
X191744688Y-57649695D01*
X191787146Y-57607237D01*
X192159952Y-57607237D01*
X192229993Y-57621169D01*
X192300034Y-57607237D01*
X192300039Y-57607237D01*
X192507489Y-57565973D01*
X192742739Y-57408783D01*
X192782417Y-57349401D01*
X193286619Y-56845200D01*
X194508956Y-56845200D01*
X194484774Y-56869382D01*
X194599785Y-56984393D01*
X194357603Y-57053857D01*
X194170856Y-57577302D01*
X194198638Y-58132368D01*
X194357603Y-58516143D01*
X194599787Y-58585608D01*
X195400395Y-57785000D01*
X195386253Y-57770858D01*
X195565858Y-57591253D01*
X195580000Y-57605395D01*
X195594143Y-57591253D01*
X195773748Y-57770858D01*
X195759605Y-57785000D01*
X196560213Y-58585608D01*
X196802397Y-58516143D01*
X196989144Y-57992698D01*
X196962471Y-57459778D01*
X209110000Y-57459778D01*
X209110000Y-58110222D01*
X209358914Y-58711153D01*
X209818847Y-59171086D01*
X210419778Y-59420000D01*
X211070222Y-59420000D01*
X211671153Y-59171086D01*
X212131086Y-58711153D01*
X212380000Y-58110222D01*
X212380000Y-57459778D01*
X215610000Y-57459778D01*
X215610000Y-58110222D01*
X215858914Y-58711153D01*
X216318847Y-59171086D01*
X216919778Y-59420000D01*
X217570222Y-59420000D01*
X218171153Y-59171086D01*
X218631086Y-58711153D01*
X218880000Y-58110222D01*
X218880000Y-57459778D01*
X218631086Y-56858847D01*
X218171153Y-56398914D01*
X217570222Y-56150000D01*
X216919778Y-56150000D01*
X216318847Y-56398914D01*
X215858914Y-56858847D01*
X215610000Y-57459778D01*
X212380000Y-57459778D01*
X212131086Y-56858847D01*
X211671153Y-56398914D01*
X211070222Y-56150000D01*
X210419778Y-56150000D01*
X209818847Y-56398914D01*
X209358914Y-56858847D01*
X209110000Y-57459778D01*
X196962471Y-57459778D01*
X196961362Y-57437632D01*
X196802397Y-57053857D01*
X196560215Y-56984393D01*
X196675226Y-56869382D01*
X196651044Y-56845200D01*
X197160959Y-56845200D01*
X197231000Y-56859132D01*
X197301041Y-56845200D01*
X197301046Y-56845200D01*
X197508496Y-56803936D01*
X197743746Y-56646746D01*
X197783424Y-56587364D01*
X199263000Y-55107788D01*
X199263000Y-55522881D01*
X199475680Y-56036337D01*
X199868663Y-56429320D01*
X200382119Y-56642000D01*
X200937881Y-56642000D01*
X201451337Y-56429320D01*
X201844320Y-56036337D01*
X202057000Y-55522881D01*
X202057000Y-54967119D01*
X201844320Y-54453663D01*
X201451337Y-54060680D01*
X201244487Y-53975000D01*
X201451337Y-53889320D01*
X201844320Y-53496337D01*
X202057000Y-52982881D01*
X202057000Y-52427119D01*
X201844320Y-51913663D01*
X201451337Y-51520680D01*
X201244487Y-51435000D01*
X201451337Y-51349320D01*
X201844320Y-50956337D01*
X202057000Y-50442881D01*
X202057000Y-49887119D01*
X201844320Y-49373663D01*
X201451337Y-48980680D01*
X201244487Y-48895000D01*
X201451337Y-48809320D01*
X201844320Y-48416337D01*
X202057000Y-47902881D01*
X202057000Y-47347119D01*
X201844320Y-46833663D01*
X201451337Y-46440680D01*
X201244487Y-46355000D01*
X201451337Y-46269320D01*
X201844320Y-45876337D01*
X202057000Y-45362881D01*
X202057000Y-44807119D01*
X201844320Y-44293663D01*
X201451337Y-43900680D01*
X201260353Y-43821572D01*
X201391143Y-43767397D01*
X201460608Y-43525213D01*
X200660000Y-42724605D01*
X199859392Y-43525213D01*
X199928857Y-43767397D01*
X200069393Y-43817535D01*
X199868663Y-43900680D01*
X199475680Y-44293663D01*
X199263000Y-44807119D01*
X199263000Y-45362881D01*
X199296194Y-45443018D01*
X197387233Y-47351979D01*
X197327853Y-47391656D01*
X197288177Y-47451035D01*
X197288175Y-47451037D01*
X197245257Y-47515269D01*
X197170663Y-47626906D01*
X197129399Y-47834356D01*
X197129399Y-47834360D01*
X197115467Y-47904401D01*
X197129399Y-47974443D01*
X197129400Y-52793613D01*
X195414647Y-54508367D01*
X194923562Y-54508367D01*
X194809658Y-54233379D01*
X194559578Y-53983299D01*
X194270257Y-53863459D01*
X194270257Y-53600288D01*
X194305578Y-53585658D01*
X194555658Y-53335578D01*
X194691000Y-53008833D01*
X194691000Y-52655167D01*
X194555658Y-52328422D01*
X194305578Y-52078342D01*
X194123201Y-52002799D01*
X194047658Y-51820422D01*
X193797578Y-51570342D01*
X193777424Y-51561994D01*
X193797548Y-51553658D01*
X194047628Y-51303578D01*
X194182970Y-50976833D01*
X194182970Y-50623167D01*
X194047628Y-50296422D01*
X193797548Y-50046342D01*
X193470803Y-49911000D01*
X193117137Y-49911000D01*
X192790392Y-50046342D01*
X192747934Y-50088800D01*
X192316036Y-50088800D01*
X192273578Y-50046342D01*
X191946833Y-49911000D01*
X191593167Y-49911000D01*
X191266422Y-50046342D01*
X191016342Y-50296422D01*
X190881000Y-50623167D01*
X190881000Y-50976833D01*
X190899796Y-51022211D01*
X190689703Y-51022211D01*
X190362958Y-51157553D01*
X190112878Y-51407633D01*
X189977536Y-51734378D01*
X189977536Y-52088044D01*
X190112878Y-52414789D01*
X190352274Y-52654185D01*
X189680089Y-52654185D01*
X189610047Y-52640253D01*
X189540005Y-52654185D01*
X189540001Y-52654185D01*
X189332551Y-52695449D01*
X189127835Y-52832237D01*
X189077362Y-52832237D01*
X188750617Y-52967579D01*
X188500537Y-53217659D01*
X188365195Y-53544404D01*
X186105801Y-53544404D01*
X186105801Y-44288393D01*
X186119733Y-44218351D01*
X186105801Y-44148309D01*
X186105801Y-44148305D01*
X186064537Y-43940855D01*
X186024334Y-43880687D01*
X185947025Y-43764986D01*
X185947023Y-43764984D01*
X185907347Y-43705605D01*
X185847968Y-43665929D01*
X185162674Y-42980636D01*
X185122996Y-42921254D01*
X184887746Y-42764064D01*
X184699944Y-42726708D01*
X184653578Y-42680342D01*
X184326833Y-42545000D01*
X183973167Y-42545000D01*
X183646422Y-42680342D01*
X183396342Y-42930422D01*
X183261000Y-43257167D01*
X183083186Y-43257167D01*
X183083186Y-42712602D01*
X183458486Y-42337302D01*
X199250856Y-42337302D01*
X199278638Y-42892368D01*
X199437603Y-43276143D01*
X199679787Y-43345608D01*
X200480395Y-42545000D01*
X200839605Y-42545000D01*
X201640213Y-43345608D01*
X201882397Y-43276143D01*
X202069144Y-42752698D01*
X202041362Y-42197632D01*
X201882397Y-41813857D01*
X201640213Y-41744392D01*
X200839605Y-42545000D01*
X200480395Y-42545000D01*
X199679787Y-41744392D01*
X199437603Y-41813857D01*
X199250856Y-42337302D01*
X183458486Y-42337302D01*
X189016575Y-36779214D01*
X198589964Y-36779214D01*
X198632422Y-36821672D01*
X198639845Y-36824747D01*
X198022211Y-37442381D01*
X197962831Y-37482058D01*
X197923155Y-37541437D01*
X197923153Y-37541439D01*
X197883787Y-37600355D01*
X197805641Y-37717308D01*
X197805302Y-37719010D01*
X197689142Y-37719010D01*
X197485000Y-37803568D01*
X197280833Y-37719000D01*
X196927167Y-37719000D01*
X196600422Y-37854342D01*
X196350342Y-38104422D01*
X196215000Y-38431167D01*
X196215000Y-38784833D01*
X196350342Y-39111578D01*
X196600422Y-39361658D01*
X196927167Y-39497000D01*
X196987212Y-39497000D01*
X198583578Y-41093367D01*
X198623254Y-41152746D01*
X198682633Y-41192422D01*
X198682635Y-41192424D01*
X198858502Y-41309935D01*
X198858503Y-41309935D01*
X198858504Y-41309936D01*
X199065954Y-41351200D01*
X199065957Y-41351200D01*
X199135999Y-41365132D01*
X199206041Y-41351200D01*
X199920655Y-41351200D01*
X199859392Y-41564787D01*
X200660000Y-42365395D01*
X201460608Y-41564787D01*
X201399345Y-41351200D01*
X204063692Y-41351200D01*
X206651680Y-43939189D01*
X206651680Y-43999233D01*
X206787022Y-44325978D01*
X207037102Y-44576058D01*
X207363847Y-44711400D01*
X207717513Y-44711400D01*
X208044258Y-44576058D01*
X208294338Y-44325978D01*
X208429680Y-43999233D01*
X208429680Y-43645567D01*
X208294338Y-43318822D01*
X208211376Y-43235860D01*
X208271658Y-43175578D01*
X208407000Y-42848833D01*
X208407000Y-42495167D01*
X208271658Y-42168422D01*
X208021578Y-41918342D01*
X207694833Y-41783000D01*
X207634789Y-41783000D01*
X205424988Y-39573200D01*
X206685959Y-39573200D01*
X206756000Y-39587132D01*
X206826041Y-39573200D01*
X206826046Y-39573200D01*
X207033496Y-39531936D01*
X207268746Y-39374746D01*
X207308425Y-39315363D01*
X207634788Y-38989000D01*
X207694833Y-38989000D01*
X208021578Y-38853658D01*
X208271658Y-38603578D01*
X208407000Y-38276833D01*
X208407000Y-37923167D01*
X208271658Y-37596422D01*
X208140241Y-37465005D01*
X208271658Y-37333588D01*
X208407000Y-37006843D01*
X208407000Y-36653177D01*
X208271658Y-36326432D01*
X208140227Y-36195001D01*
X208271650Y-36063578D01*
X208406992Y-35736833D01*
X208406992Y-35383167D01*
X208271650Y-35056422D01*
X208140232Y-34925004D01*
X208271658Y-34793578D01*
X208407000Y-34466833D01*
X208407000Y-34113167D01*
X208271658Y-33786422D01*
X208021578Y-33536342D01*
X207694833Y-33401000D01*
X207341167Y-33401000D01*
X207014422Y-33536342D01*
X206971964Y-33578800D01*
X202250422Y-33578800D01*
X202180380Y-33564868D01*
X202110338Y-33578800D01*
X202110334Y-33578800D01*
X201902884Y-33620064D01*
X201902882Y-33620065D01*
X201902883Y-33620065D01*
X201727015Y-33737576D01*
X201727013Y-33737578D01*
X201667634Y-33777254D01*
X201627958Y-33836633D01*
X199892733Y-35571859D01*
X199889658Y-35564436D01*
X199639578Y-35314356D01*
X199312833Y-35179014D01*
X198959167Y-35179014D01*
X198632422Y-35314356D01*
X198589964Y-35356814D01*
X188792027Y-35356814D01*
X188721985Y-35342882D01*
X188651943Y-35356814D01*
X188651940Y-35356814D01*
X188444490Y-35398078D01*
X188444489Y-35398079D01*
X188444488Y-35398079D01*
X188268621Y-35515590D01*
X188268619Y-35515592D01*
X188209240Y-35555268D01*
X188169564Y-35614647D01*
X181918620Y-41865592D01*
X181859240Y-41905269D01*
X181819564Y-41964648D01*
X181819562Y-41964650D01*
X181770996Y-42037334D01*
X181702050Y-42140519D01*
X181660786Y-42347969D01*
X181660786Y-42347973D01*
X181646854Y-42418014D01*
X181660786Y-42488056D01*
X181660787Y-44734031D01*
X181558392Y-44631636D01*
X181518714Y-44572254D01*
X181283464Y-44415064D01*
X181076014Y-44373800D01*
X181076009Y-44373800D01*
X181005968Y-44359868D01*
X180935927Y-44373800D01*
X165011036Y-44373800D01*
X164968578Y-44331342D01*
X164641833Y-44196000D01*
X164288167Y-44196000D01*
X163961422Y-44331342D01*
X163711342Y-44581422D01*
X163576000Y-44908167D01*
X163576000Y-45097699D01*
X159133488Y-45097699D01*
X158843806Y-44808018D01*
X158877000Y-44727881D01*
X158877000Y-44172119D01*
X158664320Y-43658663D01*
X158271337Y-43265680D01*
X158080353Y-43186572D01*
X158211143Y-43132397D01*
X158280608Y-42890213D01*
X157480000Y-42089605D01*
X156679392Y-42890213D01*
X156748857Y-43132397D01*
X156889393Y-43182535D01*
X156688663Y-43265680D01*
X156295680Y-43658663D01*
X156083000Y-44172119D01*
X156083000Y-44727881D01*
X156295680Y-45241337D01*
X156688663Y-45634320D01*
X156895513Y-45720000D01*
X156688663Y-45805680D01*
X156295680Y-46198663D01*
X156083000Y-46712119D01*
X156083000Y-47267881D01*
X156295680Y-47781337D01*
X156688663Y-48174320D01*
X156895513Y-48260000D01*
X156688663Y-48345680D01*
X156295680Y-48738663D01*
X156083000Y-49252119D01*
X156083000Y-49807881D01*
X156295680Y-50321337D01*
X156688663Y-50714320D01*
X156895513Y-50800000D01*
X156688663Y-50885680D01*
X156295680Y-51278663D01*
X156083000Y-51792119D01*
X156083000Y-52347881D01*
X156295680Y-52861337D01*
X156688663Y-53254320D01*
X156895513Y-53340000D01*
X156688663Y-53425680D01*
X156332487Y-53781856D01*
X155067000Y-52516370D01*
X155067000Y-46305039D01*
X155112491Y-46259548D01*
X155257500Y-45909464D01*
X155257500Y-45530536D01*
X155112491Y-45180452D01*
X154844548Y-44912509D01*
X154494464Y-44767500D01*
X154115536Y-44767500D01*
X153765452Y-44912509D01*
X153497509Y-45180452D01*
X153352500Y-45530536D01*
X153352500Y-45909464D01*
X153497509Y-46259548D01*
X153543000Y-46305039D01*
X153543001Y-52756952D01*
X153528073Y-52832000D01*
X153587213Y-53129317D01*
X153700009Y-53298128D01*
X153755630Y-53381371D01*
X153819251Y-53423881D01*
X155491118Y-55095749D01*
X155533629Y-55159371D01*
X155597251Y-55201882D01*
X155633309Y-55225975D01*
X155785683Y-55327788D01*
X156007952Y-55372000D01*
X156007953Y-55372000D01*
X156083000Y-55386928D01*
X156158047Y-55372000D01*
X156283528Y-55372000D01*
X156295680Y-55401337D01*
X156688663Y-55794320D01*
X157202119Y-56007000D01*
X157757881Y-56007000D01*
X158271337Y-55794320D01*
X158489490Y-55576167D01*
X161798000Y-55576167D01*
X161798000Y-55929833D01*
X161933342Y-56256578D01*
X162183422Y-56506658D01*
X162510167Y-56642000D01*
X162863833Y-56642000D01*
X163190578Y-56506658D01*
X163440658Y-56256578D01*
X163576000Y-55929833D01*
X163576000Y-55742788D01*
X164073789Y-55245000D01*
X164133833Y-55245000D01*
X164460578Y-55109658D01*
X164710658Y-54859578D01*
X164846000Y-54532833D01*
X164846000Y-54179167D01*
X164710658Y-53852422D01*
X164460578Y-53602342D01*
X164133833Y-53467000D01*
X163780167Y-53467000D01*
X163453422Y-53602342D01*
X163203342Y-53852422D01*
X163068000Y-54179167D01*
X163068000Y-54239211D01*
X162395867Y-54911344D01*
X162183422Y-54999342D01*
X161933342Y-55249422D01*
X161798000Y-55576167D01*
X158489490Y-55576167D01*
X158664320Y-55401337D01*
X158877000Y-54887881D01*
X158877000Y-54332119D01*
X158664320Y-53818663D01*
X158271337Y-53425680D01*
X158064487Y-53340000D01*
X158271337Y-53254320D01*
X158664320Y-52861337D01*
X158697514Y-52781200D01*
X169855959Y-52781200D01*
X169926000Y-52795132D01*
X169996041Y-52781200D01*
X169996046Y-52781200D01*
X170203496Y-52739936D01*
X170438746Y-52582746D01*
X170478424Y-52523364D01*
X174741789Y-48260000D01*
X174801833Y-48260000D01*
X175128578Y-48124658D01*
X175378658Y-47874578D01*
X175514000Y-47547833D01*
X175514000Y-47194167D01*
X175378658Y-46867422D01*
X175128578Y-46617342D01*
X174893812Y-46520099D01*
X175816311Y-46520099D01*
X176072800Y-46776589D01*
X176072801Y-47457411D01*
X175467033Y-48063179D01*
X175407653Y-48102856D01*
X175367977Y-48162235D01*
X175367975Y-48162237D01*
X175302652Y-48260000D01*
X175250463Y-48338106D01*
X175209199Y-48545556D01*
X175209199Y-48545560D01*
X175195267Y-48615601D01*
X175209199Y-48685642D01*
X175209200Y-55708353D01*
X175195267Y-55778399D01*
X175250464Y-56055895D01*
X175367975Y-56231763D01*
X175367978Y-56231766D01*
X175407654Y-56291145D01*
X175467033Y-56330821D01*
X175752791Y-56616579D01*
X171642493Y-56616579D01*
X171572451Y-56602647D01*
X171502409Y-56616579D01*
X171502405Y-56616579D01*
X171294955Y-56657843D01*
X171059705Y-56815033D01*
X171020027Y-56874415D01*
X170909541Y-56984901D01*
X167036940Y-56984901D01*
X166966898Y-56970969D01*
X166896856Y-56984901D01*
X166896853Y-56984901D01*
X166689403Y-57026165D01*
X166689402Y-57026166D01*
X166689401Y-57026166D01*
X166513534Y-57143677D01*
X166513532Y-57143679D01*
X166454153Y-57183355D01*
X166414477Y-57242734D01*
X165491212Y-58166000D01*
X165431167Y-58166000D01*
X165104422Y-58301342D01*
X164854342Y-58551422D01*
X164719000Y-58878167D01*
X164719000Y-59231833D01*
X164854342Y-59558578D01*
X165104422Y-59808658D01*
X165431167Y-59944000D01*
X165784833Y-59944000D01*
X165989000Y-59859431D01*
X166193167Y-59944000D01*
X166546833Y-59944000D01*
X166751000Y-59859431D01*
X166955167Y-59944000D01*
X167308833Y-59944000D01*
X167512998Y-59859432D01*
X167717163Y-59944000D01*
X168070829Y-59944000D01*
X168397574Y-59808658D01*
X168647654Y-59558578D01*
X168719469Y-59385200D01*
X171633959Y-59385200D01*
X171704000Y-59399132D01*
X171774041Y-59385200D01*
X171774046Y-59385200D01*
X171981496Y-59343936D01*
X172216746Y-59186746D01*
X172256424Y-59127364D01*
X172379588Y-59004200D01*
X177475959Y-59004200D01*
X177546000Y-59018132D01*
X177616041Y-59004200D01*
X177616046Y-59004200D01*
X177823496Y-58962936D01*
X178058746Y-58805746D01*
X178098424Y-58746364D01*
X179706276Y-57138512D01*
X179836422Y-57268658D01*
X180163167Y-57404000D01*
X180170569Y-57404000D01*
X180086000Y-57608167D01*
X180086000Y-57961833D01*
X180221342Y-58288578D01*
X180224488Y-58291724D01*
X175727412Y-62788800D01*
X169227436Y-62788800D01*
X169409658Y-62606578D01*
X169545000Y-62279833D01*
X169545000Y-61926167D01*
X169409658Y-61599422D01*
X169159578Y-61349342D01*
X168832833Y-61214000D01*
X168479167Y-61214000D01*
X168152422Y-61349342D01*
X168109964Y-61391800D01*
X160020000Y-61391800D01*
X160020000Y-61291167D01*
X159884658Y-60964422D01*
X159634578Y-60714342D01*
X159307833Y-60579000D01*
X158954167Y-60579000D01*
X158627422Y-60714342D01*
X158457964Y-60883800D01*
X152311058Y-60883800D01*
X152268600Y-60841342D01*
X151941855Y-60706000D01*
X151588189Y-60706000D01*
X151261444Y-60841342D01*
X151011364Y-61091422D01*
X150876022Y-61418167D01*
X150876022Y-61771833D01*
X151011364Y-62098578D01*
X151261444Y-62348658D01*
X151588189Y-62484000D01*
X151941855Y-62484000D01*
X152268600Y-62348658D01*
X152311058Y-62306200D01*
X153858011Y-62306200D01*
X151648212Y-64516000D01*
X151588167Y-64516000D01*
X151261422Y-64651342D01*
X151011342Y-64901422D01*
X150876000Y-65228167D01*
X128041389Y-65228167D01*
X128041389Y-61995230D01*
X128055321Y-61925188D01*
X128041389Y-61855144D01*
X128041389Y-61855143D01*
X128000125Y-61647693D01*
X127998214Y-61644833D01*
X127882613Y-61471824D01*
X127882609Y-61471820D01*
X127842934Y-61412443D01*
X127783558Y-61372769D01*
X125012424Y-58601636D01*
X124972746Y-58542254D01*
X124737496Y-58385064D01*
X124530046Y-58343800D01*
X124530041Y-58343800D01*
X124460000Y-58329868D01*
X124389959Y-58343800D01*
X120856065Y-58343800D01*
X120886956Y-58323159D01*
X120926634Y-58263777D01*
X121659402Y-57531010D01*
X142246149Y-57531010D01*
X142316190Y-57544942D01*
X142386231Y-57531010D01*
X142386236Y-57531010D01*
X142593686Y-57489746D01*
X142828936Y-57332556D01*
X142868614Y-57273174D01*
X143118788Y-57023000D01*
X143178833Y-57023000D01*
X143505578Y-56887658D01*
X143755658Y-56637578D01*
X143891000Y-56310833D01*
X143891000Y-55957167D01*
X143755658Y-55630422D01*
X143505578Y-55380342D01*
X143178833Y-55245000D01*
X142825167Y-55245000D01*
X142498422Y-55380342D01*
X142248342Y-55630422D01*
X142113000Y-55957167D01*
X142113000Y-56017212D01*
X142021602Y-56108610D01*
X140418864Y-56108610D01*
X140535004Y-55828222D01*
X140535004Y-55474556D01*
X140399662Y-55147811D01*
X140149582Y-54897731D01*
X139822837Y-54762389D01*
X139772497Y-54762389D01*
X139752361Y-54732254D01*
X139517111Y-54575064D01*
X139309661Y-54533800D01*
X139309656Y-54533800D01*
X139239615Y-54519868D01*
X139169574Y-54533800D01*
X136595042Y-54533800D01*
X136525000Y-54519868D01*
X136454958Y-54533800D01*
X136454954Y-54533800D01*
X136247504Y-54575064D01*
X136247502Y-54575065D01*
X136247503Y-54575065D01*
X136071635Y-54692576D01*
X136071633Y-54692578D01*
X136012254Y-54732254D01*
X135972578Y-54791633D01*
X135595412Y-55168800D01*
X134630640Y-55168800D01*
X134747000Y-54887881D01*
X134747000Y-54332119D01*
X134534320Y-53818663D01*
X134141337Y-53425680D01*
X133934487Y-53340000D01*
X134141337Y-53254320D01*
X134534320Y-52861337D01*
X134567514Y-52781200D01*
X135851964Y-52781200D01*
X135894422Y-52823658D01*
X136221167Y-52959000D01*
X136574833Y-52959000D01*
X136901578Y-52823658D01*
X137151658Y-52573578D01*
X137287000Y-52246833D01*
X137287000Y-51893167D01*
X137151658Y-51566422D01*
X136901578Y-51316342D01*
X136574833Y-51181000D01*
X136221167Y-51181000D01*
X135894422Y-51316342D01*
X135851964Y-51358800D01*
X134567514Y-51358800D01*
X134534320Y-51278663D01*
X134141337Y-50885680D01*
X133934487Y-50800000D01*
X134141337Y-50714320D01*
X134534320Y-50321337D01*
X134567514Y-50241200D01*
X135851964Y-50241200D01*
X135894422Y-50283658D01*
X136221167Y-50419000D01*
X136574833Y-50419000D01*
X136901578Y-50283658D01*
X137151658Y-50033578D01*
X137287000Y-49706833D01*
X137287000Y-49353167D01*
X137151658Y-49026422D01*
X136901578Y-48776342D01*
X136574833Y-48641000D01*
X136221167Y-48641000D01*
X135894422Y-48776342D01*
X135851964Y-48818800D01*
X134567514Y-48818800D01*
X134534320Y-48738663D01*
X134141337Y-48345680D01*
X133934487Y-48260000D01*
X134141337Y-48174320D01*
X134534320Y-47781337D01*
X134567514Y-47701200D01*
X135851964Y-47701200D01*
X135894422Y-47743658D01*
X136221167Y-47879000D01*
X136574833Y-47879000D01*
X136901578Y-47743658D01*
X137151658Y-47493578D01*
X137287000Y-47166833D01*
X137287000Y-46813167D01*
X137151658Y-46486422D01*
X136901578Y-46236342D01*
X136574833Y-46101000D01*
X136221167Y-46101000D01*
X135894422Y-46236342D01*
X135851964Y-46278800D01*
X134567514Y-46278800D01*
X134534320Y-46198663D01*
X134141337Y-45805680D01*
X133934487Y-45720000D01*
X134141337Y-45634320D01*
X134534320Y-45241337D01*
X134567514Y-45161200D01*
X135851960Y-45161200D01*
X135894422Y-45203662D01*
X136221167Y-45339004D01*
X136574833Y-45339004D01*
X136901578Y-45203662D01*
X137151658Y-44953582D01*
X137287000Y-44626837D01*
X137287000Y-44273171D01*
X137151658Y-43946426D01*
X136901578Y-43696346D01*
X136574833Y-43561004D01*
X136221167Y-43561004D01*
X135894422Y-43696346D01*
X135851968Y-43738800D01*
X134567514Y-43738800D01*
X134534320Y-43658663D01*
X134141337Y-43265680D01*
X133934487Y-43180000D01*
X134141337Y-43094320D01*
X134534320Y-42701337D01*
X134567514Y-42621200D01*
X135851964Y-42621200D01*
X135894422Y-42663658D01*
X136221167Y-42799000D01*
X136574833Y-42799000D01*
X136901578Y-42663658D01*
X137151658Y-42413578D01*
X137287000Y-42086833D01*
X137287000Y-41733167D01*
X137274216Y-41702302D01*
X156070856Y-41702302D01*
X156098638Y-42257368D01*
X156257603Y-42641143D01*
X156499787Y-42710608D01*
X157300395Y-41910000D01*
X157659605Y-41910000D01*
X158460213Y-42710608D01*
X158702397Y-42641143D01*
X158889144Y-42117698D01*
X158868709Y-41709417D01*
X178157250Y-41709417D01*
X178157250Y-42063083D01*
X178292592Y-42389828D01*
X178542672Y-42639908D01*
X178869417Y-42775250D01*
X178915486Y-42775250D01*
X178821080Y-43003167D01*
X178821080Y-43356833D01*
X178956422Y-43683578D01*
X179206502Y-43933658D01*
X179533247Y-44069000D01*
X179886913Y-44069000D01*
X180213658Y-43933658D01*
X180463738Y-43683578D01*
X180599080Y-43356833D01*
X180599080Y-43003167D01*
X180463738Y-42676422D01*
X180421280Y-42633964D01*
X180421280Y-42620121D01*
X180435212Y-42550079D01*
X180421280Y-42480035D01*
X180421280Y-42480034D01*
X180380016Y-42272584D01*
X180369849Y-42257368D01*
X180262504Y-42096715D01*
X180262500Y-42096711D01*
X180222825Y-42037334D01*
X180163449Y-41997660D01*
X179935250Y-41769461D01*
X179935250Y-41709417D01*
X179799908Y-41382672D01*
X179549828Y-41132592D01*
X179223083Y-40997250D01*
X178869417Y-40997250D01*
X178542672Y-41132592D01*
X178292592Y-41382672D01*
X178157250Y-41709417D01*
X158868709Y-41709417D01*
X158861362Y-41562632D01*
X158702397Y-41178857D01*
X158460213Y-41109392D01*
X157659605Y-41910000D01*
X157300395Y-41910000D01*
X156499787Y-41109392D01*
X156257603Y-41178857D01*
X156070856Y-41702302D01*
X137274216Y-41702302D01*
X137151658Y-41406422D01*
X136901578Y-41156342D01*
X136574833Y-41021000D01*
X136221167Y-41021000D01*
X135894422Y-41156342D01*
X135851964Y-41198800D01*
X134567514Y-41198800D01*
X134534320Y-41118663D01*
X134345444Y-40929787D01*
X156679392Y-40929787D01*
X157480000Y-41730395D01*
X158280608Y-40929787D01*
X158211143Y-40687603D01*
X157687698Y-40500856D01*
X157132632Y-40528638D01*
X156748857Y-40687603D01*
X156679392Y-40929787D01*
X134345444Y-40929787D01*
X134141337Y-40725680D01*
X133950353Y-40646572D01*
X134081143Y-40592397D01*
X134150608Y-40350213D01*
X133350000Y-39549605D01*
X132549392Y-40350213D01*
X132618857Y-40592397D01*
X132759393Y-40642535D01*
X132558663Y-40725680D01*
X132165680Y-41118663D01*
X131953000Y-41632119D01*
X131953000Y-42187881D01*
X132165680Y-42701337D01*
X132558663Y-43094320D01*
X132765513Y-43180000D01*
X132558663Y-43265680D01*
X132165680Y-43658663D01*
X131953000Y-44172119D01*
X131953000Y-44727881D01*
X132165680Y-45241337D01*
X132558663Y-45634320D01*
X132765513Y-45720000D01*
X132558663Y-45805680D01*
X132165680Y-46198663D01*
X131953000Y-46712119D01*
X131953000Y-47267881D01*
X132165680Y-47781337D01*
X132558663Y-48174320D01*
X132765513Y-48260000D01*
X132558663Y-48345680D01*
X132165680Y-48738663D01*
X131953000Y-49252119D01*
X131953000Y-49807881D01*
X132165680Y-50321337D01*
X132558663Y-50714320D01*
X132765513Y-50800000D01*
X132558663Y-50885680D01*
X132165680Y-51278663D01*
X131953000Y-51792119D01*
X131953000Y-52347881D01*
X132165680Y-52861337D01*
X132558663Y-53254320D01*
X132765513Y-53340000D01*
X132558663Y-53425680D01*
X132165680Y-53818663D01*
X131953000Y-54332119D01*
X131953000Y-54887881D01*
X132069360Y-55168800D01*
X127294589Y-55168800D01*
X127254000Y-55128211D01*
X127254000Y-55068167D01*
X127118658Y-54741422D01*
X126868578Y-54491342D01*
X126541833Y-54356000D01*
X126188167Y-54356000D01*
X125861422Y-54491342D01*
X125611342Y-54741422D01*
X125476000Y-55068167D01*
X125476000Y-55421833D01*
X125497447Y-55473611D01*
X122043620Y-55473611D01*
X122013701Y-55401379D01*
X121763621Y-55151299D01*
X121436876Y-55015957D01*
X121083210Y-55015957D01*
X120756465Y-55151299D01*
X120506385Y-55401379D01*
X120371043Y-55728124D01*
X120371043Y-55846040D01*
X120355383Y-55856504D01*
X120196635Y-55962576D01*
X120196633Y-55962578D01*
X120137254Y-56002254D01*
X120097578Y-56061633D01*
X119898211Y-56261000D01*
X119838167Y-56261000D01*
X119511422Y-56396342D01*
X119261342Y-56646422D01*
X119126000Y-56973167D01*
X119126000Y-57326833D01*
X119189529Y-57480206D01*
X119126000Y-57633580D01*
X119126000Y-57987246D01*
X119261342Y-58313991D01*
X119380058Y-58432707D01*
X119261342Y-58551422D01*
X119126000Y-58878167D01*
X119126000Y-59231833D01*
X119189527Y-59385201D01*
X119126000Y-59538570D01*
X119126000Y-59892236D01*
X119261342Y-60218981D01*
X119511422Y-60469061D01*
X119838167Y-60604403D01*
X120191833Y-60604403D01*
X120518578Y-60469061D01*
X120561036Y-60426603D01*
X122466175Y-60426603D01*
X122436349Y-60456429D01*
X122301007Y-60783174D01*
X122301007Y-60843218D01*
X115910426Y-67233800D01*
X105357514Y-67233800D01*
X105324320Y-67153663D01*
X104931337Y-66760680D01*
X104724487Y-66675000D01*
X104931337Y-66589320D01*
X105324320Y-66196337D01*
X105357514Y-66116200D01*
X112735412Y-66116200D01*
X112776000Y-66156788D01*
X112776000Y-66216833D01*
X112911342Y-66543578D01*
X113161422Y-66793658D01*
X113488167Y-66929000D01*
X113841833Y-66929000D01*
X114168578Y-66793658D01*
X114418658Y-66543578D01*
X114554000Y-66216833D01*
X114554000Y-65863167D01*
X114681000Y-65863167D01*
X114681000Y-66216833D01*
X114816342Y-66543578D01*
X115066422Y-66793658D01*
X115393167Y-66929000D01*
X115746833Y-66929000D01*
X116073578Y-66793658D01*
X116323658Y-66543578D01*
X116459000Y-66216833D01*
X116459000Y-65863167D01*
X116324058Y-65537388D01*
X116757424Y-65104023D01*
X116757426Y-65104020D01*
X118825026Y-63036421D01*
X118884404Y-62996746D01*
X118924079Y-62937368D01*
X118924082Y-62937365D01*
X119041593Y-62761498D01*
X119096790Y-62484001D01*
X119095520Y-62477613D01*
X119075200Y-62375458D01*
X119075200Y-55664036D01*
X119117658Y-55621578D01*
X119253000Y-55294833D01*
X119253000Y-54941167D01*
X119117658Y-54614422D01*
X118867578Y-54364342D01*
X118540833Y-54229000D01*
X118187167Y-54229000D01*
X117860422Y-54364342D01*
X117610342Y-54614422D01*
X117475000Y-54941167D01*
X117475000Y-55294833D01*
X117610342Y-55621578D01*
X117652800Y-55664036D01*
X117652801Y-62197068D01*
X115751638Y-64098232D01*
X115751635Y-64098234D01*
X115116634Y-64733236D01*
X115057255Y-64772912D01*
X115017579Y-64832291D01*
X115017576Y-64832294D01*
X114904685Y-65001247D01*
X114900065Y-65008162D01*
X114858800Y-65215612D01*
X114858800Y-65215617D01*
X114844868Y-65285658D01*
X114858800Y-65355699D01*
X114858800Y-65493964D01*
X114816342Y-65536422D01*
X114681000Y-65863167D01*
X114554000Y-65863167D01*
X114418658Y-65536422D01*
X114168578Y-65286342D01*
X113841833Y-65151000D01*
X113781788Y-65151000D01*
X113582423Y-64951635D01*
X113542746Y-64892254D01*
X113307496Y-64735064D01*
X113100046Y-64693800D01*
X113100041Y-64693800D01*
X113030000Y-64679868D01*
X112959959Y-64693800D01*
X105357514Y-64693800D01*
X105324320Y-64613663D01*
X104931337Y-64220680D01*
X104417881Y-64008000D01*
X103862119Y-64008000D01*
X103348663Y-64220680D01*
X102955680Y-64613663D01*
X102743000Y-65127119D01*
X101127000Y-65127119D01*
X101127000Y-58878159D01*
X114046000Y-58878159D01*
X114046000Y-59231825D01*
X114181342Y-59558570D01*
X114431422Y-59808650D01*
X114758167Y-59943992D01*
X115111833Y-59943992D01*
X115438578Y-59808650D01*
X115688658Y-59558570D01*
X115824000Y-59231825D01*
X115824000Y-59171788D01*
X116321789Y-58674000D01*
X116381833Y-58674000D01*
X116708578Y-58538658D01*
X116958658Y-58288578D01*
X117094000Y-57961833D01*
X117094000Y-57608167D01*
X116958658Y-57281422D01*
X116708578Y-57031342D01*
X116381833Y-56896000D01*
X116028167Y-56896000D01*
X115701422Y-57031342D01*
X115451342Y-57281422D01*
X115316000Y-57608167D01*
X115316000Y-57668211D01*
X114818220Y-58165992D01*
X114758167Y-58165992D01*
X114431422Y-58301334D01*
X114181342Y-58551414D01*
X114046000Y-58878159D01*
X101127000Y-58878159D01*
X101127000Y-46559167D01*
X128524000Y-46559167D01*
X128524000Y-46912833D01*
X128659342Y-47239578D01*
X128909422Y-47489658D01*
X129236167Y-47625000D01*
X129296212Y-47625000D01*
X129677211Y-48006000D01*
X129363167Y-48006000D01*
X129036422Y-48141342D01*
X128786342Y-48391422D01*
X128651000Y-48718167D01*
X128651000Y-49071833D01*
X128786342Y-49398578D01*
X128828800Y-49441036D01*
X128828801Y-52311353D01*
X128786342Y-52353812D01*
X128651000Y-52680557D01*
X128651000Y-53034223D01*
X128786342Y-53360968D01*
X129036422Y-53611048D01*
X129363167Y-53746390D01*
X129716833Y-53746390D01*
X130043578Y-53611048D01*
X130064122Y-53590504D01*
X130379167Y-53721000D01*
X130732833Y-53721000D01*
X131059578Y-53585658D01*
X131309658Y-53335578D01*
X131445000Y-53008833D01*
X131445000Y-52655167D01*
X131309658Y-52328422D01*
X131267200Y-52285964D01*
X131267200Y-47949041D01*
X131281132Y-47878999D01*
X131267200Y-47808957D01*
X131267200Y-47808954D01*
X131225936Y-47601504D01*
X131190074Y-47547833D01*
X131108424Y-47425635D01*
X131108422Y-47425633D01*
X131068746Y-47366254D01*
X131009367Y-47326578D01*
X130302000Y-46619212D01*
X130302000Y-46559167D01*
X130166658Y-46232422D01*
X129916578Y-45982342D01*
X129589833Y-45847000D01*
X129236167Y-45847000D01*
X128909422Y-45982342D01*
X128659342Y-46232422D01*
X128524000Y-46559167D01*
X101127000Y-46559167D01*
X101127000Y-39180536D01*
X103187500Y-39180536D01*
X103187500Y-39559464D01*
X103314501Y-39866072D01*
X103314500Y-41413929D01*
X103187500Y-41720536D01*
X103187500Y-42099464D01*
X103332509Y-42449548D01*
X103600452Y-42717491D01*
X103950536Y-42862500D01*
X104329464Y-42862500D01*
X104679548Y-42717491D01*
X104947491Y-42449548D01*
X105092500Y-42099464D01*
X105092500Y-41720536D01*
X104965500Y-41413930D01*
X104965500Y-39866070D01*
X105092500Y-39559464D01*
X105092500Y-39180536D01*
X105084948Y-39162302D01*
X131940856Y-39162302D01*
X131968638Y-39717368D01*
X132127603Y-40101143D01*
X132369787Y-40170608D01*
X133170395Y-39370000D01*
X133529605Y-39370000D01*
X134330213Y-40170608D01*
X134572397Y-40101143D01*
X134759144Y-39577698D01*
X134731362Y-39022632D01*
X134572397Y-38638857D01*
X134330213Y-38569392D01*
X133529605Y-39370000D01*
X133170395Y-39370000D01*
X132369787Y-38569392D01*
X132127603Y-38638857D01*
X131940856Y-39162302D01*
X105084948Y-39162302D01*
X104947491Y-38830452D01*
X104679548Y-38562509D01*
X104329464Y-38417500D01*
X103950536Y-38417500D01*
X103600452Y-38562509D01*
X103332509Y-38830452D01*
X103187500Y-39180536D01*
X101127000Y-39180536D01*
X101127000Y-38389787D01*
X132549392Y-38389787D01*
X133350000Y-39190395D01*
X134150608Y-38389787D01*
X134081143Y-38147603D01*
X133557698Y-37960856D01*
X133002632Y-37988638D01*
X132618857Y-38147603D01*
X132549392Y-38389787D01*
X101127000Y-38389787D01*
X101127000Y-31127000D01*
X172630961Y-31127000D01*
X172547509Y-31210452D01*
M02*
