M48
;DRILL file {KiCad (5.0.0-rc2-dev-319-g0ded476)} date Tuesday, April 17, 2018 at 05:50:43 PM
;FORMAT={-:-/ absolute / inch / decimal}
FMAT,2
INCH,TZ
T1C0.0100
T2C0.0150
T3C0.0394
T4C0.0433
%
G90
G05
M72
T1
X4.475Y-2.6
X4.525Y-2.325
X4.55Y-2.6
X4.575Y-2.275
X4.66Y-2.17
X4.725Y-2.25
X4.725Y-2.276
X4.725Y-2.325
X4.725Y-2.351
X4.774Y-2.201
X4.85Y-2.4
X4.975Y-2.175
X5.095Y-1.84
X5.1Y-1.925
X5.1Y-2.081
X5.14Y-2.08
X5.37Y-1.65
X5.37Y-1.75
X5.37Y-1.85
X5.37Y-1.95
X5.37Y-2.05
X5.4Y-2.206
X5.4509Y-2.2009
X5.4979Y-2.191
X5.63Y-2.21
X5.975Y-2.575
X5.975Y-2.425
X6.265Y-2.42
X6.405Y-2.195
X6.455Y-2.14
X6.46Y-2.5
X6.475Y-1.775
X6.49Y-2.525
X6.52Y-2.325
X6.55Y-2.325
X6.58Y-2.325
X6.61Y-2.325
X6.64Y-2.445
X6.8Y-1.85
X6.845Y-1.855
X6.875Y-1.865
X6.945Y-1.965
X6.965Y-2.235
X6.9755Y-1.9753
X7.0015Y-1.975
X7.0274Y-1.9745
X7.0491Y-1.6491
X7.05Y-1.45
X7.075Y-1.95
X7.0752Y-1.7
X7.1Y-2.18
X7.1Y-2.225
X7.125Y-2.45
X7.125Y-2.275
X7.15Y-1.95
X7.15Y-2.425
X7.1575Y-2.1175
X7.1904Y-1.8392
X7.21Y-1.79
X7.21Y-2.18
X7.2196Y-2.2965
X7.25Y-1.71
X7.2694Y-2.4988
X7.27Y-3.86
X7.275Y-3.925
X7.31Y-3.93
X7.3209Y-2.4691
X7.325Y-2.5
X7.33Y-3.8
X7.35Y-3.75
X7.35Y-3.825
X7.375Y-3.85
X7.451Y-2.115
X7.49Y-2.365
X7.49Y-2.47
X7.49Y-3.69
X7.5Y-3.58
X7.5Y-3.35
X7.51Y-2.335
X7.51Y-3.62
X7.5144Y-2.0437
X7.52Y-2.12
X7.52Y-2.15
X7.52Y-2.19
X7.5292Y-2.24
X7.5365Y-2.082
X7.54Y-2.41
X7.5444Y-2.199
X7.5491Y-3.3759
X7.55Y-2.
X7.5622Y-2.218
X7.57Y-2.51
X7.6Y-2.155
X7.61Y-2.
X7.61Y-2.06
X7.6134Y-2.1166
X7.625Y-3.8
X7.63Y-2.08
X7.64Y-2.155
X7.725Y-3.33
X7.74Y-3.63
X7.745Y-3.52
X7.76Y-1.52
X7.78Y-4.02
X7.79Y-1.52
X7.814Y-1.51
X7.82Y-4.02
X7.84Y-1.51
X7.84Y-1.42
X7.88Y-1.53
X7.92Y-1.53
X7.92Y-4.02
X7.98Y-3.86
X7.98Y-4.02
X8.01Y-2.48
X8.01Y-2.67
X8.17Y-1.4
X8.17Y-1.35
X8.17Y-1.45
X8.17Y-1.5
X8.17Y-1.68
X8.1709Y-1.7253
T2
X4.1Y-1.55
X4.1Y-1.65
X4.185Y-2.095
X4.185Y-2.27
X4.185Y-2.34
X4.195Y-1.95
X4.32Y-1.95
X4.5Y-2.025
X4.525Y-2.425
X4.75Y-2.
X4.825Y-2.675
X4.845Y-1.575
X4.875Y-2.7
X4.975Y-2.025
X5.075Y-2.6
X5.075Y-2.925
X5.2Y-2.3
X5.475Y-2.275
X5.475Y-2.6
X5.475Y-2.925
X5.6815Y-2.51
X5.775Y-2.875
X6.075Y-1.8
X6.15Y-2.625
X6.46Y-1.72
X6.65Y-2.175
X6.705Y-2.235
X6.725Y-2.575
X6.725Y-2.725
X6.725Y-2.9
X6.825Y-1.25
X6.825Y-1.3
X6.975Y-1.45
X6.975Y-2.575
X7.Y-1.675
X7.05Y-2.9
X7.1Y-2.575
X7.125Y-2.5
X7.225Y-1.575
X7.3Y-3.65
X7.35Y-1.35
X7.375Y-2.575
X7.375Y-2.725
X7.375Y-2.9
X7.4248Y-1.3991
X7.425Y-1.25
X7.425Y-1.3
X7.475Y-2.85
X7.5172Y-2.2989
X7.55Y-1.95
X7.675Y-4.025
X7.775Y-3.125
X7.875Y-3.4
X7.925Y-3.25
X7.975Y-3.475
X8.Y-3.8
X8.16Y-3.82
X8.2Y-1.25
X8.2Y-3.475
X8.225Y-1.3
X8.375Y-2.85
X8.625Y-1.525
X8.625Y-1.625
X8.725Y-1.85
X8.775Y-1.85
T3
X7.9Y-1.675
X7.9Y-1.775
X7.9Y-1.875
X7.9Y-1.975
X7.9Y-2.075
X7.9Y-2.175
X7.125Y-3.025
X7.225Y-3.025
X7.325Y-3.025
X7.425Y-3.025
X7.9Y-2.375
X7.9Y-2.475
X7.9Y-2.575
X7.9Y-2.675
X7.9Y-2.775
X7.9Y-2.875
X7.7Y-2.275
X7.7Y-2.375
X7.7Y-2.475
X7.7Y-2.575
X7.7Y-2.675
X7.7Y-2.775
X7.7Y-2.875
X6.925Y-3.525
X6.925Y-3.625
X6.925Y-3.725
X6.925Y-3.825
X6.925Y-3.925
X6.925Y-4.025
X4.1Y-2.575
X4.1Y-2.675
X4.1Y-2.775
X4.1Y-2.875
X4.1Y-2.975
X4.1Y-3.075
X7.2Y-3.275
X7.3Y-3.275
X7.4Y-3.275
X6.2Y-1.65
X6.2Y-1.75
X6.2Y-1.85
X6.2Y-1.95
X6.2Y-2.05
X6.2Y-2.15
X7.7Y-4.15
X7.7Y-4.25
X7.8Y-4.15
X7.8Y-4.25
X7.9Y-4.15
X7.9Y-4.25
X8.Y-4.15
X8.Y-4.25
X8.1Y-4.15
X8.1Y-4.25
X8.2Y-4.15
X8.2Y-4.25
X5.25Y-1.55
X5.25Y-1.65
X5.25Y-1.75
X5.25Y-1.85
X5.25Y-1.95
X5.25Y-2.05
X5.25Y-2.15
X8.45Y-3.525
X8.45Y-3.625
X8.45Y-3.725
X8.45Y-3.825
X8.45Y-3.925
X8.45Y-4.025
X6.8Y-3.275
X6.9Y-3.275
X7.Y-3.275
X8.297Y-2.275
X8.553Y-2.275
X5.25Y-3.1
X5.25Y-3.2
X5.25Y-3.3
X5.25Y-3.4
X6.2Y-3.1
X6.2Y-3.2
X6.2Y-3.3
X6.2Y-3.4
X6.8Y-4.15
X6.8Y-4.25
X6.9Y-4.15
X6.9Y-4.25
X7.Y-4.15
X7.Y-4.25
X7.1Y-4.15
X7.1Y-4.25
X7.2Y-4.15
X7.2Y-4.25
X7.3Y-4.15
X7.3Y-4.25
X7.45Y-4.25
X7.55Y-4.25
T4
X4.5272Y-3.0177
X4.5272Y-3.1949
X4.7831Y-3.0177
X4.7831Y-3.1949
T0
M30
